<svg width="145" height="23" viewBox="0 0 145 23" fill="none" xmlns="http://www.w3.org/2000/svg">
<path d="M13.0897 16.732C12.9937 16.18 12.9337 15.652 12.9097 15.148C12.8857 14.644 12.8137 14.164 12.6937 13.708C12.5737 13.228 12.3577 12.784 12.0457 12.376C11.7577 11.968 11.3017 11.584 10.6777 11.224C10.4137 11.056 10.1257 10.924 9.81373 10.828C9.52573 10.708 9.20173 10.528 8.84173 10.288L7.79773 10.108L10.5337 8.056L11.1457 6.868L11.9377 5.644L11.4697 3.052L9.81373 1.576L6.06973 1L5.27773 1.072L5.20573 0.891999H1.71373H1.10173L0.849735 1.972V4.492L1.53373 4.672L2.75773 4.492L7.25773 4.708C7.80973 4.756 8.19373 4.888 8.40973 5.104C8.62573 5.296 8.73373 5.488 8.73373 5.68C8.73373 6.016 8.49373 6.376 8.01374 6.76C7.55773 7.144 7.01773 7.516 6.39373 7.876C5.76973 8.212 5.12173 8.512 4.44973 8.776C3.80173 9.04 3.26173 9.232 2.82973 9.352L1.96573 9.712V10.324V11.476C1.96573 11.668 1.97773 11.86 2.00173 12.052C2.04973 12.244 2.13373 12.472 2.25373 12.736L4.84573 13.168L7.90573 14.212C8.36173 14.644 8.58973 15.112 8.58973 15.616C8.58973 16.48 8.16973 17.008 7.32973 17.2L4.01773 18.136H0.633734V20.728L0.885735 21.268V22.132L1.56973 22.456L6.93374 21.7L8.22973 21.304L9.66973 20.8L12.1177 18.604L13.0897 16.732ZM43.3663 16.048C43.2463 15.76 43.1623 15.556 43.1143 15.436C43.0903 15.316 43.0783 15.232 43.0783 15.184C42.7423 15.184 42.4543 15.184 42.2143 15.184C41.9983 15.16 41.7943 15.148 41.6023 15.148L40.0903 15.076C39.3943 15.1 38.7943 15.136 38.2903 15.184C37.7863 15.208 37.2223 15.22 36.5983 15.22C36.3103 15.172 36.0823 15.136 35.9143 15.112C35.7463 15.088 35.5903 15.064 35.4463 15.04C35.3263 15.016 35.2063 14.992 35.0863 14.968C34.9663 14.92 34.8223 14.86 34.6543 14.788C34.6303 14.812 34.5943 14.824 34.5463 14.824C34.3063 14.824 34.0663 14.74 33.8263 14.572C33.6103 14.404 33.4063 14.188 33.2143 13.924C33.0223 13.66 32.8663 13.36 32.7463 13.024C32.6503 12.664 32.6023 12.28 32.6023 11.872C32.6023 11.512 32.6623 11.224 32.7823 11.008C32.9023 10.792 33.0463 10.588 33.2143 10.396C33.4063 10.204 33.5983 10.012 33.7903 9.82C33.9823 9.628 34.1503 9.364 34.2943 9.028C34.4623 8.908 34.5823 8.836 34.6543 8.812L34.8343 8.668C34.8343 8.668 34.8823 8.62 34.9783 8.524C35.0743 8.428 35.1823 8.32 35.3023 8.2C35.4463 8.08 35.5783 7.972 35.6983 7.876C35.8423 7.756 35.9383 7.696 35.9863 7.696C36.1303 7.624 36.3343 7.54 36.5983 7.444C36.8863 7.348 37.1623 7.264 37.4263 7.192C37.6903 7.12 37.9303 7.06 38.1463 7.012C38.3623 6.964 38.5183 6.94 38.6143 6.94C38.7823 6.988 38.9023 7.036 38.9743 7.084C39.0703 7.108 39.1303 7.12 39.1543 7.12C39.4663 7.12 39.7303 7.108 39.9463 7.084C40.1863 7.036 40.4143 7.012 40.6303 7.012L41.8183 6.904L42.5023 5.248C42.4783 5.104 42.4663 4.948 42.4663 4.78C42.4903 4.588 42.4903 4.408 42.4663 4.24C42.4423 4.048 42.4063 3.88 42.3583 3.736C42.3343 3.568 42.2503 3.412 42.1063 3.268H39.5143C39.1303 3.268 38.7343 3.268 38.3263 3.268C37.9423 3.244 37.4983 3.232 36.9943 3.232L36.0223 3.52C35.6623 3.52 35.2903 3.58 34.9063 3.7C34.5463 3.796 34.1983 3.916 33.8623 4.06C33.5263 4.204 33.2263 4.348 32.9623 4.492C32.6983 4.636 32.5303 4.744 32.4583 4.816C31.9783 5.224 31.5703 5.596 31.2343 5.932C30.8983 6.244 30.5863 6.58 30.2983 6.94C30.0343 7.3 29.7823 7.696 29.5423 8.128C29.3023 8.536 29.0383 9.04 28.7503 9.64C28.5823 10 28.4743 10.384 28.4263 10.792C28.3783 11.176 28.3543 11.584 28.3543 12.016C28.3543 12.784 28.4143 13.384 28.5343 13.816C28.6783 14.224 28.8223 14.548 28.9663 14.788C29.1103 15.004 29.2423 15.172 29.3623 15.292C29.5063 15.412 29.5783 15.556 29.5783 15.724L30.4063 16.48L30.8383 16.588C31.2463 16.708 31.5463 16.816 31.7383 16.912C31.9543 17.008 32.1343 17.092 32.2783 17.164C32.4223 17.212 32.5543 17.272 32.6743 17.344C32.8183 17.416 33.0343 17.5 33.3223 17.596C33.4183 17.62 33.5023 17.644 33.5743 17.668C33.6703 17.668 33.7663 17.668 33.8623 17.668C34.0543 17.668 34.2343 17.656 34.4023 17.632C34.5943 17.608 34.8103 17.596 35.0503 17.596C35.2423 17.596 35.4463 17.608 35.6623 17.632C35.8783 17.632 36.1423 17.656 36.4543 17.704C37.1263 17.704 37.6903 17.704 38.1463 17.704C38.6023 17.704 39.0343 17.704 39.4423 17.704C39.8743 17.68 40.3183 17.668 40.7743 17.668C41.2543 17.644 41.8303 17.62 42.5023 17.596L42.8623 17.272C42.9823 17.176 43.0663 17.116 43.1143 17.092C43.1863 17.068 43.3423 16.936 43.5823 16.696L43.8343 16.444C43.8103 16.444 43.7263 16.432 43.5823 16.408C43.4383 16.36 43.3663 16.24 43.3663 16.048ZM48.642 6.112C48.81 6.112 48.954 6.184 49.074 6.328C49.218 6.472 49.338 6.64 49.434 6.832C49.554 7.024 49.662 7.192 49.758 7.336C49.854 7.48 49.938 7.552 50.01 7.552C50.25 7.504 50.61 7.408 51.09 7.264C51.594 7.096 52.134 6.928 52.71 6.76C53.31 6.592 53.886 6.448 54.438 6.328C55.014 6.208 55.482 6.148 55.842 6.148C56.034 6.148 56.166 6.184 56.238 6.256C56.334 6.328 56.394 6.412 56.418 6.508C56.442 6.604 56.466 6.7 56.49 6.796C56.538 6.868 56.622 6.928 56.742 6.976C56.79 7.048 56.862 7.12 56.958 7.192C57.054 7.24 57.102 7.336 57.102 7.48C56.982 7.768 56.91 8.044 56.886 8.308C56.862 8.548 56.85 8.776 56.85 8.992V9.208L55.806 9.28C55.638 9.304 55.47 9.328 55.302 9.352C55.134 9.352 54.942 9.352 54.726 9.352L53.646 9.964C53.334 9.964 53.07 10 52.854 10.072C52.638 10.12 52.41 10.204 52.17 10.324C51.954 10.42 51.702 10.528 51.414 10.648C51.126 10.768 50.742 10.888 50.262 11.008C49.11 11.584 48.246 12.28 47.67 13.096C47.118 13.912 46.842 14.92 46.842 16.12C46.842 16.504 46.974 16.888 47.238 17.272C47.502 17.632 47.826 17.968 48.21 18.28C48.594 18.568 48.99 18.808 49.398 19C49.806 19.168 50.166 19.252 50.478 19.252C50.838 19.252 51.174 19.252 51.486 19.252C51.798 19.276 52.11 19.288 52.422 19.288H54.402H54.438C54.486 19.288 54.522 19.252 54.546 19.18C54.594 19.132 54.642 19.072 54.69 19C54.762 18.904 54.87 18.832 55.014 18.784C55.182 18.712 55.41 18.676 55.698 18.676C56.01 18.676 56.334 18.772 56.67 18.964C57.006 19.132 57.294 19.216 57.534 19.216C57.726 19.216 57.906 19.204 58.074 19.18C58.242 19.156 58.41 19.12 58.578 19.072C58.77 19.024 58.986 18.988 59.226 18.964C59.466 18.916 59.742 18.892 60.054 18.892C60.126 19.012 60.258 19.12 60.45 19.216H60.954C60.978 19.096 61.026 18.988 61.098 18.892C61.17 18.772 61.254 18.616 61.35 18.424C61.326 17.872 61.29 17.38 61.242 16.948C61.218 16.516 61.194 16.108 61.17 15.724C61.17 15.316 61.158 14.896 61.134 14.464C61.134 14.032 61.122 13.54 61.098 12.988H61.206C61.23 12.964 61.254 12.952 61.278 12.952C61.206 12.952 61.146 12.856 61.098 12.664C61.05 12.472 61.014 12.28 60.99 12.088C60.966 11.872 60.942 11.68 60.918 11.512C60.918 11.32 60.918 11.224 60.918 11.224C60.894 11.032 60.846 10.888 60.774 10.792C60.726 10.672 60.666 10.54 60.594 10.396C60.546 10.228 60.486 10 60.414 9.712C60.366 9.424 60.33 8.956 60.306 8.308C60.234 8.26 60.174 8.116 60.126 7.876C60.078 7.636 60.03 7.384 59.982 7.12C59.958 6.832 59.934 6.568 59.91 6.328C59.91 6.064 59.898 5.908 59.874 5.86H59.802C59.61 5.86 59.454 5.752 59.334 5.536C59.214 5.32 59.106 5.08 59.01 4.816C58.914 4.552 58.83 4.324 58.758 4.132C58.686 3.916 58.602 3.808 58.506 3.808C58.458 3.76 58.41 3.712 58.362 3.664C58.314 3.592 58.266 3.532 58.218 3.484H57.642C57.402 3.484 57.198 3.484 57.03 3.484C56.886 3.484 56.742 3.484 56.598 3.484C56.478 3.484 56.346 3.472 56.202 3.448C56.058 3.424 55.878 3.388 55.662 3.34C55.638 3.46 55.494 3.544 55.23 3.592C54.99 3.616 54.714 3.628 54.402 3.628C54.114 3.628 53.838 3.628 53.574 3.628C53.334 3.628 53.202 3.664 53.178 3.736C52.53 3.952 51.942 4.132 51.414 4.276C50.886 4.42 50.442 4.576 50.082 4.744C49.722 4.888 49.422 5.068 49.182 5.284C48.942 5.476 48.762 5.752 48.642 6.112ZM56.454 12.16V13.996C56.334 14.38 56.262 14.776 56.238 15.184C56.214 15.592 56.202 15.892 56.202 16.084V16.372H55.698C55.218 16.42 54.774 16.456 54.366 16.48C53.958 16.504 53.562 16.528 53.178 16.552L50.658 16.696C50.49 16.408 50.346 16.18 50.226 16.012C50.13 15.844 50.082 15.592 50.082 15.256C50.082 14.584 50.166 14.056 50.334 13.672C50.526 13.288 50.778 13 51.09 12.808C51.426 12.592 51.81 12.436 52.242 12.34C52.674 12.244 53.13 12.136 53.61 12.016C53.85 11.944 54.066 11.884 54.258 11.836C54.474 11.788 54.678 11.764 54.87 11.764H55.014C55.254 11.836 55.494 11.908 55.734 11.98C55.998 12.052 56.238 12.112 56.454 12.16ZM84.3281 14.968L84.2201 8.272C84.0521 7.888 83.8601 7.516 83.6441 7.156C83.4281 6.796 83.1401 6.532 82.7801 6.364L79.2521 6.292L78.1361 6.4L77.7041 6.652L76.8401 6.796L75.1121 5.752L73.1681 5.608L71.0441 6.364L70.6121 6.256L70.4321 5.932L69.5321 5.32L68.7401 5.428L67.1201 5.032L66.4001 6.4L66.1121 9.46V15.796L67.9841 15.94L68.4881 15.688H70.3961L71.1881 15.508V8.272H72.9881L73.4201 8.884L73.5641 10.252V13.06V15.184L73.9241 15.508H76.8761L77.6681 14.896L77.3081 12.412V10.72V9.532L77.3801 8.74L78.9281 8.884L79.1441 9.532L79.6121 13.276V15.076L80.5481 15.472H84.0041L84.3281 14.968ZM94.6877 4.816L93.4637 4.312L91.8797 4.024L90.7277 3.772L89.8637 4.06V7.48L89.9717 7.912L92.1317 7.552L93.8237 7.876L94.3277 7.516L94.6877 4.816ZM94.9397 16.804L94.3277 16.3L94.5437 15.652V13.96L94.2917 13.06V10.576L93.8597 10.108L93.1037 10.072L92.8157 10.216L91.3757 10.108L90.7637 10.396L90.0077 19.108L90.3677 19.504H91.0157L91.4477 19.36H94.2197L94.9037 19.036L94.7237 18.172L94.9397 16.804ZM112.458 6.976L111.882 6.508H109.398L107.31 7.372L106.482 7.732L105.726 8.056L104.61 6.04H102.09L101.442 6.976V7.876V14.176L101.946 15.364L102.882 15.004H103.458L103.998 15.328L105.726 14.896L105.51 11.44L105.438 11.368V9.928L107.742 9.676L108.39 9.316H108.822L109.65 10.504L109.074 14.68L109.542 15.076H113.286L113.646 14.644V10.324L113.79 9.496L112.458 6.976ZM118.021 10C117.949 10.432 117.901 10.84 117.877 11.224C117.877 11.608 117.877 11.956 117.877 12.268C117.877 12.844 117.961 13.348 118.129 13.78L118.489 14.248L122.305 15.364H123.169C123.265 15.34 123.373 15.304 123.493 15.256C123.613 15.208 123.745 15.136 123.889 15.04L126.913 14.032C127.081 13.96 127.321 13.84 127.633 13.672C127.969 13.504 128.281 13.312 128.569 13.096C128.881 12.856 129.145 12.592 129.361 12.304C129.577 12.016 129.685 11.716 129.685 11.404C129.685 10.252 129.385 9.208 128.785 8.272C128.209 7.336 127.381 6.616 126.301 6.112H126.229C126.133 6.112 125.965 6.124 125.725 6.148C125.485 6.172 125.269 6.184 125.077 6.184C124.909 6.184 124.753 6.16 124.609 6.112C124.489 6.064 124.429 5.992 124.429 5.896L121.873 6.292C121.441 6.412 121.009 6.58 120.577 6.796C120.145 7.012 119.749 7.276 119.389 7.588C119.029 7.876 118.729 8.224 118.489 8.632C118.249 9.016 118.093 9.472 118.021 10ZM124.681 8.344C124.969 8.44 125.281 8.524 125.617 8.596C125.953 8.668 126.265 8.776 126.553 8.92C126.841 9.04 127.093 9.208 127.309 9.424C127.549 9.64 127.729 9.964 127.849 10.396L126.913 11.764L123.061 12.556H122.557L121.621 11.728L121.801 9.568C121.945 9.496 122.089 9.388 122.233 9.244C122.377 9.1 122.533 8.956 122.701 8.812C122.893 8.644 123.097 8.512 123.313 8.416C123.553 8.296 123.805 8.236 124.069 8.236C124.237 8.236 124.441 8.272 124.681 8.344ZM144.876 13.132C144.828 12.916 144.72 12.748 144.552 12.628C144.384 12.508 144.3 12.34 144.3 12.124C144.084 12.052 143.916 11.992 143.796 11.944C143.676 11.872 143.568 11.824 143.472 11.8C143.4 11.752 143.316 11.692 143.22 11.62C143.148 11.548 143.028 11.476 142.86 11.404C142.812 11.404 142.668 11.344 142.428 11.224C142.212 11.08 142.068 10.996 141.996 10.972L141.492 10.72C141.18 10.576 140.952 10.444 140.808 10.324C140.688 10.204 140.616 10.096 140.592 10L139.944 9.388C139.848 9.388 139.752 9.34 139.656 9.244C139.584 9.124 139.548 8.884 139.548 8.524C139.548 8.188 139.584 7.936 139.656 7.768C139.752 7.6 140.028 7.396 140.484 7.156H140.556C140.628 7.156 140.724 7.132 140.844 7.084C140.964 7.036 141.072 6.94 141.168 6.796C141.168 6.748 141.204 6.7 141.276 6.652C141.348 6.604 141.636 6.508 142.14 6.364C142.26 6.364 142.356 6.352 142.428 6.328C142.5 6.28 142.596 6.22 142.716 6.148H143.22C143.292 6.148 143.364 6.148 143.436 6.148C143.508 6.124 143.592 6.1 143.688 6.076C143.664 6.076 143.652 6.064 143.652 6.04C143.676 6.04 143.688 6.028 143.688 6.004C143.688 5.98 143.7 5.968 143.724 5.968C143.724 5.896 143.712 5.836 143.688 5.788C143.688 5.74 143.688 5.692 143.688 5.644V5.428C143.688 5.068 143.592 4.864 143.4 4.816C143.232 4.744 143.088 4.648 142.968 4.528C142.68 4.576 142.428 4.612 142.212 4.636C142.02 4.636 141.78 4.636 141.492 4.636C141.324 4.636 141.204 4.636 141.132 4.636C141.084 4.612 141.048 4.588 141.024 4.564C140.712 4.684 140.436 4.768 140.196 4.816C139.956 4.84 139.692 4.912 139.404 5.032L138.036 5.608C137.724 5.8 137.376 5.98 136.992 6.148C136.632 6.316 136.332 6.544 136.092 6.832C135.972 7.048 135.78 7.252 135.516 7.444C135.516 7.66 135.456 7.828 135.336 7.948C135.24 8.068 135.192 8.212 135.192 8.38C135.192 8.428 135.204 8.464 135.228 8.488C135.252 8.512 135.264 8.584 135.264 8.704C135.264 8.8 135.252 8.908 135.228 9.028C135.204 9.148 135.168 9.232 135.12 9.28C135.12 9.496 135.18 9.736 135.3 10C135.444 10.24 135.576 10.384 135.696 10.432L136.02 10.72C136.26 10.816 136.464 10.924 136.632 11.044C136.8 11.164 136.956 11.296 137.1 11.44C137.244 11.56 137.388 11.68 137.532 11.8C137.7 11.896 137.904 11.956 138.144 11.98C138.48 12.1 138.684 12.208 138.756 12.304C138.852 12.376 138.9 12.448 138.9 12.52C138.924 12.568 138.96 12.628 139.008 12.7C139.056 12.748 139.236 12.844 139.548 12.988C139.548 13.084 139.632 13.216 139.8 13.384L140.088 13.672C140.16 13.864 140.196 14.044 140.196 14.212C140.196 14.428 140.112 14.608 139.944 14.752C139.8 14.872 139.62 14.98 139.404 15.076C139.212 15.148 139.032 15.196 138.864 15.22C138.696 15.244 138.612 15.244 138.612 15.22C138.06 15.388 137.664 15.508 137.424 15.58C137.208 15.652 136.992 15.688 136.776 15.688C136.608 15.688 136.272 15.652 135.768 15.58C135.72 15.652 135.636 15.688 135.516 15.688C135.396 15.688 135.24 15.652 135.048 15.58C134.88 15.508 134.808 15.484 134.832 15.508C134.976 15.844 135.036 16.156 135.012 16.444C134.988 16.708 135.036 16.84 135.156 16.84H135.192C135.168 16.864 135.144 16.9 135.12 16.948C135.096 16.996 135.084 17.056 135.084 17.128C135.084 17.128 135.096 17.128 135.12 17.128C135.072 17.152 135.048 17.164 135.048 17.164C135.048 17.212 135.144 17.296 135.336 17.416C135.552 17.512 135.672 17.56 135.696 17.56C136.152 17.512 136.608 17.44 137.064 17.344C137.52 17.248 138.024 17.2 138.576 17.2C138.912 17.2 139.224 17.236 139.512 17.308C139.8 17.38 140.1 17.416 140.412 17.416C140.868 17.416 141.228 17.368 141.492 17.272C141.78 17.176 142.008 17.08 142.176 16.984C142.344 16.864 142.5 16.768 142.644 16.696C142.788 16.6 142.956 16.552 143.148 16.552L143.904 16.192C144.168 16.048 144.408 15.844 144.624 15.58C144.864 15.292 144.984 14.98 144.984 14.644C144.984 14.428 144.96 14.2 144.912 13.96C144.888 13.72 144.876 13.444 144.876 13.132Z" fill="#FFB830"/>
</svg>
