<svg width="279" height="117" viewBox="0 0 279 117" fill="none" xmlns="http://www.w3.org/2000/svg">
<path d="M67.4787 26.096C67.2387 25.52 67.0707 25.112 66.9747 24.872C66.9267 24.632 66.9027 24.464 66.9027 24.368C66.2307 24.368 65.6547 24.368 65.1747 24.368C64.7427 24.32 64.3347 24.296 63.9507 24.296L60.9267 24.152C59.5347 24.2 58.3347 24.272 57.3267 24.368C56.3187 24.416 55.1907 24.44 53.9427 24.44C53.3667 24.344 52.9107 24.272 52.5747 24.224C52.2387 24.176 51.9267 24.128 51.6387 24.08C51.3987 24.032 51.1587 23.984 50.9187 23.936C50.6787 23.84 50.3907 23.72 50.0547 23.576C50.0067 23.624 49.9347 23.648 49.8387 23.648C49.3587 23.648 48.8787 23.48 48.3987 23.144C47.9667 22.808 47.5587 22.376 47.1747 21.848C46.7907 21.32 46.4787 20.72 46.2387 20.048C46.0467 19.328 45.9507 18.56 45.9507 17.744C45.9507 17.024 46.0707 16.448 46.3107 16.016C46.5507 15.584 46.8387 15.176 47.1747 14.792C47.5587 14.408 47.9427 14.024 48.3267 13.64C48.7107 13.256 49.0467 12.728 49.3347 12.056C49.6707 11.816 49.9107 11.672 50.0547 11.624L50.4147 11.336C50.4147 11.336 50.5107 11.24 50.7027 11.048C50.8947 10.856 51.1107 10.64 51.3507 10.4C51.6387 10.16 51.9027 9.944 52.1427 9.752C52.4307 9.512 52.6227 9.392 52.7187 9.392C53.0067 9.248 53.4147 9.08 53.9427 8.888C54.5187 8.696 55.0707 8.528 55.5987 8.384C56.1267 8.24 56.6067 8.12 57.0387 8.024C57.4707 7.928 57.7827 7.88 57.9747 7.88C58.3107 7.976 58.5507 8.072 58.6947 8.168C58.8867 8.216 59.0067 8.24 59.0547 8.24C59.6787 8.24 60.2067 8.216 60.6387 8.168C61.1187 8.072 61.5747 8.024 62.0067 8.024L64.3827 7.808L65.7507 4.496C65.7027 4.208 65.6787 3.896 65.6787 3.56C65.7267 3.176 65.7267 2.816 65.6787 2.48C65.6307 2.096 65.5587 1.76 65.4627 1.472C65.4147 1.136 65.2467 0.823999 64.9587 0.536H59.7747C59.0067 0.536 58.2147 0.536 57.3987 0.536C56.6307 0.487999 55.7427 0.463998 54.7347 0.463998L52.7907 1.04C52.0707 1.04 51.3267 1.16 50.5587 1.4C49.8387 1.592 49.1427 1.832 48.4707 2.12C47.7987 2.408 47.1987 2.696 46.6707 2.984C46.1427 3.272 45.8067 3.488 45.6627 3.632C44.7027 4.448 43.8867 5.192 43.2147 5.864C42.5427 6.488 41.9187 7.16 41.3427 7.88C40.8147 8.6 40.3107 9.392 39.8307 10.256C39.3507 11.072 38.8227 12.08 38.2467 13.28C37.9107 14 37.6947 14.768 37.5987 15.584C37.5027 16.352 37.4547 17.168 37.4547 18.032C37.4547 19.568 37.5747 20.768 37.8147 21.632C38.1027 22.448 38.3907 23.096 38.6787 23.576C38.9667 24.008 39.2307 24.344 39.4707 24.584C39.7587 24.824 39.9027 25.112 39.9027 25.448L41.5587 26.96L42.4227 27.176C43.2387 27.416 43.8387 27.632 44.2227 27.824C44.6547 28.016 45.0147 28.184 45.3027 28.328C45.5907 28.424 45.8547 28.544 46.0947 28.688C46.3827 28.832 46.8147 29 47.3907 29.192C47.5827 29.24 47.7507 29.288 47.8947 29.336C48.0867 29.336 48.2787 29.336 48.4707 29.336C48.8547 29.336 49.2147 29.312 49.5507 29.264C49.9347 29.216 50.3667 29.192 50.8467 29.192C51.2307 29.192 51.6387 29.216 52.0707 29.264C52.5027 29.264 53.0307 29.312 53.6547 29.408C54.9987 29.408 56.1267 29.408 57.0387 29.408C57.9507 29.408 58.8147 29.408 59.6307 29.408C60.4947 29.36 61.3827 29.336 62.2947 29.336C63.2547 29.288 64.4067 29.24 65.7507 29.192L66.4707 28.544C66.7107 28.352 66.8787 28.232 66.9747 28.184C67.1187 28.136 67.4307 27.872 67.9107 27.392L68.4147 26.888C68.3667 26.888 68.1987 26.864 67.9107 26.816C67.6227 26.72 67.4787 26.48 67.4787 26.096ZM78.0301 6.224C78.3661 6.224 78.6541 6.368 78.8941 6.656C79.1821 6.944 79.4221 7.28 79.6141 7.664C79.8541 8.048 80.0701 8.384 80.2621 8.672C80.4541 8.96 80.6221 9.104 80.7661 9.104C81.2461 9.008 81.9661 8.816 82.9261 8.528C83.9341 8.192 85.0141 7.856 86.1661 7.52C87.3661 7.184 88.5181 6.896 89.6221 6.656C90.7741 6.416 91.7101 6.296 92.4301 6.296C92.8141 6.296 93.0781 6.368 93.2221 6.512C93.4141 6.656 93.5341 6.824 93.5821 7.016C93.6301 7.208 93.6781 7.4 93.7261 7.592C93.8221 7.736 93.9901 7.856 94.2301 7.952C94.3261 8.096 94.4701 8.24 94.6621 8.384C94.8541 8.48 94.9501 8.672 94.9501 8.96C94.7101 9.536 94.5661 10.088 94.5181 10.616C94.4701 11.096 94.4461 11.552 94.4461 11.984V12.416L92.3581 12.56C92.0221 12.608 91.6861 12.656 91.3501 12.704C91.0141 12.704 90.6301 12.704 90.1981 12.704L88.0381 13.928C87.4141 13.928 86.8861 14 86.4541 14.144C86.0221 14.24 85.5661 14.408 85.0861 14.648C84.6541 14.84 84.1501 15.056 83.5741 15.296C82.9981 15.536 82.2301 15.776 81.2701 16.016C78.9661 17.168 77.2381 18.56 76.0861 20.192C74.9821 21.824 74.4301 23.84 74.4301 26.24C74.4301 27.008 74.6941 27.776 75.2221 28.544C75.7501 29.264 76.3981 29.936 77.1661 30.56C77.9341 31.136 78.7261 31.616 79.5421 32C80.3581 32.336 81.0781 32.504 81.7021 32.504C82.4221 32.504 83.0941 32.504 83.7181 32.504C84.3421 32.552 84.9661 32.576 85.5901 32.576H89.5501H89.6221C89.7181 32.576 89.7901 32.504 89.8381 32.36C89.9341 32.264 90.0301 32.144 90.1261 32C90.2701 31.808 90.4861 31.664 90.7741 31.568C91.1101 31.424 91.5661 31.352 92.1421 31.352C92.7661 31.352 93.4141 31.544 94.0861 31.928C94.7581 32.264 95.3341 32.432 95.8141 32.432C96.1981 32.432 96.5581 32.408 96.8941 32.36C97.2301 32.312 97.5661 32.24 97.9021 32.144C98.2861 32.048 98.7181 31.976 99.1981 31.928C99.6781 31.832 100.23 31.784 100.854 31.784C100.998 32.024 101.262 32.24 101.646 32.432H102.654C102.702 32.192 102.798 31.976 102.942 31.784C103.086 31.544 103.254 31.232 103.446 30.848C103.398 29.744 103.326 28.76 103.23 27.896C103.182 27.032 103.134 26.216 103.086 25.448C103.086 24.632 103.062 23.792 103.014 22.928C103.014 22.064 102.99 21.08 102.942 19.976H103.158C103.206 19.928 103.254 19.904 103.302 19.904C103.158 19.904 103.038 19.712 102.942 19.328C102.846 18.944 102.774 18.56 102.726 18.176C102.678 17.744 102.63 17.36 102.582 17.024C102.582 16.64 102.582 16.448 102.582 16.448C102.534 16.064 102.438 15.776 102.294 15.584C102.198 15.344 102.078 15.08 101.934 14.792C101.838 14.456 101.718 14 101.574 13.424C101.478 12.848 101.406 11.912 101.358 10.616C101.214 10.52 101.094 10.232 100.998 9.752C100.902 9.272 100.806 8.768 100.71 8.24C100.662 7.664 100.614 7.136 100.566 6.656C100.566 6.128 100.542 5.816 100.494 5.72H100.35C99.9661 5.72 99.6541 5.504 99.4141 5.072C99.1741 4.64 98.9581 4.16 98.7661 3.632C98.5741 3.104 98.4061 2.648 98.2621 2.264C98.1181 1.832 97.9501 1.616 97.7581 1.616C97.6621 1.52 97.5661 1.424 97.4701 1.328C97.3741 1.184 97.2781 1.064 97.1821 0.967998H96.0301C95.5501 0.967998 95.1421 0.967998 94.8061 0.967998C94.5181 0.967998 94.2301 0.967998 93.9421 0.967998C93.7021 0.967998 93.4381 0.943999 93.1501 0.895999C92.8621 0.847998 92.5021 0.775998 92.0701 0.679998C92.0221 0.919999 91.7341 1.088 91.2061 1.184C90.7261 1.232 90.1741 1.256 89.5501 1.256C88.9741 1.256 88.4221 1.256 87.8941 1.256C87.4141 1.256 87.1501 1.328 87.1021 1.472C85.8061 1.904 84.6301 2.264 83.5741 2.552C82.5181 2.84 81.6301 3.152 80.9101 3.488C80.1901 3.776 79.5901 4.136 79.1101 4.568C78.6301 4.952 78.2701 5.504 78.0301 6.224ZM93.6541 18.32V21.992C93.4141 22.76 93.2701 23.552 93.2221 24.368C93.1741 25.184 93.1501 25.784 93.1501 26.168V26.744H92.1421C91.1821 26.84 90.2941 26.912 89.4781 26.96C88.6621 27.008 87.8701 27.056 87.1021 27.104L82.0621 27.392C81.7261 26.816 81.4381 26.36 81.1981 26.024C81.0061 25.688 80.9101 25.184 80.9101 24.512C80.9101 23.168 81.0781 22.112 81.4141 21.344C81.7981 20.576 82.3021 20 82.9261 19.616C83.5981 19.184 84.3661 18.872 85.2301 18.68C86.0941 18.488 87.0061 18.272 87.9661 18.032C88.4461 17.888 88.8781 17.768 89.2621 17.672C89.6941 17.576 90.1021 17.528 90.4861 17.528H90.7741C91.2541 17.672 91.7341 17.816 92.2141 17.96C92.7421 18.104 93.2221 18.224 93.6541 18.32ZM149.402 23.936L149.186 10.544C148.85 9.776 148.466 9.032 148.034 8.312C147.602 7.592 147.026 7.064 146.306 6.728L139.25 6.584L137.018 6.8L136.154 7.304L134.426 7.592L130.97 5.504L127.082 5.216L122.834 6.728L121.97 6.512L121.61 5.864L119.81 4.64L118.226 4.856L114.986 4.064L113.546 6.8L112.97 12.92V25.592L116.714 25.88L117.722 25.376H121.538L123.122 25.016V10.544H126.722L127.586 11.768L127.874 14.504V20.12V24.368L128.594 25.016H134.498L136.082 23.792L135.362 18.824V15.44V13.064L135.506 11.48L138.602 11.768L139.034 13.064L139.97 20.552V24.152L141.842 24.944H148.754L149.402 23.936ZM170.121 3.632L167.673 2.624L164.505 2.048L162.201 1.544L160.473 2.12V8.96L160.689 9.824L165.009 9.104L168.393 9.752L169.401 9.032L170.121 3.632ZM170.625 27.608L169.401 26.6L169.833 25.304V21.92L169.329 20.12V15.152L168.465 14.216L166.953 14.144L166.377 14.432L163.497 14.216L162.273 14.792L160.761 32.216L161.481 33.008H162.777L163.641 32.72H169.185L170.553 32.072L170.193 30.344L170.625 27.608ZM205.661 7.952L204.509 7.016H199.541L195.365 8.744L193.709 9.464L192.197 10.112L189.965 6.08H184.925L183.629 7.952V9.752V22.352L184.637 24.728L186.509 24.008H187.661L188.741 24.656L192.197 23.792L191.765 16.88L191.621 16.736V13.856L196.229 13.352L197.525 12.632H198.389L200.045 15.008L198.893 23.36L199.829 24.152H207.317L208.037 23.288V14.648L208.325 12.992L205.661 7.952ZM216.788 14C216.644 14.864 216.548 15.68 216.5 16.448C216.5 17.216 216.5 17.912 216.5 18.536C216.5 19.688 216.668 20.696 217.004 21.56L217.724 22.496L225.356 24.728H227.084C227.276 24.68 227.492 24.608 227.732 24.512C227.972 24.416 228.236 24.272 228.524 24.08L234.572 22.064C234.908 21.92 235.388 21.68 236.012 21.344C236.684 21.008 237.308 20.624 237.884 20.192C238.508 19.712 239.036 19.184 239.468 18.608C239.9 18.032 240.116 17.432 240.116 16.808C240.116 14.504 239.516 12.416 238.316 10.544C237.164 8.672 235.508 7.232 233.348 6.224H233.204C233.012 6.224 232.676 6.248 232.196 6.296C231.716 6.344 231.284 6.368 230.9 6.368C230.564 6.368 230.252 6.32 229.964 6.224C229.724 6.128 229.604 5.984 229.604 5.792L224.492 6.584C223.628 6.824 222.764 7.16 221.9 7.592C221.036 8.024 220.244 8.552 219.524 9.176C218.804 9.752 218.204 10.448 217.724 11.264C217.244 12.032 216.932 12.944 216.788 14ZM230.108 10.688C230.684 10.88 231.308 11.048 231.98 11.192C232.652 11.336 233.276 11.552 233.852 11.84C234.428 12.08 234.932 12.416 235.364 12.848C235.844 13.28 236.204 13.928 236.444 14.792L234.572 17.528L226.868 19.112H225.86L223.988 17.456L224.348 13.136C224.636 12.992 224.924 12.776 225.212 12.488C225.5 12.2 225.812 11.912 226.148 11.624C226.532 11.288 226.94 11.024 227.372 10.832C227.852 10.592 228.356 10.472 228.884 10.472C229.22 10.472 229.628 10.544 230.108 10.688ZM1.44175 90.608V103.28L1.65775 104.936H2.80975L3.60175 104.288H9.14575L10.5858 103.064L10.3698 99.824L10.7298 94.928L10.4418 93.632C11.0658 93.536 11.5698 93.416 11.9538 93.272C12.3858 93.128 12.8658 92.912 13.3938 92.624L21.3138 89.96C21.7938 89.768 22.4418 89.48 23.2578 89.096C24.1218 88.664 24.9618 88.136 25.7778 87.512C26.5938 86.888 27.2898 86.216 27.8658 85.496C28.4898 84.728 28.8018 83.936 28.8018 83.12C28.8018 81.68 28.5378 80.216 28.0098 78.728C27.5298 77.192 26.8098 75.824 25.8498 74.624C24.8898 73.424 23.6898 72.416 22.2498 71.6C20.8098 70.784 19.1298 70.328 17.2098 70.232C16.6338 70.184 16.0818 70.112 15.5538 70.016C15.0738 69.872 14.8098 69.608 14.7617 69.224L8.28175 69.728H7.20175L6.62575 70.304L3.67375 69.8L2.37775 70.88V90.248L0.93775 90.392L1.44175 90.608ZM9.43375 75.92C9.81775 75.872 10.1778 75.824 10.5138 75.776C10.8978 75.728 11.2578 75.704 11.5938 75.704C12.5058 75.704 13.7058 75.92 15.1938 76.352C15.9618 76.592 16.7778 76.76 17.6418 76.856C18.5538 76.904 19.3938 77.024 20.1618 77.216C20.9298 77.408 21.6258 77.744 22.2498 78.224C22.8738 78.656 23.3298 79.4 23.6178 80.456L21.0258 84.056L11.0898 86.072H10.0098V84.128L9.43375 80.816V75.92ZM34.6084 86C34.4644 86.864 34.3684 87.68 34.3204 88.448C34.3204 89.216 34.3204 89.912 34.3204 90.536C34.3204 91.688 34.4884 92.696 34.8244 93.56L35.5444 94.496L43.1764 96.728H44.9044C45.0964 96.68 45.3124 96.608 45.5524 96.512C45.7924 96.416 46.0564 96.272 46.3444 96.08L52.3924 94.064C52.7284 93.92 53.2084 93.68 53.8324 93.344C54.5044 93.008 55.1284 92.624 55.7044 92.192C56.3284 91.712 56.8564 91.184 57.2884 90.608C57.7204 90.032 57.9364 89.432 57.9364 88.808C57.9364 86.504 57.3364 84.416 56.1364 82.544C54.9844 80.672 53.3284 79.232 51.1684 78.224H51.0244C50.8324 78.224 50.4964 78.248 50.0164 78.296C49.5364 78.344 49.1044 78.368 48.7204 78.368C48.3844 78.368 48.0724 78.32 47.7844 78.224C47.5444 78.128 47.4244 77.984 47.4244 77.792L42.3124 78.584C41.4484 78.824 40.5844 79.16 39.7204 79.592C38.8564 80.024 38.0644 80.552 37.3444 81.176C36.6244 81.752 36.0244 82.448 35.5444 83.264C35.0644 84.032 34.7524 84.944 34.6084 86ZM47.9284 82.688C48.5044 82.88 49.1284 83.048 49.8004 83.192C50.4724 83.336 51.0964 83.552 51.6724 83.84C52.2484 84.08 52.7524 84.416 53.1844 84.848C53.6644 85.28 54.0244 85.928 54.2644 86.792L52.3924 89.528L44.6884 91.112H43.6804L41.8084 89.456L42.1684 85.136C42.4564 84.992 42.7444 84.776 43.0324 84.488C43.3204 84.2 43.6324 83.912 43.9684 83.624C44.3524 83.288 44.7604 83.024 45.1924 82.832C45.6724 82.592 46.1764 82.472 46.7044 82.472C47.0404 82.472 47.4484 82.544 47.9284 82.688ZM90.6936 80.528L87.9576 76.208L87.0216 76.496L82.1976 80.384L80.0376 84.128L78.5256 85.568V80.6L76.5816 76.424H72.4056L71.2536 77.72V96.152L70.8936 96.944L71.0376 98.816L78.9576 98.168L80.1816 97.448V96.008L80.5416 93.704L80.1816 89.888C80.5176 89.648 80.7816 89.36 80.9736 89.024C81.2136 88.688 81.4536 88.352 81.6936 88.016C81.9816 87.68 82.2936 87.32 82.6296 86.936C83.0136 86.504 83.4696 86.096 83.9976 85.712L87.3096 83.192C87.8376 82.808 88.3656 82.4 88.8936 81.968C89.4696 81.536 90.0696 81.056 90.6936 80.528ZM113.033 87.152L114.905 87.08C115.145 87.176 115.361 87.248 115.553 87.296C115.745 87.344 116.009 87.368 116.345 87.368C116.537 87.368 116.729 87.344 116.921 87.296C117.161 87.248 117.377 87.2 117.569 87.152C117.809 87.104 118.097 87.08 118.433 87.08C118.817 87.032 119.297 87.008 119.873 87.008C120.065 87.008 120.233 87.032 120.377 87.08C120.569 87.08 120.713 87.08 120.809 87.08C120.857 87.08 120.905 87.08 120.953 87.08C121.049 87.08 121.241 86.984 121.529 86.792C121.289 86.792 121.169 86.624 121.169 86.288C121.169 86.24 121.193 86.096 121.241 85.856C121.289 85.616 121.313 85.448 121.313 85.352C121.265 85.352 121.241 85.232 121.241 84.992C121.241 84.8 121.289 84.656 121.385 84.56C121.049 84.32 120.881 84.08 120.881 83.84C120.881 83.552 120.785 83.264 120.593 82.976C120.305 83.072 120.089 83.12 119.945 83.12C119.609 83.12 119.369 83.12 119.225 83.12C119.129 83.072 119.009 83.024 118.865 82.976C118.721 82.928 118.457 82.904 118.073 82.904C117.737 82.856 117.161 82.808 116.345 82.76C115.769 82.712 115.073 82.664 114.257 82.616C113.441 82.568 112.553 82.496 111.593 82.4L110.873 74.408L110.225 73.472L105.473 73.904L104.321 75.56L104.105 82.04C103.433 82.04 102.785 82.04 102.161 82.04C101.537 81.992 100.937 81.968 100.361 81.968C99.8813 82.112 99.6173 82.184 99.5693 82.184C99.1373 82.184 98.7533 82.184 98.4173 82.184C98.0813 82.184 97.7453 82.136 97.4093 82.04H96.2573L95.1773 82.976C95.1773 83.36 95.1773 83.792 95.1773 84.272C95.1773 84.752 95.2013 85.232 95.2493 85.712C95.3453 86.192 95.4653 86.624 95.6093 87.008C95.7533 87.344 95.9453 87.56 96.1853 87.656L96.7613 88.16C97.2413 88.16 97.6013 88.16 97.8413 88.16C98.0813 88.112 98.5133 88.04 99.1373 87.944C99.1853 87.848 99.4013 87.8 99.7853 87.8C100.073 87.8 100.361 87.824 100.649 87.872C100.985 87.92 101.201 87.968 101.297 88.016C101.441 88.016 101.585 88.016 101.729 88.016C101.921 87.968 102.113 87.944 102.305 87.944L103.313 87.872L103.025 89.312V98.672L103.313 102.776L104.105 104.432L105.905 104.144L111.809 104.576L115.841 104C116.129 103.184 116.273 102.368 116.273 101.552C116.273 100.736 116.129 99.872 115.841 98.96L113.033 97.448V87.152ZM151.095 86.216L148.935 78.728L145.335 77.936L144.255 78.512V90.248L143.391 90.824H142.167L138.495 92.048L137.703 91.76L137.415 90.68L136.839 89.816V81.896L135.615 78.152H130.215L129.063 78.512L128.487 83.192L129.711 85.64L128.919 93.488L130.503 97.448L132.231 98.024L134.247 99.32L135.831 98.816L136.119 98.312L138.639 98.6L140.079 97.88L142.959 95L143.895 94.568L144.615 95.288L144.399 95.792L146.127 96.944H150.447L151.095 96.08V86.216ZM185.596 92.048C185.596 91.424 185.62 90.8 185.668 90.176C185.764 89.552 185.812 88.952 185.812 88.376C185.812 87.896 185.788 87.464 185.74 87.08C185.692 86.696 185.596 86.312 185.452 85.928C185.356 85.496 185.26 85.016 185.164 84.488C185.068 83.912 184.948 83.168 184.804 82.256C184.708 81.392 184.612 80.696 184.516 80.168C184.42 79.64 184.012 79.376 183.292 79.376C183.004 79.376 182.74 79.352 182.5 79.304C182.26 79.256 182.116 79.184 182.068 79.088C181.972 79.088 181.852 79.184 181.708 79.376C181.564 79.52 181.372 79.712 181.132 79.952C180.892 80.144 180.628 80.312 180.34 80.456C180.1 80.6 179.812 80.672 179.476 80.672C179.332 80.672 179.14 80.624 178.9 80.528C178.708 80.384 178.444 80.216 178.108 80.024C177.82 79.832 177.436 79.664 176.956 79.52C176.524 79.328 175.972 79.184 175.3 79.088C174.148 79.088 172.78 79.376 171.196 79.952C169.66 80.528 168.196 81.368 166.804 82.472C165.412 83.528 164.236 84.848 163.276 86.432C162.316 88.016 161.836 89.84 161.836 91.904C161.836 92.816 161.932 93.752 162.124 94.712C162.316 95.624 162.556 96.512 162.844 97.376L164.644 99.464C165.412 99.704 166.012 99.92 166.444 100.112C166.924 100.304 167.332 100.496 167.668 100.688C168.052 100.88 168.412 101.024 168.748 101.12C169.132 101.168 169.612 101.192 170.188 101.192C170.668 101.192 171.34 101.168 172.204 101.12C173.116 101.024 174.028 100.904 174.94 100.76C175.9 100.616 176.74 100.496 177.46 100.4C178.18 100.304 178.636 100.232 178.828 100.184C178.636 100.856 178.516 101.696 178.468 102.704C178.468 103.664 178.396 104.624 178.252 105.584C178.108 106.592 177.796 107.528 177.316 108.392C176.884 109.304 176.14 110.024 175.084 110.552C174.7 110.696 173.956 110.936 172.852 111.272C171.748 111.608 170.668 111.896 169.612 112.136C168.22 112.52 167.284 112.808 166.804 113C166.372 113.192 166.132 113.36 166.084 113.504C166.036 113.696 166.036 113.912 166.084 114.152C166.18 114.392 166.108 114.728 165.868 115.16C166.06 115.16 166.156 115.28 166.156 115.52V115.592C166.156 115.784 166.276 115.976 166.516 116.168C166.756 116.408 167.164 116.528 167.74 116.528C169.42 116.528 170.98 116.336 172.42 115.952C173.86 115.568 175.084 115.256 176.092 115.016C176.62 114.872 177.076 114.752 177.46 114.656C177.892 114.56 178.324 114.392 178.756 114.152C179.236 113.912 179.74 113.528 180.268 113C180.796 112.52 181.468 111.824 182.284 110.912C183.004 109.904 183.676 108.656 184.3 107.168C184.972 105.728 185.308 103.904 185.308 101.696C185.308 100.688 185.284 99.608 185.236 98.456C185.188 97.304 185.164 96.224 185.164 95.216C185.164 94.448 185.188 93.8 185.236 93.272C185.284 92.744 185.404 92.336 185.596 92.048ZM175.156 84.344C175.876 84.392 176.476 84.464 176.956 84.56C177.484 84.608 177.916 84.776 178.252 85.064C178.588 85.352 178.852 85.784 179.044 86.36C179.284 86.888 179.524 87.632 179.764 88.592L179.332 95.36C178.612 95.792 177.916 96.104 177.244 96.296C176.62 96.44 176.068 96.512 175.588 96.512C175.06 96.512 174.508 96.512 173.932 96.512C173.404 96.464 172.852 96.44 172.276 96.44H171.412L169.684 94.568C169.684 93.272 169.852 91.88 170.188 90.392C170.572 88.856 171.532 87.2 173.068 85.424C173.356 85.136 173.644 84.896 173.932 84.704C174.268 84.464 174.676 84.344 175.156 84.344ZM216.697 86.216L214.537 78.728L210.937 77.936L209.857 78.512V90.248L208.993 90.824H207.769L204.097 92.048L203.305 91.76L203.017 90.68L202.441 89.816V81.896L201.217 78.152H195.817L194.665 78.512L194.089 83.192L195.313 85.64L194.521 93.488L196.105 97.448L197.833 98.024L199.849 99.32L201.433 98.816L201.721 98.312L204.241 98.6L205.681 97.88L208.561 95L209.497 94.568L210.217 95.288L210.001 95.792L211.729 96.944H216.049L216.697 96.08V86.216ZM251.485 100.832L251.269 100.544C251.269 100.304 251.197 100.088 251.053 99.896C250.909 99.656 250.789 99.392 250.693 99.104C250.405 99.104 250.141 99.176 249.901 99.32C249.661 99.416 249.397 99.536 249.109 99.68C248.869 99.776 248.557 99.896 248.173 100.04C247.837 100.136 247.405 100.184 246.877 100.184H246.517C245.941 100.232 245.437 100.256 245.005 100.256C244.573 100.256 244.165 100.28 243.781 100.328C243.397 100.328 243.013 100.352 242.629 100.4C242.245 100.4 241.789 100.4 241.261 100.4C240.349 100.256 239.749 100.16 239.461 100.112C239.221 100.016 239.101 99.968 239.101 99.968C239.101 99.968 239.125 99.968 239.173 99.968C239.221 99.968 239.149 99.92 238.957 99.824C238.909 99.872 238.861 99.896 238.813 99.896C238.765 99.896 238.717 99.92 238.669 99.968C238.669 99.968 238.621 99.968 238.525 99.968C237.997 99.776 237.565 99.632 237.229 99.536C236.941 99.44 236.797 99.272 236.797 99.032C236.797 98.84 236.557 98.504 236.077 98.024C235.645 97.544 235.429 96.992 235.429 96.368C235.429 95.648 235.501 94.736 235.645 93.632C235.789 92.48 236.077 91.568 236.509 90.896C236.893 90.656 237.565 90.392 238.525 90.104C239.485 89.768 240.445 89.6 241.405 89.6C241.981 89.6 242.413 89.696 242.701 89.888C243.037 90.032 243.301 90.224 243.493 90.464C243.685 90.704 243.781 90.968 243.781 91.256C243.829 91.496 243.853 91.736 243.853 91.976C243.853 92.312 243.733 92.552 243.493 92.696C243.253 92.84 242.965 92.936 242.629 92.984C242.293 93.032 241.957 93.056 241.621 93.056C241.285 93.056 240.997 93.08 240.757 93.128C239.797 93.416 239.005 93.608 238.381 93.704C237.805 93.8 237.469 93.848 237.373 93.848C237.613 93.944 237.781 94.136 237.877 94.424C237.973 94.712 238.045 95.024 238.093 95.36C238.141 95.648 238.165 95.936 238.165 96.224C238.165 96.464 238.189 96.584 238.237 96.584C239.917 96.584 241.309 96.512 242.413 96.368C243.517 96.224 244.429 96.056 245.149 95.864C245.869 95.624 246.445 95.432 246.877 95.288C247.309 95.096 247.741 94.976 248.173 94.928C248.365 94.448 248.581 94.16 248.821 94.064C249.061 93.92 249.325 93.68 249.613 93.344C249.517 92.672 249.349 92 249.109 91.328C248.917 90.608 248.701 89.96 248.461 89.384C248.221 88.76 247.981 88.232 247.741 87.8C247.549 87.368 247.453 87.104 247.453 87.008C247.117 87.008 246.829 86.936 246.589 86.792C246.397 86.648 246.229 86.504 246.085 86.36C245.989 86.216 245.917 86.072 245.869 85.928C245.821 85.784 245.773 85.712 245.725 85.712C245.197 85.712 244.789 85.592 244.501 85.352C244.309 85.256 244.165 85.136 244.069 84.992C243.301 84.992 242.701 84.896 242.269 84.704C241.837 84.512 241.357 84.416 240.829 84.416C239.629 84.848 238.333 85.16 236.941 85.352C235.597 85.544 234.397 85.952 233.341 86.576C232.765 87.056 232.237 87.512 231.757 87.944C231.277 88.376 230.845 88.856 230.461 89.384C230.077 89.912 229.669 90.488 229.237 91.112C228.805 91.736 228.373 92.48 227.941 93.344C227.701 93.728 227.533 94.112 227.437 94.496C227.389 94.88 227.341 95.264 227.293 95.648C227.293 96.368 227.317 97.088 227.365 97.808C227.461 98.48 227.797 99.248 228.373 100.112C228.613 100.304 228.805 100.52 228.949 100.76C229.141 101 229.237 101.12 229.237 101.12L229.669 101.48C229.765 101.48 229.837 101.624 229.885 101.912C229.981 102.152 230.053 102.272 230.101 102.272H231.397C231.973 102.608 232.429 102.896 232.765 103.136C233.101 103.328 233.413 103.472 233.701 103.568C233.989 103.616 234.301 103.664 234.637 103.712C234.973 103.76 235.405 103.784 235.933 103.784C236.221 103.784 236.509 103.784 236.797 103.784C237.133 103.736 237.469 103.712 237.805 103.712C238.093 103.712 238.405 103.712 238.741 103.712C239.077 103.712 239.485 103.76 239.965 103.856C241.021 103.856 241.885 103.808 242.557 103.712C243.277 103.568 243.973 103.4 244.645 103.208C245.365 103.016 246.109 102.848 246.877 102.704C247.693 102.56 248.677 102.464 249.829 102.416C250.117 102.32 250.453 102.104 250.837 101.768C251.269 101.384 251.485 101.144 251.485 101.048C251.485 100.904 251.365 100.832 251.125 100.832H251.485ZM278.513 92.264C278.417 91.832 278.201 91.496 277.865 91.256C277.529 91.016 277.361 90.68 277.361 90.248C276.929 90.104 276.593 89.984 276.353 89.888C276.113 89.744 275.897 89.648 275.705 89.6C275.561 89.504 275.393 89.384 275.201 89.24C275.057 89.096 274.817 88.952 274.481 88.808C274.385 88.808 274.097 88.688 273.617 88.448C273.185 88.16 272.897 87.992 272.753 87.944L271.745 87.44C271.121 87.152 270.665 86.888 270.377 86.648C270.137 86.408 269.993 86.192 269.945 86L268.649 84.776C268.457 84.776 268.265 84.68 268.073 84.488C267.929 84.248 267.857 83.768 267.857 83.048C267.857 82.376 267.929 81.872 268.073 81.536C268.265 81.2 268.817 80.792 269.729 80.312H269.873C270.017 80.312 270.209 80.264 270.449 80.168C270.689 80.072 270.905 79.88 271.097 79.592C271.097 79.496 271.169 79.4 271.313 79.304C271.457 79.208 272.033 79.016 273.041 78.728C273.281 78.728 273.473 78.704 273.617 78.656C273.761 78.56 273.953 78.44 274.193 78.296H275.201C275.345 78.296 275.489 78.296 275.633 78.296C275.777 78.248 275.945 78.2 276.137 78.152C276.089 78.152 276.065 78.128 276.065 78.08C276.113 78.08 276.137 78.056 276.137 78.008C276.137 77.96 276.161 77.936 276.209 77.936C276.209 77.792 276.185 77.672 276.137 77.576C276.137 77.48 276.137 77.384 276.137 77.288V76.856C276.137 76.136 275.945 75.728 275.561 75.632C275.225 75.488 274.937 75.296 274.697 75.056C274.121 75.152 273.617 75.224 273.185 75.272C272.801 75.272 272.321 75.272 271.745 75.272C271.409 75.272 271.169 75.272 271.025 75.272C270.929 75.224 270.857 75.176 270.809 75.128C270.185 75.368 269.633 75.536 269.153 75.632C268.673 75.68 268.145 75.824 267.569 76.064L264.833 77.216C264.209 77.6 263.513 77.96 262.745 78.296C262.025 78.632 261.425 79.088 260.945 79.664C260.705 80.096 260.321 80.504 259.793 80.888C259.793 81.32 259.673 81.656 259.433 81.896C259.241 82.136 259.145 82.424 259.145 82.76C259.145 82.856 259.169 82.928 259.217 82.976C259.265 83.024 259.289 83.168 259.289 83.408C259.289 83.6 259.265 83.816 259.217 84.056C259.169 84.296 259.097 84.464 259.001 84.56C259.001 84.992 259.121 85.472 259.361 86C259.649 86.48 259.913 86.768 260.153 86.864L260.801 87.44C261.281 87.632 261.689 87.848 262.025 88.088C262.361 88.328 262.673 88.592 262.961 88.88C263.249 89.12 263.537 89.36 263.825 89.6C264.161 89.792 264.569 89.912 265.049 89.96C265.721 90.2 266.129 90.416 266.273 90.608C266.465 90.752 266.561 90.896 266.561 91.04C266.609 91.136 266.681 91.256 266.777 91.4C266.873 91.496 267.233 91.688 267.857 91.976C267.857 92.168 268.025 92.432 268.361 92.768L268.937 93.344C269.081 93.728 269.153 94.088 269.153 94.424C269.153 94.856 268.985 95.216 268.649 95.504C268.361 95.744 268.001 95.96 267.569 96.152C267.185 96.296 266.825 96.392 266.489 96.44C266.153 96.488 265.985 96.488 265.985 96.44C264.881 96.776 264.089 97.016 263.609 97.16C263.177 97.304 262.745 97.376 262.313 97.376C261.977 97.376 261.305 97.304 260.297 97.16C260.201 97.304 260.033 97.376 259.793 97.376C259.553 97.376 259.241 97.304 258.857 97.16C258.521 97.016 258.377 96.968 258.425 97.016C258.713 97.688 258.833 98.312 258.785 98.888C258.737 99.416 258.833 99.68 259.073 99.68H259.145C259.097 99.728 259.049 99.8 259.001 99.896C258.953 99.992 258.929 100.112 258.929 100.256C258.929 100.256 258.953 100.256 259.001 100.256C258.905 100.304 258.857 100.328 258.857 100.328C258.857 100.424 259.049 100.592 259.433 100.832C259.865 101.024 260.105 101.12 260.153 101.12C261.065 101.024 261.977 100.88 262.889 100.688C263.801 100.496 264.809 100.4 265.913 100.4C266.585 100.4 267.209 100.472 267.785 100.616C268.361 100.76 268.961 100.832 269.585 100.832C270.497 100.832 271.217 100.736 271.745 100.544C272.321 100.352 272.777 100.16 273.113 99.968C273.449 99.728 273.761 99.536 274.049 99.392C274.337 99.2 274.673 99.104 275.057 99.104L276.569 98.384C277.097 98.096 277.577 97.688 278.009 97.16C278.489 96.584 278.729 95.96 278.729 95.288C278.729 94.856 278.681 94.4 278.585 93.92C278.537 93.44 278.513 92.888 278.513 92.264Z" fill="#171717"/>
</svg>
