<svg width="381" height="29" viewBox="0 0 381 29" fill="none" xmlns="http://www.w3.org/2000/svg">
<path d="M25.52 23.08C25.32 22.6 25.18 22.26 25.1 22.06C25.06 21.86 25.04 21.72 25.04 21.64C24.48 21.64 24 21.64 23.6 21.64C23.24 21.6 22.9 21.58 22.58 21.58L20.06 21.46C18.9 21.5 17.9 21.56 17.06 21.64C16.22 21.68 15.28 21.7 14.24 21.7C13.76 21.62 13.38 21.56 13.1 21.52C12.82 21.48 12.56 21.44 12.32 21.4C12.12 21.36 11.92 21.32 11.72 21.28C11.52 21.2 11.28 21.1 11 20.98C10.96 21.02 10.9 21.04 10.82 21.04C10.42 21.04 10.02 20.9 9.62 20.62C9.26 20.34 8.92 19.98 8.6 19.54C8.28 19.1 8.02 18.6 7.82 18.04C7.66 17.44 7.58 16.8 7.58 16.12C7.58 15.52 7.68 15.04 7.88 14.68C8.08 14.32 8.32 13.98 8.6 13.66C8.92 13.34 9.24 13.02 9.56 12.7C9.88 12.38 10.16 11.94 10.4 11.38C10.68 11.18 10.88 11.06 11 11.02L11.3 10.78C11.3 10.78 11.38 10.7 11.54 10.54C11.7 10.38 11.88 10.2 12.08 10C12.32 9.8 12.54 9.62 12.74 9.46C12.98 9.26 13.14 9.16 13.22 9.16C13.46 9.04 13.8 8.9 14.24 8.74C14.72 8.58 15.18 8.44 15.62 8.32C16.06 8.2 16.46 8.1 16.82 8.02C17.18 7.94 17.44 7.9 17.6 7.9C17.88 7.98 18.08 8.06 18.2 8.14C18.36 8.18 18.46 8.2 18.5 8.2C19.02 8.2 19.46 8.18 19.82 8.14C20.22 8.06 20.6 8.02 20.96 8.02L22.94 7.84L24.08 5.08C24.04 4.84 24.02 4.58 24.02 4.3C24.06 3.98 24.06 3.68 24.02 3.4C23.98 3.08 23.92 2.8 23.84 2.56C23.8 2.28 23.66 2.02 23.42 1.78H19.1C18.46 1.78 17.8 1.78 17.12 1.78C16.48 1.74 15.74 1.72 14.9 1.72L13.28 2.2C12.68 2.2 12.06 2.3 11.42 2.5C10.82 2.66 10.24 2.86 9.68 3.1C9.12 3.34 8.62 3.58 8.18 3.82C7.74 4.06 7.46 4.24 7.34 4.36C6.54 5.04 5.86 5.66 5.3 6.22C4.74 6.74 4.22 7.3 3.74 7.9C3.3 8.5 2.88 9.16 2.48 9.88C2.08 10.56 1.64 11.4 1.16 12.4C0.88 13 0.7 13.64 0.62 14.32C0.54 14.96 0.5 15.64 0.5 16.36C0.5 17.64 0.6 18.64 0.8 19.36C1.04 20.04 1.28 20.58 1.52 20.98C1.76 21.34 1.98 21.62 2.18 21.82C2.42 22.02 2.54 22.26 2.54 22.54L3.92 23.8L4.64 23.98C5.32 24.18 5.82 24.36 6.14 24.52C6.5 24.68 6.8 24.82 7.04 24.94C7.28 25.02 7.5 25.12 7.7 25.24C7.94 25.36 8.3 25.5 8.78 25.66C8.94 25.7 9.08 25.74 9.2 25.78C9.36 25.78 9.52 25.78 9.68 25.78C10 25.78 10.3 25.76 10.58 25.72C10.9 25.68 11.26 25.66 11.66 25.66C11.98 25.66 12.32 25.68 12.68 25.72C13.04 25.72 13.48 25.76 14 25.84C15.12 25.84 16.06 25.84 16.82 25.84C17.58 25.84 18.3 25.84 18.98 25.84C19.7 25.8 20.44 25.78 21.2 25.78C22 25.74 22.96 25.7 24.08 25.66L24.68 25.12C24.88 24.96 25.02 24.86 25.1 24.82C25.22 24.78 25.48 24.56 25.88 24.16L26.3 23.74C26.26 23.74 26.12 23.72 25.88 23.68C25.64 23.6 25.52 23.4 25.52 23.08ZM34.3128 6.52C34.5928 6.52 34.8328 6.64 35.0328 6.88C35.2728 7.12 35.4728 7.4 35.6328 7.72C35.8328 8.04 36.0128 8.32 36.1728 8.56C36.3328 8.8 36.4728 8.92 36.5928 8.92C36.9928 8.84 37.5928 8.68 38.3928 8.44C39.2328 8.16 40.1328 7.88 41.0928 7.6C42.0928 7.32 43.0528 7.08 43.9728 6.88C44.9328 6.68 45.7128 6.58 46.3128 6.58C46.6328 6.58 46.8528 6.64 46.9728 6.76C47.1328 6.88 47.2328 7.02 47.2728 7.18C47.3128 7.34 47.3528 7.5 47.3928 7.66C47.4728 7.78 47.6128 7.88 47.8128 7.96C47.8928 8.08 48.0128 8.2 48.1728 8.32C48.3328 8.4 48.4128 8.56 48.4128 8.8C48.2128 9.28 48.0928 9.74 48.0528 10.18C48.0128 10.58 47.9928 10.96 47.9928 11.32V11.68L46.2528 11.8C45.9728 11.84 45.6928 11.88 45.4128 11.92C45.1328 11.92 44.8128 11.92 44.4528 11.92L42.6528 12.94C42.1328 12.94 41.6928 13 41.3328 13.12C40.9728 13.2 40.5928 13.34 40.1928 13.54C39.8328 13.7 39.4128 13.88 38.9328 14.08C38.4528 14.28 37.8128 14.48 37.0128 14.68C35.0928 15.64 33.6528 16.8 32.6928 18.16C31.7728 19.52 31.3128 21.2 31.3128 23.2C31.3128 23.84 31.5328 24.48 31.9728 25.12C32.4128 25.72 32.9528 26.28 33.5928 26.8C34.2328 27.28 34.8928 27.68 35.5728 28C36.2528 28.28 36.8528 28.42 37.3728 28.42C37.9728 28.42 38.5328 28.42 39.0528 28.42C39.5728 28.46 40.0928 28.48 40.6128 28.48H43.9128H43.9728C44.0528 28.48 44.1128 28.42 44.1528 28.3C44.2328 28.22 44.3128 28.12 44.3928 28C44.5128 27.84 44.6928 27.72 44.9328 27.64C45.2128 27.52 45.5928 27.46 46.0728 27.46C46.5928 27.46 47.1328 27.62 47.6928 27.94C48.2528 28.22 48.7328 28.36 49.1328 28.36C49.4528 28.36 49.7528 28.34 50.0328 28.3C50.3128 28.26 50.5928 28.2 50.8728 28.12C51.1928 28.04 51.5528 27.98 51.9528 27.94C52.3528 27.86 52.8128 27.82 53.3328 27.82C53.4528 28.02 53.6728 28.2 53.9928 28.36H54.8328C54.8728 28.16 54.9528 27.98 55.0728 27.82C55.1928 27.62 55.3328 27.36 55.4928 27.04C55.4528 26.12 55.3928 25.3 55.3128 24.58C55.2728 23.86 55.2328 23.18 55.1928 22.54C55.1928 21.86 55.1728 21.16 55.1328 20.44C55.1328 19.72 55.1128 18.9 55.0728 17.98H55.2528C55.2928 17.94 55.3328 17.92 55.3728 17.92C55.2528 17.92 55.1528 17.76 55.0728 17.44C54.9928 17.12 54.9328 16.8 54.8928 16.48C54.8528 16.12 54.8128 15.8 54.7728 15.52C54.7728 15.2 54.7728 15.04 54.7728 15.04C54.7328 14.72 54.6528 14.48 54.5328 14.32C54.4528 14.12 54.3528 13.9 54.2328 13.66C54.1528 13.38 54.0528 13 53.9328 12.52C53.8528 12.04 53.7928 11.26 53.7528 10.18C53.6328 10.1 53.5328 9.86 53.4528 9.46C53.3728 9.06 53.2928 8.64 53.2128 8.2C53.1728 7.72 53.1328 7.28 53.0928 6.88C53.0928 6.44 53.0728 6.18 53.0328 6.1H52.9128C52.5928 6.1 52.3328 5.92 52.1328 5.56C51.9328 5.2 51.7528 4.8 51.5928 4.36C51.4328 3.92 51.2928 3.54 51.1728 3.22C51.0528 2.86 50.9128 2.68 50.7528 2.68C50.6728 2.6 50.5928 2.52 50.5128 2.44C50.4328 2.32 50.3528 2.22 50.2728 2.14H49.3128C48.9128 2.14 48.5728 2.14 48.2928 2.14C48.0528 2.14 47.8128 2.14 47.5728 2.14C47.3728 2.14 47.1528 2.12 46.9128 2.08C46.6728 2.04 46.3728 1.98 46.0128 1.9C45.9728 2.1 45.7328 2.24 45.2928 2.32C44.8928 2.36 44.4328 2.38 43.9128 2.38C43.4328 2.38 42.9728 2.38 42.5328 2.38C42.1328 2.38 41.9128 2.44 41.8728 2.56C40.7928 2.92 39.8128 3.22 38.9328 3.46C38.0528 3.7 37.3128 3.96 36.7128 4.24C36.1128 4.48 35.6128 4.78 35.2128 5.14C34.8128 5.46 34.5128 5.92 34.3128 6.52ZM47.3328 16.6V19.66C47.1328 20.3 47.0128 20.96 46.9728 21.64C46.9328 22.32 46.9128 22.82 46.9128 23.14V23.62H46.0728C45.2728 23.7 44.5328 23.76 43.8528 23.8C43.1728 23.84 42.5128 23.88 41.8728 23.92L37.6728 24.16C37.3928 23.68 37.1528 23.3 36.9528 23.02C36.7928 22.74 36.7128 22.32 36.7128 21.76C36.7128 20.64 36.8528 19.76 37.1328 19.12C37.4528 18.48 37.8728 18 38.3928 17.68C38.9528 17.32 39.5928 17.06 40.3128 16.9C41.0328 16.74 41.7928 16.56 42.5928 16.36C42.9928 16.24 43.3528 16.14 43.6728 16.06C44.0328 15.98 44.3728 15.94 44.6928 15.94H44.9328C45.3328 16.06 45.7328 16.18 46.1328 16.3C46.5728 16.42 46.9728 16.52 47.3328 16.6ZM93.7897 21.28L93.6097 10.12C93.3297 9.48 93.0097 8.86 92.6497 8.26C92.2897 7.66 91.8097 7.22 91.2097 6.94L85.3297 6.82L83.4697 7L82.7497 7.42L81.3097 7.66L78.4297 5.92L75.1897 5.68L71.6497 6.94L70.9297 6.76L70.6297 6.22L69.1297 5.2L67.8097 5.38L65.1097 4.72L63.9097 7L63.4297 12.1V22.66L66.5497 22.9L67.3897 22.48H70.5697L71.8897 22.18V10.12H74.8897L75.6097 11.14L75.8497 13.42V18.1V21.64L76.4497 22.18H81.3697L82.6897 21.16L82.0897 17.02V14.2V12.22L82.2097 10.9L84.7897 11.14L85.1497 12.22L85.9297 18.46V21.46L87.4897 22.12H93.2497L93.7897 21.28ZM111.056 4.36L109.016 3.52L106.376 3.04L104.456 2.62L103.016 3.1V8.8L103.196 9.52L106.796 8.92L109.616 9.46L110.456 8.86L111.056 4.36ZM111.476 24.34L110.456 23.5L110.816 22.42V19.6L110.396 18.1V13.96L109.676 13.18L108.416 13.12L107.936 13.36L105.536 13.18L104.516 13.66L103.256 28.18L103.856 28.84H104.936L105.656 28.6H110.276L111.416 28.06L111.116 26.62L111.476 24.34ZM140.672 7.96L139.712 7.18H135.572L132.092 8.62L130.712 9.22L129.452 9.76L127.592 6.4H123.392L122.312 7.96V9.46V19.96L123.152 21.94L124.712 21.34H125.672L126.572 21.88L129.452 21.16L129.092 15.4L128.972 15.28V12.88L132.812 12.46L133.892 11.86H134.612L135.992 13.84L135.032 20.8L135.812 21.46H142.052L142.652 20.74V13.54L142.892 12.16L140.672 7.96ZM149.945 13C149.825 13.72 149.745 14.4 149.705 15.04C149.705 15.68 149.705 16.26 149.705 16.78C149.705 17.74 149.845 18.58 150.125 19.3L150.725 20.08L157.085 21.94H158.525C158.685 21.9 158.865 21.84 159.065 21.76C159.265 21.68 159.485 21.56 159.725 21.4L164.765 19.72C165.045 19.6 165.445 19.4 165.965 19.12C166.525 18.84 167.045 18.52 167.525 18.16C168.045 17.76 168.485 17.32 168.845 16.84C169.205 16.36 169.385 15.86 169.385 15.34C169.385 13.42 168.885 11.68 167.885 10.12C166.925 8.56 165.545 7.36 163.745 6.52H163.625C163.465 6.52 163.185 6.54 162.785 6.58C162.385 6.62 162.025 6.64 161.705 6.64C161.425 6.64 161.165 6.6 160.925 6.52C160.725 6.44 160.625 6.32 160.625 6.16L156.365 6.82C155.645 7.02 154.925 7.3 154.205 7.66C153.485 8.02 152.825 8.46 152.225 8.98C151.625 9.46 151.125 10.04 150.725 10.72C150.325 11.36 150.065 12.12 149.945 13ZM161.045 10.24C161.525 10.4 162.045 10.54 162.605 10.66C163.165 10.78 163.685 10.96 164.165 11.2C164.645 11.4 165.065 11.68 165.425 12.04C165.825 12.4 166.125 12.94 166.325 13.66L164.765 15.94L158.345 17.26H157.505L155.945 15.88L156.245 12.28C156.485 12.16 156.725 11.98 156.965 11.74C157.205 11.5 157.465 11.26 157.745 11.02C158.065 10.74 158.405 10.52 158.765 10.36C159.165 10.16 159.585 10.06 160.025 10.06C160.305 10.06 160.645 10.12 161.045 10.24ZM218.184 0.519998L215.244 1.06L213.624 0.639998H197.664L196.404 1.54V28.18L200.364 28.54L206.364 27.64L206.604 24.22L205.584 22L205.044 16.36H208.104L212.664 15.58L213.744 15.88H215.784L216.324 14.92L216.624 13.48L215.784 13.12L211.344 12.4H204.924L204.444 11.5V5.92L204.264 5.62L204.804 5.14L207.024 5.5L207.144 6.16L207.264 6.22L208.284 5.5H217.644L218.604 4.18L218.184 0.519998ZM245.315 8.44L243.035 4.84L242.255 5.08L238.235 8.32L236.435 11.44L235.175 12.64V8.5L233.555 5.02H230.075L229.115 6.1V21.46L228.815 22.12L228.935 23.68L235.535 23.14L236.555 22.54V21.34L236.855 19.42L236.555 16.24C236.835 16.04 237.055 15.8 237.215 15.52C237.415 15.24 237.615 14.96 237.815 14.68C238.055 14.4 238.315 14.1 238.595 13.78C238.915 13.42 239.295 13.08 239.735 12.76L242.495 10.66C242.935 10.34 243.375 10 243.815 9.64C244.295 9.28 244.795 8.88 245.315 8.44ZM251.871 6.52C252.151 6.52 252.391 6.64 252.591 6.88C252.831 7.12 253.031 7.4 253.191 7.72C253.391 8.04 253.571 8.32 253.731 8.56C253.891 8.8 254.031 8.92 254.151 8.92C254.551 8.84 255.151 8.68 255.951 8.44C256.791 8.16 257.691 7.88 258.651 7.6C259.651 7.32 260.611 7.08 261.531 6.88C262.491 6.68 263.271 6.58 263.871 6.58C264.191 6.58 264.411 6.64 264.531 6.76C264.691 6.88 264.791 7.02 264.831 7.18C264.871 7.34 264.911 7.5 264.951 7.66C265.031 7.78 265.171 7.88 265.371 7.96C265.451 8.08 265.571 8.2 265.731 8.32C265.891 8.4 265.971 8.56 265.971 8.8C265.771 9.28 265.651 9.74 265.611 10.18C265.571 10.58 265.551 10.96 265.551 11.32V11.68L263.811 11.8C263.531 11.84 263.251 11.88 262.971 11.92C262.691 11.92 262.371 11.92 262.011 11.92L260.211 12.94C259.691 12.94 259.251 13 258.891 13.12C258.531 13.2 258.151 13.34 257.751 13.54C257.391 13.7 256.971 13.88 256.491 14.08C256.011 14.28 255.371 14.48 254.571 14.68C252.651 15.64 251.211 16.8 250.251 18.16C249.331 19.52 248.871 21.2 248.871 23.2C248.871 23.84 249.091 24.48 249.531 25.12C249.971 25.72 250.511 26.28 251.151 26.8C251.791 27.28 252.451 27.68 253.131 28C253.811 28.28 254.411 28.42 254.931 28.42C255.531 28.42 256.091 28.42 256.611 28.42C257.131 28.46 257.651 28.48 258.171 28.48H261.471H261.531C261.611 28.48 261.671 28.42 261.711 28.3C261.791 28.22 261.871 28.12 261.951 28C262.071 27.84 262.251 27.72 262.491 27.64C262.771 27.52 263.151 27.46 263.631 27.46C264.151 27.46 264.691 27.62 265.251 27.94C265.811 28.22 266.291 28.36 266.691 28.36C267.011 28.36 267.311 28.34 267.591 28.3C267.871 28.26 268.151 28.2 268.431 28.12C268.751 28.04 269.111 27.98 269.511 27.94C269.911 27.86 270.371 27.82 270.891 27.82C271.011 28.02 271.231 28.2 271.551 28.36H272.391C272.431 28.16 272.511 27.98 272.631 27.82C272.751 27.62 272.891 27.36 273.051 27.04C273.011 26.12 272.951 25.3 272.871 24.58C272.831 23.86 272.791 23.18 272.751 22.54C272.751 21.86 272.731 21.16 272.691 20.44C272.691 19.72 272.671 18.9 272.631 17.98H272.811C272.851 17.94 272.891 17.92 272.931 17.92C272.811 17.92 272.711 17.76 272.631 17.44C272.551 17.12 272.491 16.8 272.451 16.48C272.411 16.12 272.371 15.8 272.331 15.52C272.331 15.2 272.331 15.04 272.331 15.04C272.291 14.72 272.211 14.48 272.091 14.32C272.011 14.12 271.911 13.9 271.791 13.66C271.711 13.38 271.611 13 271.491 12.52C271.411 12.04 271.351 11.26 271.311 10.18C271.191 10.1 271.091 9.86 271.011 9.46C270.931 9.06 270.851 8.64 270.771 8.2C270.731 7.72 270.691 7.28 270.651 6.88C270.651 6.44 270.631 6.18 270.591 6.1H270.471C270.151 6.1 269.891 5.92 269.691 5.56C269.491 5.2 269.311 4.8 269.151 4.36C268.991 3.92 268.851 3.54 268.731 3.22C268.611 2.86 268.471 2.68 268.311 2.68C268.231 2.6 268.151 2.52 268.071 2.44C267.991 2.32 267.911 2.22 267.831 2.14H266.871C266.471 2.14 266.131 2.14 265.851 2.14C265.611 2.14 265.371 2.14 265.131 2.14C264.931 2.14 264.711 2.12 264.471 2.08C264.231 2.04 263.931 1.98 263.571 1.9C263.531 2.1 263.291 2.24 262.851 2.32C262.451 2.36 261.991 2.38 261.471 2.38C260.991 2.38 260.531 2.38 260.091 2.38C259.691 2.38 259.471 2.44 259.431 2.56C258.351 2.92 257.371 3.22 256.491 3.46C255.611 3.7 254.871 3.96 254.271 4.24C253.671 4.48 253.171 4.78 252.771 5.14C252.371 5.46 252.071 5.92 251.871 6.52ZM264.891 16.6V19.66C264.691 20.3 264.571 20.96 264.531 21.64C264.491 22.32 264.471 22.82 264.471 23.14V23.62H263.631C262.831 23.7 262.091 23.76 261.411 23.8C260.731 23.84 260.071 23.88 259.431 23.92L255.231 24.16C254.951 23.68 254.711 23.3 254.511 23.02C254.351 22.74 254.271 22.32 254.271 21.76C254.271 20.64 254.411 19.76 254.691 19.12C255.011 18.48 255.431 18 255.951 17.68C256.511 17.32 257.151 17.06 257.871 16.9C258.591 16.74 259.351 16.56 260.151 16.36C260.551 16.24 260.911 16.14 261.231 16.06C261.591 15.98 261.931 15.94 262.251 15.94H262.491C262.891 16.06 263.291 16.18 263.691 16.3C264.131 16.42 264.531 16.52 264.891 16.6ZM299.168 7.96L298.208 7.18H294.068L290.588 8.62L289.208 9.22L287.948 9.76L286.088 6.4H281.888L280.808 7.96V9.46V19.96L281.648 21.94L283.208 21.34H284.168L285.068 21.88L287.948 21.16L287.588 15.4L287.468 15.28V12.88L291.308 12.46L292.388 11.86H293.108L294.488 13.84L293.528 20.8L294.308 21.46H300.548L301.148 20.74V13.54L301.388 12.16L299.168 7.96ZM330.761 25.36L330.521 25.12C330.521 24.92 330.461 24.74 330.341 24.58C330.261 24.38 330.181 24.16 330.101 23.92C329.821 23.92 329.581 23.98 329.381 24.1C329.181 24.18 328.961 24.28 328.721 24.4C328.521 24.48 328.281 24.58 328.001 24.7C327.721 24.78 327.341 24.82 326.861 24.82H326.561C326.081 24.86 325.661 24.88 325.301 24.88C324.981 24.88 324.661 24.9 324.341 24.94C324.061 24.94 323.741 24.96 323.381 25C323.061 25 322.681 25 322.241 25C321.521 24.92 320.901 24.88 320.381 24.88C319.901 24.84 319.321 24.72 318.641 24.52C318.601 24.56 318.581 24.58 318.581 24.58C318.541 24.58 318.501 24.6 318.461 24.64C318.461 24.64 318.421 24.64 318.341 24.64C317.861 24.48 317.501 24.36 317.261 24.28C317.061 24.2 316.961 24.06 316.961 23.86C316.961 23.7 316.761 23.42 316.361 23.02C316.001 22.62 315.821 22.16 315.821 21.64C315.821 21.16 315.981 20.68 316.301 20.2C316.661 19.72 317.041 19.32 317.441 19C317.881 18.64 318.261 18.36 318.581 18.16C318.901 17.96 319.021 17.88 318.941 17.92C319.021 17.92 319.101 17.88 319.181 17.8C319.261 17.76 319.321 17.72 319.361 17.68C319.441 17.6 319.541 17.52 319.661 17.44C319.861 17.2 320.101 17.02 320.381 16.9C320.701 16.74 321.401 16.58 322.481 16.42C323.321 16.26 323.981 16.14 324.461 16.06C324.981 15.98 325.421 15.94 325.781 15.94C326.141 15.94 326.481 15.94 326.801 15.94C327.121 15.94 327.541 15.94 328.061 15.94C328.181 15.54 328.281 15.26 328.361 15.1C328.441 14.94 328.641 14.58 328.961 14.02C328.881 13.62 328.841 13.16 328.841 12.64C328.881 12.08 328.741 11.78 328.421 11.74H325.121C324.641 11.74 324.141 11.74 323.621 11.74C323.141 11.7 322.561 11.68 321.881 11.68C320.841 12.04 319.741 12.3 318.581 12.46C317.461 12.62 316.481 12.96 315.641 13.48C315.121 13.88 314.661 14.26 314.261 14.62C313.901 14.98 313.541 15.38 313.181 15.82C312.861 16.26 312.521 16.74 312.161 17.26C311.841 17.78 311.481 18.4 311.081 19.12C310.921 19.44 310.801 19.76 310.721 20.08C310.641 20.4 310.581 20.72 310.541 21.04C310.541 21.64 310.561 22.24 310.601 22.84C310.681 23.4 310.981 24.04 311.501 24.76C311.661 24.92 311.821 25.1 311.981 25.3C312.141 25.5 312.221 25.6 312.221 25.6L312.521 25.9C312.601 25.9 312.681 26.02 312.761 26.26C312.841 26.46 312.901 26.56 312.941 26.56H313.961C314.441 26.84 314.821 27.08 315.101 27.28C315.381 27.44 315.641 27.56 315.881 27.64C316.161 27.68 316.441 27.72 316.721 27.76C317.001 27.8 317.361 27.82 317.801 27.82C318.001 27.82 318.221 27.82 318.461 27.82C318.741 27.78 319.021 27.76 319.301 27.76C319.581 27.76 319.861 27.76 320.141 27.76C320.421 27.76 320.761 27.8 321.161 27.88C322.001 27.88 322.701 27.84 323.261 27.76C323.861 27.64 324.441 27.5 325.001 27.34C325.601 27.18 326.221 27.04 326.861 26.92C327.541 26.8 328.381 26.72 329.381 26.68C329.581 26.6 329.861 26.42 330.221 26.14C330.581 25.82 330.761 25.62 330.761 25.54C330.761 25.42 330.641 25.36 330.401 25.36H330.761ZM358.273 25.36L358.093 25.12C358.093 24.92 358.033 24.74 357.913 24.58C357.793 24.38 357.693 24.16 357.613 23.92C357.373 23.92 357.153 23.98 356.953 24.1C356.753 24.18 356.533 24.28 356.293 24.4C356.093 24.48 355.833 24.58 355.513 24.7C355.233 24.78 354.873 24.82 354.433 24.82H354.133C353.653 24.86 353.233 24.88 352.873 24.88C352.513 24.88 352.173 24.9 351.853 24.94C351.533 24.94 351.213 24.96 350.893 25C350.573 25 350.193 25 349.753 25C348.993 24.88 348.493 24.8 348.253 24.76C348.053 24.68 347.953 24.64 347.953 24.64C347.953 24.64 347.973 24.64 348.013 24.64C348.053 24.64 347.993 24.6 347.833 24.52C347.793 24.56 347.753 24.58 347.713 24.58C347.673 24.58 347.633 24.6 347.593 24.64C347.593 24.64 347.553 24.64 347.473 24.64C347.033 24.48 346.673 24.36 346.393 24.28C346.153 24.2 346.033 24.06 346.033 23.86C346.033 23.7 345.833 23.42 345.433 23.02C345.073 22.62 344.893 22.16 344.893 21.64C344.893 21.04 344.953 20.28 345.073 19.36C345.193 18.4 345.433 17.64 345.793 17.08C346.113 16.88 346.673 16.66 347.473 16.42C348.273 16.14 349.073 16 349.873 16C350.353 16 350.713 16.08 350.953 16.24C351.233 16.36 351.453 16.52 351.613 16.72C351.773 16.92 351.853 17.14 351.853 17.38C351.893 17.58 351.913 17.78 351.913 17.98C351.913 18.26 351.813 18.46 351.613 18.58C351.413 18.7 351.173 18.78 350.893 18.82C350.613 18.86 350.333 18.88 350.053 18.88C349.773 18.88 349.533 18.9 349.333 18.94C348.533 19.18 347.873 19.34 347.353 19.42C346.873 19.5 346.593 19.54 346.513 19.54C346.713 19.62 346.853 19.78 346.933 20.02C347.013 20.26 347.073 20.52 347.113 20.8C347.153 21.04 347.173 21.28 347.173 21.52C347.173 21.72 347.193 21.82 347.233 21.82C348.633 21.82 349.793 21.76 350.713 21.64C351.633 21.52 352.393 21.38 352.993 21.22C353.593 21.02 354.073 20.86 354.433 20.74C354.793 20.58 355.153 20.48 355.513 20.44C355.673 20.04 355.853 19.8 356.053 19.72C356.253 19.6 356.473 19.4 356.713 19.12C356.633 18.56 356.493 18 356.293 17.44C356.133 16.84 355.953 16.3 355.753 15.82C355.553 15.3 355.353 14.86 355.153 14.5C354.993 14.14 354.913 13.92 354.913 13.84C354.633 13.84 354.393 13.78 354.193 13.66C354.033 13.54 353.893 13.42 353.773 13.3C353.693 13.18 353.633 13.06 353.593 12.94C353.553 12.82 353.513 12.76 353.473 12.76C353.033 12.76 352.693 12.66 352.453 12.46C352.293 12.38 352.173 12.28 352.093 12.16C351.453 12.16 350.953 12.08 350.593 11.92C350.233 11.76 349.833 11.68 349.393 11.68C348.393 12.04 347.313 12.3 346.153 12.46C345.033 12.62 344.033 12.96 343.153 13.48C342.673 13.88 342.233 14.26 341.833 14.62C341.433 14.98 341.073 15.38 340.753 15.82C340.433 16.26 340.093 16.74 339.733 17.26C339.373 17.78 339.013 18.4 338.653 19.12C338.453 19.44 338.313 19.76 338.233 20.08C338.193 20.4 338.153 20.72 338.113 21.04C338.113 21.64 338.133 22.24 338.173 22.84C338.253 23.4 338.533 24.04 339.013 24.76C339.213 24.92 339.373 25.1 339.493 25.3C339.653 25.5 339.733 25.6 339.733 25.6L340.093 25.9C340.173 25.9 340.233 26.02 340.273 26.26C340.353 26.46 340.413 26.56 340.453 26.56H341.533C342.013 26.84 342.393 27.08 342.673 27.28C342.953 27.44 343.213 27.56 343.453 27.64C343.693 27.68 343.953 27.72 344.233 27.76C344.513 27.8 344.873 27.82 345.313 27.82C345.553 27.82 345.793 27.82 346.033 27.82C346.313 27.78 346.593 27.76 346.873 27.76C347.113 27.76 347.373 27.76 347.653 27.76C347.933 27.76 348.273 27.8 348.673 27.88C349.553 27.88 350.273 27.84 350.833 27.76C351.433 27.64 352.013 27.5 352.573 27.34C353.173 27.18 353.793 27.04 354.433 26.92C355.113 26.8 355.933 26.72 356.893 26.68C357.133 26.6 357.413 26.42 357.733 26.14C358.093 25.82 358.273 25.62 358.273 25.54C358.273 25.42 358.173 25.36 357.973 25.36H358.273ZM380.796 18.22C380.716 17.86 380.536 17.58 380.256 17.38C379.976 17.18 379.836 16.9 379.836 16.54C379.476 16.42 379.196 16.32 378.996 16.24C378.796 16.12 378.616 16.04 378.456 16C378.336 15.92 378.196 15.82 378.036 15.7C377.916 15.58 377.716 15.46 377.436 15.34C377.356 15.34 377.116 15.24 376.716 15.04C376.356 14.8 376.116 14.66 375.996 14.62L375.156 14.2C374.636 13.96 374.256 13.74 374.016 13.54C373.816 13.34 373.696 13.16 373.656 13L372.576 11.98C372.416 11.98 372.256 11.9 372.096 11.74C371.976 11.54 371.916 11.14 371.916 10.54C371.916 9.98 371.976 9.56 372.096 9.28C372.256 9 372.716 8.66 373.476 8.26H373.596C373.716 8.26 373.876 8.22 374.076 8.14C374.276 8.06 374.456 7.9 374.616 7.66C374.616 7.58 374.676 7.5 374.796 7.42C374.916 7.34 375.396 7.18 376.236 6.94C376.436 6.94 376.596 6.92 376.716 6.88C376.836 6.8 376.996 6.7 377.196 6.58H378.036C378.156 6.58 378.276 6.58 378.396 6.58C378.516 6.54 378.656 6.5 378.816 6.46C378.776 6.46 378.756 6.44 378.756 6.4C378.796 6.4 378.816 6.38 378.816 6.34C378.816 6.3 378.836 6.28 378.876 6.28C378.876 6.16 378.856 6.06 378.816 5.98C378.816 5.9 378.816 5.82 378.816 5.74V5.38C378.816 4.78 378.656 4.44 378.336 4.36C378.056 4.24 377.816 4.08 377.616 3.88C377.136 3.96 376.716 4.02 376.356 4.06C376.036 4.06 375.636 4.06 375.156 4.06C374.876 4.06 374.676 4.06 374.556 4.06C374.476 4.02 374.416 3.98 374.376 3.94C373.856 4.14 373.396 4.28 372.996 4.36C372.596 4.4 372.156 4.52 371.676 4.72L369.396 5.68C368.876 6 368.296 6.3 367.656 6.58C367.056 6.86 366.556 7.24 366.156 7.72C365.956 8.08 365.636 8.42 365.196 8.74C365.196 9.1 365.096 9.38 364.896 9.58C364.736 9.78 364.656 10.02 364.656 10.3C364.656 10.38 364.676 10.44 364.716 10.48C364.756 10.52 364.776 10.64 364.776 10.84C364.776 11 364.756 11.18 364.716 11.38C364.676 11.58 364.616 11.72 364.536 11.8C364.536 12.16 364.636 12.56 364.836 13C365.076 13.4 365.296 13.64 365.496 13.72L366.036 14.2C366.436 14.36 366.776 14.54 367.056 14.74C367.336 14.94 367.596 15.16 367.836 15.4C368.076 15.6 368.316 15.8 368.556 16C368.836 16.16 369.176 16.26 369.576 16.3C370.136 16.5 370.476 16.68 370.596 16.84C370.756 16.96 370.836 17.08 370.836 17.2C370.876 17.28 370.936 17.38 371.016 17.5C371.096 17.58 371.396 17.74 371.916 17.98C371.916 18.14 372.056 18.36 372.336 18.64L372.816 19.12C372.936 19.44 372.996 19.74 372.996 20.02C372.996 20.38 372.856 20.68 372.576 20.92C372.336 21.12 372.036 21.3 371.676 21.46C371.356 21.58 371.056 21.66 370.776 21.7C370.496 21.74 370.356 21.74 370.356 21.7C369.436 21.98 368.776 22.18 368.376 22.3C368.016 22.42 367.656 22.48 367.296 22.48C367.016 22.48 366.456 22.42 365.616 22.3C365.536 22.42 365.396 22.48 365.196 22.48C364.996 22.48 364.736 22.42 364.416 22.3C364.136 22.18 364.016 22.14 364.056 22.18C364.296 22.74 364.396 23.26 364.356 23.74C364.316 24.18 364.396 24.4 364.596 24.4H364.656C364.616 24.44 364.576 24.5 364.536 24.58C364.496 24.66 364.476 24.76 364.476 24.88C364.476 24.88 364.496 24.88 364.536 24.88C364.456 24.92 364.416 24.94 364.416 24.94C364.416 25.02 364.576 25.16 364.896 25.36C365.256 25.52 365.456 25.6 365.496 25.6C366.256 25.52 367.016 25.4 367.776 25.24C368.536 25.08 369.376 25 370.296 25C370.856 25 371.376 25.06 371.856 25.18C372.336 25.3 372.836 25.36 373.356 25.36C374.116 25.36 374.716 25.28 375.156 25.12C375.636 24.96 376.016 24.8 376.296 24.64C376.576 24.44 376.836 24.28 377.076 24.16C377.316 24 377.596 23.92 377.916 23.92L379.176 23.32C379.616 23.08 380.016 22.74 380.376 22.3C380.776 21.82 380.976 21.3 380.976 20.74C380.976 20.38 380.936 20 380.856 19.6C380.816 19.2 380.796 18.74 380.796 18.22Z" fill="#FFFEFE"/>
</svg>
