<svg width="415" height="40" viewBox="0 0 415 40" fill="none" xmlns="http://www.w3.org/2000/svg">
<path d="M24.9403 24.244C24.747 23.78 24.6116 23.4513 24.5343 23.258C24.4956 23.0647 24.4763 22.9293 24.4763 22.852C23.935 22.852 23.471 22.852 23.0843 22.852C22.7363 22.8133 22.4076 22.794 22.0983 22.794L19.6623 22.678C18.541 22.7167 17.5743 22.7747 16.7623 22.852C15.9503 22.8907 15.0416 22.91 14.0363 22.91C13.5723 22.8327 13.205 22.7747 12.9343 22.736C12.6636 22.6973 12.4123 22.6587 12.1803 22.62C11.987 22.5813 11.7936 22.5427 11.6003 22.504C11.407 22.4267 11.175 22.33 10.9043 22.214C10.8656 22.2527 10.8076 22.272 10.7303 22.272C10.3436 22.272 9.95696 22.1367 9.5703 21.866C9.2223 21.5953 8.89363 21.2473 8.5843 20.822C8.27496 20.3967 8.02363 19.9133 7.8303 19.372C7.67563 18.792 7.5983 18.1733 7.5983 17.516C7.5983 16.936 7.69496 16.472 7.8883 16.124C8.08163 15.776 8.31363 15.4473 8.5843 15.138C8.89363 14.8287 9.20296 14.5193 9.5123 14.21C9.82163 13.9007 10.0923 13.4753 10.3243 12.934C10.595 12.7407 10.7883 12.6247 10.9043 12.586L11.1943 12.354C11.1943 12.354 11.2716 12.2767 11.4263 12.122C11.581 11.9673 11.755 11.7933 11.9483 11.6C12.1803 11.4067 12.393 11.2327 12.5863 11.078C12.8183 10.8847 12.973 10.788 13.0503 10.788C13.2823 10.672 13.611 10.5367 14.0363 10.382C14.5003 10.2273 14.945 10.092 15.3703 9.976C15.7956 9.86 16.1823 9.76333 16.5303 9.686C16.8783 9.60867 17.1296 9.57 17.2843 9.57C17.555 9.64733 17.7483 9.72467 17.8643 9.802C18.019 9.84067 18.1156 9.86 18.1543 9.86C18.657 9.86 19.0823 9.84067 19.4303 9.802C19.817 9.72467 20.1843 9.686 20.5323 9.686L22.4463 9.512L23.5483 6.844C23.5096 6.612 23.4903 6.36067 23.4903 6.09C23.529 5.78067 23.529 5.49067 23.4903 5.22C23.4516 4.91067 23.3936 4.64 23.3163 4.408C23.2776 4.13733 23.1423 3.886 22.9103 3.654H18.7343C18.1156 3.654 17.4776 3.654 16.8203 3.654C16.2016 3.61533 15.4863 3.596 14.6743 3.596L13.1083 4.06C12.5283 4.06 11.929 4.15667 11.3103 4.35C10.7303 4.50467 10.1696 4.698 9.6283 4.93C9.08696 5.162 8.60363 5.394 8.1783 5.626C7.75296 5.858 7.4823 6.032 7.3663 6.148C6.59296 6.80533 5.93563 7.40467 5.3943 7.946C4.85296 8.44867 4.3503 8.99 3.8863 9.57C3.46096 10.15 3.05496 10.788 2.6683 11.484C2.28163 12.1413 1.8563 12.9533 1.3923 13.92C1.12163 14.5 0.94763 15.1187 0.870297 15.776C0.792964 16.3947 0.754297 17.052 0.754297 17.748C0.754297 18.9853 0.850964 19.952 1.0443 20.648C1.2763 21.3053 1.5083 21.8273 1.7403 22.214C1.9723 22.562 2.18496 22.8327 2.3783 23.026C2.6103 23.2193 2.7263 23.4513 2.7263 23.722L4.0603 24.94L4.7563 25.114C5.41363 25.3073 5.89696 25.4813 6.2063 25.636C6.5543 25.7907 6.8443 25.926 7.0763 26.042C7.3083 26.1193 7.52096 26.216 7.7143 26.332C7.9463 26.448 8.2943 26.5833 8.7583 26.738C8.91296 26.7767 9.0483 26.8153 9.1643 26.854C9.31896 26.854 9.47363 26.854 9.6283 26.854C9.93763 26.854 10.2276 26.8347 10.4983 26.796C10.8076 26.7573 11.1556 26.738 11.5423 26.738C11.8516 26.738 12.1803 26.7573 12.5283 26.796C12.8763 26.796 13.3016 26.8347 13.8043 26.912C14.887 26.912 15.7956 26.912 16.5303 26.912C17.265 26.912 17.961 26.912 18.6183 26.912C19.3143 26.8733 20.0296 26.854 20.7643 26.854C21.5376 26.8153 22.4656 26.7767 23.5483 26.738L24.1283 26.216C24.3216 26.0613 24.457 25.9647 24.5343 25.926C24.6503 25.8873 24.9016 25.6747 25.2883 25.288L25.6943 24.882C25.6556 24.882 25.5203 24.8627 25.2883 24.824C25.0563 24.7467 24.9403 24.5533 24.9403 24.244ZM33.44 8.236C33.7107 8.236 33.9427 8.352 34.136 8.584C34.368 8.816 34.5613 9.08667 34.716 9.396C34.9093 9.70533 35.0833 9.976 35.238 10.208C35.3927 10.44 35.528 10.556 35.644 10.556C36.0307 10.4787 36.6107 10.324 37.384 10.092C38.196 9.82133 39.066 9.55067 39.994 9.28C40.9607 9.00933 41.8887 8.77733 42.778 8.584C43.706 8.39067 44.46 8.294 45.04 8.294C45.3493 8.294 45.562 8.352 45.678 8.468C45.8327 8.584 45.9293 8.71933 45.968 8.874C46.0067 9.02867 46.0453 9.18333 46.084 9.338C46.1613 9.454 46.2967 9.55067 46.49 9.628C46.5673 9.744 46.6833 9.86 46.838 9.976C46.9927 10.0533 47.07 10.208 47.07 10.44C46.8767 10.904 46.7607 11.3487 46.722 11.774C46.6834 12.1607 46.664 12.528 46.664 12.876V13.224L44.982 13.34C44.7113 13.3787 44.4407 13.4173 44.17 13.456C43.8993 13.456 43.59 13.456 43.242 13.456L41.502 14.442C40.9993 14.442 40.574 14.5 40.226 14.616C39.878 14.6933 39.5107 14.8287 39.124 15.022C38.776 15.1767 38.37 15.3507 37.906 15.544C37.442 15.7373 36.8233 15.9307 36.05 16.124C34.194 17.052 32.802 18.1733 31.874 19.488C30.9847 20.8027 30.54 22.4267 30.54 24.36C30.54 24.9787 30.7527 25.5973 31.178 26.216C31.6033 26.796 32.1253 27.3373 32.744 27.84C33.3627 28.304 34.0007 28.6907 34.658 29C35.3153 29.2707 35.8953 29.406 36.398 29.406C36.978 29.406 37.5193 29.406 38.022 29.406C38.5247 29.4447 39.0273 29.464 39.53 29.464H42.72H42.778C42.8553 29.464 42.9133 29.406 42.952 29.29C43.0293 29.2127 43.1067 29.116 43.184 29C43.3 28.8453 43.474 28.7293 43.706 28.652C43.9767 28.536 44.344 28.478 44.808 28.478C45.3107 28.478 45.8327 28.6327 46.374 28.942C46.9154 29.2127 47.3794 29.348 47.766 29.348C48.0753 29.348 48.3653 29.3287 48.636 29.29C48.9067 29.2513 49.1773 29.1933 49.448 29.116C49.7573 29.0387 50.1053 28.9807 50.492 28.942C50.8787 28.8647 51.3234 28.826 51.826 28.826C51.942 29.0193 52.1547 29.1933 52.464 29.348H53.276C53.3147 29.1547 53.392 28.9807 53.508 28.826C53.624 28.6327 53.7594 28.3813 53.914 28.072C53.8753 27.1827 53.8173 26.39 53.74 25.694C53.7014 24.998 53.6627 24.3407 53.624 23.722C53.624 23.0647 53.6047 22.388 53.566 21.692C53.566 20.996 53.5467 20.2033 53.508 19.314H53.682C53.7207 19.2753 53.7594 19.256 53.798 19.256C53.682 19.256 53.5854 19.1013 53.508 18.792C53.4307 18.4827 53.3727 18.1733 53.334 17.864C53.2954 17.516 53.2567 17.2067 53.218 16.936C53.218 16.6267 53.218 16.472 53.218 16.472C53.1794 16.1627 53.102 15.9307 52.986 15.776C52.9087 15.5827 52.812 15.37 52.696 15.138C52.6187 14.8673 52.522 14.5 52.406 14.036C52.3287 13.572 52.2707 12.818 52.232 11.774C52.116 11.6967 52.0193 11.4647 51.942 11.078C51.8647 10.6913 51.7873 10.2853 51.71 9.86C51.6713 9.396 51.6327 8.97067 51.594 8.584C51.594 8.15867 51.5747 7.90733 51.536 7.83H51.42C51.1107 7.83 50.8594 7.656 50.666 7.308C50.4727 6.96 50.2987 6.57333 50.144 6.148C49.9894 5.72267 49.854 5.35533 49.738 5.046C49.622 4.698 49.4867 4.524 49.332 4.524C49.2547 4.44667 49.1774 4.36933 49.1 4.292C49.0227 4.176 48.9453 4.07933 48.868 4.002H47.94C47.5533 4.002 47.2247 4.002 46.954 4.002C46.722 4.002 46.49 4.002 46.258 4.002C46.0647 4.002 45.852 3.98267 45.62 3.944C45.388 3.90533 45.098 3.84733 44.75 3.77C44.7113 3.96333 44.4793 4.09867 44.054 4.176C43.6673 4.21467 43.2227 4.234 42.72 4.234C42.256 4.234 41.8113 4.234 41.386 4.234C40.9993 4.234 40.7867 4.292 40.748 4.408C39.704 4.756 38.7567 5.046 37.906 5.278C37.0553 5.51 36.34 5.76133 35.76 6.032C35.18 6.264 34.6967 6.554 34.31 6.902C33.9233 7.21133 33.6333 7.656 33.44 8.236ZM46.026 17.98V20.938C45.8327 21.5567 45.7167 22.1947 45.678 22.852C45.6393 23.5093 45.62 23.9927 45.62 24.302V24.766H44.808C44.0347 24.8433 43.3193 24.9013 42.662 24.94C42.0047 24.9787 41.3667 25.0173 40.748 25.056L36.688 25.288C36.4173 24.824 36.1853 24.4567 35.992 24.186C35.8373 23.9153 35.76 23.5093 35.76 22.968C35.76 21.8853 35.8953 21.0347 36.166 20.416C36.4753 19.7973 36.8813 19.3333 37.384 19.024C37.9253 18.676 38.544 18.4247 39.24 18.27C39.936 18.1153 40.6707 17.9413 41.444 17.748C41.8307 17.632 42.1787 17.5353 42.488 17.458C42.836 17.3807 43.1647 17.342 43.474 17.342H43.706C44.0927 17.458 44.4793 17.574 44.866 17.69C45.2913 17.806 45.678 17.9027 46.026 17.98ZM90.9343 22.504L90.7603 11.716C90.4897 11.0973 90.1803 10.498 89.8323 9.918C89.4843 9.338 89.0203 8.91267 88.4403 8.642L82.7563 8.526L80.9583 8.7L80.2623 9.106L78.8703 9.338L76.0863 7.656L72.9543 7.424L69.5323 8.642L68.8363 8.468L68.5463 7.946L67.0963 6.96L65.8203 7.134L63.2103 6.496L62.0503 8.7L61.5863 13.63V23.838L64.6023 24.07L65.4143 23.664H68.4883L69.7643 23.374V11.716H72.6643L73.3603 12.702L73.5923 14.906V19.43V22.852L74.1723 23.374H78.9283L80.2043 22.388L79.6243 18.386V15.66V13.746L79.7403 12.47L82.2343 12.702L82.5823 13.746L83.3363 19.778V22.678L84.8443 23.316H90.4123L90.9343 22.504ZM107.625 6.148L105.653 5.336L103.101 4.872L101.245 4.466L99.8527 4.93V10.44L100.027 11.136L103.507 10.556L106.233 11.078L107.045 10.498L107.625 6.148ZM108.031 25.462L107.045 24.65L107.393 23.606V20.88L106.987 19.43V15.428L106.291 14.674L105.073 14.616L104.609 14.848L102.289 14.674L101.303 15.138L100.085 29.174L100.665 29.812H101.709L102.405 29.58H106.871L107.973 29.058L107.683 27.666L108.031 25.462ZM136.254 9.628L135.326 8.874H131.324L127.96 10.266L126.626 10.846L125.408 11.368L123.61 8.12H119.55L118.506 9.628V11.078V21.228L119.318 23.142L120.826 22.562H121.754L122.624 23.084L125.408 22.388L125.06 16.82L124.944 16.704V14.384L128.656 13.978L129.7 13.398H130.396L131.73 15.312L130.802 22.04L131.556 22.678H137.588L138.168 21.982V15.022L138.4 13.688L136.254 9.628ZM145.217 14.5C145.101 15.196 145.024 15.8533 144.985 16.472C144.985 17.0907 144.985 17.6513 144.985 18.154C144.985 19.082 145.121 19.894 145.391 20.59L145.971 21.344L152.119 23.142H153.511C153.666 23.1033 153.84 23.0453 154.033 22.968C154.227 22.8907 154.439 22.7747 154.671 22.62L159.543 20.996C159.814 20.88 160.201 20.6867 160.703 20.416C161.245 20.1453 161.747 19.836 162.211 19.488C162.714 19.1013 163.139 18.676 163.487 18.212C163.835 17.748 164.009 17.2647 164.009 16.762C164.009 14.906 163.526 13.224 162.559 11.716C161.631 10.208 160.297 9.048 158.557 8.236H158.441C158.287 8.236 158.016 8.25533 157.629 8.294C157.243 8.33267 156.895 8.352 156.585 8.352C156.315 8.352 156.063 8.31333 155.831 8.236C155.638 8.15867 155.541 8.04267 155.541 7.888L151.423 8.526C150.727 8.71933 150.031 8.99 149.335 9.338C148.639 9.686 148.001 10.1113 147.421 10.614C146.841 11.078 146.358 11.6387 145.971 12.296C145.585 12.9147 145.333 13.6493 145.217 14.5ZM155.947 11.832C156.411 11.9867 156.914 12.122 157.455 12.238C157.997 12.354 158.499 12.528 158.963 12.76C159.427 12.9533 159.833 13.224 160.181 13.572C160.568 13.92 160.858 14.442 161.051 15.138L159.543 17.342L153.337 18.618H152.525L151.017 17.284L151.307 13.804C151.539 13.688 151.771 13.514 152.003 13.282C152.235 13.05 152.487 12.818 152.757 12.586C153.067 12.3153 153.395 12.1027 153.743 11.948C154.13 11.7547 154.536 11.658 154.961 11.658C155.232 11.658 155.561 11.716 155.947 11.832ZM191.056 18.212V28.42L191.23 29.754H192.158L192.796 29.232H197.262L198.422 28.246L198.248 25.636L198.538 21.692L198.306 20.648C198.809 20.5707 199.215 20.474 199.524 20.358C199.872 20.242 200.259 20.068 200.684 19.836L207.064 17.69C207.451 17.5353 207.973 17.3033 208.63 16.994C209.326 16.646 210.003 16.2207 210.66 15.718C211.318 15.2153 211.878 14.674 212.342 14.094C212.845 13.4753 213.096 12.8373 213.096 12.18C213.096 11.02 212.884 9.84067 212.458 8.642C212.072 7.40467 211.492 6.30267 210.718 5.336C209.945 4.36933 208.978 3.55733 207.818 2.9C206.658 2.24267 205.305 1.87533 203.758 1.798C203.294 1.75933 202.85 1.70133 202.424 1.624C202.038 1.508 201.825 1.29533 201.786 0.985999L196.566 1.392H195.696L195.232 1.856L192.854 1.45L191.81 2.32V17.922L190.65 18.038L191.056 18.212ZM197.494 6.38C197.804 6.34133 198.094 6.30267 198.364 6.264C198.674 6.22533 198.964 6.206 199.234 6.206C199.969 6.206 200.936 6.38 202.134 6.728C202.753 6.92133 203.41 7.05667 204.106 7.134C204.841 7.17267 205.518 7.26933 206.136 7.424C206.755 7.57867 207.316 7.84933 207.818 8.236C208.321 8.584 208.688 9.18333 208.92 10.034L206.832 12.934L198.828 14.558H197.958V12.992L197.494 10.324V6.38ZM217.774 14.5C217.658 15.196 217.581 15.8533 217.542 16.472C217.542 17.0907 217.542 17.6513 217.542 18.154C217.542 19.082 217.677 19.894 217.948 20.59L218.528 21.344L224.676 23.142H226.068C226.223 23.1033 226.397 23.0453 226.59 22.968C226.783 22.8907 226.996 22.7747 227.228 22.62L232.1 20.996C232.371 20.88 232.757 20.6867 233.26 20.416C233.801 20.1453 234.304 19.836 234.768 19.488C235.271 19.1013 235.696 18.676 236.044 18.212C236.392 17.748 236.566 17.2647 236.566 16.762C236.566 14.906 236.083 13.224 235.116 11.716C234.188 10.208 232.854 9.048 231.114 8.236H230.998C230.843 8.236 230.573 8.25533 230.186 8.294C229.799 8.33267 229.451 8.352 229.142 8.352C228.871 8.352 228.62 8.31333 228.388 8.236C228.195 8.15867 228.098 8.04267 228.098 7.888L223.98 8.526C223.284 8.71933 222.588 8.99 221.892 9.338C221.196 9.686 220.558 10.1113 219.978 10.614C219.398 11.078 218.915 11.6387 218.528 12.296C218.141 12.9147 217.89 13.6493 217.774 14.5ZM228.504 11.832C228.968 11.9867 229.471 12.122 230.012 12.238C230.553 12.354 231.056 12.528 231.52 12.76C231.984 12.9533 232.39 13.224 232.738 13.572C233.125 13.92 233.415 14.442 233.608 15.138L232.1 17.342L225.894 18.618H225.082L223.574 17.284L223.864 13.804C224.096 13.688 224.328 13.514 224.56 13.282C224.792 13.05 225.043 12.818 225.314 12.586C225.623 12.3153 225.952 12.1027 226.3 11.948C226.687 11.7547 227.093 11.658 227.518 11.658C227.789 11.658 228.117 11.716 228.504 11.832ZM262.954 10.092L260.75 6.612L259.996 6.844L256.11 9.976L254.37 12.992L253.152 14.152V10.15L251.586 6.786H248.222L247.294 7.83V22.678L247.004 23.316L247.12 24.824L253.5 24.302L254.486 23.722V22.562L254.776 20.706L254.486 17.632C254.756 17.4387 254.969 17.2067 255.124 16.936C255.317 16.6653 255.51 16.3947 255.704 16.124C255.936 15.8533 256.187 15.5633 256.458 15.254C256.767 14.906 257.134 14.5773 257.56 14.268L260.228 12.238C260.653 11.9287 261.078 11.6 261.504 11.252C261.968 10.904 262.451 10.5173 262.954 10.092ZM280.95 15.428L282.458 15.37C282.651 15.4473 282.825 15.5053 282.98 15.544C283.134 15.5827 283.347 15.602 283.618 15.602C283.772 15.602 283.927 15.5827 284.082 15.544C284.275 15.5053 284.449 15.4667 284.604 15.428C284.797 15.3893 285.029 15.37 285.3 15.37C285.609 15.3313 285.996 15.312 286.46 15.312C286.614 15.312 286.75 15.3313 286.866 15.37C287.02 15.37 287.136 15.37 287.214 15.37C287.252 15.37 287.291 15.37 287.33 15.37C287.407 15.37 287.562 15.2927 287.794 15.138C287.6 15.138 287.504 15.0027 287.504 14.732C287.504 14.6933 287.523 14.5773 287.562 14.384C287.6 14.1907 287.62 14.0553 287.62 13.978C287.581 13.978 287.562 13.8813 287.562 13.688C287.562 13.5333 287.6 13.4173 287.678 13.34C287.407 13.1467 287.272 12.9533 287.272 12.76C287.272 12.528 287.194 12.296 287.04 12.064C286.808 12.1413 286.634 12.18 286.518 12.18C286.247 12.18 286.054 12.18 285.938 12.18C285.86 12.1413 285.764 12.1027 285.648 12.064C285.532 12.0253 285.319 12.006 285.01 12.006C284.739 11.9673 284.275 11.9287 283.618 11.89C283.154 11.8513 282.593 11.8127 281.936 11.774C281.278 11.7353 280.563 11.6773 279.79 11.6L279.21 5.162L278.688 4.408L274.86 4.756L273.932 6.09L273.758 11.31C273.216 11.31 272.694 11.31 272.192 11.31C271.689 11.2713 271.206 11.252 270.742 11.252C270.355 11.368 270.142 11.426 270.104 11.426C269.756 11.426 269.446 11.426 269.176 11.426C268.905 11.426 268.634 11.3873 268.364 11.31H267.436L266.566 12.064C266.566 12.3733 266.566 12.7213 266.566 13.108C266.566 13.4947 266.585 13.8813 266.624 14.268C266.701 14.6547 266.798 15.0027 266.914 15.312C267.03 15.5827 267.184 15.7567 267.378 15.834L267.842 16.24C268.228 16.24 268.518 16.24 268.712 16.24C268.905 16.2013 269.253 16.1433 269.756 16.066C269.794 15.9887 269.968 15.95 270.278 15.95C270.51 15.95 270.742 15.9693 270.974 16.008C271.244 16.0467 271.418 16.0853 271.496 16.124C271.612 16.124 271.728 16.124 271.844 16.124C271.998 16.0853 272.153 16.066 272.308 16.066L273.12 16.008L272.888 17.168V24.708L273.12 28.014L273.758 29.348L275.208 29.116L279.964 29.464L283.212 29C283.444 28.3427 283.56 27.6853 283.56 27.028C283.56 26.3707 283.444 25.6747 283.212 24.94L280.95 23.722V15.428ZM311.611 14.674L309.871 8.642L306.971 8.004L306.101 8.468V17.922L305.405 18.386H304.419L301.461 19.372L300.823 19.14L300.591 18.27L300.127 17.574V11.194L299.141 8.178H294.791L293.863 8.468L293.399 12.238L294.385 14.21L293.747 20.532L295.023 23.722L296.415 24.186L298.039 25.23L299.315 24.824L299.547 24.418L301.577 24.65L302.737 24.07L305.057 21.75L305.811 21.402L306.391 21.982L306.217 22.388L307.609 23.316H311.089L311.611 22.62V14.674ZM339.403 19.372C339.403 18.8693 339.422 18.3667 339.461 17.864C339.538 17.3613 339.577 16.878 339.577 16.414C339.577 16.0273 339.557 15.6793 339.519 15.37C339.48 15.0607 339.403 14.7513 339.287 14.442C339.209 14.094 339.132 13.7073 339.055 13.282C338.977 12.818 338.881 12.2187 338.765 11.484C338.687 10.788 338.61 10.2273 338.533 9.802C338.455 9.37667 338.127 9.164 337.547 9.164C337.315 9.164 337.102 9.14467 336.909 9.106C336.715 9.06733 336.599 9.00933 336.561 8.932C336.483 8.932 336.387 9.00933 336.271 9.164C336.155 9.28 336 9.43467 335.807 9.628C335.613 9.78267 335.401 9.918 335.169 10.034C334.975 10.15 334.743 10.208 334.473 10.208C334.357 10.208 334.202 10.1693 334.009 10.092C333.854 9.976 333.641 9.84067 333.371 9.686C333.139 9.53133 332.829 9.396 332.443 9.28C332.095 9.12533 331.65 9.00933 331.109 8.932C330.181 8.932 329.079 9.164 327.803 9.628C326.565 10.092 325.386 10.7687 324.265 11.658C323.143 12.5087 322.196 13.572 321.423 14.848C320.649 16.124 320.263 17.5933 320.263 19.256C320.263 19.9907 320.34 20.7447 320.495 21.518C320.649 22.2527 320.843 22.968 321.075 23.664L322.525 25.346C323.143 25.5393 323.627 25.7133 323.975 25.868C324.361 26.0227 324.69 26.1773 324.961 26.332C325.27 26.4867 325.56 26.6027 325.831 26.68C326.14 26.7187 326.527 26.738 326.991 26.738C327.377 26.738 327.919 26.7187 328.615 26.68C329.349 26.6027 330.084 26.506 330.819 26.39C331.592 26.274 332.269 26.1773 332.849 26.1C333.429 26.0227 333.796 25.9647 333.951 25.926C333.796 26.4673 333.699 27.144 333.661 27.956C333.661 28.7293 333.603 29.5027 333.487 30.276C333.371 31.088 333.119 31.842 332.733 32.538C332.385 33.2727 331.785 33.8527 330.935 34.278C330.625 34.394 330.026 34.5873 329.137 34.858C328.247 35.1287 327.377 35.3607 326.527 35.554C325.405 35.8633 324.651 36.0953 324.265 36.25C323.917 36.4047 323.723 36.54 323.685 36.656C323.646 36.8107 323.646 36.9847 323.685 37.178C323.762 37.3713 323.704 37.642 323.511 37.99C323.665 37.99 323.743 38.0867 323.743 38.28V38.338C323.743 38.4927 323.839 38.6473 324.033 38.802C324.226 38.9953 324.555 39.092 325.019 39.092C326.372 39.092 327.629 38.9373 328.789 38.628C329.949 38.3187 330.935 38.0673 331.747 37.874C332.172 37.758 332.539 37.6613 332.849 37.584C333.197 37.5067 333.545 37.3713 333.893 37.178C334.279 36.9847 334.685 36.6753 335.111 36.25C335.536 35.8633 336.077 35.3027 336.735 34.568C337.315 33.756 337.856 32.7507 338.359 31.552C338.9 30.392 339.171 28.9227 339.171 27.144C339.171 26.332 339.151 25.462 339.113 24.534C339.074 23.606 339.055 22.736 339.055 21.924C339.055 21.3053 339.074 20.7833 339.113 20.358C339.151 19.9327 339.248 19.604 339.403 19.372ZM330.993 13.166C331.573 13.2047 332.056 13.2627 332.443 13.34C332.868 13.3787 333.216 13.514 333.487 13.746C333.757 13.978 333.97 14.326 334.125 14.79C334.318 15.2153 334.511 15.8147 334.705 16.588L334.357 22.04C333.777 22.388 333.216 22.6393 332.675 22.794C332.172 22.91 331.727 22.968 331.341 22.968C330.915 22.968 330.471 22.968 330.007 22.968C329.581 22.9293 329.137 22.91 328.673 22.91H327.977L326.585 21.402C326.585 20.358 326.72 19.2367 326.991 18.038C327.3 16.8007 328.073 15.4667 329.311 14.036C329.543 13.804 329.775 13.6107 330.007 13.456C330.277 13.2627 330.606 13.166 330.993 13.166ZM364.456 14.674L362.716 8.642L359.816 8.004L358.946 8.468V17.922L358.25 18.386H357.264L354.306 19.372L353.668 19.14L353.436 18.27L352.972 17.574V11.194L351.986 8.178H347.636L346.708 8.468L346.244 12.238L347.23 14.21L346.592 20.532L347.868 23.722L349.26 24.186L350.884 25.23L352.16 24.824L352.392 24.418L354.422 24.65L355.582 24.07L357.902 21.75L358.656 21.402L359.236 21.982L359.062 22.388L360.454 23.316H363.934L364.456 22.62V14.674ZM392.48 26.448L392.306 26.216C392.306 26.0227 392.248 25.8487 392.132 25.694C392.016 25.5007 391.92 25.288 391.842 25.056C391.61 25.056 391.398 25.114 391.204 25.23C391.011 25.3073 390.798 25.404 390.566 25.52C390.373 25.5973 390.122 25.694 389.812 25.81C389.542 25.8873 389.194 25.926 388.768 25.926H388.478C388.014 25.9647 387.608 25.984 387.26 25.984C386.912 25.984 386.584 26.0033 386.274 26.042C385.965 26.042 385.656 26.0613 385.346 26.1C385.037 26.1 384.67 26.1 384.244 26.1C383.51 25.984 383.026 25.9067 382.794 25.868C382.601 25.7907 382.504 25.752 382.504 25.752C382.504 25.752 382.524 25.752 382.562 25.752C382.601 25.752 382.543 25.7133 382.388 25.636C382.35 25.6747 382.311 25.694 382.272 25.694C382.234 25.694 382.195 25.7133 382.156 25.752C382.156 25.752 382.118 25.752 382.04 25.752C381.615 25.5973 381.267 25.4813 380.996 25.404C380.764 25.3267 380.648 25.1913 380.648 24.998C380.648 24.8433 380.455 24.5727 380.068 24.186C379.72 23.7993 379.546 23.3547 379.546 22.852C379.546 22.272 379.604 21.5373 379.72 20.648C379.836 19.72 380.068 18.9853 380.416 18.444C380.726 18.2507 381.267 18.038 382.04 17.806C382.814 17.5353 383.587 17.4 384.36 17.4C384.824 17.4 385.172 17.4773 385.404 17.632C385.675 17.748 385.888 17.9027 386.042 18.096C386.197 18.2893 386.274 18.502 386.274 18.734C386.313 18.9273 386.332 19.1207 386.332 19.314C386.332 19.5847 386.236 19.778 386.042 19.894C385.849 20.01 385.617 20.0873 385.346 20.126C385.076 20.1647 384.805 20.184 384.534 20.184C384.264 20.184 384.032 20.2033 383.838 20.242C383.065 20.474 382.427 20.6287 381.924 20.706C381.46 20.7833 381.19 20.822 381.112 20.822C381.306 20.8993 381.441 21.054 381.518 21.286C381.596 21.518 381.654 21.7693 381.692 22.04C381.731 22.272 381.75 22.504 381.75 22.736C381.75 22.9293 381.77 23.026 381.808 23.026C383.162 23.026 384.283 22.968 385.172 22.852C386.062 22.736 386.796 22.6007 387.376 22.446C387.956 22.2527 388.42 22.098 388.768 21.982C389.116 21.8273 389.464 21.7307 389.812 21.692C389.967 21.3053 390.141 21.0733 390.334 20.996C390.528 20.88 390.74 20.6867 390.972 20.416C390.895 19.8747 390.76 19.3333 390.566 18.792C390.412 18.212 390.238 17.69 390.044 17.226C389.851 16.7233 389.658 16.298 389.464 15.95C389.31 15.602 389.232 15.3893 389.232 15.312C388.962 15.312 388.73 15.254 388.536 15.138C388.382 15.022 388.246 14.906 388.13 14.79C388.053 14.674 387.995 14.558 387.956 14.442C387.918 14.326 387.879 14.268 387.84 14.268C387.415 14.268 387.086 14.1713 386.854 13.978C386.7 13.9007 386.584 13.804 386.506 13.688C385.888 13.688 385.404 13.6107 385.056 13.456C384.708 13.3013 384.322 13.224 383.896 13.224C382.93 13.572 381.886 13.8233 380.764 13.978C379.682 14.1327 378.715 14.4613 377.864 14.964C377.4 15.3507 376.975 15.718 376.588 16.066C376.202 16.414 375.854 16.8007 375.544 17.226C375.235 17.6513 374.906 18.1153 374.558 18.618C374.21 19.1207 373.862 19.72 373.514 20.416C373.321 20.7253 373.186 21.0347 373.108 21.344C373.07 21.6533 373.031 21.9627 372.992 22.272C372.992 22.852 373.012 23.432 373.05 24.012C373.128 24.5533 373.398 25.172 373.862 25.868C374.056 26.0227 374.21 26.1967 374.326 26.39C374.481 26.5833 374.558 26.68 374.558 26.68L374.906 26.97C374.984 26.97 375.042 27.086 375.08 27.318C375.158 27.5113 375.216 27.608 375.254 27.608H376.298C376.762 27.8787 377.13 28.1107 377.4 28.304C377.671 28.4587 377.922 28.5747 378.154 28.652C378.386 28.6907 378.638 28.7293 378.908 28.768C379.179 28.8067 379.527 28.826 379.952 28.826C380.184 28.826 380.416 28.826 380.648 28.826C380.919 28.7873 381.19 28.768 381.46 28.768C381.692 28.768 381.944 28.768 382.214 28.768C382.485 28.768 382.814 28.8067 383.2 28.884C384.051 28.884 384.747 28.8453 385.288 28.768C385.868 28.652 386.429 28.5167 386.97 28.362C387.55 28.2073 388.15 28.072 388.768 27.956C389.426 27.84 390.218 27.7627 391.146 27.724C391.378 27.6467 391.649 27.4727 391.958 27.202C392.306 26.8927 392.48 26.6993 392.48 26.622C392.48 26.506 392.384 26.448 392.19 26.448H392.48ZM414.253 19.546C414.175 19.198 414.001 18.9273 413.731 18.734C413.46 18.5407 413.325 18.27 413.325 17.922C412.977 17.806 412.706 17.7093 412.513 17.632C412.319 17.516 412.145 17.4387 411.991 17.4C411.875 17.3227 411.739 17.226 411.585 17.11C411.469 16.994 411.275 16.878 411.005 16.762C410.927 16.762 410.695 16.6653 410.309 16.472C409.961 16.24 409.729 16.1047 409.613 16.066L408.801 15.66C408.298 15.428 407.931 15.2153 407.699 15.022C407.505 14.8287 407.389 14.6547 407.351 14.5L406.307 13.514C406.152 13.514 405.997 13.4367 405.843 13.282C405.727 13.0887 405.669 12.702 405.669 12.122C405.669 11.5807 405.727 11.1747 405.843 10.904C405.997 10.6333 406.442 10.3047 407.177 9.918H407.293C407.409 9.918 407.563 9.87933 407.757 9.802C407.95 9.72467 408.124 9.57 408.279 9.338C408.279 9.26067 408.337 9.18333 408.453 9.106C408.569 9.02867 409.033 8.874 409.845 8.642C410.038 8.642 410.193 8.62267 410.309 8.584C410.425 8.50667 410.579 8.41 410.773 8.294H411.585C411.701 8.294 411.817 8.294 411.933 8.294C412.049 8.25533 412.184 8.21667 412.339 8.178C412.3 8.178 412.281 8.15867 412.281 8.12C412.319 8.12 412.339 8.10067 412.339 8.062C412.339 8.02333 412.358 8.004 412.397 8.004C412.397 7.888 412.377 7.79133 412.339 7.714C412.339 7.63667 412.339 7.55933 412.339 7.482V7.134C412.339 6.554 412.184 6.22533 411.875 6.148C411.604 6.032 411.372 5.87733 411.179 5.684C410.715 5.76133 410.309 5.81933 409.961 5.858C409.651 5.858 409.265 5.858 408.801 5.858C408.53 5.858 408.337 5.858 408.221 5.858C408.143 5.81933 408.085 5.78067 408.047 5.742C407.544 5.93533 407.099 6.07067 406.713 6.148C406.326 6.18667 405.901 6.30267 405.437 6.496L403.233 7.424C402.73 7.73333 402.169 8.02333 401.551 8.294C400.971 8.56467 400.487 8.932 400.101 9.396C399.907 9.744 399.598 10.0727 399.173 10.382C399.173 10.73 399.076 11.0007 398.883 11.194C398.728 11.3873 398.651 11.6193 398.651 11.89C398.651 11.9673 398.67 12.0253 398.709 12.064C398.747 12.1027 398.767 12.2187 398.767 12.412C398.767 12.5667 398.747 12.7407 398.709 12.934C398.67 13.1273 398.612 13.2627 398.535 13.34C398.535 13.688 398.631 14.0747 398.825 14.5C399.057 14.8867 399.269 15.1187 399.463 15.196L399.985 15.66C400.371 15.8147 400.7 15.9887 400.971 16.182C401.241 16.3753 401.493 16.588 401.725 16.82C401.957 17.0133 402.189 17.2067 402.421 17.4C402.691 17.5547 403.02 17.6513 403.407 17.69C403.948 17.8833 404.277 18.0573 404.393 18.212C404.547 18.328 404.625 18.444 404.625 18.56C404.663 18.6373 404.721 18.734 404.799 18.85C404.876 18.9273 405.166 19.082 405.669 19.314C405.669 19.4687 405.804 19.6813 406.075 19.952L406.539 20.416C406.655 20.7253 406.713 21.0153 406.713 21.286C406.713 21.634 406.577 21.924 406.307 22.156C406.075 22.3493 405.785 22.5233 405.437 22.678C405.127 22.794 404.837 22.8713 404.567 22.91C404.296 22.9487 404.161 22.9487 404.161 22.91C403.271 23.1807 402.633 23.374 402.247 23.49C401.899 23.606 401.551 23.664 401.203 23.664C400.932 23.664 400.391 23.606 399.579 23.49C399.501 23.606 399.366 23.664 399.173 23.664C398.979 23.664 398.728 23.606 398.419 23.49C398.148 23.374 398.032 23.3353 398.071 23.374C398.303 23.9153 398.399 24.418 398.361 24.882C398.322 25.3073 398.399 25.52 398.593 25.52H398.651C398.612 25.5587 398.573 25.6167 398.535 25.694C398.496 25.7713 398.477 25.868 398.477 25.984C398.477 25.984 398.496 25.984 398.535 25.984C398.457 26.0227 398.419 26.042 398.419 26.042C398.419 26.1193 398.573 26.2547 398.883 26.448C399.231 26.6027 399.424 26.68 399.463 26.68C400.197 26.6027 400.932 26.4867 401.667 26.332C402.401 26.1773 403.213 26.1 404.103 26.1C404.644 26.1 405.147 26.158 405.611 26.274C406.075 26.39 406.558 26.448 407.061 26.448C407.795 26.448 408.375 26.3707 408.801 26.216C409.265 26.0613 409.632 25.9067 409.903 25.752C410.173 25.5587 410.425 25.404 410.657 25.288C410.889 25.1333 411.159 25.056 411.469 25.056L412.687 24.476C413.112 24.244 413.499 23.9153 413.847 23.49C414.233 23.026 414.427 22.5233 414.427 21.982C414.427 21.634 414.388 21.2667 414.311 20.88C414.272 20.4933 414.253 20.0487 414.253 19.546Z" fill="#FFB830"/>
</svg>
