<svg width="400" height="27" viewBox="0 0 400 27" fill="none" xmlns="http://www.w3.org/2000/svg">
<path d="M22.568 20.572C22.388 20.14 22.262 19.834 22.19 19.654C22.154 19.474 22.136 19.348 22.136 19.276C21.632 19.276 21.2 19.276 20.84 19.276C20.516 19.24 20.21 19.222 19.922 19.222L17.654 19.114C16.61 19.15 15.71 19.204 14.954 19.276C14.198 19.312 13.352 19.33 12.416 19.33C11.984 19.258 11.642 19.204 11.39 19.168C11.138 19.132 10.904 19.096 10.688 19.06C10.508 19.024 10.328 18.988 10.148 18.952C9.968 18.88 9.752 18.79 9.5 18.682C9.464 18.718 9.41 18.736 9.338 18.736C8.978 18.736 8.618 18.61 8.258 18.358C7.934 18.106 7.628 17.782 7.34 17.386C7.052 16.99 6.818 16.54 6.638 16.036C6.494 15.496 6.422 14.92 6.422 14.308C6.422 13.768 6.512 13.336 6.692 13.012C6.872 12.688 7.088 12.382 7.34 12.094C7.628 11.806 7.916 11.518 8.204 11.23C8.492 10.942 8.744 10.546 8.96 10.042C9.212 9.862 9.392 9.754 9.5 9.718L9.77 9.502C9.77 9.502 9.842 9.43 9.986 9.286C10.13 9.142 10.292 8.98 10.472 8.8C10.688 8.62 10.886 8.458 11.066 8.314C11.282 8.134 11.426 8.044 11.498 8.044C11.714 7.936 12.02 7.81 12.416 7.666C12.848 7.522 13.262 7.396 13.658 7.288C14.054 7.18 14.414 7.09 14.738 7.018C15.062 6.946 15.296 6.91 15.44 6.91C15.692 6.982 15.872 7.054 15.98 7.126C16.124 7.162 16.214 7.18 16.25 7.18C16.718 7.18 17.114 7.162 17.438 7.126C17.798 7.054 18.14 7.018 18.464 7.018L20.246 6.856L21.272 4.372C21.236 4.156 21.218 3.922 21.218 3.67C21.254 3.382 21.254 3.112 21.218 2.86C21.182 2.572 21.128 2.32 21.056 2.104C21.02 1.852 20.894 1.618 20.678 1.402H16.79C16.214 1.402 15.62 1.402 15.008 1.402C14.432 1.366 13.766 1.348 13.01 1.348L11.552 1.78C11.012 1.78 10.454 1.87 9.878 2.05C9.338 2.194 8.816 2.374 8.312 2.59C7.808 2.806 7.358 3.022 6.962 3.238C6.566 3.454 6.314 3.616 6.206 3.724C5.486 4.336 4.874 4.894 4.37 5.398C3.866 5.866 3.398 6.37 2.966 6.91C2.57 7.45 2.192 8.044 1.832 8.692C1.472 9.304 1.076 10.06 0.644 10.96C0.392 11.5 0.23 12.076 0.158 12.688C0.0860002 13.264 0.0500002 13.876 0.0500002 14.524C0.0500002 15.676 0.14 16.576 0.32 17.224C0.536 17.836 0.752 18.322 0.968 18.682C1.184 19.006 1.382 19.258 1.562 19.438C1.778 19.618 1.886 19.834 1.886 20.086L3.128 21.22L3.776 21.382C4.388 21.562 4.838 21.724 5.126 21.868C5.45 22.012 5.72 22.138 5.936 22.246C6.152 22.318 6.35 22.408 6.53 22.516C6.746 22.624 7.07 22.75 7.502 22.894C7.646 22.93 7.772 22.966 7.88 23.002C8.024 23.002 8.168 23.002 8.312 23.002C8.6 23.002 8.87 22.984 9.122 22.948C9.41 22.912 9.734 22.894 10.094 22.894C10.382 22.894 10.688 22.912 11.012 22.948C11.336 22.948 11.732 22.984 12.2 23.056C13.208 23.056 14.054 23.056 14.738 23.056C15.422 23.056 16.07 23.056 16.682 23.056C17.33 23.02 17.996 23.002 18.68 23.002C19.4 22.966 20.264 22.93 21.272 22.894L21.812 22.408C21.992 22.264 22.118 22.174 22.19 22.138C22.298 22.102 22.532 21.904 22.892 21.544L23.27 21.166C23.234 21.166 23.108 21.148 22.892 21.112C22.676 21.04 22.568 20.86 22.568 20.572ZM30.4815 5.668C30.7335 5.668 30.9495 5.776 31.1295 5.992C31.3455 6.208 31.5255 6.46 31.6695 6.748C31.8495 7.036 32.0115 7.288 32.1555 7.504C32.2995 7.72 32.4255 7.828 32.5335 7.828C32.8935 7.756 33.4335 7.612 34.1535 7.396C34.9095 7.144 35.7195 6.892 36.5835 6.64C37.4835 6.388 38.3475 6.172 39.1755 5.992C40.0395 5.812 40.7415 5.722 41.2815 5.722C41.5695 5.722 41.7675 5.776 41.8755 5.884C42.0195 5.992 42.1095 6.118 42.1455 6.262C42.1815 6.406 42.2175 6.55 42.2535 6.694C42.3255 6.802 42.4515 6.892 42.6315 6.964C42.7035 7.072 42.8115 7.18 42.9555 7.288C43.0995 7.36 43.1715 7.504 43.1715 7.72C42.9915 8.152 42.8835 8.566 42.8475 8.962C42.8115 9.322 42.7935 9.664 42.7935 9.988V10.312L41.2275 10.42C40.9755 10.456 40.7235 10.492 40.4715 10.528C40.2195 10.528 39.9315 10.528 39.6075 10.528L37.9875 11.446C37.5195 11.446 37.1235 11.5 36.7995 11.608C36.4755 11.68 36.1335 11.806 35.7735 11.986C35.4495 12.13 35.0715 12.292 34.6395 12.472C34.2075 12.652 33.6315 12.832 32.9115 13.012C31.1835 13.876 29.8875 14.92 29.0235 16.144C28.1955 17.368 27.7815 18.88 27.7815 20.68C27.7815 21.256 27.9795 21.832 28.3755 22.408C28.7715 22.948 29.2575 23.452 29.8335 23.92C30.4095 24.352 31.0035 24.712 31.6155 25C32.2275 25.252 32.7675 25.378 33.2355 25.378C33.7755 25.378 34.2795 25.378 34.7475 25.378C35.2155 25.414 35.6835 25.432 36.1515 25.432H39.1215H39.1755C39.2475 25.432 39.3015 25.378 39.3375 25.27C39.4095 25.198 39.4815 25.108 39.5535 25C39.6615 24.856 39.8235 24.748 40.0395 24.676C40.2915 24.568 40.6335 24.514 41.0655 24.514C41.5335 24.514 42.0195 24.658 42.5235 24.946C43.0275 25.198 43.4595 25.324 43.8195 25.324C44.1075 25.324 44.3775 25.306 44.6295 25.27C44.8815 25.234 45.1335 25.18 45.3855 25.108C45.6735 25.036 45.9975 24.982 46.3575 24.946C46.7175 24.874 47.1315 24.838 47.5995 24.838C47.7075 25.018 47.9055 25.18 48.1935 25.324H48.9495C48.9855 25.144 49.0575 24.982 49.1655 24.838C49.2735 24.658 49.3995 24.424 49.5435 24.136C49.5075 23.308 49.4535 22.57 49.3815 21.922C49.3455 21.274 49.3095 20.662 49.2735 20.086C49.2735 19.474 49.2555 18.844 49.2195 18.196C49.2195 17.548 49.2015 16.81 49.1655 15.982H49.3275C49.3635 15.946 49.3995 15.928 49.4355 15.928C49.3275 15.928 49.2375 15.784 49.1655 15.496C49.0935 15.208 49.0395 14.92 49.0035 14.632C48.9675 14.308 48.9315 14.02 48.8955 13.768C48.8955 13.48 48.8955 13.336 48.8955 13.336C48.8595 13.048 48.7875 12.832 48.6795 12.688C48.6075 12.508 48.5175 12.31 48.4095 12.094C48.3375 11.842 48.2475 11.5 48.1395 11.068C48.0675 10.636 48.0135 9.934 47.9775 8.962C47.8695 8.89 47.7795 8.674 47.7075 8.314C47.6355 7.954 47.5635 7.576 47.4915 7.18C47.4555 6.748 47.4195 6.352 47.3835 5.992C47.3835 5.596 47.3655 5.362 47.3295 5.29H47.2215C46.9335 5.29 46.6995 5.128 46.5195 4.804C46.3395 4.48 46.1775 4.12 46.0335 3.724C45.8895 3.328 45.7635 2.986 45.6555 2.698C45.5475 2.374 45.4215 2.212 45.2775 2.212C45.2055 2.14 45.1335 2.068 45.0615 1.996C44.9895 1.888 44.9175 1.798 44.8455 1.726H43.9815C43.6215 1.726 43.3155 1.726 43.0635 1.726C42.8475 1.726 42.6315 1.726 42.4155 1.726C42.2355 1.726 42.0375 1.708 41.8215 1.672C41.6055 1.636 41.3355 1.582 41.0115 1.51C40.9755 1.69 40.7595 1.816 40.3635 1.888C40.0035 1.924 39.5895 1.942 39.1215 1.942C38.6895 1.942 38.2755 1.942 37.8795 1.942C37.5195 1.942 37.3215 1.996 37.2855 2.104C36.3135 2.428 35.4315 2.698 34.6395 2.914C33.8475 3.13 33.1815 3.364 32.6415 3.616C32.1015 3.832 31.6515 4.102 31.2915 4.426C30.9315 4.714 30.6615 5.128 30.4815 5.668ZM42.1995 14.74V17.494C42.0195 18.07 41.9115 18.664 41.8755 19.276C41.8395 19.888 41.8215 20.338 41.8215 20.626V21.058H41.0655C40.3455 21.13 39.6795 21.184 39.0675 21.22C38.4555 21.256 37.8615 21.292 37.2855 21.328L33.5055 21.544C33.2535 21.112 33.0375 20.77 32.8575 20.518C32.7135 20.266 32.6415 19.888 32.6415 19.384C32.6415 18.376 32.7675 17.584 33.0195 17.008C33.3075 16.432 33.6855 16 34.1535 15.712C34.6575 15.388 35.2335 15.154 35.8815 15.01C36.5295 14.866 37.2135 14.704 37.9335 14.524C38.2935 14.416 38.6175 14.326 38.9055 14.254C39.2295 14.182 39.5355 14.146 39.8235 14.146H40.0395C40.3995 14.254 40.7595 14.362 41.1195 14.47C41.5155 14.578 41.8755 14.668 42.1995 14.74ZM84.0107 18.952L83.8487 8.908C83.5967 8.332 83.3087 7.774 82.9847 7.234C82.6607 6.694 82.2287 6.298 81.6887 6.046L76.3967 5.938L74.7227 6.1L74.0747 6.478L72.7787 6.694L70.1867 5.128L67.2707 4.912L64.0847 6.046L63.4367 5.884L63.1667 5.398L61.8167 4.48L60.6287 4.642L58.1987 4.048L57.1187 6.1L56.6867 10.69V20.194L59.4947 20.41L60.2507 20.032H63.1127L64.3007 19.762V8.908H67.0007L67.6487 9.826L67.8647 11.878V16.09V19.276L68.4047 19.762H72.8327L74.0207 18.844L73.4807 15.118V12.58V10.798L73.5887 9.61L75.9107 9.826L76.2347 10.798L76.9367 16.414V19.114L78.3407 19.708H83.5247L84.0107 18.952ZM99.5501 3.724L97.7141 2.968L95.3381 2.536L93.6101 2.158L92.3141 2.59V7.72L92.4761 8.368L95.7161 7.828L98.2541 8.314L99.0101 7.774L99.5501 3.724ZM99.9281 21.706L99.0101 20.95L99.3341 19.978V17.44L98.9561 16.09V12.364L98.3081 11.662L97.1741 11.608L96.7421 11.824L94.5821 11.662L93.6641 12.094L92.5301 25.162L93.0701 25.756H94.0421L94.6901 25.54H98.8481L99.8741 25.054L99.6041 23.758L99.9281 21.706ZM126.205 6.964L125.341 6.262H121.615L118.483 7.558L117.241 8.098L116.107 8.584L114.433 5.56H110.653L109.681 6.964V8.314V17.764L110.437 19.546L111.841 19.006H112.705L113.515 19.492L116.107 18.844L115.783 13.66L115.675 13.552V11.392L119.131 11.014L120.103 10.474H120.751L121.993 12.256L121.129 18.52L121.831 19.114H127.447L127.987 18.466V11.986L128.203 10.744L126.205 6.964ZM134.55 11.5C134.442 12.148 134.37 12.76 134.334 13.336C134.334 13.912 134.334 14.434 134.334 14.902C134.334 15.766 134.46 16.522 134.712 17.17L135.252 17.872L140.976 19.546H142.272C142.416 19.51 142.578 19.456 142.758 19.384C142.938 19.312 143.136 19.204 143.352 19.06L147.888 17.548C148.14 17.44 148.5 17.26 148.968 17.008C149.472 16.756 149.94 16.468 150.372 16.144C150.84 15.784 151.236 15.388 151.56 14.956C151.884 14.524 152.046 14.074 152.046 13.606C152.046 11.878 151.596 10.312 150.696 8.908C149.832 7.504 148.59 6.424 146.97 5.668H146.862C146.718 5.668 146.466 5.686 146.106 5.722C145.746 5.758 145.422 5.776 145.134 5.776C144.882 5.776 144.648 5.74 144.432 5.668C144.252 5.596 144.162 5.488 144.162 5.344L140.328 5.938C139.68 6.118 139.032 6.37 138.384 6.694C137.736 7.018 137.142 7.414 136.602 7.882C136.062 8.314 135.612 8.836 135.252 9.448C134.892 10.024 134.658 10.708 134.55 11.5ZM144.54 9.016C144.972 9.16 145.44 9.286 145.944 9.394C146.448 9.502 146.916 9.664 147.348 9.88C147.78 10.06 148.158 10.312 148.482 10.636C148.842 10.96 149.112 11.446 149.292 12.094L147.888 14.146L142.11 15.334H141.354L139.95 14.092L140.22 10.852C140.436 10.744 140.652 10.582 140.868 10.366C141.084 10.15 141.318 9.934 141.57 9.718C141.858 9.466 142.164 9.268 142.488 9.124C142.848 8.944 143.226 8.854 143.622 8.854C143.874 8.854 144.18 8.908 144.54 9.016ZM182.952 11.284L180.036 12.634C179.136 13.138 178.434 13.642 177.93 14.146C177.426 14.65 177.03 15.208 176.742 15.82C176.454 16.432 176.256 17.098 176.148 17.818C176.04 18.538 175.914 19.348 175.77 20.248C175.734 20.356 175.716 20.536 175.716 20.788C175.716 21.364 175.878 21.904 176.202 22.408C176.526 22.912 176.94 23.344 177.444 23.704C177.948 24.028 178.488 24.298 179.064 24.514C179.676 24.694 180.252 24.82 180.792 24.892L185.328 25.378C185.724 25.666 186.12 25.846 186.516 25.918C186.948 25.99 187.362 26.026 187.758 26.026L190.134 25.27H193.698L194.292 25.756H195.102L195.696 24.514V15.01L195.642 14.848L195.264 14.74V1.618L193.59 0.753998H190.89L189.864 1.456C189.864 2.032 189.792 2.554 189.648 3.022C189.54 3.49 189.486 3.85 189.486 4.102C189.486 4.282 189.576 4.372 189.756 4.372V6.802L188.946 9.232V9.61L185.76 10.852C185.76 10.924 185.634 10.96 185.382 10.96C185.058 10.96 184.824 10.942 184.68 10.906C184.536 10.906 184.374 10.888 184.194 10.852L182.952 11.284ZM188.838 13.498V16.63L188.406 19.114V20.518H187.758C187.074 20.626 186.48 20.716 185.976 20.788C185.472 20.824 184.914 20.842 184.302 20.842C183.942 20.842 183.564 20.824 183.168 20.788C182.808 20.752 182.394 20.644 181.926 20.464C181.854 20.464 181.782 20.482 181.71 20.518C181.674 20.518 181.638 20.518 181.602 20.518C180.954 20.518 180.468 20.302 180.144 19.87C179.856 19.402 179.712 18.628 179.712 17.548C179.712 16.756 179.82 16.18 180.036 15.82C180.252 15.46 180.558 15.19 180.954 15.01C181.386 14.83 181.854 14.704 182.358 14.632C182.898 14.56 183.474 14.434 184.086 14.254C184.446 14.182 184.752 14.11 185.004 14.038C185.292 13.93 185.598 13.858 185.922 13.822H186.192C186.228 13.858 186.3 13.876 186.408 13.876C186.588 13.876 186.84 13.822 187.164 13.714C187.488 13.57 187.884 13.498 188.352 13.498H188.838ZM221.692 22.624L221.53 22.408C221.53 22.228 221.476 22.066 221.368 21.922C221.26 21.742 221.17 21.544 221.098 21.328C220.882 21.328 220.684 21.382 220.504 21.49C220.324 21.562 220.126 21.652 219.91 21.76C219.73 21.832 219.496 21.922 219.208 22.03C218.956 22.102 218.632 22.138 218.236 22.138H217.966C217.534 22.174 217.156 22.192 216.832 22.192C216.508 22.192 216.202 22.21 215.914 22.246C215.626 22.246 215.338 22.264 215.05 22.3C214.762 22.3 214.42 22.3 214.024 22.3C213.34 22.192 212.89 22.12 212.674 22.084C212.494 22.012 212.404 21.976 212.404 21.976C212.404 21.976 212.422 21.976 212.458 21.976C212.494 21.976 212.44 21.94 212.296 21.868C212.26 21.904 212.224 21.922 212.188 21.922C212.152 21.922 212.116 21.94 212.08 21.976C212.08 21.976 212.044 21.976 211.972 21.976C211.576 21.832 211.252 21.724 211 21.652C210.784 21.58 210.676 21.454 210.676 21.274C210.676 21.13 210.496 20.878 210.136 20.518C209.812 20.158 209.65 19.744 209.65 19.276C209.65 18.736 209.704 18.052 209.812 17.224C209.92 16.36 210.136 15.676 210.46 15.172C210.748 14.992 211.252 14.794 211.972 14.578C212.692 14.326 213.412 14.2 214.132 14.2C214.564 14.2 214.888 14.272 215.104 14.416C215.356 14.524 215.554 14.668 215.698 14.848C215.842 15.028 215.914 15.226 215.914 15.442C215.95 15.622 215.968 15.802 215.968 15.982C215.968 16.234 215.878 16.414 215.698 16.522C215.518 16.63 215.302 16.702 215.05 16.738C214.798 16.774 214.546 16.792 214.294 16.792C214.042 16.792 213.826 16.81 213.646 16.846C212.926 17.062 212.332 17.206 211.864 17.278C211.432 17.35 211.18 17.386 211.108 17.386C211.288 17.458 211.414 17.602 211.486 17.818C211.558 18.034 211.612 18.268 211.648 18.52C211.684 18.736 211.702 18.952 211.702 19.168C211.702 19.348 211.72 19.438 211.756 19.438C213.016 19.438 214.06 19.384 214.888 19.276C215.716 19.168 216.4 19.042 216.94 18.898C217.48 18.718 217.912 18.574 218.236 18.466C218.56 18.322 218.884 18.232 219.208 18.196C219.352 17.836 219.514 17.62 219.694 17.548C219.874 17.44 220.072 17.26 220.288 17.008C220.216 16.504 220.09 16 219.91 15.496C219.766 14.956 219.604 14.47 219.424 14.038C219.244 13.57 219.064 13.174 218.884 12.85C218.74 12.526 218.668 12.328 218.668 12.256C218.416 12.256 218.2 12.202 218.02 12.094C217.876 11.986 217.75 11.878 217.642 11.77C217.57 11.662 217.516 11.554 217.48 11.446C217.444 11.338 217.408 11.284 217.372 11.284C216.976 11.284 216.67 11.194 216.454 11.014C216.31 10.942 216.202 10.852 216.13 10.744C215.554 10.744 215.104 10.672 214.78 10.528C214.456 10.384 214.096 10.312 213.7 10.312C212.8 10.636 211.828 10.87 210.784 11.014C209.776 11.158 208.876 11.464 208.084 11.932C207.652 12.292 207.256 12.634 206.896 12.958C206.536 13.282 206.212 13.642 205.924 14.038C205.636 14.434 205.33 14.866 205.006 15.334C204.682 15.802 204.358 16.36 204.034 17.008C203.854 17.296 203.728 17.584 203.656 17.872C203.62 18.16 203.584 18.448 203.548 18.736C203.548 19.276 203.566 19.816 203.602 20.356C203.674 20.86 203.926 21.436 204.358 22.084C204.538 22.228 204.682 22.39 204.79 22.57C204.934 22.75 205.006 22.84 205.006 22.84L205.33 23.11C205.402 23.11 205.456 23.218 205.492 23.434C205.564 23.614 205.618 23.704 205.654 23.704H206.626C207.058 23.956 207.4 24.172 207.652 24.352C207.904 24.496 208.138 24.604 208.354 24.676C208.57 24.712 208.804 24.748 209.056 24.784C209.308 24.82 209.632 24.838 210.028 24.838C210.244 24.838 210.46 24.838 210.676 24.838C210.928 24.802 211.18 24.784 211.432 24.784C211.648 24.784 211.882 24.784 212.134 24.784C212.386 24.784 212.692 24.82 213.052 24.892C213.844 24.892 214.492 24.856 214.996 24.784C215.536 24.676 216.058 24.55 216.562 24.406C217.102 24.262 217.66 24.136 218.236 24.028C218.848 23.92 219.586 23.848 220.45 23.812C220.666 23.74 220.918 23.578 221.206 23.326C221.53 23.038 221.692 22.858 221.692 22.786C221.692 22.678 221.602 22.624 221.422 22.624H221.692ZM259.911 20.68V20.626C259.947 20.626 260.001 20.59 260.073 20.518C260.181 20.518 260.253 20.536 260.289 20.572C260.361 20.572 260.415 20.572 260.451 20.572H260.505L262.341 19.06C262.521 18.916 262.647 18.736 262.719 18.52C262.827 18.268 262.935 17.998 263.043 17.71C263.151 17.422 263.295 17.134 263.475 16.846C263.655 16.558 263.943 16.288 264.339 16.036C264.591 15.964 264.789 15.838 264.933 15.658C265.077 15.442 265.221 15.244 265.365 15.064C265.509 14.848 265.671 14.65 265.851 14.47C266.031 14.254 266.301 14.11 266.661 14.038C266.697 14.074 266.787 14.092 266.931 14.092C267.219 14.092 267.399 14.002 267.471 13.822C267.543 13.606 267.579 13.354 267.579 13.066C267.579 12.742 267.615 12.364 267.687 11.932C267.795 11.5 268.029 11.05 268.389 10.582L268.443 15.658C268.443 15.982 268.425 16.54 268.389 17.332C268.353 18.124 268.335 18.952 268.335 19.816C268.335 20.644 268.371 21.4 268.443 22.084C268.551 22.768 268.713 23.146 268.929 23.218L271.899 23.974H272.817L273.087 23.596C273.087 23.272 273.141 22.732 273.249 21.976C273.357 21.22 273.447 20.446 273.519 19.654C273.627 18.826 273.735 18.07 273.843 17.386C273.951 16.702 274.005 16.27 274.005 16.09C274.113 15.19 274.185 14.434 274.221 13.822C274.257 13.21 274.275 12.598 274.275 11.986C274.275 11.374 274.239 10.744 274.167 10.096C274.131 9.412 274.059 8.548 273.951 7.504L274.437 6.424C274.437 6.352 274.455 6.208 274.491 5.992C274.563 5.74 274.779 5.344 275.139 4.804L274.815 2.752L274.221 0.483999H268.281V0.861999H267.795L263.151 8.098L263.043 8.476L262.341 9.124V9.502L261.153 11.554L258.561 13.66L258.291 12.958L256.347 10.96L255.537 9.016V8.638L254.997 8.044L254.943 7.72L251.595 0.915999L250.623 1.078L250.569 0.753998H243.657V9.826L244.251 10.528L243.765 15.982C243.765 16.306 243.747 16.882 243.711 17.71C243.711 18.502 243.711 19.312 243.711 20.14C243.711 21.004 243.747 21.778 243.819 22.462C243.891 23.11 244.053 23.47 244.305 23.542L247.275 24.244H248.139L248.517 23.974C248.517 23.578 248.571 23.002 248.679 22.246C248.823 21.454 248.985 20.68 249.165 19.924C249.345 19.132 249.507 18.412 249.651 17.764C249.795 17.08 249.867 16.648 249.867 16.468C249.939 15.748 249.975 15.1 249.975 14.524C250.011 13.948 250.029 13.39 250.029 12.85V11.554C250.029 11.194 250.029 10.834 250.029 10.474C250.029 10.078 250.065 9.646 250.137 9.178H250.839L251.541 10.528C251.829 10.852 251.973 11.23 251.973 11.662C251.973 11.914 251.937 12.148 251.865 12.364C251.829 12.58 251.811 12.76 251.811 12.904C251.811 13.192 251.955 13.336 252.243 13.336C252.387 13.336 252.477 13.318 252.513 13.282C252.801 13.39 252.999 13.534 253.107 13.714C253.251 13.858 253.377 14.038 253.485 14.254C253.593 14.434 253.701 14.614 253.809 14.794C253.917 14.974 254.079 15.118 254.295 15.226C254.511 15.406 254.673 15.64 254.781 15.928C254.925 16.216 255.033 16.504 255.105 16.792C255.213 17.08 255.303 17.332 255.375 17.548C255.483 17.764 255.609 17.908 255.753 17.98L257.049 19.438H257.319C257.391 19.582 257.427 19.636 257.427 19.6C257.427 19.564 257.445 19.582 257.481 19.654H257.643C257.931 19.834 258.165 19.978 258.345 20.086C258.561 20.194 258.777 20.284 258.993 20.356L259.911 20.68ZM283.923 5.668C284.175 5.668 284.391 5.776 284.571 5.992C284.787 6.208 284.967 6.46 285.111 6.748C285.291 7.036 285.453 7.288 285.597 7.504C285.741 7.72 285.867 7.828 285.975 7.828C286.335 7.756 286.875 7.612 287.595 7.396C288.351 7.144 289.161 6.892 290.025 6.64C290.925 6.388 291.789 6.172 292.617 5.992C293.481 5.812 294.183 5.722 294.723 5.722C295.011 5.722 295.209 5.776 295.317 5.884C295.461 5.992 295.551 6.118 295.587 6.262C295.623 6.406 295.659 6.55 295.695 6.694C295.767 6.802 295.893 6.892 296.073 6.964C296.145 7.072 296.253 7.18 296.397 7.288C296.541 7.36 296.613 7.504 296.613 7.72C296.433 8.152 296.325 8.566 296.289 8.962C296.253 9.322 296.235 9.664 296.235 9.988V10.312L294.669 10.42C294.417 10.456 294.165 10.492 293.913 10.528C293.661 10.528 293.373 10.528 293.049 10.528L291.429 11.446C290.961 11.446 290.565 11.5 290.241 11.608C289.917 11.68 289.575 11.806 289.215 11.986C288.891 12.13 288.513 12.292 288.081 12.472C287.649 12.652 287.073 12.832 286.353 13.012C284.625 13.876 283.329 14.92 282.465 16.144C281.637 17.368 281.223 18.88 281.223 20.68C281.223 21.256 281.421 21.832 281.817 22.408C282.213 22.948 282.699 23.452 283.275 23.92C283.851 24.352 284.445 24.712 285.057 25C285.669 25.252 286.209 25.378 286.677 25.378C287.217 25.378 287.721 25.378 288.189 25.378C288.657 25.414 289.125 25.432 289.593 25.432H292.563H292.617C292.689 25.432 292.743 25.378 292.779 25.27C292.851 25.198 292.923 25.108 292.995 25C293.103 24.856 293.265 24.748 293.481 24.676C293.733 24.568 294.075 24.514 294.507 24.514C294.975 24.514 295.461 24.658 295.965 24.946C296.469 25.198 296.901 25.324 297.261 25.324C297.549 25.324 297.819 25.306 298.071 25.27C298.323 25.234 298.575 25.18 298.827 25.108C299.115 25.036 299.439 24.982 299.799 24.946C300.159 24.874 300.573 24.838 301.041 24.838C301.149 25.018 301.347 25.18 301.635 25.324H302.391C302.427 25.144 302.499 24.982 302.607 24.838C302.715 24.658 302.841 24.424 302.985 24.136C302.949 23.308 302.895 22.57 302.823 21.922C302.787 21.274 302.751 20.662 302.715 20.086C302.715 19.474 302.697 18.844 302.661 18.196C302.661 17.548 302.643 16.81 302.607 15.982H302.769C302.805 15.946 302.841 15.928 302.877 15.928C302.769 15.928 302.679 15.784 302.607 15.496C302.535 15.208 302.481 14.92 302.445 14.632C302.409 14.308 302.373 14.02 302.337 13.768C302.337 13.48 302.337 13.336 302.337 13.336C302.301 13.048 302.229 12.832 302.121 12.688C302.049 12.508 301.959 12.31 301.851 12.094C301.779 11.842 301.689 11.5 301.581 11.068C301.509 10.636 301.455 9.934 301.419 8.962C301.311 8.89 301.221 8.674 301.149 8.314C301.077 7.954 301.005 7.576 300.933 7.18C300.897 6.748 300.861 6.352 300.825 5.992C300.825 5.596 300.807 5.362 300.771 5.29H300.663C300.375 5.29 300.141 5.128 299.961 4.804C299.781 4.48 299.619 4.12 299.475 3.724C299.331 3.328 299.205 2.986 299.097 2.698C298.989 2.374 298.863 2.212 298.719 2.212C298.647 2.14 298.575 2.068 298.503 1.996C298.431 1.888 298.359 1.798 298.287 1.726H297.423C297.063 1.726 296.757 1.726 296.505 1.726C296.289 1.726 296.073 1.726 295.857 1.726C295.677 1.726 295.479 1.708 295.263 1.672C295.047 1.636 294.777 1.582 294.453 1.51C294.417 1.69 294.201 1.816 293.805 1.888C293.445 1.924 293.031 1.942 292.563 1.942C292.131 1.942 291.717 1.942 291.321 1.942C290.961 1.942 290.763 1.996 290.727 2.104C289.755 2.428 288.873 2.698 288.081 2.914C287.289 3.13 286.623 3.364 286.083 3.616C285.543 3.832 285.093 4.102 284.733 4.426C284.373 4.714 284.103 5.128 283.923 5.668ZM295.641 14.74V17.494C295.461 18.07 295.353 18.664 295.317 19.276C295.281 19.888 295.263 20.338 295.263 20.626V21.058H294.507C293.787 21.13 293.121 21.184 292.509 21.22C291.897 21.256 291.303 21.292 290.727 21.328L286.947 21.544C286.695 21.112 286.479 20.77 286.299 20.518C286.155 20.266 286.083 19.888 286.083 19.384C286.083 18.376 286.209 17.584 286.461 17.008C286.749 16.432 287.127 16 287.595 15.712C288.099 15.388 288.675 15.154 289.323 15.01C289.971 14.866 290.655 14.704 291.375 14.524C291.735 14.416 292.059 14.326 292.347 14.254C292.671 14.182 292.977 14.146 293.265 14.146H293.481C293.841 14.254 294.201 14.362 294.561 14.47C294.957 14.578 295.317 14.668 295.641 14.74ZM317.688 11.284L314.772 12.634C313.872 13.138 313.17 13.642 312.666 14.146C312.162 14.65 311.766 15.208 311.478 15.82C311.19 16.432 310.992 17.098 310.884 17.818C310.776 18.538 310.65 19.348 310.506 20.248C310.47 20.356 310.452 20.536 310.452 20.788C310.452 21.364 310.614 21.904 310.938 22.408C311.262 22.912 311.676 23.344 312.18 23.704C312.684 24.028 313.224 24.298 313.8 24.514C314.412 24.694 314.988 24.82 315.528 24.892L320.064 25.378C320.46 25.666 320.856 25.846 321.252 25.918C321.684 25.99 322.098 26.026 322.494 26.026L324.87 25.27H328.434L329.028 25.756H329.838L330.432 24.514V15.01L330.378 14.848L330 14.74V1.618L328.326 0.753998H325.626L324.6 1.456C324.6 2.032 324.528 2.554 324.384 3.022C324.276 3.49 324.222 3.85 324.222 4.102C324.222 4.282 324.312 4.372 324.492 4.372V6.802L323.682 9.232V9.61L320.496 10.852C320.496 10.924 320.37 10.96 320.118 10.96C319.794 10.96 319.56 10.942 319.416 10.906C319.272 10.906 319.11 10.888 318.93 10.852L317.688 11.284ZM323.574 13.498V16.63L323.142 19.114V20.518H322.494C321.81 20.626 321.216 20.716 320.712 20.788C320.208 20.824 319.65 20.842 319.038 20.842C318.678 20.842 318.3 20.824 317.904 20.788C317.544 20.752 317.13 20.644 316.662 20.464C316.59 20.464 316.518 20.482 316.446 20.518C316.41 20.518 316.374 20.518 316.338 20.518C315.69 20.518 315.204 20.302 314.88 19.87C314.592 19.402 314.448 18.628 314.448 17.548C314.448 16.756 314.556 16.18 314.772 15.82C314.988 15.46 315.294 15.19 315.69 15.01C316.122 14.83 316.59 14.704 317.094 14.632C317.634 14.56 318.21 14.434 318.822 14.254C319.182 14.182 319.488 14.11 319.74 14.038C320.028 13.93 320.334 13.858 320.658 13.822H320.928C320.964 13.858 321.036 13.876 321.144 13.876C321.324 13.876 321.576 13.822 321.9 13.714C322.224 13.57 322.62 13.498 323.088 13.498H323.574ZM354.592 7.396L352.54 4.156L351.838 4.372L348.22 7.288L346.6 10.096L345.466 11.176V7.45L344.008 4.318H340.876L340.012 5.29V19.114L339.742 19.708L339.85 21.112L345.79 20.626L346.708 20.086V19.006L346.978 17.278L346.708 14.416C346.96 14.236 347.158 14.02 347.302 13.768C347.482 13.516 347.662 13.264 347.842 13.012C348.058 12.76 348.292 12.49 348.544 12.202C348.832 11.878 349.174 11.572 349.57 11.284L352.054 9.394C352.45 9.106 352.846 8.8 353.242 8.476C353.674 8.152 354.124 7.792 354.592 7.396ZM368.917 3.724L367.081 2.968L364.705 2.536L362.977 2.158L361.681 2.59V7.72L361.843 8.368L365.083 7.828L367.621 8.314L368.377 7.774L368.917 3.724ZM369.295 21.706L368.377 20.95L368.701 19.978V17.44L368.323 16.09V12.364L367.675 11.662L366.541 11.608L366.109 11.824L363.949 11.662L363.031 12.094L361.897 25.162L362.437 25.756H363.409L364.057 25.54H368.215L369.241 25.054L368.971 23.758L369.295 21.706ZM386.77 11.284L383.854 12.634C382.954 13.138 382.252 13.642 381.748 14.146C381.244 14.65 380.848 15.208 380.56 15.82C380.272 16.432 380.074 17.098 379.966 17.818C379.858 18.538 379.732 19.348 379.588 20.248C379.552 20.356 379.534 20.536 379.534 20.788C379.534 21.364 379.696 21.904 380.02 22.408C380.344 22.912 380.758 23.344 381.262 23.704C381.766 24.028 382.306 24.298 382.882 24.514C383.494 24.694 384.07 24.82 384.61 24.892L389.146 25.378C389.542 25.666 389.938 25.846 390.334 25.918C390.766 25.99 391.18 26.026 391.576 26.026L393.952 25.27H397.516L398.11 25.756H398.92L399.514 24.514V15.01L399.46 14.848L399.082 14.74V1.618L397.408 0.753998H394.708L393.682 1.456C393.682 2.032 393.61 2.554 393.466 3.022C393.358 3.49 393.304 3.85 393.304 4.102C393.304 4.282 393.394 4.372 393.574 4.372V6.802L392.764 9.232V9.61L389.578 10.852C389.578 10.924 389.452 10.96 389.2 10.96C388.876 10.96 388.642 10.942 388.498 10.906C388.354 10.906 388.192 10.888 388.012 10.852L386.77 11.284ZM392.656 13.498V16.63L392.224 19.114V20.518H391.576C390.892 20.626 390.298 20.716 389.794 20.788C389.29 20.824 388.732 20.842 388.12 20.842C387.76 20.842 387.382 20.824 386.986 20.788C386.626 20.752 386.212 20.644 385.744 20.464C385.672 20.464 385.6 20.482 385.528 20.518C385.492 20.518 385.456 20.518 385.42 20.518C384.772 20.518 384.286 20.302 383.962 19.87C383.674 19.402 383.53 18.628 383.53 17.548C383.53 16.756 383.638 16.18 383.854 15.82C384.07 15.46 384.376 15.19 384.772 15.01C385.204 14.83 385.672 14.704 386.176 14.632C386.716 14.56 387.292 14.434 387.904 14.254C388.264 14.182 388.57 14.11 388.822 14.038C389.11 13.93 389.416 13.858 389.74 13.822H390.01C390.046 13.858 390.118 13.876 390.226 13.876C390.406 13.876 390.658 13.822 390.982 13.714C391.306 13.57 391.702 13.498 392.17 13.498H392.656Z" fill="#171717"/>
</svg>
