<svg width="166" height="20" viewBox="0 0 166 20" fill="none" xmlns="http://www.w3.org/2000/svg">
<path d="M15.1163 15.048C14.9963 14.76 14.9123 14.556 14.8643 14.436C14.8403 14.316 14.8283 14.232 14.8283 14.184C14.4923 14.184 14.2043 14.184 13.9643 14.184C13.7483 14.16 13.5443 14.148 13.3523 14.148L11.8403 14.076C11.1443 14.1 10.5443 14.136 10.0403 14.184C9.5363 14.208 8.9723 14.22 8.3483 14.22C8.0603 14.172 7.8323 14.136 7.6643 14.112C7.4963 14.088 7.3403 14.064 7.1963 14.04C7.0763 14.016 6.9563 13.992 6.8363 13.968C6.7163 13.92 6.5723 13.86 6.4043 13.788C6.3803 13.812 6.3443 13.824 6.2963 13.824C6.0563 13.824 5.8163 13.74 5.5763 13.572C5.3603 13.404 5.1563 13.188 4.9643 12.924C4.7723 12.66 4.6163 12.36 4.4963 12.024C4.4003 11.664 4.3523 11.28 4.3523 10.872C4.3523 10.512 4.4123 10.224 4.5323 10.008C4.6523 9.792 4.7963 9.588 4.9643 9.396C5.1563 9.204 5.3483 9.012 5.5403 8.82C5.7323 8.628 5.9003 8.364 6.0443 8.028C6.2123 7.908 6.3323 7.836 6.4043 7.812L6.5843 7.668C6.5843 7.668 6.6323 7.62 6.7283 7.524C6.8243 7.428 6.9323 7.32 7.0523 7.2C7.1963 7.08 7.3283 6.972 7.4483 6.876C7.5923 6.756 7.6883 6.696 7.7363 6.696C7.8803 6.624 8.0843 6.54 8.3483 6.444C8.6363 6.348 8.9123 6.264 9.1763 6.192C9.4403 6.12 9.6803 6.06 9.8963 6.012C10.1123 5.964 10.2683 5.94 10.3643 5.94C10.5323 5.988 10.6523 6.036 10.7243 6.084C10.8203 6.108 10.8803 6.12 10.9043 6.12C11.2163 6.12 11.4803 6.108 11.6963 6.084C11.9363 6.036 12.1643 6.012 12.3803 6.012L13.5683 5.904L14.2523 4.248C14.2283 4.104 14.2163 3.948 14.2163 3.78C14.2403 3.588 14.2403 3.408 14.2163 3.24C14.1923 3.048 14.1563 2.88 14.1083 2.736C14.0843 2.568 14.0003 2.412 13.8563 2.268H11.2643C10.8803 2.268 10.4843 2.268 10.0763 2.268C9.6923 2.244 9.2483 2.232 8.7443 2.232L7.7723 2.52C7.4123 2.52 7.0403 2.58 6.6563 2.7C6.2963 2.796 5.9483 2.916 5.6123 3.06C5.2763 3.204 4.9763 3.348 4.7123 3.492C4.4483 3.636 4.2803 3.744 4.2083 3.816C3.7283 4.224 3.3203 4.596 2.9843 4.932C2.6483 5.244 2.3363 5.58 2.0483 5.94C1.7843 6.3 1.5323 6.696 1.2923 7.128C1.0523 7.536 0.788297 8.04 0.500297 8.64C0.332297 9 0.224297 9.384 0.176297 9.792C0.128297 10.176 0.104297 10.584 0.104297 11.016C0.104297 11.784 0.164297 12.384 0.284297 12.816C0.428297 13.224 0.572297 13.548 0.716297 13.788C0.860297 14.004 0.992297 14.172 1.1123 14.292C1.2563 14.412 1.3283 14.556 1.3283 14.724L2.1563 15.48L2.5883 15.588C2.9963 15.708 3.2963 15.816 3.4883 15.912C3.7043 16.008 3.8843 16.092 4.0283 16.164C4.1723 16.212 4.3043 16.272 4.4243 16.344C4.5683 16.416 4.7843 16.5 5.0723 16.596C5.1683 16.62 5.2523 16.644 5.3243 16.668C5.4203 16.668 5.5163 16.668 5.6123 16.668C5.8043 16.668 5.9843 16.656 6.1523 16.632C6.3443 16.608 6.5603 16.596 6.8003 16.596C6.9923 16.596 7.1963 16.608 7.4123 16.632C7.6283 16.632 7.8923 16.656 8.2043 16.704C8.8763 16.704 9.4403 16.704 9.8963 16.704C10.3523 16.704 10.7843 16.704 11.1923 16.704C11.6243 16.68 12.0683 16.668 12.5243 16.668C13.0043 16.644 13.5803 16.62 14.2523 16.596L14.6123 16.272C14.7323 16.176 14.8163 16.116 14.8643 16.092C14.9363 16.068 15.0923 15.936 15.3323 15.696L15.5843 15.444C15.5603 15.444 15.4763 15.432 15.3323 15.408C15.1883 15.36 15.1163 15.24 15.1163 15.048ZM19.564 9C19.492 9.432 19.444 9.84 19.42 10.224C19.42 10.608 19.42 10.956 19.42 11.268C19.42 11.844 19.504 12.348 19.672 12.78L20.032 13.248L23.848 14.364H24.712C24.808 14.34 24.916 14.304 25.036 14.256C25.156 14.208 25.288 14.136 25.432 14.04L28.456 13.032C28.624 12.96 28.864 12.84 29.176 12.672C29.512 12.504 29.824 12.312 30.112 12.096C30.424 11.856 30.688 11.592 30.904 11.304C31.12 11.016 31.228 10.716 31.228 10.404C31.228 9.252 30.928 8.208 30.328 7.272C29.752 6.336 28.924 5.616 27.844 5.112H27.772C27.676 5.112 27.508 5.124 27.268 5.148C27.028 5.172 26.812 5.184 26.62 5.184C26.452 5.184 26.296 5.16 26.152 5.112C26.032 5.064 25.972 4.992 25.972 4.896L23.416 5.292C22.984 5.412 22.552 5.58 22.12 5.796C21.688 6.012 21.292 6.276 20.932 6.588C20.572 6.876 20.272 7.224 20.032 7.632C19.792 8.016 19.636 8.472 19.564 9ZM26.224 7.344C26.512 7.44 26.824 7.524 27.16 7.596C27.496 7.668 27.808 7.776 28.096 7.92C28.384 8.04 28.636 8.208 28.852 8.424C29.092 8.64 29.272 8.964 29.392 9.396L28.456 10.764L24.604 11.556H24.1L23.164 10.728L23.344 8.568C23.488 8.496 23.632 8.388 23.776 8.244C23.92 8.1 24.076 7.956 24.244 7.812C24.436 7.644 24.64 7.512 24.856 7.416C25.096 7.296 25.348 7.236 25.612 7.236C25.78 7.236 25.984 7.272 26.224 7.344ZM47.7506 5.976L47.1746 5.508H44.6906L42.6026 6.372L41.7746 6.732L41.0186 7.056L39.9026 5.04H37.3826L36.7346 5.976V6.876V13.176L37.2386 14.364L38.1746 14.004H38.7506L39.2906 14.328L41.0186 13.896L40.8026 10.44L40.7306 10.368V8.928L43.0346 8.676L43.6826 8.316H44.1146L44.9426 9.504L44.3666 13.68L44.8346 14.076H48.5786L48.9386 13.644V9.324L49.0826 8.496L47.7506 5.976ZM61.378 9.576L62.314 9.54C62.434 9.588 62.542 9.624 62.638 9.648C62.734 9.672 62.866 9.684 63.034 9.684C63.13 9.684 63.226 9.672 63.322 9.648C63.442 9.624 63.55 9.6 63.646 9.576C63.766 9.552 63.91 9.54 64.078 9.54C64.27 9.516 64.51 9.504 64.798 9.504C64.894 9.504 64.978 9.516 65.05 9.54C65.146 9.54 65.218 9.54 65.266 9.54C65.29 9.54 65.314 9.54 65.338 9.54C65.386 9.54 65.482 9.492 65.626 9.396C65.506 9.396 65.446 9.312 65.446 9.144C65.446 9.12 65.458 9.048 65.482 8.928C65.506 8.808 65.518 8.724 65.518 8.676C65.494 8.676 65.482 8.616 65.482 8.496C65.482 8.4 65.506 8.328 65.554 8.28C65.386 8.16 65.302 8.04 65.302 7.92C65.302 7.776 65.254 7.632 65.158 7.488C65.014 7.536 64.906 7.56 64.834 7.56C64.666 7.56 64.546 7.56 64.474 7.56C64.426 7.536 64.366 7.512 64.294 7.488C64.222 7.464 64.09 7.452 63.898 7.452C63.73 7.428 63.442 7.404 63.034 7.38C62.746 7.356 62.398 7.332 61.99 7.308C61.582 7.284 61.138 7.248 60.658 7.2L60.298 3.204L59.974 2.736L57.598 2.952L57.022 3.78L56.914 7.02C56.578 7.02 56.254 7.02 55.942 7.02C55.63 6.996 55.33 6.984 55.042 6.984C54.802 7.056 54.67 7.092 54.646 7.092C54.43 7.092 54.238 7.092 54.07 7.092C53.902 7.092 53.734 7.068 53.566 7.02H52.99L52.45 7.488C52.45 7.68 52.45 7.896 52.45 8.136C52.45 8.376 52.462 8.616 52.486 8.856C52.534 9.096 52.594 9.312 52.666 9.504C52.738 9.672 52.834 9.78 52.954 9.828L53.242 10.08C53.482 10.08 53.662 10.08 53.782 10.08C53.902 10.056 54.118 10.02 54.43 9.972C54.454 9.924 54.562 9.9 54.754 9.9C54.898 9.9 55.042 9.912 55.186 9.936C55.354 9.96 55.462 9.984 55.51 10.008C55.582 10.008 55.654 10.008 55.726 10.008C55.822 9.984 55.918 9.972 56.014 9.972L56.518 9.936L56.374 10.656V15.336L56.518 17.388L56.914 18.216L57.814 18.072L60.766 18.288L62.782 18C62.926 17.592 62.998 17.184 62.998 16.776C62.998 16.368 62.926 15.936 62.782 15.48L61.378 14.724V9.576ZM69.681 5.112C69.849 5.112 69.993 5.184 70.113 5.328C70.257 5.472 70.377 5.64 70.473 5.832C70.593 6.024 70.701 6.192 70.797 6.336C70.893 6.48 70.977 6.552 71.049 6.552C71.289 6.504 71.649 6.408 72.129 6.264C72.633 6.096 73.173 5.928 73.749 5.76C74.349 5.592 74.925 5.448 75.477 5.328C76.053 5.208 76.521 5.148 76.881 5.148C77.073 5.148 77.205 5.184 77.277 5.256C77.373 5.328 77.433 5.412 77.457 5.508C77.481 5.604 77.505 5.7 77.529 5.796C77.577 5.868 77.661 5.928 77.781 5.976C77.829 6.048 77.901 6.12 77.997 6.192C78.093 6.24 78.141 6.336 78.141 6.48C78.021 6.768 77.949 7.044 77.925 7.308C77.901 7.548 77.889 7.776 77.889 7.992V8.208L76.845 8.28C76.677 8.304 76.509 8.328 76.341 8.352C76.173 8.352 75.981 8.352 75.765 8.352L74.685 8.964C74.373 8.964 74.109 9 73.893 9.072C73.677 9.12 73.449 9.204 73.209 9.324C72.993 9.42 72.741 9.528 72.453 9.648C72.165 9.768 71.781 9.888 71.301 10.008C70.149 10.584 69.285 11.28 68.709 12.096C68.157 12.912 67.881 13.92 67.881 15.12C67.881 15.504 68.013 15.888 68.277 16.272C68.541 16.632 68.865 16.968 69.249 17.28C69.633 17.568 70.029 17.808 70.437 18C70.845 18.168 71.205 18.252 71.517 18.252C71.877 18.252 72.213 18.252 72.525 18.252C72.837 18.276 73.149 18.288 73.461 18.288H75.441H75.477C75.525 18.288 75.561 18.252 75.585 18.18C75.633 18.132 75.681 18.072 75.729 18C75.801 17.904 75.909 17.832 76.053 17.784C76.221 17.712 76.449 17.676 76.737 17.676C77.049 17.676 77.373 17.772 77.709 17.964C78.045 18.132 78.333 18.216 78.573 18.216C78.765 18.216 78.945 18.204 79.113 18.18C79.281 18.156 79.449 18.12 79.617 18.072C79.809 18.024 80.025 17.988 80.265 17.964C80.505 17.916 80.781 17.892 81.093 17.892C81.165 18.012 81.297 18.12 81.489 18.216H81.993C82.017 18.096 82.065 17.988 82.137 17.892C82.209 17.772 82.293 17.616 82.389 17.424C82.365 16.872 82.329 16.38 82.281 15.948C82.257 15.516 82.233 15.108 82.209 14.724C82.209 14.316 82.197 13.896 82.173 13.464C82.173 13.032 82.161 12.54 82.137 11.988H82.245C82.269 11.964 82.293 11.952 82.317 11.952C82.245 11.952 82.185 11.856 82.137 11.664C82.089 11.472 82.053 11.28 82.029 11.088C82.005 10.872 81.981 10.68 81.957 10.512C81.957 10.32 81.957 10.224 81.957 10.224C81.933 10.032 81.885 9.888 81.813 9.792C81.765 9.672 81.705 9.54 81.633 9.396C81.585 9.228 81.525 9 81.453 8.712C81.405 8.424 81.369 7.956 81.345 7.308C81.273 7.26 81.213 7.116 81.165 6.876C81.117 6.636 81.069 6.384 81.021 6.12C80.997 5.832 80.973 5.568 80.949 5.328C80.949 5.064 80.937 4.908 80.913 4.86H80.841C80.649 4.86 80.493 4.752 80.373 4.536C80.253 4.32 80.145 4.08 80.049 3.816C79.953 3.552 79.869 3.324 79.797 3.132C79.725 2.916 79.641 2.808 79.545 2.808C79.497 2.76 79.449 2.712 79.401 2.664C79.353 2.592 79.305 2.532 79.257 2.484H78.681C78.441 2.484 78.237 2.484 78.069 2.484C77.925 2.484 77.781 2.484 77.637 2.484C77.517 2.484 77.385 2.472 77.241 2.448C77.097 2.424 76.917 2.388 76.701 2.34C76.677 2.46 76.533 2.544 76.269 2.592C76.029 2.616 75.753 2.628 75.441 2.628C75.153 2.628 74.877 2.628 74.613 2.628C74.373 2.628 74.241 2.664 74.217 2.736C73.569 2.952 72.981 3.132 72.453 3.276C71.925 3.42 71.481 3.576 71.121 3.744C70.761 3.888 70.461 4.068 70.221 4.284C69.981 4.476 69.801 4.752 69.681 5.112ZM77.493 11.16V12.996C77.373 13.38 77.301 13.776 77.277 14.184C77.253 14.592 77.241 14.892 77.241 15.084V15.372H76.737C76.257 15.42 75.813 15.456 75.405 15.48C74.997 15.504 74.601 15.528 74.217 15.552L71.697 15.696C71.529 15.408 71.385 15.18 71.265 15.012C71.169 14.844 71.121 14.592 71.121 14.256C71.121 13.584 71.205 13.056 71.373 12.672C71.565 12.288 71.817 12 72.129 11.808C72.465 11.592 72.849 11.436 73.281 11.34C73.713 11.244 74.169 11.136 74.649 11.016C74.889 10.944 75.105 10.884 75.297 10.836C75.513 10.788 75.717 10.764 75.909 10.764H76.053C76.293 10.836 76.533 10.908 76.773 10.98C77.037 11.052 77.277 11.112 77.493 11.16ZM99.8232 16.416L99.6792 16.272C99.6792 16.152 99.6432 16.044 99.5712 15.948C99.5232 15.828 99.4752 15.696 99.4272 15.552C99.2592 15.552 99.1152 15.588 98.9952 15.66C98.8752 15.708 98.7432 15.768 98.5992 15.84C98.4792 15.888 98.3352 15.948 98.1672 16.02C97.9992 16.068 97.7712 16.092 97.4832 16.092H97.3032C97.0152 16.116 96.7632 16.128 96.5472 16.128C96.3552 16.128 96.1632 16.14 95.9712 16.164C95.8032 16.164 95.6112 16.176 95.3952 16.2C95.2032 16.2 94.9752 16.2 94.7112 16.2C94.2792 16.152 93.9072 16.128 93.5952 16.128C93.3072 16.104 92.9592 16.032 92.5512 15.912C92.5272 15.936 92.5152 15.948 92.5152 15.948C92.4912 15.948 92.4672 15.96 92.4432 15.984C92.4432 15.984 92.4192 15.984 92.3712 15.984C92.0832 15.888 91.8672 15.816 91.7232 15.768C91.6032 15.72 91.5432 15.636 91.5432 15.516C91.5432 15.42 91.4232 15.252 91.1832 15.012C90.9672 14.772 90.8592 14.496 90.8592 14.184C90.8592 13.896 90.9552 13.608 91.1472 13.32C91.3632 13.032 91.5912 12.792 91.8312 12.6C92.0952 12.384 92.3232 12.216 92.5152 12.096C92.7072 11.976 92.7792 11.928 92.7312 11.952C92.7792 11.952 92.8272 11.928 92.8752 11.88C92.9232 11.856 92.9592 11.832 92.9832 11.808C93.0312 11.76 93.0912 11.712 93.1632 11.664C93.2832 11.52 93.4272 11.412 93.5952 11.34C93.7872 11.244 94.2072 11.148 94.8552 11.052C95.3592 10.956 95.7552 10.884 96.0432 10.836C96.3552 10.788 96.6192 10.764 96.8352 10.764C97.0512 10.764 97.2552 10.764 97.4472 10.764C97.6392 10.764 97.8912 10.764 98.2032 10.764C98.2752 10.524 98.3352 10.356 98.3832 10.26C98.4312 10.164 98.5512 9.948 98.7432 9.612C98.6952 9.372 98.6712 9.096 98.6712 8.784C98.6952 8.448 98.6112 8.268 98.4192 8.244H96.4392C96.1512 8.244 95.8512 8.244 95.5392 8.244C95.2512 8.22 94.9032 8.208 94.4952 8.208C93.8712 8.424 93.2112 8.58 92.5152 8.676C91.8432 8.772 91.2552 8.976 90.7512 9.288C90.4392 9.528 90.1632 9.756 89.9232 9.972C89.7072 10.188 89.4912 10.428 89.2752 10.692C89.0832 10.956 88.8792 11.244 88.6632 11.556C88.4712 11.868 88.2552 12.24 88.0152 12.672C87.9192 12.864 87.8472 13.056 87.7992 13.248C87.7512 13.44 87.7152 13.632 87.6912 13.824C87.6912 14.184 87.7032 14.544 87.7272 14.904C87.7752 15.24 87.9552 15.624 88.2672 16.056C88.3632 16.152 88.4592 16.26 88.5552 16.38C88.6512 16.5 88.6992 16.56 88.6992 16.56L88.8792 16.74C88.9272 16.74 88.9752 16.812 89.0232 16.956C89.0712 17.076 89.1072 17.136 89.1312 17.136H89.7432C90.0312 17.304 90.2592 17.448 90.4272 17.568C90.5952 17.664 90.7512 17.736 90.8952 17.784C91.0632 17.808 91.2312 17.832 91.3992 17.856C91.5672 17.88 91.7832 17.892 92.0472 17.892C92.1672 17.892 92.2992 17.892 92.4432 17.892C92.6112 17.868 92.7792 17.856 92.9472 17.856C93.1152 17.856 93.2832 17.856 93.4512 17.856C93.6192 17.856 93.8232 17.88 94.0632 17.928C94.5672 17.928 94.9872 17.904 95.3232 17.856C95.6832 17.784 96.0312 17.7 96.3672 17.604C96.7272 17.508 97.0992 17.424 97.4832 17.352C97.8912 17.28 98.3952 17.232 98.9952 17.208C99.1152 17.16 99.2832 17.052 99.4992 16.884C99.7152 16.692 99.8232 16.572 99.8232 16.524C99.8232 16.452 99.7512 16.416 99.6072 16.416H99.8232ZM111.687 9.576L112.623 9.54C112.743 9.588 112.851 9.624 112.947 9.648C113.043 9.672 113.175 9.684 113.343 9.684C113.439 9.684 113.535 9.672 113.631 9.648C113.751 9.624 113.859 9.6 113.955 9.576C114.075 9.552 114.219 9.54 114.387 9.54C114.579 9.516 114.819 9.504 115.107 9.504C115.203 9.504 115.287 9.516 115.359 9.54C115.455 9.54 115.527 9.54 115.575 9.54C115.599 9.54 115.623 9.54 115.647 9.54C115.695 9.54 115.791 9.492 115.935 9.396C115.815 9.396 115.755 9.312 115.755 9.144C115.755 9.12 115.767 9.048 115.791 8.928C115.815 8.808 115.827 8.724 115.827 8.676C115.803 8.676 115.791 8.616 115.791 8.496C115.791 8.4 115.815 8.328 115.863 8.28C115.695 8.16 115.611 8.04 115.611 7.92C115.611 7.776 115.563 7.632 115.467 7.488C115.323 7.536 115.215 7.56 115.143 7.56C114.975 7.56 114.855 7.56 114.783 7.56C114.735 7.536 114.675 7.512 114.603 7.488C114.531 7.464 114.399 7.452 114.207 7.452C114.039 7.428 113.751 7.404 113.343 7.38C113.055 7.356 112.707 7.332 112.299 7.308C111.891 7.284 111.447 7.248 110.967 7.2L110.607 3.204L110.283 2.736L107.907 2.952L107.331 3.78L107.223 7.02C106.887 7.02 106.563 7.02 106.251 7.02C105.939 6.996 105.639 6.984 105.351 6.984C105.111 7.056 104.979 7.092 104.955 7.092C104.739 7.092 104.547 7.092 104.379 7.092C104.211 7.092 104.043 7.068 103.875 7.02H103.299L102.759 7.488C102.759 7.68 102.759 7.896 102.759 8.136C102.759 8.376 102.771 8.616 102.795 8.856C102.843 9.096 102.903 9.312 102.975 9.504C103.047 9.672 103.143 9.78 103.263 9.828L103.551 10.08C103.791 10.08 103.971 10.08 104.091 10.08C104.211 10.056 104.427 10.02 104.739 9.972C104.763 9.924 104.871 9.9 105.063 9.9C105.207 9.9 105.351 9.912 105.495 9.936C105.663 9.96 105.771 9.984 105.819 10.008C105.891 10.008 105.963 10.008 106.035 10.008C106.131 9.984 106.227 9.972 106.323 9.972L106.827 9.936L106.683 10.656V15.336L106.827 17.388L107.223 18.216L108.123 18.072L111.075 18.288L113.091 18C113.235 17.592 113.307 17.184 113.307 16.776C113.307 16.368 113.235 15.936 113.091 15.48L111.687 14.724V9.576ZM145.851 3.132C145.731 3.06 145.647 3.012 145.599 2.988C145.575 2.94 145.527 2.868 145.455 2.772C145.095 2.844 144.783 2.88 144.519 2.88L143.583 2.988C143.415 2.988 143.271 2.988 143.151 2.988C143.055 2.964 142.911 2.952 142.719 2.952C142.479 3.072 142.311 3.144 142.215 3.168C142.143 3.168 142.023 3.192 141.855 3.24V7.452C141.855 7.668 141.879 7.836 141.927 7.956C141.975 8.052 142.023 8.16 142.071 8.28C141.975 8.4 141.903 8.508 141.855 8.604C141.831 8.7 141.819 8.808 141.819 8.928V9.108C141.819 9.132 141.819 9.156 141.819 9.18C141.819 9.204 141.819 9.228 141.819 9.252C141.771 9.468 141.711 9.756 141.639 10.116C141.591 10.452 141.543 10.812 141.495 11.196C141.447 11.556 141.399 11.94 141.351 12.348C141.327 12.732 141.279 13.08 141.207 13.392C141.231 13.416 141.243 13.428 141.243 13.428L141.171 13.824C141.171 14.136 141.075 14.388 140.883 14.58C140.691 14.772 140.463 14.916 140.199 15.012C139.959 15.108 139.719 15.168 139.479 15.192C139.239 15.216 139.059 15.228 138.939 15.228L137.895 15.336C137.751 15.312 137.607 15.276 137.463 15.228C137.343 15.18 137.235 15.144 137.139 15.12L136.419 14.868C136.275 14.772 136.143 14.676 136.023 14.58C135.927 14.484 135.819 14.388 135.699 14.292L135.087 13.68L134.979 12.24C134.955 11.952 134.931 11.676 134.907 11.412C134.907 11.124 134.907 10.896 134.907 10.728C134.907 10.344 134.907 9.996 134.907 9.684C134.907 9.348 134.931 8.94 134.979 8.46C134.883 8.34 134.835 8.22 134.835 8.1L134.727 7.74C134.751 7.26 134.763 6.828 134.763 6.444C134.787 6.036 134.823 5.64 134.871 5.256C134.919 4.872 134.967 4.476 135.015 4.068C135.063 3.636 135.111 3.156 135.159 2.628L134.979 2.448C134.907 2.376 134.859 2.304 134.835 2.232H132.819C132.531 2.232 132.231 2.232 131.919 2.232C131.631 2.208 131.271 2.196 130.839 2.196C130.719 2.34 130.479 2.46 130.119 2.556V5.4C130.119 5.664 130.119 5.868 130.119 6.012C130.119 6.132 130.143 6.264 130.191 6.408V9.756L130.479 11.952C130.503 12.624 130.611 13.236 130.803 13.788C130.995 14.316 131.235 14.796 131.523 15.228C131.835 15.66 132.183 16.056 132.567 16.416C132.951 16.776 133.371 17.112 133.827 17.424C134.259 17.832 134.715 18.06 135.195 18.108C135.699 18.18 136.179 18.216 136.635 18.216H137.571C137.619 18.24 137.667 18.252 137.715 18.252C137.835 18.252 137.931 18.24 138.003 18.216C138.099 18.192 138.219 18.18 138.363 18.18C138.411 18.18 138.459 18.18 138.507 18.18C138.579 18.204 138.651 18.216 138.723 18.216C138.987 18.072 139.167 18 139.263 18C139.311 18 139.335 18 139.335 18C139.359 18.024 139.383 18.036 139.407 18.036C139.695 18.036 139.935 18.024 140.127 18C140.319 17.952 140.607 17.904 140.991 17.856L141.315 17.568C141.507 17.496 141.687 17.4 141.855 17.28C142.047 17.136 142.227 16.992 142.395 16.848C142.563 16.68 142.731 16.524 142.899 16.38C143.091 16.236 143.307 16.128 143.547 16.056C143.619 15.936 143.691 15.84 143.763 15.768C143.835 15.672 143.895 15.576 143.943 15.48L144.339 14.904L145.131 11.592L145.275 11.016C145.419 10.296 145.515 9.636 145.563 9.036C145.611 8.412 145.647 7.8 145.671 7.2C145.695 6.576 145.707 5.94 145.707 5.292C145.731 4.644 145.779 3.924 145.851 3.132ZM165.025 13.212C165.001 13.068 164.941 12.936 164.845 12.816C164.773 12.696 164.689 12.576 164.593 12.456C164.497 12.336 164.413 12.228 164.341 12.132C164.269 12.012 164.233 11.88 164.233 11.736C163.969 11.64 163.765 11.556 163.621 11.484C163.477 11.388 163.333 11.292 163.189 11.196L162.073 10.584C161.953 10.536 161.881 10.476 161.857 10.404C161.281 10.164 160.693 9.888 160.093 9.576C159.517 9.24 159.001 8.94 158.545 8.676L156.889 7.74C156.793 7.74 156.685 7.668 156.565 7.524C156.445 7.356 156.385 7.008 156.385 6.48C156.385 5.976 156.445 5.604 156.565 5.364C156.709 5.1 157.057 4.8 157.609 4.464H157.789C158.029 4.464 158.305 4.404 158.617 4.284C158.929 4.14 159.169 4.02 159.337 3.924C159.577 3.828 159.889 3.72 160.273 3.6C160.681 3.48 161.029 3.384 161.317 3.312L162.001 2.988C162.145 2.988 162.373 2.988 162.685 2.988C163.021 2.988 163.273 2.868 163.441 2.628C163.417 2.436 163.405 2.292 163.405 2.196C163.405 2.1 163.393 2.016 163.369 1.944C163.369 1.848 163.369 1.752 163.369 1.656C163.369 1.536 163.369 1.368 163.369 1.152C163.105 1.032 162.913 0.947999 162.793 0.899999C162.697 0.851999 162.529 0.755999 162.289 0.612C161.905 0.659999 161.581 0.695999 161.317 0.719999C161.053 0.743999 160.729 0.755999 160.345 0.755999C160.177 0.755999 160.045 0.755999 159.949 0.755999C159.877 0.731999 159.769 0.695999 159.625 0.647999C159.121 0.815999 158.713 0.935999 158.401 1.008C158.089 1.08 157.717 1.176 157.285 1.296L155.449 2.232C155.017 2.448 154.525 2.7 153.973 2.988C153.421 3.276 153.025 3.612 152.785 3.996C152.689 4.116 152.581 4.248 152.461 4.392C152.365 4.536 152.209 4.692 151.993 4.86C151.993 5.172 151.909 5.448 151.741 5.688C151.597 5.904 151.525 6.132 151.525 6.372C151.525 6.444 151.537 6.492 151.561 6.516C151.585 6.54 151.597 6.624 151.597 6.768C151.597 6.912 151.573 7.068 151.525 7.236C151.501 7.38 151.465 7.476 151.417 7.524C151.465 7.932 151.549 8.28 151.669 8.568C151.813 8.856 152.005 9.096 152.245 9.288L152.677 9.648C153.013 9.768 153.289 9.912 153.505 10.08C153.745 10.248 153.961 10.44 154.153 10.656C154.345 10.848 154.549 11.028 154.765 11.196C155.005 11.34 155.269 11.436 155.557 11.484L157.861 12.528L158.869 12.96C158.869 13.104 158.905 13.236 158.977 13.356C159.073 13.452 159.169 13.572 159.265 13.716C159.361 13.836 159.457 13.968 159.553 14.112C159.649 14.256 159.697 14.412 159.697 14.58C159.697 15.012 159.577 15.348 159.337 15.588C159.097 15.804 158.833 15.972 158.545 16.092C158.257 16.188 157.993 16.248 157.753 16.272C157.513 16.296 157.381 16.308 157.357 16.308C156.637 16.476 156.061 16.62 155.629 16.74C155.221 16.86 154.765 16.92 154.261 16.92C154.021 16.92 153.745 16.908 153.433 16.884C153.121 16.836 152.761 16.788 152.353 16.74C152.281 16.812 152.161 16.848 151.993 16.848C151.825 16.848 151.621 16.812 151.381 16.74C151.165 16.668 151.045 16.644 151.021 16.668C151.069 16.86 151.105 17.064 151.129 17.28C151.177 17.496 151.213 17.7 151.237 17.892C151.285 18.084 151.321 18.24 151.345 18.36C151.393 18.504 151.441 18.576 151.489 18.576H151.561C151.513 18.6 151.465 18.648 151.417 18.72C151.393 18.792 151.381 18.852 151.381 18.9C151.381 18.972 151.393 19.008 151.417 19.008C151.393 19.032 151.381 19.056 151.381 19.08C151.381 19.128 151.417 19.188 151.489 19.26C151.561 19.332 151.645 19.392 151.741 19.44C151.837 19.488 151.933 19.536 152.029 19.584C152.125 19.632 152.173 19.656 152.173 19.656C152.461 19.632 152.701 19.608 152.893 19.584C153.109 19.584 153.313 19.56 153.505 19.512C153.721 19.488 153.937 19.464 154.153 19.44C154.393 19.416 154.669 19.368 154.981 19.296C155.221 19.248 155.437 19.2 155.629 19.152C155.845 19.104 156.061 19.092 156.277 19.116C156.805 19.116 157.273 19.164 157.681 19.26C158.089 19.38 158.485 19.44 158.869 19.44C159.061 19.44 159.253 19.428 159.445 19.404C159.637 19.38 159.817 19.332 159.985 19.26C160.177 19.212 160.333 19.164 160.453 19.116C160.573 19.092 160.645 19.08 160.669 19.08C160.693 19.08 160.717 19.068 160.741 19.044C160.789 19.044 160.849 19.032 160.921 19.008C160.993 18.984 161.101 18.924 161.245 18.828C161.389 18.756 161.581 18.66 161.821 18.54C162.133 18.372 162.481 18.192 162.865 18C163.249 17.832 163.609 17.628 163.945 17.388C164.305 17.148 164.593 16.872 164.809 16.56C165.049 16.224 165.169 15.816 165.169 15.336C165.169 15.048 165.145 14.736 165.097 14.4C165.049 14.04 165.025 13.644 165.025 13.212Z" fill="#171717"/>
</svg>
