<svg width="85" height="13" viewBox="0 0 85 13" fill="none" xmlns="http://www.w3.org/2000/svg">
<path d="M10.0063 6.24L9.88631 5.16L9.40631 3.864L9.35831 3.576L9.19031 3.312L7.63031 1.896L7.31831 1.68L3.88631 0.887999H1.29431L0.886307 1.32V6.96V8.208V11.76L1.55831 12.24L3.35831 12.048L6.79031 10.728L8.54231 8.856L8.63831 8.592L8.90231 8.544L10.0063 6.24ZM7.41431 4.464V7.32L7.17431 8.088L6.67031 8.832L6.02231 9.48L4.77431 9.72L3.76631 10.032L3.83831 8.76V3.72L4.03031 2.76L5.83031 2.928L6.83831 3.864L7.41431 4.464ZM17.0616 2.544L16.2456 2.208L15.1896 2.016L14.4216 1.848L13.8456 2.04V4.32L13.9176 4.608L15.3576 4.368L16.4856 4.584L16.8216 4.344L17.0616 2.544ZM17.2296 10.536L16.8216 10.2L16.9656 9.768V8.64L16.7976 8.04V6.384L16.5096 6.072L16.0056 6.048L15.8136 6.144L14.8536 6.072L14.4456 6.264L13.9416 12.072L14.1816 12.336H14.6136L14.9016 12.24H16.7496L17.2056 12.024L17.0856 11.448L17.2296 10.536ZM28.0202 8.088C27.9882 7.944 27.9162 7.832 27.8042 7.752C27.6922 7.672 27.6362 7.56 27.6362 7.416C27.4922 7.368 27.3802 7.328 27.3002 7.296C27.2202 7.248 27.1482 7.216 27.0842 7.2C27.0362 7.168 26.9802 7.128 26.9162 7.08C26.8682 7.032 26.7882 6.984 26.6762 6.936C26.6442 6.936 26.5482 6.896 26.3882 6.816C26.2442 6.72 26.1482 6.664 26.1002 6.648L25.7642 6.48C25.5562 6.384 25.4042 6.296 25.3082 6.216C25.2282 6.136 25.1802 6.064 25.1642 6L24.7322 5.592C24.6682 5.592 24.6042 5.56 24.5402 5.496C24.4922 5.416 24.4682 5.256 24.4682 5.016C24.4682 4.792 24.4922 4.624 24.5402 4.512C24.6042 4.4 24.7882 4.264 25.0922 4.104H25.1402C25.1882 4.104 25.2522 4.088 25.3322 4.056C25.4122 4.024 25.4842 3.96 25.5482 3.864C25.5482 3.832 25.5722 3.8 25.6202 3.768C25.6682 3.736 25.8602 3.672 26.1962 3.576C26.2762 3.576 26.3402 3.568 26.3882 3.552C26.4362 3.52 26.5002 3.48 26.5802 3.432H26.9162C26.9642 3.432 27.0122 3.432 27.0602 3.432C27.1082 3.416 27.1642 3.4 27.2282 3.384C27.2122 3.384 27.2042 3.376 27.2042 3.36C27.2202 3.36 27.2282 3.352 27.2282 3.336C27.2282 3.32 27.2362 3.312 27.2522 3.312C27.2522 3.264 27.2442 3.224 27.2282 3.192C27.2282 3.16 27.2282 3.128 27.2282 3.096V2.952C27.2282 2.712 27.1642 2.576 27.0362 2.544C26.9242 2.496 26.8282 2.432 26.7482 2.352C26.5562 2.384 26.3882 2.408 26.2442 2.424C26.1162 2.424 25.9562 2.424 25.7642 2.424C25.6522 2.424 25.5722 2.424 25.5242 2.424C25.4922 2.408 25.4682 2.392 25.4522 2.376C25.2442 2.456 25.0602 2.512 24.9002 2.544C24.7402 2.56 24.5642 2.608 24.3722 2.688L23.4602 3.072C23.2522 3.2 23.0202 3.32 22.7642 3.432C22.5242 3.544 22.3242 3.696 22.1642 3.888C22.0842 4.032 21.9562 4.168 21.7802 4.296C21.7802 4.44 21.7402 4.552 21.6602 4.632C21.5962 4.712 21.5642 4.808 21.5642 4.92C21.5642 4.952 21.5722 4.976 21.5882 4.992C21.6042 5.008 21.6122 5.056 21.6122 5.136C21.6122 5.2 21.6042 5.272 21.5882 5.352C21.5722 5.432 21.5482 5.488 21.5162 5.52C21.5162 5.664 21.5562 5.824 21.6362 6C21.7322 6.16 21.8202 6.256 21.9002 6.288L22.1162 6.48C22.2762 6.544 22.4122 6.616 22.5242 6.696C22.6362 6.776 22.7402 6.864 22.8362 6.96C22.9322 7.04 23.0282 7.12 23.1242 7.2C23.2362 7.264 23.3722 7.304 23.5322 7.32C23.7562 7.4 23.8922 7.472 23.9402 7.536C24.0042 7.584 24.0362 7.632 24.0362 7.68C24.0522 7.712 24.0762 7.752 24.1082 7.8C24.1402 7.832 24.2602 7.896 24.4682 7.992C24.4682 8.056 24.5242 8.144 24.6362 8.256L24.8282 8.448C24.8762 8.576 24.9002 8.696 24.9002 8.808C24.9002 8.952 24.8442 9.072 24.7322 9.168C24.6362 9.248 24.5162 9.32 24.3722 9.384C24.2442 9.432 24.1242 9.464 24.0122 9.48C23.9002 9.496 23.8442 9.496 23.8442 9.48C23.4762 9.592 23.2122 9.672 23.0522 9.72C22.9082 9.768 22.7642 9.792 22.6202 9.792C22.5082 9.792 22.2842 9.768 21.9482 9.72C21.9162 9.768 21.8602 9.792 21.7802 9.792C21.7002 9.792 21.5962 9.768 21.4682 9.72C21.3562 9.672 21.3082 9.656 21.3242 9.672C21.4202 9.896 21.4602 10.104 21.4442 10.296C21.4282 10.472 21.4602 10.56 21.5402 10.56H21.5642C21.5482 10.576 21.5322 10.6 21.5162 10.632C21.5002 10.664 21.4922 10.704 21.4922 10.752C21.4922 10.752 21.5002 10.752 21.5162 10.752C21.4842 10.768 21.4682 10.776 21.4682 10.776C21.4682 10.808 21.5322 10.864 21.6602 10.944C21.8042 11.008 21.8842 11.04 21.9002 11.04C22.2042 11.008 22.5082 10.96 22.8122 10.896C23.1162 10.832 23.4522 10.8 23.8202 10.8C24.0442 10.8 24.2522 10.824 24.4442 10.872C24.6362 10.92 24.8362 10.944 25.0442 10.944C25.3482 10.944 25.5882 10.912 25.7642 10.848C25.9562 10.784 26.1082 10.72 26.2202 10.656C26.3322 10.576 26.4362 10.512 26.5322 10.464C26.6282 10.4 26.7402 10.368 26.8682 10.368L27.3722 10.128C27.5482 10.032 27.7082 9.896 27.8522 9.72C28.0122 9.528 28.0922 9.32 28.0922 9.096C28.0922 8.952 28.0762 8.8 28.0442 8.64C28.0282 8.48 28.0202 8.296 28.0202 8.088ZM36.6806 6.384L37.3046 6.36C37.3846 6.392 37.4566 6.416 37.5206 6.432C37.5846 6.448 37.6726 6.456 37.7846 6.456C37.8486 6.456 37.9126 6.448 37.9766 6.432C38.0566 6.416 38.1286 6.4 38.1926 6.384C38.2726 6.368 38.3686 6.36 38.4806 6.36C38.6086 6.344 38.7686 6.336 38.9606 6.336C39.0246 6.336 39.0806 6.344 39.1286 6.36C39.1926 6.36 39.2406 6.36 39.2726 6.36C39.2886 6.36 39.3046 6.36 39.3206 6.36C39.3526 6.36 39.4166 6.328 39.5126 6.264C39.4326 6.264 39.3926 6.208 39.3926 6.096C39.3926 6.08 39.4006 6.032 39.4166 5.952C39.4326 5.872 39.4406 5.816 39.4406 5.784C39.4246 5.784 39.4166 5.744 39.4166 5.664C39.4166 5.6 39.4326 5.552 39.4646 5.52C39.3526 5.44 39.2966 5.36 39.2966 5.28C39.2966 5.184 39.2646 5.088 39.2006 4.992C39.1046 5.024 39.0326 5.04 38.9846 5.04C38.8726 5.04 38.7926 5.04 38.7446 5.04C38.7126 5.024 38.6726 5.008 38.6246 4.992C38.5766 4.976 38.4886 4.968 38.3606 4.968C38.2486 4.952 38.0566 4.936 37.7846 4.92C37.5926 4.904 37.3606 4.888 37.0886 4.872C36.8166 4.856 36.5206 4.832 36.2006 4.8L35.9606 2.136L35.7446 1.824L34.1606 1.968L33.7766 2.52L33.7046 4.68C33.4806 4.68 33.2646 4.68 33.0566 4.68C32.8486 4.664 32.6486 4.656 32.4566 4.656C32.2966 4.704 32.2086 4.728 32.1926 4.728C32.0486 4.728 31.9206 4.728 31.8086 4.728C31.6966 4.728 31.5846 4.712 31.4726 4.68H31.0886L30.7286 4.992C30.7286 5.12 30.7286 5.264 30.7286 5.424C30.7286 5.584 30.7366 5.744 30.7526 5.904C30.7846 6.064 30.8246 6.208 30.8726 6.336C30.9206 6.448 30.9846 6.52 31.0646 6.552L31.2566 6.72C31.4166 6.72 31.5366 6.72 31.6166 6.72C31.6966 6.704 31.8406 6.68 32.0486 6.648C32.0646 6.616 32.1366 6.6 32.2646 6.6C32.3606 6.6 32.4566 6.608 32.5526 6.624C32.6646 6.64 32.7366 6.656 32.7686 6.672C32.8166 6.672 32.8646 6.672 32.9126 6.672C32.9766 6.656 33.0406 6.648 33.1046 6.648L33.4406 6.624L33.3446 7.104V10.224L33.4406 11.592L33.7046 12.144L34.3046 12.048L36.2726 12.192L37.6166 12C37.7126 11.728 37.7606 11.456 37.7606 11.184C37.7606 10.912 37.7126 10.624 37.6166 10.32L36.6806 9.816V6.384ZM42.216 3.408C42.328 3.408 42.424 3.456 42.504 3.552C42.6 3.648 42.68 3.76 42.744 3.888C42.824 4.016 42.896 4.128 42.96 4.224C43.024 4.32 43.08 4.368 43.128 4.368C43.288 4.336 43.528 4.272 43.848 4.176C44.184 4.064 44.544 3.952 44.928 3.84C45.328 3.728 45.712 3.632 46.08 3.552C46.464 3.472 46.776 3.432 47.016 3.432C47.144 3.432 47.232 3.456 47.28 3.504C47.344 3.552 47.384 3.608 47.4 3.672C47.416 3.736 47.432 3.8 47.448 3.864C47.48 3.912 47.536 3.952 47.616 3.984C47.648 4.032 47.696 4.08 47.76 4.128C47.824 4.16 47.856 4.224 47.856 4.32C47.776 4.512 47.728 4.696 47.712 4.872C47.696 5.032 47.688 5.184 47.688 5.328V5.472L46.992 5.52C46.88 5.536 46.768 5.552 46.656 5.568C46.544 5.568 46.416 5.568 46.272 5.568L45.552 5.976C45.344 5.976 45.168 6 45.024 6.048C44.88 6.08 44.728 6.136 44.568 6.216C44.424 6.28 44.256 6.352 44.064 6.432C43.872 6.512 43.616 6.592 43.296 6.672C42.528 7.056 41.952 7.52 41.568 8.064C41.2 8.608 41.016 9.28 41.016 10.08C41.016 10.336 41.104 10.592 41.28 10.848C41.456 11.088 41.672 11.312 41.928 11.52C42.184 11.712 42.448 11.872 42.72 12C42.992 12.112 43.232 12.168 43.44 12.168C43.68 12.168 43.904 12.168 44.112 12.168C44.32 12.184 44.528 12.192 44.736 12.192H46.056H46.08C46.112 12.192 46.136 12.168 46.152 12.12C46.184 12.088 46.216 12.048 46.248 12C46.296 11.936 46.368 11.888 46.464 11.856C46.576 11.808 46.728 11.784 46.92 11.784C47.128 11.784 47.344 11.848 47.568 11.976C47.792 12.088 47.984 12.144 48.144 12.144C48.272 12.144 48.392 12.136 48.504 12.12C48.616 12.104 48.728 12.08 48.84 12.048C48.968 12.016 49.112 11.992 49.272 11.976C49.432 11.944 49.616 11.928 49.824 11.928C49.872 12.008 49.96 12.08 50.088 12.144H50.424C50.44 12.064 50.472 11.992 50.52 11.928C50.568 11.848 50.624 11.744 50.688 11.616C50.672 11.248 50.648 10.92 50.616 10.632C50.6 10.344 50.584 10.072 50.568 9.816C50.568 9.544 50.56 9.264 50.544 8.976C50.544 8.688 50.536 8.36 50.52 7.992H50.592C50.608 7.976 50.624 7.968 50.64 7.968C50.592 7.968 50.552 7.904 50.52 7.776C50.488 7.648 50.464 7.52 50.448 7.392C50.432 7.248 50.416 7.12 50.4 7.008C50.4 6.88 50.4 6.816 50.4 6.816C50.384 6.688 50.352 6.592 50.304 6.528C50.272 6.448 50.232 6.36 50.184 6.264C50.152 6.152 50.112 6 50.064 5.808C50.032 5.616 50.008 5.304 49.992 4.872C49.944 4.84 49.904 4.744 49.872 4.584C49.84 4.424 49.808 4.256 49.776 4.08C49.76 3.888 49.744 3.712 49.728 3.552C49.728 3.376 49.72 3.272 49.704 3.24H49.656C49.528 3.24 49.424 3.168 49.344 3.024C49.264 2.88 49.192 2.72 49.128 2.544C49.064 2.368 49.008 2.216 48.96 2.088C48.912 1.944 48.856 1.872 48.792 1.872C48.76 1.84 48.728 1.808 48.696 1.776C48.664 1.728 48.632 1.688 48.6 1.656H48.216C48.056 1.656 47.92 1.656 47.808 1.656C47.712 1.656 47.616 1.656 47.52 1.656C47.44 1.656 47.352 1.648 47.256 1.632C47.16 1.616 47.04 1.592 46.896 1.56C46.88 1.64 46.784 1.696 46.608 1.728C46.448 1.744 46.264 1.752 46.056 1.752C45.864 1.752 45.68 1.752 45.504 1.752C45.344 1.752 45.256 1.776 45.24 1.824C44.808 1.968 44.416 2.088 44.064 2.184C43.712 2.28 43.416 2.384 43.176 2.496C42.936 2.592 42.736 2.712 42.576 2.856C42.416 2.984 42.296 3.168 42.216 3.408ZM47.424 7.44V8.664C47.344 8.92 47.296 9.184 47.28 9.456C47.264 9.728 47.256 9.928 47.256 10.056V10.248H46.92C46.6 10.28 46.304 10.304 46.032 10.32C45.76 10.336 45.496 10.352 45.24 10.368L43.56 10.464C43.448 10.272 43.352 10.12 43.272 10.008C43.208 9.896 43.176 9.728 43.176 9.504C43.176 9.056 43.232 8.704 43.344 8.448C43.472 8.192 43.64 8 43.848 7.872C44.072 7.728 44.328 7.624 44.616 7.56C44.904 7.496 45.208 7.424 45.528 7.344C45.688 7.296 45.832 7.256 45.96 7.224C46.104 7.192 46.24 7.176 46.368 7.176H46.464C46.624 7.224 46.784 7.272 46.944 7.32C47.12 7.368 47.28 7.408 47.424 7.44ZM61.1347 3.984L60.7507 3.672H59.0947L57.7027 4.248L57.1507 4.488L56.6467 4.704L55.9027 3.36H54.2227L53.7907 3.984V4.584V8.784L54.1267 9.576L54.7507 9.336H55.1347L55.4947 9.552L56.6467 9.264L56.5027 6.96L56.4547 6.912V5.952L57.9907 5.784L58.4227 5.544H58.7107L59.2627 6.336L58.8787 9.12L59.1907 9.384H61.6867L61.9267 9.096V6.216L62.0227 5.664L61.1347 3.984ZM73.7717 10.944L73.6757 10.848C73.6757 10.768 73.6517 10.696 73.6037 10.632C73.5717 10.552 73.5397 10.464 73.5077 10.368C73.3957 10.368 73.2997 10.392 73.2197 10.44C73.1397 10.472 73.0517 10.512 72.9557 10.56C72.8757 10.592 72.7797 10.632 72.6677 10.68C72.5557 10.712 72.4037 10.728 72.2117 10.728H72.0917C71.8997 10.744 71.7317 10.752 71.5877 10.752C71.4597 10.752 71.3317 10.76 71.2037 10.776C71.0917 10.776 70.9637 10.784 70.8197 10.8C70.6917 10.8 70.5397 10.8 70.3637 10.8C70.0757 10.768 69.8277 10.752 69.6197 10.752C69.4277 10.736 69.1957 10.688 68.9237 10.608C68.9077 10.624 68.8997 10.632 68.8997 10.632C68.8837 10.632 68.8677 10.64 68.8517 10.656C68.8517 10.656 68.8357 10.656 68.8037 10.656C68.6117 10.592 68.4677 10.544 68.3717 10.512C68.2917 10.48 68.2517 10.424 68.2517 10.344C68.2517 10.28 68.1717 10.168 68.0117 10.008C67.8677 9.848 67.7957 9.664 67.7957 9.456C67.7957 9.264 67.8597 9.072 67.9877 8.88C68.1317 8.688 68.2837 8.528 68.4437 8.4C68.6197 8.256 68.7717 8.144 68.8997 8.064C69.0277 7.984 69.0757 7.952 69.0437 7.968C69.0757 7.968 69.1077 7.952 69.1397 7.92C69.1717 7.904 69.1957 7.888 69.2117 7.872C69.2437 7.84 69.2837 7.808 69.3317 7.776C69.4117 7.68 69.5077 7.608 69.6197 7.56C69.7477 7.496 70.0277 7.432 70.4597 7.368C70.7957 7.304 71.0597 7.256 71.2517 7.224C71.4597 7.192 71.6357 7.176 71.7797 7.176C71.9237 7.176 72.0597 7.176 72.1877 7.176C72.3157 7.176 72.4837 7.176 72.6917 7.176C72.7397 7.016 72.7797 6.904 72.8117 6.84C72.8437 6.776 72.9237 6.632 73.0517 6.408C73.0197 6.248 73.0037 6.064 73.0037 5.856C73.0197 5.632 72.9637 5.512 72.8357 5.496H71.5157C71.3237 5.496 71.1237 5.496 70.9157 5.496C70.7237 5.48 70.4917 5.472 70.2197 5.472C69.8037 5.616 69.3637 5.72 68.8997 5.784C68.4517 5.848 68.0597 5.984 67.7237 6.192C67.5157 6.352 67.3317 6.504 67.1717 6.648C67.0277 6.792 66.8837 6.952 66.7397 7.128C66.6117 7.304 66.4757 7.496 66.3317 7.704C66.2037 7.912 66.0597 8.16 65.8997 8.448C65.8357 8.576 65.7877 8.704 65.7557 8.832C65.7237 8.96 65.6997 9.088 65.6837 9.216C65.6837 9.456 65.6917 9.696 65.7077 9.936C65.7397 10.16 65.8597 10.416 66.0677 10.704C66.1317 10.768 66.1957 10.84 66.2597 10.92C66.3237 11 66.3557 11.04 66.3557 11.04L66.4757 11.16C66.5077 11.16 66.5397 11.208 66.5717 11.304C66.6037 11.384 66.6277 11.424 66.6437 11.424H67.0517C67.2437 11.536 67.3957 11.632 67.5077 11.712C67.6197 11.776 67.7237 11.824 67.8197 11.856C67.9317 11.872 68.0437 11.888 68.1557 11.904C68.2677 11.92 68.4117 11.928 68.5877 11.928C68.6677 11.928 68.7557 11.928 68.8517 11.928C68.9637 11.912 69.0757 11.904 69.1877 11.904C69.2997 11.904 69.4117 11.904 69.5237 11.904C69.6357 11.904 69.7717 11.92 69.9317 11.952C70.2677 11.952 70.5477 11.936 70.7717 11.904C71.0117 11.856 71.2437 11.8 71.4677 11.736C71.7077 11.672 71.9557 11.616 72.2117 11.568C72.4837 11.52 72.8197 11.488 73.2197 11.472C73.2997 11.44 73.4117 11.368 73.5557 11.256C73.6997 11.128 73.7717 11.048 73.7717 11.016C73.7717 10.968 73.7237 10.944 73.6277 10.944H73.7717ZM84.7766 10.944L84.7046 10.848C84.7046 10.768 84.6806 10.696 84.6326 10.632C84.5846 10.552 84.5446 10.464 84.5126 10.368C84.4166 10.368 84.3286 10.392 84.2486 10.44C84.1686 10.472 84.0806 10.512 83.9846 10.56C83.9046 10.592 83.8006 10.632 83.6726 10.68C83.5606 10.712 83.4166 10.728 83.2406 10.728H83.1206C82.9286 10.744 82.7606 10.752 82.6166 10.752C82.4726 10.752 82.3366 10.76 82.2086 10.776C82.0806 10.776 81.9526 10.784 81.8246 10.8C81.6966 10.8 81.5446 10.8 81.3686 10.8C81.0646 10.752 80.8646 10.72 80.7686 10.704C80.6886 10.672 80.6486 10.656 80.6486 10.656C80.6486 10.656 80.6566 10.656 80.6726 10.656C80.6886 10.656 80.6646 10.64 80.6006 10.608C80.5846 10.624 80.5686 10.632 80.5526 10.632C80.5366 10.632 80.5206 10.64 80.5046 10.656C80.5046 10.656 80.4886 10.656 80.4566 10.656C80.2806 10.592 80.1366 10.544 80.0246 10.512C79.9286 10.48 79.8806 10.424 79.8806 10.344C79.8806 10.28 79.8006 10.168 79.6406 10.008C79.4966 9.848 79.4246 9.664 79.4246 9.456C79.4246 9.216 79.4486 8.912 79.4966 8.544C79.5446 8.16 79.6406 7.856 79.7846 7.632C79.9126 7.552 80.1366 7.464 80.4566 7.368C80.7766 7.256 81.0966 7.2 81.4166 7.2C81.6086 7.2 81.7526 7.232 81.8486 7.296C81.9606 7.344 82.0486 7.408 82.1126 7.488C82.1766 7.568 82.2086 7.656 82.2086 7.752C82.2246 7.832 82.2326 7.912 82.2326 7.992C82.2326 8.104 82.1926 8.184 82.1126 8.232C82.0326 8.28 81.9366 8.312 81.8246 8.328C81.7126 8.344 81.6006 8.352 81.4886 8.352C81.3766 8.352 81.2806 8.36 81.2006 8.376C80.8806 8.472 80.6166 8.536 80.4086 8.568C80.2166 8.6 80.1046 8.616 80.0726 8.616C80.1526 8.648 80.2086 8.712 80.2406 8.808C80.2726 8.904 80.2966 9.008 80.3126 9.12C80.3286 9.216 80.3366 9.312 80.3366 9.408C80.3366 9.488 80.3446 9.528 80.3606 9.528C80.9206 9.528 81.3846 9.504 81.7526 9.456C82.1206 9.408 82.4246 9.352 82.6646 9.288C82.9046 9.208 83.0966 9.144 83.2406 9.096C83.3846 9.032 83.5286 8.992 83.6726 8.976C83.7366 8.816 83.8086 8.72 83.8886 8.688C83.9686 8.64 84.0566 8.56 84.1526 8.448C84.1206 8.224 84.0646 8 83.9846 7.776C83.9206 7.536 83.8486 7.32 83.7686 7.128C83.6886 6.92 83.6086 6.744 83.5286 6.6C83.4646 6.456 83.4326 6.368 83.4326 6.336C83.3206 6.336 83.2246 6.312 83.1446 6.264C83.0806 6.216 83.0246 6.168 82.9766 6.12C82.9446 6.072 82.9206 6.024 82.9046 5.976C82.8886 5.928 82.8726 5.904 82.8566 5.904C82.6806 5.904 82.5446 5.864 82.4486 5.784C82.3846 5.752 82.3366 5.712 82.3046 5.664C82.0486 5.664 81.8486 5.632 81.7046 5.568C81.5606 5.504 81.4006 5.472 81.2246 5.472C80.8246 5.616 80.3926 5.72 79.9286 5.784C79.4806 5.848 79.0806 5.984 78.7286 6.192C78.5366 6.352 78.3606 6.504 78.2006 6.648C78.0406 6.792 77.8966 6.952 77.7686 7.128C77.6406 7.304 77.5046 7.496 77.3606 7.704C77.2166 7.912 77.0726 8.16 76.9286 8.448C76.8486 8.576 76.7926 8.704 76.7606 8.832C76.7446 8.96 76.7286 9.088 76.7126 9.216C76.7126 9.456 76.7206 9.696 76.7366 9.936C76.7686 10.16 76.8806 10.416 77.0726 10.704C77.1526 10.768 77.2166 10.84 77.2646 10.92C77.3286 11 77.3606 11.04 77.3606 11.04L77.5046 11.16C77.5366 11.16 77.5606 11.208 77.5766 11.304C77.6086 11.384 77.6326 11.424 77.6486 11.424H78.0806C78.2726 11.536 78.4246 11.632 78.5366 11.712C78.6486 11.776 78.7526 11.824 78.8486 11.856C78.9446 11.872 79.0486 11.888 79.1606 11.904C79.2726 11.92 79.4166 11.928 79.5926 11.928C79.6886 11.928 79.7846 11.928 79.8806 11.928C79.9926 11.912 80.1046 11.904 80.2166 11.904C80.3126 11.904 80.4166 11.904 80.5286 11.904C80.6406 11.904 80.7766 11.92 80.9366 11.952C81.2886 11.952 81.5766 11.936 81.8006 11.904C82.0406 11.856 82.2726 11.8 82.4966 11.736C82.7366 11.672 82.9846 11.616 83.2406 11.568C83.5126 11.52 83.8406 11.488 84.2246 11.472C84.3206 11.44 84.4326 11.368 84.5606 11.256C84.7046 11.128 84.7766 11.048 84.7766 11.016C84.7766 10.968 84.7366 10.944 84.6566 10.944H84.7766Z" fill="#171717"/>
</svg>
