<svg width="92" height="13" viewBox="0 0 92 13" fill="none" xmlns="http://www.w3.org/2000/svg">
<path d="M10.0072 10.6134L9.55119 10.4694H4.63119L4.39119 10.4454L4.10319 7.99737V7.18137L6.74319 6.65337H7.48719L8.42319 6.48537L8.71119 6.12537L8.56719 5.42937H6.98319L6.50319 5.38137L4.58319 5.59737H3.95919L3.74319 4.94937L3.38319 2.50137L3.55119 2.35737L8.68719 1.97337L9.11919 1.73337V0.55737L8.15919 0.245371L6.23919 0.533371L3.81519 0.869371L3.47919 0.605371H1.34319L1.19919 0.55737L0.863188 0.94137V5.30937L0.983188 5.64537V9.60537L0.767188 10.5894L0.911188 10.9254V12.4374H5.68719L6.62319 12.1494L8.80719 11.7174L9.83919 11.6454C9.90319 11.5174 9.95919 11.4214 10.0072 11.3574C10.0712 11.2774 10.1032 11.2294 10.1032 11.2134V11.0454C10.0872 10.9974 10.0712 10.9414 10.0552 10.8774C10.0392 10.7974 10.0232 10.7094 10.0072 10.6134ZM16.0784 4.08537L15.9584 3.86937L16.1504 3.10137V0.869371L15.8624 0.67737L14.0144 1.66137L13.8224 2.47737V5.57337L13.3664 11.9094L13.7264 12.2214L15.2144 12.1014L15.8144 12.2934L16.3184 11.9574V7.68537V6.77337L16.0784 4.08537ZM28.4795 10.9494L28.4075 10.8534C28.4075 10.7734 28.3835 10.7014 28.3355 10.6374C28.2875 10.5574 28.2475 10.4694 28.2155 10.3734C28.1195 10.3734 28.0315 10.3974 27.9515 10.4454C27.8715 10.4774 27.7835 10.5174 27.6875 10.5654C27.6075 10.5974 27.5035 10.6374 27.3755 10.6854C27.2635 10.7174 27.1195 10.7334 26.9435 10.7334H26.8235C26.6315 10.7494 26.4635 10.7574 26.3195 10.7574C26.1755 10.7574 26.0395 10.7654 25.9115 10.7814C25.7835 10.7814 25.6555 10.7894 25.5275 10.8054C25.3995 10.8054 25.2475 10.8054 25.0715 10.8054C24.7675 10.7574 24.5675 10.7254 24.4715 10.7094C24.3915 10.6774 24.3515 10.6614 24.3515 10.6614C24.3515 10.6614 24.3595 10.6614 24.3755 10.6614C24.3915 10.6614 24.3675 10.6454 24.3035 10.6134C24.2875 10.6294 24.2715 10.6374 24.2555 10.6374C24.2395 10.6374 24.2235 10.6454 24.2075 10.6614C24.2075 10.6614 24.1915 10.6614 24.1595 10.6614C23.9835 10.5974 23.8395 10.5494 23.7275 10.5174C23.6315 10.4854 23.5835 10.4294 23.5835 10.3494C23.5835 10.2854 23.5035 10.1734 23.3435 10.0134C23.1995 9.85337 23.1275 9.66937 23.1275 9.46137C23.1275 9.22137 23.1515 8.91737 23.1995 8.54937C23.2475 8.16537 23.3435 7.86137 23.4875 7.63737C23.6155 7.55737 23.8395 7.46937 24.1595 7.37337C24.4795 7.26137 24.7995 7.20537 25.1195 7.20537C25.3115 7.20537 25.4555 7.23737 25.5515 7.30137C25.6635 7.34937 25.7515 7.41337 25.8155 7.49337C25.8795 7.57337 25.9115 7.66137 25.9115 7.75737C25.9275 7.83737 25.9355 7.91737 25.9355 7.99737C25.9355 8.10937 25.8955 8.18937 25.8155 8.23737C25.7355 8.28537 25.6395 8.31737 25.5275 8.33337C25.4155 8.34937 25.3035 8.35737 25.1915 8.35737C25.0795 8.35737 24.9835 8.36537 24.9035 8.38137C24.5835 8.47737 24.3195 8.54137 24.1115 8.57337C23.9195 8.60537 23.8075 8.62137 23.7755 8.62137C23.8555 8.65337 23.9115 8.71737 23.9435 8.81337C23.9755 8.90937 23.9995 9.01337 24.0155 9.12537C24.0315 9.22137 24.0395 9.31737 24.0395 9.41337C24.0395 9.49337 24.0475 9.53337 24.0635 9.53337C24.6235 9.53337 25.0875 9.50937 25.4555 9.46137C25.8235 9.41337 26.1275 9.35737 26.3675 9.29337C26.6075 9.21337 26.7995 9.14937 26.9435 9.10137C27.0875 9.03737 27.2315 8.99737 27.3755 8.98137C27.4395 8.82137 27.5115 8.72537 27.5915 8.69337C27.6715 8.64537 27.7595 8.56537 27.8555 8.45337C27.8235 8.22937 27.7675 8.00537 27.6875 7.78137C27.6235 7.54137 27.5515 7.32537 27.4715 7.13337C27.3915 6.92537 27.3115 6.74937 27.2315 6.60537C27.1675 6.46137 27.1355 6.37337 27.1355 6.34137C27.0235 6.34137 26.9275 6.31737 26.8475 6.26937C26.7835 6.22137 26.7275 6.17337 26.6795 6.12537C26.6475 6.07737 26.6235 6.02937 26.6075 5.98137C26.5915 5.93337 26.5755 5.90937 26.5595 5.90937C26.3835 5.90937 26.2475 5.86937 26.1515 5.78937C26.0875 5.75737 26.0395 5.71737 26.0075 5.66937C25.7515 5.66937 25.5515 5.63737 25.4075 5.57337C25.2635 5.50937 25.1035 5.47737 24.9275 5.47737C24.5275 5.62137 24.0955 5.72537 23.6315 5.78937C23.1835 5.85337 22.7835 5.98937 22.4315 6.19737C22.2395 6.35737 22.0635 6.50937 21.9035 6.65337C21.7435 6.79737 21.5995 6.95737 21.4715 7.13337C21.3435 7.30937 21.2075 7.50137 21.0635 7.70937C20.9195 7.91737 20.7755 8.16537 20.6315 8.45337C20.5515 8.58137 20.4955 8.70937 20.4635 8.83737C20.4475 8.96537 20.4315 9.09337 20.4155 9.22137C20.4155 9.46137 20.4235 9.70137 20.4395 9.94137C20.4715 10.1654 20.5835 10.4214 20.7755 10.7094C20.8555 10.7734 20.9195 10.8454 20.9675 10.9254C21.0315 11.0054 21.0635 11.0454 21.0635 11.0454L21.2075 11.1654C21.2395 11.1654 21.2635 11.2134 21.2795 11.3094C21.3115 11.3894 21.3355 11.4294 21.3515 11.4294H21.7835C21.9755 11.5414 22.1275 11.6374 22.2395 11.7174C22.3515 11.7814 22.4555 11.8294 22.5515 11.8614C22.6475 11.8774 22.7515 11.8934 22.8635 11.9094C22.9755 11.9254 23.1195 11.9334 23.2955 11.9334C23.3915 11.9334 23.4875 11.9334 23.5835 11.9334C23.6955 11.9174 23.8075 11.9094 23.9195 11.9094C24.0155 11.9094 24.1195 11.9094 24.2315 11.9094C24.3435 11.9094 24.4795 11.9254 24.6395 11.9574C24.9915 11.9574 25.2795 11.9414 25.5035 11.9094C25.7435 11.8614 25.9755 11.8054 26.1995 11.7414C26.4395 11.6774 26.6875 11.6214 26.9435 11.5734C27.2155 11.5254 27.5435 11.4934 27.9275 11.4774C28.0235 11.4454 28.1355 11.3734 28.2635 11.2614C28.4075 11.1334 28.4795 11.0534 28.4795 11.0214C28.4795 10.9734 28.4395 10.9494 28.3595 10.9494H28.4795ZM38.3767 3.50937L38.2807 3.31737H36.7927L35.9047 3.24537L35.3527 3.94137L35.3767 4.20537L33.5767 7.99737L33.1927 6.31737L32.2087 3.91737L31.6807 2.93337L31.3927 2.95737L30.8407 2.88537L30.5527 2.93337L30.3127 3.36537L31.4407 6.62937L32.4007 9.36537L32.4727 9.70137L32.7847 10.0614H34.1767L35.3047 9.84537L35.8327 8.95737L36.8167 7.10937L37.4887 5.57337L37.9207 4.68537L37.9447 4.34937L38.2807 3.84537L38.3767 3.50937ZM41.5361 3.41337C41.6481 3.41337 41.7441 3.46137 41.8241 3.55737C41.9201 3.65337 42.0001 3.76537 42.0641 3.89337C42.1441 4.02137 42.2161 4.13337 42.2801 4.22937C42.3441 4.32537 42.4001 4.37337 42.4481 4.37337C42.6081 4.34137 42.8481 4.27737 43.1681 4.18137C43.5041 4.06937 43.8641 3.95737 44.2481 3.84537C44.6481 3.73337 45.0321 3.63737 45.4001 3.55737C45.7841 3.47737 46.0961 3.43737 46.3361 3.43737C46.4641 3.43737 46.5521 3.46137 46.6001 3.50937C46.6641 3.55737 46.7041 3.61337 46.7201 3.67737C46.7361 3.74137 46.7521 3.80537 46.7681 3.86937C46.8001 3.91737 46.8561 3.95737 46.9361 3.98937C46.9681 4.03737 47.0161 4.08537 47.0801 4.13337C47.1441 4.16537 47.1761 4.22937 47.1761 4.32537C47.0961 4.51737 47.0481 4.70137 47.0321 4.87737C47.0161 5.03737 47.0081 5.18937 47.0081 5.33337V5.47737L46.3121 5.52537C46.2001 5.54137 46.0881 5.55737 45.9761 5.57337C45.8641 5.57337 45.7361 5.57337 45.5921 5.57337L44.8721 5.98137C44.6641 5.98137 44.4881 6.00537 44.3441 6.05337C44.2001 6.08537 44.0481 6.14137 43.8881 6.22137C43.7441 6.28537 43.5761 6.35737 43.3841 6.43737C43.1921 6.51737 42.9361 6.59737 42.6161 6.67737C41.8481 7.06137 41.2721 7.52537 40.8881 8.06937C40.5201 8.61337 40.3361 9.28537 40.3361 10.0854C40.3361 10.3414 40.4241 10.5974 40.6001 10.8534C40.7761 11.0934 40.9921 11.3174 41.2481 11.5254C41.5041 11.7174 41.7681 11.8774 42.0401 12.0054C42.3121 12.1174 42.5521 12.1734 42.7601 12.1734C43.0001 12.1734 43.2241 12.1734 43.4321 12.1734C43.6401 12.1894 43.8481 12.1974 44.0561 12.1974H45.3761H45.4001C45.4321 12.1974 45.4561 12.1734 45.4721 12.1254C45.5041 12.0934 45.5361 12.0534 45.5681 12.0054C45.6161 11.9414 45.6881 11.8934 45.7841 11.8614C45.8961 11.8134 46.0481 11.7894 46.2401 11.7894C46.4481 11.7894 46.6641 11.8534 46.8881 11.9814C47.1121 12.0934 47.3041 12.1494 47.4641 12.1494C47.5921 12.1494 47.7121 12.1414 47.8241 12.1254C47.9361 12.1094 48.0481 12.0854 48.1601 12.0534C48.2881 12.0214 48.4321 11.9974 48.5921 11.9814C48.7521 11.9494 48.9361 11.9334 49.1441 11.9334C49.1921 12.0134 49.2801 12.0854 49.4081 12.1494H49.7441C49.7601 12.0694 49.7921 11.9974 49.8401 11.9334C49.8881 11.8534 49.9441 11.7494 50.0081 11.6214C49.9921 11.2534 49.9681 10.9254 49.9361 10.6374C49.9201 10.3494 49.9041 10.0774 49.8881 9.82137C49.8881 9.54937 49.8801 9.26937 49.8641 8.98137C49.8641 8.69337 49.8561 8.36537 49.8401 7.99737H49.9121C49.9281 7.98137 49.9441 7.97337 49.9601 7.97337C49.9121 7.97337 49.8721 7.90937 49.8401 7.78137C49.8081 7.65337 49.7841 7.52537 49.7681 7.39737C49.7521 7.25337 49.7361 7.12537 49.7201 7.01337C49.7201 6.88537 49.7201 6.82137 49.7201 6.82137C49.7041 6.69337 49.6721 6.59737 49.6241 6.53337C49.5921 6.45337 49.5521 6.36537 49.5041 6.26937C49.4721 6.15737 49.4321 6.00537 49.3841 5.81337C49.3521 5.62137 49.3281 5.30937 49.3121 4.87737C49.2641 4.84537 49.2241 4.74937 49.1921 4.58937C49.1601 4.42937 49.1281 4.26137 49.0961 4.08537C49.0801 3.89337 49.0641 3.71737 49.0481 3.55737C49.0481 3.38137 49.0401 3.27737 49.0241 3.24537H48.9761C48.8481 3.24537 48.7441 3.17337 48.6641 3.02937C48.5841 2.88537 48.5121 2.72537 48.4481 2.54937C48.3841 2.37337 48.3281 2.22137 48.2801 2.09337C48.2321 1.94937 48.1761 1.87737 48.1121 1.87737C48.0801 1.84537 48.0481 1.81337 48.0161 1.78137C47.9841 1.73337 47.9521 1.69337 47.9201 1.66137H47.5361C47.3761 1.66137 47.2401 1.66137 47.1281 1.66137C47.0321 1.66137 46.9361 1.66137 46.8401 1.66137C46.7601 1.66137 46.6721 1.65337 46.5761 1.63737C46.4801 1.62137 46.3601 1.59737 46.2161 1.56537C46.2001 1.64537 46.1041 1.70137 45.9281 1.73337C45.7681 1.74937 45.5841 1.75737 45.3761 1.75737C45.1841 1.75737 45.0001 1.75737 44.8241 1.75737C44.6641 1.75737 44.5761 1.78137 44.5601 1.82937C44.1281 1.97337 43.7361 2.09337 43.3841 2.18937C43.0321 2.28537 42.7361 2.38937 42.4961 2.50137C42.2561 2.59737 42.0561 2.71737 41.8961 2.86137C41.7361 2.98937 41.6161 3.17337 41.5361 3.41337ZM46.7441 7.44537V8.66937C46.6641 8.92537 46.6161 9.18937 46.6001 9.46137C46.5841 9.73337 46.5761 9.93337 46.5761 10.0614V10.2534H46.2401C45.9201 10.2854 45.6241 10.3094 45.3521 10.3254C45.0801 10.3414 44.8161 10.3574 44.5601 10.3734L42.8801 10.4694C42.7681 10.2774 42.6721 10.1254 42.5921 10.0134C42.5281 9.90137 42.4961 9.73337 42.4961 9.50937C42.4961 9.06137 42.5521 8.70937 42.6641 8.45337C42.7921 8.19737 42.9601 8.00537 43.1681 7.87737C43.3921 7.73337 43.6481 7.62937 43.9361 7.56537C44.2241 7.50137 44.5281 7.42937 44.8481 7.34937C45.0081 7.30137 45.1521 7.26137 45.2801 7.22937C45.4241 7.19737 45.5601 7.18137 45.6881 7.18137H45.7841C45.9441 7.22937 46.1041 7.27737 46.2641 7.32537C46.4401 7.37337 46.6001 7.41337 46.7441 7.44537ZM58.0788 6.38937L58.7028 6.36537C58.7828 6.39737 58.8548 6.42137 58.9188 6.43737C58.9828 6.45337 59.0708 6.46137 59.1828 6.46137C59.2468 6.46137 59.3108 6.45337 59.3748 6.43737C59.4548 6.42137 59.5268 6.40537 59.5908 6.38937C59.6708 6.37337 59.7668 6.36537 59.8788 6.36537C60.0068 6.34937 60.1668 6.34137 60.3588 6.34137C60.4228 6.34137 60.4788 6.34937 60.5268 6.36537C60.5908 6.36537 60.6388 6.36537 60.6708 6.36537C60.6868 6.36537 60.7028 6.36537 60.7188 6.36537C60.7508 6.36537 60.8148 6.33337 60.9108 6.26937C60.8308 6.26937 60.7908 6.21337 60.7908 6.10137C60.7908 6.08537 60.7988 6.03737 60.8148 5.95737C60.8308 5.87737 60.8388 5.82137 60.8388 5.78937C60.8228 5.78937 60.8148 5.74937 60.8148 5.66937C60.8148 5.60537 60.8308 5.55737 60.8628 5.52537C60.7508 5.44537 60.6948 5.36537 60.6948 5.28537C60.6948 5.18937 60.6628 5.09337 60.5988 4.99737C60.5028 5.02937 60.4308 5.04537 60.3828 5.04537C60.2708 5.04537 60.1908 5.04537 60.1428 5.04537C60.1108 5.02937 60.0708 5.01337 60.0228 4.99737C59.9748 4.98137 59.8868 4.97337 59.7588 4.97337C59.6468 4.95737 59.4548 4.94137 59.1828 4.92537C58.9908 4.90937 58.7588 4.89337 58.4868 4.87737C58.2148 4.86137 57.9188 4.83737 57.5988 4.80537L57.3588 2.14137L57.1428 1.82937L55.5588 1.97337L55.1748 2.52537L55.1028 4.68537C54.8788 4.68537 54.6628 4.68537 54.4548 4.68537C54.2468 4.66937 54.0468 4.66137 53.8548 4.66137C53.6948 4.70937 53.6068 4.73337 53.5908 4.73337C53.4468 4.73337 53.3188 4.73337 53.2068 4.73337C53.0948 4.73337 52.9828 4.71737 52.8708 4.68537H52.4868L52.1268 4.99737C52.1268 5.12537 52.1268 5.26937 52.1268 5.42937C52.1268 5.58937 52.1348 5.74937 52.1508 5.90937C52.1828 6.06937 52.2228 6.21337 52.2708 6.34137C52.3188 6.45337 52.3828 6.52537 52.4628 6.55737L52.6548 6.72537C52.8148 6.72537 52.9348 6.72537 53.0148 6.72537C53.0948 6.70937 53.2388 6.68537 53.4468 6.65337C53.4628 6.62137 53.5348 6.60537 53.6628 6.60537C53.7588 6.60537 53.8548 6.61337 53.9508 6.62937C54.0628 6.64537 54.1348 6.66137 54.1668 6.67737C54.2148 6.67737 54.2628 6.67737 54.3108 6.67737C54.3748 6.66137 54.4388 6.65337 54.5028 6.65337L54.8388 6.62937L54.7428 7.10937V10.2294L54.8388 11.5974L55.1028 12.1494L55.7028 12.0534L57.6708 12.1974L59.0148 12.0054C59.1108 11.7334 59.1588 11.4614 59.1588 11.1894C59.1588 10.9174 59.1108 10.6294 59.0148 10.3254L58.0788 9.82137V6.38937ZM67.3582 2.54937L66.5422 2.21337L65.4862 2.02137L64.7182 1.85337L64.1422 2.04537V4.32537L64.2142 4.61337L65.6542 4.37337L66.7822 4.58937L67.1182 4.34937L67.3582 2.54937ZM67.5262 10.5414L67.1182 10.2054L67.2622 9.77337V8.64537L67.0942 8.04537V6.38937L66.8062 6.07737L66.3022 6.05337L66.1102 6.14937L65.1502 6.07737L64.7422 6.26937L64.2382 12.0774L64.4782 12.3414H64.9102L65.1982 12.2454H67.0462L67.5022 12.0294L67.3822 11.4534L67.5262 10.5414ZM71.4528 6.00537C71.4048 6.29337 71.3728 6.56537 71.3568 6.82137C71.3568 7.07737 71.3568 7.30937 71.3568 7.51737C71.3568 7.90137 71.4128 8.23737 71.5248 8.52537L71.7648 8.83737L74.3088 9.58137H74.8848C74.9488 9.56537 75.0208 9.54137 75.1008 9.50937C75.1808 9.47737 75.2688 9.42937 75.3648 9.36537L77.3808 8.69337C77.4928 8.64537 77.6528 8.56537 77.8608 8.45337C78.0848 8.34137 78.2928 8.21337 78.4848 8.06937C78.6928 7.90937 78.8688 7.73337 79.0128 7.54137C79.1568 7.34937 79.2288 7.14937 79.2288 6.94137C79.2288 6.17337 79.0288 5.47737 78.6288 4.85337C78.2448 4.22937 77.6928 3.74937 76.9728 3.41337H76.9248C76.8608 3.41337 76.7488 3.42137 76.5888 3.43737C76.4288 3.45337 76.2848 3.46137 76.1568 3.46137C76.0448 3.46137 75.9408 3.44537 75.8448 3.41337C75.7648 3.38137 75.7248 3.33337 75.7248 3.26937L74.0208 3.53337C73.7328 3.61337 73.4448 3.72537 73.1568 3.86937C72.8688 4.01337 72.6048 4.18937 72.3648 4.39737C72.1248 4.58937 71.9248 4.82137 71.7648 5.09337C71.6048 5.34937 71.5008 5.65337 71.4528 6.00537ZM75.8928 4.90137C76.0848 4.96537 76.2928 5.02137 76.5168 5.06937C76.7408 5.11737 76.9488 5.18937 77.1408 5.28537C77.3328 5.36537 77.5008 5.47737 77.6448 5.62137C77.8048 5.76537 77.9248 5.98137 78.0048 6.26937L77.3808 7.18137L74.8128 7.70937H74.4768L73.8528 7.15737L73.9728 5.71737C74.0688 5.66937 74.1648 5.59737 74.2608 5.50137C74.3568 5.40537 74.4608 5.30937 74.5728 5.21337C74.7008 5.10137 74.8368 5.01337 74.9808 4.94937C75.1408 4.86937 75.3088 4.82937 75.4848 4.82937C75.5968 4.82937 75.7328 4.85337 75.8928 4.90137ZM90.2439 3.98937L89.8599 3.67737H88.2039L86.8119 4.25337L86.2599 4.49337L85.7559 4.70937L85.0119 3.36537H83.3319L82.8999 3.98937V4.58937V8.78937L83.2359 9.58137L83.8599 9.34137H84.2439L84.6039 9.55737L85.7559 9.26937L85.6119 6.96537L85.5639 6.91737V5.95737L87.0999 5.78937L87.5319 5.54937H87.8199L88.3719 6.34137L87.9879 9.12537L88.2999 9.38937H90.7959L91.0359 9.10137V6.22137L91.1319 5.66937L90.2439 3.98937Z" fill="#171717"/>
</svg>
