<svg width="223" height="105" viewBox="0 0 223 105" fill="none" xmlns="http://www.w3.org/2000/svg">
<path d="M39.4787 26.096C39.2387 25.52 39.0707 25.112 38.9747 24.872C38.9267 24.632 38.9027 24.464 38.9027 24.368C38.2307 24.368 37.6547 24.368 37.1747 24.368C36.7427 24.32 36.3347 24.296 35.9507 24.296L32.9267 24.152C31.5347 24.2 30.3347 24.272 29.3267 24.368C28.3187 24.416 27.1907 24.44 25.9427 24.44C25.3667 24.344 24.9107 24.272 24.5747 24.224C24.2387 24.176 23.9267 24.128 23.6387 24.08C23.3987 24.032 23.1587 23.984 22.9187 23.936C22.6787 23.84 22.3907 23.72 22.0547 23.576C22.0067 23.624 21.9347 23.648 21.8387 23.648C21.3587 23.648 20.8787 23.48 20.3987 23.144C19.9667 22.808 19.5587 22.376 19.1747 21.848C18.7907 21.32 18.4787 20.72 18.2387 20.048C18.0467 19.328 17.9507 18.56 17.9507 17.744C17.9507 17.024 18.0707 16.448 18.3107 16.016C18.5507 15.584 18.8387 15.176 19.1747 14.792C19.5587 14.408 19.9427 14.024 20.3267 13.64C20.7107 13.256 21.0467 12.728 21.3347 12.056C21.6707 11.816 21.9107 11.672 22.0547 11.624L22.4147 11.336C22.4147 11.336 22.5107 11.24 22.7027 11.048C22.8947 10.856 23.1107 10.64 23.3507 10.4C23.6387 10.16 23.9027 9.944 24.1427 9.752C24.4307 9.512 24.6227 9.392 24.7187 9.392C25.0067 9.248 25.4147 9.08 25.9427 8.888C26.5187 8.696 27.0707 8.528 27.5987 8.384C28.1267 8.24 28.6067 8.12 29.0387 8.024C29.4707 7.928 29.7827 7.88 29.9747 7.88C30.3107 7.976 30.5507 8.072 30.6947 8.168C30.8867 8.216 31.0067 8.24 31.0547 8.24C31.6787 8.24 32.2067 8.216 32.6387 8.168C33.1187 8.072 33.5747 8.024 34.0067 8.024L36.3827 7.808L37.7507 4.496C37.7027 4.208 37.6787 3.896 37.6787 3.56C37.7267 3.176 37.7267 2.816 37.6787 2.48C37.6307 2.096 37.5587 1.76 37.4627 1.472C37.4147 1.136 37.2467 0.823999 36.9587 0.536H31.7747C31.0067 0.536 30.2147 0.536 29.3987 0.536C28.6307 0.487999 27.7427 0.463998 26.7347 0.463998L24.7907 1.04C24.0707 1.04 23.3267 1.16 22.5587 1.4C21.8387 1.592 21.1427 1.832 20.4707 2.12C19.7987 2.408 19.1987 2.696 18.6707 2.984C18.1427 3.272 17.8067 3.488 17.6627 3.632C16.7027 4.448 15.8867 5.192 15.2147 5.864C14.5427 6.488 13.9187 7.16 13.3427 7.88C12.8147 8.6 12.3107 9.392 11.8307 10.256C11.3507 11.072 10.8227 12.08 10.2467 13.28C9.91069 14 9.69469 14.768 9.59869 15.584C9.50269 16.352 9.45469 17.168 9.45469 18.032C9.45469 19.568 9.57469 20.768 9.81469 21.632C10.1027 22.448 10.3907 23.096 10.6787 23.576C10.9667 24.008 11.2307 24.344 11.4707 24.584C11.7587 24.824 11.9027 25.112 11.9027 25.448L13.5587 26.96L14.4227 27.176C15.2387 27.416 15.8387 27.632 16.2227 27.824C16.6547 28.016 17.0147 28.184 17.3027 28.328C17.5907 28.424 17.8547 28.544 18.0947 28.688C18.3827 28.832 18.8147 29 19.3907 29.192C19.5827 29.24 19.7507 29.288 19.8947 29.336C20.0867 29.336 20.2787 29.336 20.4707 29.336C20.8547 29.336 21.2147 29.312 21.5507 29.264C21.9347 29.216 22.3667 29.192 22.8467 29.192C23.2307 29.192 23.6387 29.216 24.0707 29.264C24.5027 29.264 25.0307 29.312 25.6547 29.408C26.9987 29.408 28.1267 29.408 29.0387 29.408C29.9507 29.408 30.8147 29.408 31.6307 29.408C32.4947 29.36 33.3827 29.336 34.2947 29.336C35.2547 29.288 36.4067 29.24 37.7507 29.192L38.4707 28.544C38.7107 28.352 38.8787 28.232 38.9747 28.184C39.1187 28.136 39.4307 27.872 39.9107 27.392L40.4147 26.888C40.3667 26.888 40.1987 26.864 39.9107 26.816C39.6227 26.72 39.4787 26.48 39.4787 26.096ZM50.0301 6.224C50.3661 6.224 50.6541 6.368 50.8941 6.656C51.1821 6.944 51.4221 7.28 51.6141 7.664C51.8541 8.048 52.0701 8.384 52.2621 8.672C52.4541 8.96 52.6221 9.104 52.7661 9.104C53.2461 9.008 53.9661 8.816 54.9261 8.528C55.9341 8.192 57.0141 7.856 58.1661 7.52C59.3661 7.184 60.5181 6.896 61.6221 6.656C62.7741 6.416 63.7101 6.296 64.4301 6.296C64.8141 6.296 65.0781 6.368 65.2221 6.512C65.4141 6.656 65.5341 6.824 65.5821 7.016C65.6301 7.208 65.6781 7.4 65.7261 7.592C65.8221 7.736 65.9901 7.856 66.2301 7.952C66.3261 8.096 66.4701 8.24 66.6621 8.384C66.8541 8.48 66.9501 8.672 66.9501 8.96C66.7101 9.536 66.5661 10.088 66.5181 10.616C66.4701 11.096 66.4461 11.552 66.4461 11.984V12.416L64.3581 12.56C64.0221 12.608 63.6861 12.656 63.3501 12.704C63.0141 12.704 62.6301 12.704 62.1981 12.704L60.0381 13.928C59.4141 13.928 58.8861 14 58.4541 14.144C58.0221 14.24 57.5661 14.408 57.0861 14.648C56.6541 14.84 56.1501 15.056 55.5741 15.296C54.9981 15.536 54.2301 15.776 53.2701 16.016C50.9661 17.168 49.2381 18.56 48.0861 20.192C46.9821 21.824 46.4301 23.84 46.4301 26.24C46.4301 27.008 46.6941 27.776 47.2221 28.544C47.7501 29.264 48.3981 29.936 49.1661 30.56C49.9341 31.136 50.7261 31.616 51.5421 32C52.3581 32.336 53.0781 32.504 53.7021 32.504C54.4221 32.504 55.0941 32.504 55.7181 32.504C56.3421 32.552 56.9661 32.576 57.5901 32.576H61.5501H61.6221C61.7181 32.576 61.7901 32.504 61.8381 32.36C61.9341 32.264 62.0301 32.144 62.1261 32C62.2701 31.808 62.4861 31.664 62.7741 31.568C63.1101 31.424 63.5661 31.352 64.1421 31.352C64.7661 31.352 65.4141 31.544 66.0861 31.928C66.7581 32.264 67.3341 32.432 67.8141 32.432C68.1981 32.432 68.5581 32.408 68.8941 32.36C69.2301 32.312 69.5661 32.24 69.9021 32.144C70.2861 32.048 70.7181 31.976 71.1981 31.928C71.6781 31.832 72.2301 31.784 72.8541 31.784C72.9981 32.024 73.2621 32.24 73.6461 32.432H74.6541C74.7021 32.192 74.7981 31.976 74.9421 31.784C75.0861 31.544 75.2541 31.232 75.4461 30.848C75.3981 29.744 75.3261 28.76 75.2301 27.896C75.1821 27.032 75.1341 26.216 75.0861 25.448C75.0861 24.632 75.0621 23.792 75.0141 22.928C75.0141 22.064 74.9901 21.08 74.9421 19.976H75.1581C75.2061 19.928 75.2541 19.904 75.3021 19.904C75.1581 19.904 75.0381 19.712 74.9421 19.328C74.8461 18.944 74.7741 18.56 74.7261 18.176C74.6781 17.744 74.6301 17.36 74.5821 17.024C74.5821 16.64 74.5821 16.448 74.5821 16.448C74.5341 16.064 74.4381 15.776 74.2941 15.584C74.1981 15.344 74.0781 15.08 73.9341 14.792C73.8381 14.456 73.7181 14 73.5741 13.424C73.4781 12.848 73.4061 11.912 73.3581 10.616C73.2141 10.52 73.0941 10.232 72.9981 9.752C72.9021 9.272 72.8061 8.768 72.7101 8.24C72.6621 7.664 72.6141 7.136 72.5661 6.656C72.5661 6.128 72.5421 5.816 72.4941 5.72H72.3501C71.9661 5.72 71.6541 5.504 71.4141 5.072C71.1741 4.64 70.9581 4.16 70.7661 3.632C70.5741 3.104 70.4061 2.648 70.2621 2.264C70.1181 1.832 69.9501 1.616 69.7581 1.616C69.6621 1.52 69.5661 1.424 69.4701 1.328C69.3741 1.184 69.2781 1.064 69.1821 0.967998H68.0301C67.5501 0.967998 67.1421 0.967998 66.8061 0.967998C66.5181 0.967998 66.2301 0.967998 65.9421 0.967998C65.7021 0.967998 65.4381 0.943999 65.1501 0.895999C64.8621 0.847998 64.5021 0.775998 64.0701 0.679998C64.0221 0.919999 63.7341 1.088 63.2061 1.184C62.7261 1.232 62.1741 1.256 61.5501 1.256C60.9741 1.256 60.4221 1.256 59.8941 1.256C59.4141 1.256 59.1501 1.328 59.1021 1.472C57.8061 1.904 56.6301 2.264 55.5741 2.552C54.5181 2.84 53.6301 3.152 52.9101 3.488C52.1901 3.776 51.5901 4.136 51.1101 4.568C50.6301 4.952 50.2701 5.504 50.0301 6.224ZM65.6541 18.32V21.992C65.4141 22.76 65.2701 23.552 65.2221 24.368C65.1741 25.184 65.1501 25.784 65.1501 26.168V26.744H64.1421C63.1821 26.84 62.2941 26.912 61.4781 26.96C60.6621 27.008 59.8701 27.056 59.1021 27.104L54.0621 27.392C53.7261 26.816 53.4381 26.36 53.1981 26.024C53.0061 25.688 52.9101 25.184 52.9101 24.512C52.9101 23.168 53.0781 22.112 53.4141 21.344C53.7981 20.576 54.3021 20 54.9261 19.616C55.5981 19.184 56.3661 18.872 57.2301 18.68C58.0941 18.488 59.0061 18.272 59.9661 18.032C60.4461 17.888 60.8781 17.768 61.2621 17.672C61.6941 17.576 62.1021 17.528 62.4861 17.528H62.7741C63.2541 17.672 63.7341 17.816 64.2141 17.96C64.7421 18.104 65.2221 18.224 65.6541 18.32ZM121.402 23.936L121.186 10.544C120.85 9.776 120.466 9.032 120.034 8.312C119.602 7.592 119.026 7.064 118.306 6.728L111.25 6.584L109.018 6.8L108.154 7.304L106.426 7.592L102.97 5.504L99.0823 5.216L94.8343 6.728L93.9703 6.512L93.6103 5.864L91.8103 4.64L90.2263 4.856L86.9863 4.064L85.5463 6.8L84.9703 12.92V25.592L88.7143 25.88L89.7223 25.376H93.5383L95.1223 25.016V10.544H98.7223L99.5863 11.768L99.8743 14.504V20.12V24.368L100.594 25.016H106.498L108.082 23.792L107.362 18.824V15.44V13.064L107.506 11.48L110.602 11.768L111.034 13.064L111.97 20.552V24.152L113.842 24.944H120.754L121.402 23.936ZM142.121 3.632L139.673 2.624L136.505 2.048L134.201 1.544L132.473 2.12V8.96L132.689 9.824L137.009 9.104L140.393 9.752L141.401 9.032L142.121 3.632ZM142.625 27.608L141.401 26.6L141.833 25.304V21.92L141.329 20.12V15.152L140.465 14.216L138.953 14.144L138.377 14.432L135.497 14.216L134.273 14.792L132.761 32.216L133.481 33.008H134.777L135.641 32.72H141.185L142.553 32.072L142.193 30.344L142.625 27.608ZM177.661 7.952L176.509 7.016H171.541L167.365 8.744L165.709 9.464L164.197 10.112L161.965 6.08H156.925L155.629 7.952V9.752V22.352L156.637 24.728L158.509 24.008H159.661L160.741 24.656L164.197 23.792L163.765 16.88L163.621 16.736V13.856L168.229 13.352L169.525 12.632H170.389L172.045 15.008L170.893 23.36L171.829 24.152H179.317L180.037 23.288V14.648L180.325 12.992L177.661 7.952ZM188.788 14C188.644 14.864 188.548 15.68 188.5 16.448C188.5 17.216 188.5 17.912 188.5 18.536C188.5 19.688 188.668 20.696 189.004 21.56L189.724 22.496L197.356 24.728H199.084C199.276 24.68 199.492 24.608 199.732 24.512C199.972 24.416 200.236 24.272 200.524 24.08L206.572 22.064C206.908 21.92 207.388 21.68 208.012 21.344C208.684 21.008 209.308 20.624 209.884 20.192C210.508 19.712 211.036 19.184 211.468 18.608C211.9 18.032 212.116 17.432 212.116 16.808C212.116 14.504 211.516 12.416 210.316 10.544C209.164 8.672 207.508 7.232 205.348 6.224H205.204C205.012 6.224 204.676 6.248 204.196 6.296C203.716 6.344 203.284 6.368 202.9 6.368C202.564 6.368 202.252 6.32 201.964 6.224C201.724 6.128 201.604 5.984 201.604 5.792L196.492 6.584C195.628 6.824 194.764 7.16 193.9 7.592C193.036 8.024 192.244 8.552 191.524 9.176C190.804 9.752 190.204 10.448 189.724 11.264C189.244 12.032 188.932 12.944 188.788 14ZM202.108 10.688C202.684 10.88 203.308 11.048 203.98 11.192C204.652 11.336 205.276 11.552 205.852 11.84C206.428 12.08 206.932 12.416 207.364 12.848C207.844 13.28 208.204 13.928 208.444 14.792L206.572 17.528L198.868 19.112H197.86L195.988 17.456L196.348 13.136C196.636 12.992 196.924 12.776 197.212 12.488C197.5 12.2 197.812 11.912 198.148 11.624C198.532 11.288 198.94 11.024 199.372 10.832C199.852 10.592 200.356 10.472 200.884 10.472C201.22 10.472 201.628 10.544 202.108 10.688ZM26.9023 71.024L23.3743 71.672L21.4303 71.168H2.27831L0.766313 72.248V104.216L5.51831 104.648L12.7183 103.568L13.0063 99.464L11.7823 96.8L11.1343 90.032H14.8063L20.2783 89.096L21.5743 89.456H24.0223L24.6703 88.304L25.0303 86.576L24.0223 86.144L18.6943 85.28H10.9903L10.4143 84.2V77.504L10.1983 77.144L10.8463 76.568L13.5103 77L13.6543 77.792L13.7983 77.864L15.0223 77H26.2543L27.4063 75.416L26.9023 71.024ZM59.4593 80.528L56.7233 76.208L55.7873 76.496L50.9633 80.384L48.8033 84.128L47.2913 85.568V80.6L45.3473 76.424H41.1713L40.0193 77.72V96.152L39.6593 96.944L39.8033 98.816L47.7233 98.168L48.9473 97.448V96.008L49.3073 93.704L48.9473 89.888C49.2833 89.648 49.5473 89.36 49.7393 89.024C49.9793 88.688 50.2193 88.352 50.4593 88.016C50.7473 87.68 51.0593 87.32 51.3953 86.936C51.7793 86.504 52.2353 86.096 52.7633 85.712L56.0753 83.192C56.6033 82.808 57.1313 82.4 57.6593 81.968C58.2353 81.536 58.8353 81.056 59.4593 80.528ZM67.3269 78.224C67.6629 78.224 67.9509 78.368 68.1909 78.656C68.4789 78.944 68.7189 79.28 68.9109 79.664C69.1509 80.048 69.3669 80.384 69.5589 80.672C69.7509 80.96 69.9189 81.104 70.0629 81.104C70.5429 81.008 71.2629 80.816 72.2229 80.528C73.2309 80.192 74.3109 79.856 75.4629 79.52C76.6629 79.184 77.8149 78.896 78.9189 78.656C80.0709 78.416 81.0069 78.296 81.7269 78.296C82.1109 78.296 82.3749 78.368 82.5189 78.512C82.7109 78.656 82.8309 78.824 82.8789 79.016C82.9269 79.208 82.9749 79.4 83.0229 79.592C83.1189 79.736 83.2869 79.856 83.5269 79.952C83.6229 80.096 83.7669 80.24 83.9589 80.384C84.1509 80.48 84.2469 80.672 84.2469 80.96C84.0069 81.536 83.8629 82.088 83.8149 82.616C83.7669 83.096 83.7429 83.552 83.7429 83.984V84.416L81.6549 84.56C81.3189 84.608 80.9829 84.656 80.6469 84.704C80.3109 84.704 79.9269 84.704 79.4949 84.704L77.3349 85.928C76.7109 85.928 76.1829 86 75.7509 86.144C75.3189 86.24 74.8629 86.408 74.3829 86.648C73.9509 86.84 73.4469 87.056 72.8709 87.296C72.2949 87.536 71.5269 87.776 70.5669 88.016C68.2629 89.168 66.5349 90.56 65.3829 92.192C64.2789 93.824 63.7269 95.84 63.7269 98.24C63.7269 99.008 63.9909 99.776 64.5189 100.544C65.0469 101.264 65.6949 101.936 66.4629 102.56C67.2309 103.136 68.0229 103.616 68.8389 104C69.6549 104.336 70.3749 104.504 70.9989 104.504C71.7189 104.504 72.3909 104.504 73.0149 104.504C73.6389 104.552 74.2629 104.576 74.8869 104.576H78.8469H78.9189C79.0149 104.576 79.0869 104.504 79.1349 104.36C79.2309 104.264 79.3269 104.144 79.4229 104C79.5669 103.808 79.7829 103.664 80.0709 103.568C80.4069 103.424 80.8629 103.352 81.4389 103.352C82.0629 103.352 82.7109 103.544 83.3829 103.928C84.0549 104.264 84.6309 104.432 85.1109 104.432C85.4949 104.432 85.8549 104.408 86.1909 104.36C86.5269 104.312 86.8629 104.24 87.1989 104.144C87.5829 104.048 88.0149 103.976 88.4949 103.928C88.9749 103.832 89.5269 103.784 90.1509 103.784C90.2949 104.024 90.5589 104.24 90.9429 104.432H91.9509C91.9989 104.192 92.0949 103.976 92.2389 103.784C92.3829 103.544 92.5509 103.232 92.7429 102.848C92.6949 101.744 92.6229 100.76 92.5269 99.896C92.4789 99.032 92.4309 98.216 92.3829 97.448C92.3829 96.632 92.3589 95.792 92.3109 94.928C92.3109 94.064 92.2869 93.08 92.2389 91.976H92.4549C92.5029 91.928 92.5509 91.904 92.5989 91.904C92.4549 91.904 92.3349 91.712 92.2389 91.328C92.1429 90.944 92.0709 90.56 92.0229 90.176C91.9749 89.744 91.9269 89.36 91.8789 89.024C91.8789 88.64 91.8789 88.448 91.8789 88.448C91.8309 88.064 91.7349 87.776 91.5909 87.584C91.4949 87.344 91.3749 87.08 91.2309 86.792C91.1349 86.456 91.0149 86 90.8709 85.424C90.7749 84.848 90.7029 83.912 90.6549 82.616C90.5109 82.52 90.3909 82.232 90.2949 81.752C90.1989 81.272 90.1029 80.768 90.0069 80.24C89.9589 79.664 89.9109 79.136 89.8629 78.656C89.8629 78.128 89.8389 77.816 89.7909 77.72H89.6469C89.2629 77.72 88.9509 77.504 88.7109 77.072C88.4709 76.64 88.2549 76.16 88.0629 75.632C87.8709 75.104 87.7029 74.648 87.5589 74.264C87.4149 73.832 87.2469 73.616 87.0549 73.616C86.9589 73.52 86.8629 73.424 86.7669 73.328C86.6709 73.184 86.5749 73.064 86.4789 72.968H85.3269C84.8469 72.968 84.4389 72.968 84.1029 72.968C83.8149 72.968 83.5269 72.968 83.2389 72.968C82.9989 72.968 82.7349 72.944 82.4469 72.896C82.1589 72.848 81.7989 72.776 81.3669 72.68C81.3189 72.92 81.0309 73.088 80.5029 73.184C80.0229 73.232 79.4709 73.256 78.8469 73.256C78.2709 73.256 77.7189 73.256 77.1909 73.256C76.7109 73.256 76.4469 73.328 76.3989 73.472C75.1029 73.904 73.9269 74.264 72.8709 74.552C71.8149 74.84 70.9269 75.152 70.2069 75.488C69.4869 75.776 68.8869 76.136 68.4069 76.568C67.9269 76.952 67.5669 77.504 67.3269 78.224ZM82.9509 90.32V93.992C82.7109 94.76 82.5669 95.552 82.5189 96.368C82.4709 97.184 82.4469 97.784 82.4469 98.168V98.744H81.4389C80.4789 98.84 79.5909 98.912 78.7749 98.96C77.9589 99.008 77.1669 99.056 76.3989 99.104L71.3589 99.392C71.0229 98.816 70.7349 98.36 70.4949 98.024C70.3029 97.688 70.2069 97.184 70.2069 96.512C70.2069 95.168 70.3749 94.112 70.7109 93.344C71.0949 92.576 71.5989 92 72.2229 91.616C72.8949 91.184 73.6629 90.872 74.5269 90.68C75.3909 90.488 76.3029 90.272 77.2629 90.032C77.7429 89.888 78.1749 89.768 78.5589 89.672C78.9909 89.576 79.3989 89.528 79.7829 89.528H80.0709C80.5509 89.672 81.0309 89.816 81.5109 89.96C82.0389 90.104 82.5189 90.224 82.9509 90.32ZM124.083 79.952L122.931 79.016H117.963L113.787 80.744L112.131 81.464L110.619 82.112L108.387 78.08H103.347L102.051 79.952V81.752V94.352L103.059 96.728L104.931 96.008H106.083L107.163 96.656L110.619 95.792L110.187 88.88L110.043 88.736V85.856L114.651 85.352L115.947 84.632H116.811L118.467 87.008L117.315 95.36L118.251 96.152H125.739L126.459 95.288V86.648L126.747 84.992L124.083 79.952ZM161.994 100.832L161.706 100.544C161.706 100.304 161.634 100.088 161.49 99.896C161.394 99.656 161.298 99.392 161.202 99.104C160.866 99.104 160.578 99.176 160.338 99.32C160.098 99.416 159.834 99.536 159.546 99.68C159.306 99.776 159.018 99.896 158.682 100.04C158.346 100.136 157.89 100.184 157.314 100.184H156.954C156.378 100.232 155.874 100.256 155.442 100.256C155.058 100.256 154.674 100.28 154.29 100.328C153.954 100.328 153.57 100.352 153.138 100.4C152.754 100.4 152.298 100.4 151.77 100.4C150.906 100.304 150.162 100.256 149.538 100.256C148.962 100.208 148.266 100.064 147.45 99.824C147.402 99.872 147.378 99.896 147.378 99.896C147.33 99.896 147.282 99.92 147.234 99.968C147.234 99.968 147.186 99.968 147.09 99.968C146.514 99.776 146.082 99.632 145.794 99.536C145.554 99.44 145.434 99.272 145.434 99.032C145.434 98.84 145.194 98.504 144.714 98.024C144.282 97.544 144.066 96.992 144.066 96.368C144.066 95.792 144.258 95.216 144.642 94.64C145.074 94.064 145.53 93.584 146.01 93.2C146.538 92.768 146.994 92.432 147.378 92.192C147.762 91.952 147.906 91.856 147.81 91.904C147.906 91.904 148.002 91.856 148.098 91.76C148.194 91.712 148.266 91.664 148.314 91.616C148.41 91.52 148.53 91.424 148.674 91.328C148.914 91.04 149.202 90.824 149.538 90.68C149.922 90.488 150.762 90.296 152.058 90.104C153.066 89.912 153.858 89.768 154.434 89.672C155.058 89.576 155.586 89.528 156.018 89.528C156.45 89.528 156.858 89.528 157.242 89.528C157.626 89.528 158.13 89.528 158.754 89.528C158.898 89.048 159.018 88.712 159.114 88.52C159.21 88.328 159.45 87.896 159.834 87.224C159.738 86.744 159.69 86.192 159.69 85.568C159.738 84.896 159.57 84.536 159.186 84.488H155.226C154.65 84.488 154.05 84.488 153.426 84.488C152.85 84.44 152.154 84.416 151.338 84.416C150.09 84.848 148.77 85.16 147.378 85.352C146.034 85.544 144.858 85.952 143.85 86.576C143.226 87.056 142.674 87.512 142.194 87.944C141.762 88.376 141.33 88.856 140.898 89.384C140.514 89.912 140.106 90.488 139.674 91.112C139.29 91.736 138.858 92.48 138.378 93.344C138.186 93.728 138.042 94.112 137.946 94.496C137.85 94.88 137.778 95.264 137.73 95.648C137.73 96.368 137.754 97.088 137.802 97.808C137.898 98.48 138.258 99.248 138.882 100.112C139.074 100.304 139.266 100.52 139.458 100.76C139.65 101 139.746 101.12 139.746 101.12L140.106 101.48C140.202 101.48 140.298 101.624 140.394 101.912C140.49 102.152 140.562 102.272 140.61 102.272H141.834C142.41 102.608 142.866 102.896 143.202 103.136C143.538 103.328 143.85 103.472 144.138 103.568C144.474 103.616 144.81 103.664 145.146 103.712C145.482 103.76 145.914 103.784 146.442 103.784C146.682 103.784 146.946 103.784 147.234 103.784C147.57 103.736 147.906 103.712 148.242 103.712C148.578 103.712 148.914 103.712 149.25 103.712C149.586 103.712 149.994 103.76 150.474 103.856C151.482 103.856 152.322 103.808 152.994 103.712C153.714 103.568 154.41 103.4 155.082 103.208C155.802 103.016 156.546 102.848 157.314 102.704C158.13 102.56 159.138 102.464 160.338 102.416C160.578 102.32 160.914 102.104 161.346 101.768C161.778 101.384 161.994 101.144 161.994 101.048C161.994 100.904 161.85 100.832 161.562 100.832H161.994ZM195.009 100.832L194.793 100.544C194.793 100.304 194.721 100.088 194.577 99.896C194.433 99.656 194.313 99.392 194.217 99.104C193.929 99.104 193.665 99.176 193.425 99.32C193.185 99.416 192.921 99.536 192.633 99.68C192.393 99.776 192.081 99.896 191.697 100.04C191.361 100.136 190.929 100.184 190.401 100.184H190.041C189.465 100.232 188.961 100.256 188.529 100.256C188.097 100.256 187.689 100.28 187.305 100.328C186.921 100.328 186.537 100.352 186.153 100.4C185.769 100.4 185.313 100.4 184.785 100.4C183.873 100.256 183.273 100.16 182.985 100.112C182.745 100.016 182.625 99.968 182.625 99.968C182.625 99.968 182.649 99.968 182.697 99.968C182.745 99.968 182.673 99.92 182.481 99.824C182.433 99.872 182.385 99.896 182.337 99.896C182.289 99.896 182.241 99.92 182.193 99.968C182.193 99.968 182.145 99.968 182.049 99.968C181.521 99.776 181.089 99.632 180.753 99.536C180.465 99.44 180.321 99.272 180.321 99.032C180.321 98.84 180.081 98.504 179.601 98.024C179.169 97.544 178.953 96.992 178.953 96.368C178.953 95.648 179.025 94.736 179.169 93.632C179.313 92.48 179.601 91.568 180.033 90.896C180.417 90.656 181.089 90.392 182.049 90.104C183.009 89.768 183.969 89.6 184.929 89.6C185.505 89.6 185.937 89.696 186.225 89.888C186.561 90.032 186.825 90.224 187.017 90.464C187.209 90.704 187.305 90.968 187.305 91.256C187.353 91.496 187.377 91.736 187.377 91.976C187.377 92.312 187.257 92.552 187.017 92.696C186.777 92.84 186.489 92.936 186.153 92.984C185.817 93.032 185.481 93.056 185.145 93.056C184.809 93.056 184.521 93.08 184.281 93.128C183.321 93.416 182.529 93.608 181.905 93.704C181.329 93.8 180.993 93.848 180.897 93.848C181.137 93.944 181.305 94.136 181.401 94.424C181.497 94.712 181.569 95.024 181.617 95.36C181.665 95.648 181.689 95.936 181.689 96.224C181.689 96.464 181.713 96.584 181.761 96.584C183.441 96.584 184.833 96.512 185.937 96.368C187.041 96.224 187.953 96.056 188.673 95.864C189.393 95.624 189.969 95.432 190.401 95.288C190.833 95.096 191.265 94.976 191.697 94.928C191.889 94.448 192.105 94.16 192.345 94.064C192.585 93.92 192.849 93.68 193.137 93.344C193.041 92.672 192.873 92 192.633 91.328C192.441 90.608 192.225 89.96 191.985 89.384C191.745 88.76 191.505 88.232 191.265 87.8C191.073 87.368 190.977 87.104 190.977 87.008C190.641 87.008 190.353 86.936 190.113 86.792C189.921 86.648 189.753 86.504 189.609 86.36C189.513 86.216 189.441 86.072 189.393 85.928C189.345 85.784 189.297 85.712 189.249 85.712C188.721 85.712 188.313 85.592 188.025 85.352C187.833 85.256 187.689 85.136 187.593 84.992C186.825 84.992 186.225 84.896 185.793 84.704C185.361 84.512 184.881 84.416 184.353 84.416C183.153 84.848 181.857 85.16 180.465 85.352C179.121 85.544 177.921 85.952 176.865 86.576C176.289 87.056 175.761 87.512 175.281 87.944C174.801 88.376 174.369 88.856 173.985 89.384C173.601 89.912 173.193 90.488 172.761 91.112C172.329 91.736 171.897 92.48 171.465 93.344C171.225 93.728 171.057 94.112 170.961 94.496C170.913 94.88 170.865 95.264 170.817 95.648C170.817 96.368 170.841 97.088 170.889 97.808C170.985 98.48 171.321 99.248 171.897 100.112C172.137 100.304 172.329 100.52 172.473 100.76C172.665 101 172.761 101.12 172.761 101.12L173.193 101.48C173.289 101.48 173.361 101.624 173.409 101.912C173.505 102.152 173.577 102.272 173.625 102.272H174.921C175.497 102.608 175.953 102.896 176.289 103.136C176.625 103.328 176.937 103.472 177.225 103.568C177.513 103.616 177.825 103.664 178.161 103.712C178.497 103.76 178.929 103.784 179.457 103.784C179.745 103.784 180.033 103.784 180.321 103.784C180.657 103.736 180.993 103.712 181.329 103.712C181.617 103.712 181.929 103.712 182.265 103.712C182.601 103.712 183.009 103.76 183.489 103.856C184.545 103.856 185.409 103.808 186.081 103.712C186.801 103.568 187.497 103.4 188.169 103.208C188.889 103.016 189.633 102.848 190.401 102.704C191.217 102.56 192.201 102.464 193.353 102.416C193.641 102.32 193.977 102.104 194.361 101.768C194.793 101.384 195.009 101.144 195.009 101.048C195.009 100.904 194.889 100.832 194.649 100.832H195.009ZM222.036 92.264C221.94 91.832 221.724 91.496 221.388 91.256C221.052 91.016 220.884 90.68 220.884 90.248C220.452 90.104 220.116 89.984 219.876 89.888C219.636 89.744 219.42 89.648 219.228 89.6C219.084 89.504 218.916 89.384 218.724 89.24C218.58 89.096 218.34 88.952 218.004 88.808C217.908 88.808 217.62 88.688 217.14 88.448C216.708 88.16 216.42 87.992 216.276 87.944L215.268 87.44C214.644 87.152 214.188 86.888 213.9 86.648C213.66 86.408 213.516 86.192 213.468 86L212.172 84.776C211.98 84.776 211.788 84.68 211.596 84.488C211.452 84.248 211.38 83.768 211.38 83.048C211.38 82.376 211.452 81.872 211.596 81.536C211.788 81.2 212.34 80.792 213.252 80.312H213.396C213.54 80.312 213.732 80.264 213.972 80.168C214.212 80.072 214.428 79.88 214.62 79.592C214.62 79.496 214.692 79.4 214.836 79.304C214.98 79.208 215.556 79.016 216.564 78.728C216.804 78.728 216.996 78.704 217.14 78.656C217.284 78.56 217.476 78.44 217.716 78.296H218.724C218.868 78.296 219.012 78.296 219.156 78.296C219.3 78.248 219.468 78.2 219.66 78.152C219.612 78.152 219.588 78.128 219.588 78.08C219.636 78.08 219.66 78.056 219.66 78.008C219.66 77.96 219.684 77.936 219.732 77.936C219.732 77.792 219.708 77.672 219.66 77.576C219.66 77.48 219.66 77.384 219.66 77.288V76.856C219.66 76.136 219.468 75.728 219.084 75.632C218.748 75.488 218.46 75.296 218.22 75.056C217.644 75.152 217.14 75.224 216.708 75.272C216.324 75.272 215.844 75.272 215.268 75.272C214.932 75.272 214.692 75.272 214.548 75.272C214.452 75.224 214.38 75.176 214.332 75.128C213.708 75.368 213.156 75.536 212.676 75.632C212.196 75.68 211.668 75.824 211.092 76.064L208.356 77.216C207.732 77.6 207.036 77.96 206.268 78.296C205.548 78.632 204.948 79.088 204.468 79.664C204.228 80.096 203.844 80.504 203.316 80.888C203.316 81.32 203.196 81.656 202.956 81.896C202.764 82.136 202.668 82.424 202.668 82.76C202.668 82.856 202.692 82.928 202.74 82.976C202.788 83.024 202.812 83.168 202.812 83.408C202.812 83.6 202.788 83.816 202.74 84.056C202.692 84.296 202.62 84.464 202.524 84.56C202.524 84.992 202.644 85.472 202.884 86C203.172 86.48 203.436 86.768 203.676 86.864L204.324 87.44C204.804 87.632 205.212 87.848 205.548 88.088C205.884 88.328 206.196 88.592 206.484 88.88C206.772 89.12 207.06 89.36 207.348 89.6C207.684 89.792 208.092 89.912 208.572 89.96C209.244 90.2 209.652 90.416 209.796 90.608C209.988 90.752 210.084 90.896 210.084 91.04C210.132 91.136 210.204 91.256 210.3 91.4C210.396 91.496 210.756 91.688 211.38 91.976C211.38 92.168 211.548 92.432 211.884 92.768L212.46 93.344C212.604 93.728 212.676 94.088 212.676 94.424C212.676 94.856 212.508 95.216 212.172 95.504C211.884 95.744 211.524 95.96 211.092 96.152C210.708 96.296 210.348 96.392 210.012 96.44C209.676 96.488 209.508 96.488 209.508 96.44C208.404 96.776 207.612 97.016 207.132 97.16C206.7 97.304 206.268 97.376 205.836 97.376C205.5 97.376 204.828 97.304 203.82 97.16C203.724 97.304 203.556 97.376 203.316 97.376C203.076 97.376 202.764 97.304 202.38 97.16C202.044 97.016 201.9 96.968 201.948 97.016C202.236 97.688 202.356 98.312 202.308 98.888C202.26 99.416 202.356 99.68 202.596 99.68H202.668C202.62 99.728 202.572 99.8 202.524 99.896C202.476 99.992 202.452 100.112 202.452 100.256C202.452 100.256 202.476 100.256 202.524 100.256C202.428 100.304 202.38 100.328 202.38 100.328C202.38 100.424 202.572 100.592 202.956 100.832C203.388 101.024 203.628 101.12 203.676 101.12C204.588 101.024 205.5 100.88 206.412 100.688C207.324 100.496 208.332 100.4 209.436 100.4C210.108 100.4 210.732 100.472 211.308 100.616C211.884 100.76 212.484 100.832 213.108 100.832C214.02 100.832 214.74 100.736 215.268 100.544C215.844 100.352 216.3 100.16 216.636 99.968C216.972 99.728 217.284 99.536 217.572 99.392C217.86 99.2 218.196 99.104 218.58 99.104L220.092 98.384C220.62 98.096 221.1 97.688 221.532 97.16C222.012 96.584 222.252 95.96 222.252 95.288C222.252 94.856 222.204 94.4 222.108 93.92C222.06 93.44 222.036 92.888 222.036 92.264Z" fill="#171717"/>
</svg>
