<svg width="296" height="107" viewBox="0 0 296 107" fill="none" xmlns="http://www.w3.org/2000/svg">
<path d="M30.2248 27.096C29.9848 26.52 29.8168 26.112 29.7208 25.872C29.6728 25.632 29.6488 25.464 29.6488 25.368C28.9768 25.368 28.4008 25.368 27.9208 25.368C27.4888 25.32 27.0808 25.296 26.6968 25.296L23.6728 25.152C22.2808 25.2 21.0808 25.272 20.0728 25.368C19.0648 25.416 17.9368 25.44 16.6888 25.44C16.1128 25.344 15.6568 25.272 15.3208 25.224C14.9848 25.176 14.6728 25.128 14.3848 25.08C14.1448 25.032 13.9048 24.984 13.6648 24.936C13.4248 24.84 13.1368 24.72 12.8008 24.576C12.7528 24.624 12.6808 24.648 12.5848 24.648C12.1048 24.648 11.6248 24.48 11.1448 24.144C10.7128 23.808 10.3048 23.376 9.92078 22.848C9.53678 22.32 9.22478 21.72 8.98478 21.048C8.79278 20.328 8.69678 19.56 8.69678 18.744C8.69678 18.024 8.81678 17.448 9.05678 17.016C9.29678 16.584 9.58478 16.176 9.92078 15.792C10.3048 15.408 10.6888 15.024 11.0728 14.64C11.4568 14.256 11.7928 13.728 12.0808 13.056C12.4168 12.816 12.6568 12.672 12.8008 12.624L13.1608 12.336C13.1608 12.336 13.2568 12.24 13.4488 12.048C13.6408 11.856 13.8568 11.64 14.0968 11.4C14.3848 11.16 14.6488 10.944 14.8888 10.752C15.1768 10.512 15.3688 10.392 15.4648 10.392C15.7528 10.248 16.1608 10.08 16.6888 9.888C17.2648 9.696 17.8168 9.528 18.3448 9.384C18.8728 9.24 19.3528 9.12 19.7848 9.024C20.2168 8.928 20.5288 8.88 20.7208 8.88C21.0568 8.976 21.2968 9.072 21.4408 9.168C21.6328 9.216 21.7528 9.24 21.8008 9.24C22.4248 9.24 22.9528 9.216 23.3848 9.168C23.8648 9.072 24.3208 9.024 24.7528 9.024L27.1288 8.808L28.4968 5.496C28.4488 5.208 28.4248 4.896 28.4248 4.56C28.4728 4.176 28.4728 3.816 28.4248 3.48C28.3768 3.096 28.3048 2.76 28.2088 2.472C28.1608 2.136 27.9928 1.824 27.7048 1.536H22.5208C21.7528 1.536 20.9608 1.536 20.1448 1.536C19.3768 1.488 18.4888 1.464 17.4808 1.464L15.5368 2.04C14.8168 2.04 14.0728 2.16 13.3048 2.4C12.5848 2.592 11.8888 2.832 11.2168 3.12C10.5448 3.408 9.94478 3.696 9.41678 3.984C8.88878 4.272 8.55278 4.488 8.40878 4.632C7.44878 5.448 6.63278 6.192 5.96078 6.864C5.28878 7.488 4.66478 8.16 4.08878 8.88C3.56078 9.6 3.05678 10.392 2.57678 11.256C2.09678 12.072 1.56878 13.08 0.992781 14.28C0.656781 15 0.440782 15.768 0.344782 16.584C0.248782 17.352 0.200781 18.168 0.200781 19.032C0.200781 20.568 0.320782 21.768 0.560782 22.632C0.848782 23.448 1.13678 24.096 1.42478 24.576C1.71278 25.008 1.97678 25.344 2.21678 25.584C2.50478 25.824 2.64878 26.112 2.64878 26.448L4.30478 27.96L5.16878 28.176C5.98478 28.416 6.58478 28.632 6.96878 28.824C7.40078 29.016 7.76078 29.184 8.04878 29.328C8.33678 29.424 8.60078 29.544 8.84078 29.688C9.12878 29.832 9.56078 30 10.1368 30.192C10.3288 30.24 10.4968 30.288 10.6408 30.336C10.8328 30.336 11.0248 30.336 11.2168 30.336C11.6008 30.336 11.9608 30.312 12.2968 30.264C12.6808 30.216 13.1128 30.192 13.5928 30.192C13.9768 30.192 14.3848 30.216 14.8168 30.264C15.2488 30.264 15.7768 30.312 16.4008 30.408C17.7448 30.408 18.8728 30.408 19.7848 30.408C20.6968 30.408 21.5608 30.408 22.3768 30.408C23.2408 30.36 24.1288 30.336 25.0408 30.336C26.0008 30.288 27.1528 30.24 28.4968 30.192L29.2168 29.544C29.4568 29.352 29.6248 29.232 29.7208 29.184C29.8648 29.136 30.1768 28.872 30.6568 28.392L31.1608 27.888C31.1128 27.888 30.9448 27.864 30.6568 27.816C30.3688 27.72 30.2248 27.48 30.2248 27.096ZM40.7762 7.224C41.1122 7.224 41.4002 7.368 41.6402 7.656C41.9282 7.944 42.1682 8.28 42.3602 8.664C42.6002 9.048 42.8162 9.384 43.0082 9.672C43.2002 9.96 43.3682 10.104 43.5122 10.104C43.9922 10.008 44.7122 9.816 45.6722 9.528C46.6802 9.192 47.7602 8.856 48.9122 8.52C50.1122 8.184 51.2642 7.896 52.3682 7.656C53.5202 7.416 54.4562 7.296 55.1762 7.296C55.5602 7.296 55.8242 7.368 55.9682 7.512C56.1602 7.656 56.2802 7.824 56.3282 8.016C56.3762 8.208 56.4242 8.4 56.4722 8.592C56.5682 8.736 56.7362 8.856 56.9762 8.952C57.0722 9.096 57.2162 9.24 57.4082 9.384C57.6002 9.48 57.6962 9.672 57.6962 9.96C57.4562 10.536 57.3122 11.088 57.2642 11.616C57.2162 12.096 57.1922 12.552 57.1922 12.984V13.416L55.1042 13.56C54.7682 13.608 54.4322 13.656 54.0962 13.704C53.7602 13.704 53.3762 13.704 52.9442 13.704L50.7842 14.928C50.1602 14.928 49.6322 15 49.2002 15.144C48.7682 15.24 48.3122 15.408 47.8322 15.648C47.4002 15.84 46.8962 16.056 46.3202 16.296C45.7442 16.536 44.9762 16.776 44.0162 17.016C41.7122 18.168 39.9842 19.56 38.8322 21.192C37.7282 22.824 37.1762 24.84 37.1762 27.24C37.1762 28.008 37.4402 28.776 37.9682 29.544C38.4962 30.264 39.1442 30.936 39.9122 31.56C40.6802 32.136 41.4722 32.616 42.2882 33C43.1042 33.336 43.8242 33.504 44.4482 33.504C45.1682 33.504 45.8402 33.504 46.4642 33.504C47.0882 33.552 47.7122 33.576 48.3362 33.576H52.2962H52.3682C52.4642 33.576 52.5362 33.504 52.5842 33.36C52.6802 33.264 52.7762 33.144 52.8722 33C53.0162 32.808 53.2322 32.664 53.5202 32.568C53.8562 32.424 54.3122 32.352 54.8882 32.352C55.5122 32.352 56.1602 32.544 56.8322 32.928C57.5042 33.264 58.0802 33.432 58.5602 33.432C58.9442 33.432 59.3042 33.408 59.6402 33.36C59.9762 33.312 60.3122 33.24 60.6482 33.144C61.0322 33.048 61.4642 32.976 61.9442 32.928C62.4242 32.832 62.9762 32.784 63.6002 32.784C63.7442 33.024 64.0082 33.24 64.3922 33.432H65.4002C65.4482 33.192 65.5442 32.976 65.6882 32.784C65.8322 32.544 66.0002 32.232 66.1922 31.848C66.1442 30.744 66.0722 29.76 65.9762 28.896C65.9282 28.032 65.8802 27.216 65.8322 26.448C65.8322 25.632 65.8082 24.792 65.7602 23.928C65.7602 23.064 65.7362 22.08 65.6882 20.976H65.9042C65.9522 20.928 66.0002 20.904 66.0482 20.904C65.9042 20.904 65.7842 20.712 65.6882 20.328C65.5922 19.944 65.5202 19.56 65.4722 19.176C65.4242 18.744 65.3762 18.36 65.3282 18.024C65.3282 17.64 65.3282 17.448 65.3282 17.448C65.2802 17.064 65.1842 16.776 65.0402 16.584C64.9442 16.344 64.8242 16.08 64.6802 15.792C64.5842 15.456 64.4642 15 64.3202 14.424C64.2242 13.848 64.1522 12.912 64.1042 11.616C63.9602 11.52 63.8402 11.232 63.7442 10.752C63.6482 10.272 63.5522 9.768 63.4562 9.24C63.4082 8.664 63.3602 8.136 63.3122 7.656C63.3122 7.128 63.2882 6.816 63.2402 6.72H63.0962C62.7122 6.72 62.4002 6.504 62.1602 6.072C61.9202 5.64 61.7042 5.16 61.5122 4.632C61.3202 4.104 61.1522 3.648 61.0082 3.264C60.8642 2.832 60.6962 2.616 60.5042 2.616C60.4082 2.52 60.3122 2.424 60.2162 2.328C60.1202 2.184 60.0242 2.064 59.9282 1.968H58.7762C58.2962 1.968 57.8882 1.968 57.5522 1.968C57.2642 1.968 56.9762 1.968 56.6882 1.968C56.4482 1.968 56.1842 1.944 55.8962 1.896C55.6082 1.848 55.2482 1.776 54.8162 1.68C54.7682 1.92 54.4802 2.088 53.9522 2.184C53.4722 2.232 52.9202 2.256 52.2962 2.256C51.7202 2.256 51.1682 2.256 50.6402 2.256C50.1602 2.256 49.8962 2.328 49.8482 2.472C48.5522 2.904 47.3762 3.264 46.3202 3.552C45.2642 3.84 44.3762 4.152 43.6562 4.488C42.9362 4.776 42.3362 5.136 41.8562 5.568C41.3762 5.952 41.0162 6.504 40.7762 7.224ZM56.4002 19.32V22.992C56.1602 23.76 56.0162 24.552 55.9682 25.368C55.9202 26.184 55.8962 26.784 55.8962 27.168V27.744H54.8882C53.9282 27.84 53.0402 27.912 52.2242 27.96C51.4082 28.008 50.6162 28.056 49.8482 28.104L44.8082 28.392C44.4722 27.816 44.1842 27.36 43.9442 27.024C43.7522 26.688 43.6562 26.184 43.6562 25.512C43.6562 24.168 43.8242 23.112 44.1602 22.344C44.5442 21.576 45.0482 21 45.6722 20.616C46.3442 20.184 47.1122 19.872 47.9762 19.68C48.8402 19.488 49.7522 19.272 50.7122 19.032C51.1922 18.888 51.6242 18.768 52.0082 18.672C52.4402 18.576 52.8482 18.528 53.2322 18.528H53.5202C54.0002 18.672 54.4802 18.816 54.9602 18.96C55.4882 19.104 55.9682 19.224 56.4002 19.32ZM112.148 24.936L111.932 11.544C111.596 10.776 111.212 10.032 110.78 9.312C110.348 8.592 109.772 8.064 109.052 7.728L101.996 7.584L99.7644 7.8L98.9004 8.304L97.1724 8.592L93.7164 6.504L89.8284 6.216L85.5804 7.728L84.7164 7.512L84.3564 6.864L82.5564 5.64L80.9724 5.856L77.7324 5.064L76.2924 7.8L75.7164 13.92V26.592L79.4604 26.88L80.4684 26.376H84.2844L85.8684 26.016V11.544H89.4684L90.3324 12.768L90.6204 15.504V21.12V25.368L91.3404 26.016H97.2444L98.8284 24.792L98.1084 19.824V16.44V14.064L98.2524 12.48L101.348 12.768L101.78 14.064L102.716 21.552V25.152L104.588 25.944H111.5L112.148 24.936ZM132.868 4.632L130.42 3.624L127.252 3.048L124.948 2.544L123.22 3.12V9.96L123.436 10.824L127.756 10.104L131.14 10.752L132.148 10.032L132.868 4.632ZM133.372 28.608L132.148 27.6L132.58 26.304V22.92L132.076 21.12V16.152L131.212 15.216L129.7 15.144L129.124 15.432L126.244 15.216L125.02 15.792L123.508 33.216L124.228 34.008H125.524L126.388 33.72H131.932L133.3 33.072L132.94 31.344L133.372 28.608ZM168.407 8.952L167.255 8.016H162.287L158.111 9.744L156.455 10.464L154.943 11.112L152.711 7.08H147.671L146.375 8.952V10.752V23.352L147.383 25.728L149.255 25.008H150.407L151.487 25.656L154.943 24.792L154.511 17.88L154.367 17.736V14.856L158.975 14.352L160.271 13.632H161.135L162.791 16.008L161.639 24.36L162.575 25.152H170.063L170.783 24.288V15.648L171.071 13.992L168.407 8.952ZM179.534 15C179.39 15.864 179.294 16.68 179.246 17.448C179.246 18.216 179.246 18.912 179.246 19.536C179.246 20.688 179.414 21.696 179.75 22.56L180.47 23.496L188.102 25.728H189.83C190.022 25.68 190.238 25.608 190.478 25.512C190.718 25.416 190.982 25.272 191.27 25.08L197.318 23.064C197.654 22.92 198.134 22.68 198.758 22.344C199.43 22.008 200.054 21.624 200.63 21.192C201.254 20.712 201.782 20.184 202.214 19.608C202.646 19.032 202.862 18.432 202.862 17.808C202.862 15.504 202.262 13.416 201.062 11.544C199.91 9.672 198.254 8.232 196.094 7.224H195.95C195.758 7.224 195.422 7.248 194.942 7.296C194.462 7.344 194.03 7.368 193.646 7.368C193.31 7.368 192.998 7.32 192.71 7.224C192.47 7.128 192.35 6.984 192.35 6.792L187.238 7.584C186.374 7.824 185.51 8.16 184.646 8.592C183.782 9.024 182.99 9.552 182.27 10.176C181.55 10.752 180.95 11.448 180.47 12.264C179.99 13.032 179.678 13.944 179.534 15ZM192.854 11.688C193.43 11.88 194.054 12.048 194.726 12.192C195.398 12.336 196.022 12.552 196.598 12.84C197.174 13.08 197.678 13.416 198.11 13.848C198.59 14.28 198.95 14.928 199.19 15.792L197.318 18.528L189.614 20.112H188.606L186.734 18.456L187.094 14.136C187.382 13.992 187.67 13.776 187.958 13.488C188.246 13.2 188.558 12.912 188.894 12.624C189.278 12.288 189.686 12.024 190.118 11.832C190.598 11.592 191.102 11.472 191.63 11.472C191.966 11.472 192.374 11.544 192.854 11.688ZM244.07 14.712L240.182 16.512C238.982 17.184 238.046 17.856 237.374 18.528C236.702 19.2 236.174 19.944 235.79 20.76C235.406 21.576 235.142 22.464 234.998 23.424C234.854 24.384 234.686 25.464 234.494 26.664C234.446 26.808 234.422 27.048 234.422 27.384C234.422 28.152 234.638 28.872 235.07 29.544C235.502 30.216 236.054 30.792 236.726 31.272C237.398 31.704 238.118 32.064 238.886 32.352C239.702 32.592 240.47 32.76 241.19 32.856L247.238 33.504C247.766 33.888 248.294 34.128 248.822 34.224C249.398 34.32 249.95 34.368 250.478 34.368L253.646 33.36H258.398L259.19 34.008H260.27L261.062 32.352V19.68L260.99 19.464L260.486 19.32V1.824L258.254 0.671998H254.654L253.286 1.608C253.286 2.376 253.19 3.072 252.998 3.696C252.854 4.32 252.782 4.8 252.782 5.136C252.782 5.376 252.902 5.496 253.142 5.496V8.736L252.062 11.976V12.48L247.814 14.136C247.814 14.232 247.646 14.28 247.31 14.28C246.878 14.28 246.566 14.256 246.374 14.208C246.182 14.208 245.966 14.184 245.726 14.136L244.07 14.712ZM251.918 17.664V21.84L251.342 25.152V27.024H250.478C249.566 27.168 248.774 27.288 248.102 27.384C247.43 27.432 246.686 27.456 245.87 27.456C245.39 27.456 244.886 27.432 244.358 27.384C243.878 27.336 243.326 27.192 242.702 26.952C242.606 26.952 242.51 26.976 242.414 27.024C242.366 27.024 242.318 27.024 242.27 27.024C241.406 27.024 240.758 26.736 240.326 26.16C239.942 25.536 239.75 24.504 239.75 23.064C239.75 22.008 239.894 21.24 240.182 20.76C240.47 20.28 240.878 19.92 241.406 19.68C241.982 19.44 242.606 19.272 243.278 19.176C243.998 19.08 244.766 18.912 245.582 18.672C246.062 18.576 246.47 18.48 246.806 18.384C247.19 18.24 247.598 18.144 248.03 18.096H248.39C248.438 18.144 248.534 18.168 248.678 18.168C248.918 18.168 249.254 18.096 249.686 17.952C250.118 17.76 250.646 17.664 251.27 17.664H251.918ZM295.724 29.832L295.508 29.544C295.508 29.304 295.436 29.088 295.292 28.896C295.148 28.656 295.028 28.392 294.932 28.104C294.644 28.104 294.38 28.176 294.14 28.32C293.9 28.416 293.636 28.536 293.348 28.68C293.108 28.776 292.796 28.896 292.412 29.04C292.076 29.136 291.644 29.184 291.116 29.184H290.756C290.18 29.232 289.676 29.256 289.244 29.256C288.812 29.256 288.404 29.28 288.02 29.328C287.636 29.328 287.252 29.352 286.868 29.4C286.484 29.4 286.028 29.4 285.5 29.4C284.588 29.256 283.988 29.16 283.7 29.112C283.46 29.016 283.34 28.968 283.34 28.968C283.34 28.968 283.364 28.968 283.412 28.968C283.46 28.968 283.388 28.92 283.196 28.824C283.148 28.872 283.1 28.896 283.052 28.896C283.004 28.896 282.956 28.92 282.908 28.968C282.908 28.968 282.86 28.968 282.764 28.968C282.236 28.776 281.804 28.632 281.468 28.536C281.18 28.44 281.036 28.272 281.036 28.032C281.036 27.84 280.796 27.504 280.316 27.024C279.884 26.544 279.668 25.992 279.668 25.368C279.668 24.648 279.74 23.736 279.884 22.632C280.028 21.48 280.316 20.568 280.748 19.896C281.132 19.656 281.804 19.392 282.764 19.104C283.724 18.768 284.684 18.6 285.644 18.6C286.22 18.6 286.652 18.696 286.94 18.888C287.276 19.032 287.54 19.224 287.732 19.464C287.924 19.704 288.02 19.968 288.02 20.256C288.068 20.496 288.092 20.736 288.092 20.976C288.092 21.312 287.972 21.552 287.732 21.696C287.492 21.84 287.204 21.936 286.868 21.984C286.532 22.032 286.196 22.056 285.86 22.056C285.524 22.056 285.236 22.08 284.996 22.128C284.036 22.416 283.244 22.608 282.62 22.704C282.044 22.8 281.708 22.848 281.612 22.848C281.852 22.944 282.02 23.136 282.116 23.424C282.212 23.712 282.284 24.024 282.332 24.36C282.38 24.648 282.404 24.936 282.404 25.224C282.404 25.464 282.428 25.584 282.476 25.584C284.156 25.584 285.548 25.512 286.652 25.368C287.756 25.224 288.668 25.056 289.388 24.864C290.108 24.624 290.684 24.432 291.116 24.288C291.548 24.096 291.98 23.976 292.412 23.928C292.604 23.448 292.82 23.16 293.06 23.064C293.3 22.92 293.564 22.68 293.852 22.344C293.756 21.672 293.588 21 293.348 20.328C293.156 19.608 292.94 18.96 292.7 18.384C292.46 17.76 292.22 17.232 291.98 16.8C291.788 16.368 291.692 16.104 291.692 16.008C291.356 16.008 291.068 15.936 290.828 15.792C290.636 15.648 290.468 15.504 290.324 15.36C290.228 15.216 290.156 15.072 290.108 14.928C290.06 14.784 290.012 14.712 289.964 14.712C289.436 14.712 289.028 14.592 288.74 14.352C288.548 14.256 288.404 14.136 288.308 13.992C287.54 13.992 286.94 13.896 286.508 13.704C286.076 13.512 285.596 13.416 285.068 13.416C283.868 13.848 282.572 14.16 281.18 14.352C279.836 14.544 278.636 14.952 277.58 15.576C277.004 16.056 276.476 16.512 275.996 16.944C275.516 17.376 275.084 17.856 274.7 18.384C274.316 18.912 273.908 19.488 273.476 20.112C273.044 20.736 272.612 21.48 272.18 22.344C271.94 22.728 271.772 23.112 271.676 23.496C271.628 23.88 271.58 24.264 271.532 24.648C271.532 25.368 271.556 26.088 271.604 26.808C271.7 27.48 272.036 28.248 272.612 29.112C272.852 29.304 273.044 29.52 273.188 29.76C273.38 30 273.476 30.12 273.476 30.12L273.908 30.48C274.004 30.48 274.076 30.624 274.124 30.912C274.22 31.152 274.292 31.272 274.34 31.272H275.636C276.212 31.608 276.668 31.896 277.004 32.136C277.34 32.328 277.652 32.472 277.94 32.568C278.228 32.616 278.54 32.664 278.876 32.712C279.212 32.76 279.644 32.784 280.172 32.784C280.46 32.784 280.748 32.784 281.036 32.784C281.372 32.736 281.708 32.712 282.044 32.712C282.332 32.712 282.644 32.712 282.98 32.712C283.316 32.712 283.724 32.76 284.204 32.856C285.26 32.856 286.124 32.808 286.796 32.712C287.516 32.568 288.212 32.4 288.884 32.208C289.604 32.016 290.348 31.848 291.116 31.704C291.932 31.56 292.916 31.464 294.068 31.416C294.356 31.32 294.692 31.104 295.076 30.768C295.508 30.384 295.724 30.144 295.724 30.048C295.724 29.904 295.604 29.832 295.364 29.832H295.724ZM65.0801 99.24V99.168C65.1281 99.168 65.2001 99.12 65.2961 99.024C65.4401 99.024 65.5361 99.048 65.5841 99.096C65.6801 99.096 65.7521 99.096 65.8001 99.096H65.8721L68.3201 97.08C68.5601 96.888 68.7281 96.648 68.8241 96.36C68.9681 96.024 69.1121 95.664 69.2561 95.28C69.4001 94.896 69.5921 94.512 69.8321 94.128C70.0721 93.744 70.4561 93.384 70.9841 93.048C71.3201 92.952 71.5841 92.784 71.7761 92.544C71.9681 92.256 72.1601 91.992 72.3521 91.752C72.5441 91.464 72.7601 91.2 73.0001 90.96C73.2401 90.672 73.6001 90.48 74.0801 90.384C74.1281 90.432 74.2481 90.456 74.4401 90.456C74.8241 90.456 75.0641 90.336 75.1601 90.096C75.2561 89.808 75.3041 89.472 75.3041 89.088C75.3041 88.656 75.3521 88.152 75.4481 87.576C75.5921 87 75.9041 86.4 76.3841 85.776L76.4561 92.544C76.4561 92.976 76.4321 93.72 76.3841 94.776C76.3361 95.832 76.3121 96.936 76.3121 98.088C76.3121 99.192 76.3601 100.2 76.4561 101.112C76.6001 102.024 76.8161 102.528 77.1041 102.624L81.0641 103.632H82.2881L82.6481 103.128C82.6481 102.696 82.7201 101.976 82.8641 100.968C83.0081 99.96 83.1281 98.928 83.2241 97.872C83.3681 96.768 83.5121 95.76 83.6561 94.848C83.8001 93.936 83.8721 93.36 83.8721 93.12C84.0161 91.92 84.1121 90.912 84.1601 90.096C84.2081 89.28 84.2321 88.464 84.2321 87.648C84.2321 86.832 84.1841 85.992 84.0881 85.128C84.0401 84.216 83.9441 83.064 83.8001 81.672L84.4481 80.232C84.4481 80.136 84.4721 79.944 84.5201 79.656C84.6161 79.32 84.9041 78.792 85.3841 78.072L84.9521 75.336L84.1601 72.312H76.2401V72.816H75.5921L69.4001 82.464L69.2561 82.968L68.3201 83.832V84.336L66.7361 87.072L63.2801 89.88L62.9201 88.944L60.3281 86.28L59.2481 83.688V83.184L58.5281 82.392L58.4561 81.96L53.9921 72.888L52.6961 73.104L52.6241 72.672H43.4081V84.768L44.2001 85.704L43.5521 92.976C43.5521 93.408 43.5281 94.176 43.4801 95.28C43.4801 96.336 43.4801 97.416 43.4801 98.52C43.4801 99.672 43.5281 100.704 43.6241 101.616C43.7201 102.48 43.9361 102.96 44.2721 103.056L48.2321 103.992H49.3841L49.8881 103.632C49.8881 103.104 49.9601 102.336 50.1041 101.328C50.2961 100.272 50.5121 99.24 50.7521 98.232C50.9921 97.176 51.2081 96.216 51.4001 95.352C51.5921 94.44 51.6881 93.864 51.6881 93.624C51.7841 92.664 51.8321 91.8 51.8321 91.032C51.8801 90.264 51.9041 89.52 51.9041 88.8V87.072C51.9041 86.592 51.9041 86.112 51.9041 85.632C51.9041 85.104 51.9521 84.528 52.0481 83.904H52.9841L53.9201 85.704C54.3041 86.136 54.4961 86.64 54.4961 87.216C54.4961 87.552 54.4481 87.864 54.3521 88.152C54.3041 88.44 54.2801 88.68 54.2801 88.872C54.2801 89.256 54.4721 89.448 54.8561 89.448C55.0481 89.448 55.1681 89.424 55.2161 89.376C55.6001 89.52 55.8641 89.712 56.0081 89.952C56.2001 90.144 56.3681 90.384 56.5121 90.672C56.6561 90.912 56.8001 91.152 56.9441 91.392C57.0881 91.632 57.3041 91.824 57.5921 91.968C57.8801 92.208 58.0961 92.52 58.2401 92.904C58.4321 93.288 58.5761 93.672 58.6721 94.056C58.8161 94.44 58.9361 94.776 59.0321 95.064C59.1761 95.352 59.3441 95.544 59.5361 95.64L61.2641 97.584H61.6241C61.7201 97.776 61.7681 97.848 61.7681 97.8C61.7681 97.752 61.7921 97.776 61.8401 97.872H62.0561C62.4401 98.112 62.7521 98.304 62.9921 98.448C63.2801 98.592 63.5681 98.712 63.8561 98.808L65.0801 99.24ZM97.0965 79.224C97.4325 79.224 97.7205 79.368 97.9605 79.656C98.2485 79.944 98.4885 80.28 98.6805 80.664C98.9205 81.048 99.1365 81.384 99.3285 81.672C99.5205 81.96 99.6885 82.104 99.8325 82.104C100.312 82.008 101.032 81.816 101.992 81.528C103 81.192 104.08 80.856 105.232 80.52C106.432 80.184 107.584 79.896 108.688 79.656C109.84 79.416 110.776 79.296 111.496 79.296C111.88 79.296 112.144 79.368 112.288 79.512C112.48 79.656 112.6 79.824 112.648 80.016C112.696 80.208 112.744 80.4 112.792 80.592C112.888 80.736 113.056 80.856 113.296 80.952C113.392 81.096 113.536 81.24 113.728 81.384C113.92 81.48 114.016 81.672 114.016 81.96C113.776 82.536 113.632 83.088 113.584 83.616C113.536 84.096 113.512 84.552 113.512 84.984V85.416L111.424 85.56C111.088 85.608 110.752 85.656 110.416 85.704C110.08 85.704 109.696 85.704 109.264 85.704L107.104 86.928C106.48 86.928 105.952 87 105.52 87.144C105.088 87.24 104.632 87.408 104.152 87.648C103.72 87.84 103.216 88.056 102.64 88.296C102.064 88.536 101.296 88.776 100.336 89.016C98.0325 90.168 96.3045 91.56 95.1525 93.192C94.0485 94.824 93.4965 96.84 93.4965 99.24C93.4965 100.008 93.7605 100.776 94.2885 101.544C94.8165 102.264 95.4645 102.936 96.2325 103.56C97.0005 104.136 97.7925 104.616 98.6085 105C99.4245 105.336 100.144 105.504 100.768 105.504C101.488 105.504 102.16 105.504 102.784 105.504C103.408 105.552 104.032 105.576 104.656 105.576H108.616H108.688C108.784 105.576 108.856 105.504 108.904 105.36C109 105.264 109.096 105.144 109.192 105C109.336 104.808 109.552 104.664 109.84 104.568C110.176 104.424 110.632 104.352 111.208 104.352C111.832 104.352 112.48 104.544 113.152 104.928C113.824 105.264 114.4 105.432 114.88 105.432C115.264 105.432 115.624 105.408 115.96 105.36C116.296 105.312 116.632 105.24 116.968 105.144C117.352 105.048 117.784 104.976 118.264 104.928C118.744 104.832 119.296 104.784 119.92 104.784C120.064 105.024 120.328 105.24 120.712 105.432H121.72C121.768 105.192 121.864 104.976 122.008 104.784C122.152 104.544 122.32 104.232 122.512 103.848C122.464 102.744 122.392 101.76 122.296 100.896C122.248 100.032 122.2 99.216 122.152 98.448C122.152 97.632 122.128 96.792 122.08 95.928C122.08 95.064 122.056 94.08 122.008 92.976H122.224C122.272 92.928 122.32 92.904 122.368 92.904C122.224 92.904 122.104 92.712 122.008 92.328C121.912 91.944 121.84 91.56 121.792 91.176C121.744 90.744 121.696 90.36 121.648 90.024C121.648 89.64 121.648 89.448 121.648 89.448C121.6 89.064 121.504 88.776 121.36 88.584C121.264 88.344 121.144 88.08 121 87.792C120.904 87.456 120.784 87 120.64 86.424C120.544 85.848 120.472 84.912 120.424 83.616C120.28 83.52 120.16 83.232 120.064 82.752C119.968 82.272 119.872 81.768 119.776 81.24C119.728 80.664 119.68 80.136 119.632 79.656C119.632 79.128 119.608 78.816 119.56 78.72H119.416C119.032 78.72 118.72 78.504 118.48 78.072C118.24 77.64 118.024 77.16 117.832 76.632C117.64 76.104 117.472 75.648 117.328 75.264C117.184 74.832 117.016 74.616 116.824 74.616C116.728 74.52 116.632 74.424 116.536 74.328C116.44 74.184 116.344 74.064 116.248 73.968H115.096C114.616 73.968 114.208 73.968 113.872 73.968C113.584 73.968 113.296 73.968 113.008 73.968C112.768 73.968 112.504 73.944 112.216 73.896C111.928 73.848 111.568 73.776 111.136 73.68C111.088 73.92 110.8 74.088 110.272 74.184C109.792 74.232 109.24 74.256 108.616 74.256C108.04 74.256 107.488 74.256 106.96 74.256C106.48 74.256 106.216 74.328 106.168 74.472C104.872 74.904 103.696 75.264 102.64 75.552C101.584 75.84 100.696 76.152 99.9765 76.488C99.2565 76.776 98.6565 77.136 98.1765 77.568C97.6965 77.952 97.3365 78.504 97.0965 79.224ZM112.72 91.32V94.992C112.48 95.76 112.336 96.552 112.288 97.368C112.24 98.184 112.216 98.784 112.216 99.168V99.744H111.208C110.248 99.84 109.36 99.912 108.544 99.96C107.728 100.008 106.936 100.056 106.168 100.104L101.128 100.392C100.792 99.816 100.504 99.36 100.264 99.024C100.072 98.688 99.9765 98.184 99.9765 97.512C99.9765 96.168 100.144 95.112 100.48 94.344C100.864 93.576 101.368 93 101.992 92.616C102.664 92.184 103.432 91.872 104.296 91.68C105.16 91.488 106.072 91.272 107.032 91.032C107.512 90.888 107.944 90.768 108.328 90.672C108.76 90.576 109.168 90.528 109.552 90.528H109.84C110.32 90.672 110.8 90.816 111.28 90.96C111.808 91.104 112.288 91.224 112.72 91.32ZM142.117 86.712L138.229 88.512C137.029 89.184 136.093 89.856 135.421 90.528C134.749 91.2 134.221 91.944 133.837 92.76C133.453 93.576 133.189 94.464 133.045 95.424C132.901 96.384 132.733 97.464 132.541 98.664C132.493 98.808 132.469 99.048 132.469 99.384C132.469 100.152 132.685 100.872 133.117 101.544C133.549 102.216 134.101 102.792 134.773 103.272C135.445 103.704 136.165 104.064 136.933 104.352C137.749 104.592 138.517 104.76 139.237 104.856L145.285 105.504C145.813 105.888 146.341 106.128 146.869 106.224C147.445 106.32 147.997 106.368 148.525 106.368L151.693 105.36H156.445L157.237 106.008H158.317L159.109 104.352V91.68L159.037 91.464L158.533 91.32V73.824L156.301 72.672H152.701L151.333 73.608C151.333 74.376 151.237 75.072 151.045 75.696C150.901 76.32 150.829 76.8 150.829 77.136C150.829 77.376 150.949 77.496 151.189 77.496V80.736L150.109 83.976V84.48L145.861 86.136C145.861 86.232 145.693 86.28 145.357 86.28C144.925 86.28 144.613 86.256 144.421 86.208C144.229 86.208 144.013 86.184 143.773 86.136L142.117 86.712ZM149.965 89.664V93.84L149.389 97.152V99.024H148.525C147.613 99.168 146.821 99.288 146.149 99.384C145.477 99.432 144.733 99.456 143.917 99.456C143.437 99.456 142.933 99.432 142.405 99.384C141.925 99.336 141.373 99.192 140.749 98.952C140.653 98.952 140.557 98.976 140.461 99.024C140.413 99.024 140.365 99.024 140.317 99.024C139.453 99.024 138.805 98.736 138.373 98.16C137.989 97.536 137.797 96.504 137.797 95.064C137.797 94.008 137.941 93.24 138.229 92.76C138.517 92.28 138.925 91.92 139.453 91.68C140.029 91.44 140.653 91.272 141.325 91.176C142.045 91.08 142.813 90.912 143.629 90.672C144.109 90.576 144.517 90.48 144.853 90.384C145.237 90.24 145.645 90.144 146.077 90.096H146.437C146.485 90.144 146.581 90.168 146.725 90.168C146.965 90.168 147.301 90.096 147.733 89.952C148.165 89.76 148.693 89.664 149.317 89.664H149.965ZM191.323 81.528L188.587 77.208L187.651 77.496L182.827 81.384L180.667 85.128L179.155 86.568V81.6L177.211 77.424H173.035L171.883 78.72V97.152L171.523 97.944L171.667 99.816L179.587 99.168L180.811 98.448V97.008L181.171 94.704L180.811 90.888C181.147 90.648 181.411 90.36 181.603 90.024C181.843 89.688 182.083 89.352 182.323 89.016C182.611 88.68 182.923 88.32 183.259 87.936C183.643 87.504 184.099 87.096 184.627 86.712L187.939 84.192C188.467 83.808 188.995 83.4 189.523 82.968C190.099 82.536 190.699 82.056 191.323 81.528ZM210.422 76.632L207.974 75.624L204.806 75.048L202.502 74.544L200.774 75.12V81.96L200.99 82.824L205.31 82.104L208.694 82.752L209.702 82.032L210.422 76.632ZM210.926 100.608L209.702 99.6L210.134 98.304V94.92L209.63 93.12V88.152L208.766 87.216L207.254 87.144L206.678 87.432L203.798 87.216L202.574 87.792L201.062 105.216L201.782 106.008H203.078L203.942 105.72H209.486L210.854 105.072L210.494 103.344L210.926 100.608ZM234.226 86.712L230.338 88.512C229.138 89.184 228.202 89.856 227.53 90.528C226.858 91.2 226.33 91.944 225.946 92.76C225.562 93.576 225.298 94.464 225.154 95.424C225.01 96.384 224.842 97.464 224.65 98.664C224.602 98.808 224.578 99.048 224.578 99.384C224.578 100.152 224.794 100.872 225.226 101.544C225.658 102.216 226.21 102.792 226.882 103.272C227.554 103.704 228.274 104.064 229.042 104.352C229.858 104.592 230.626 104.76 231.346 104.856L237.394 105.504C237.922 105.888 238.45 106.128 238.978 106.224C239.554 106.32 240.106 106.368 240.634 106.368L243.802 105.36H248.554L249.346 106.008H250.426L251.218 104.352V91.68L251.146 91.464L250.642 91.32V73.824L248.41 72.672H244.81L243.442 73.608C243.442 74.376 243.346 75.072 243.154 75.696C243.01 76.32 242.938 76.8 242.938 77.136C242.938 77.376 243.058 77.496 243.298 77.496V80.736L242.218 83.976V84.48L237.97 86.136C237.97 86.232 237.802 86.28 237.466 86.28C237.034 86.28 236.722 86.256 236.53 86.208C236.338 86.208 236.122 86.184 235.882 86.136L234.226 86.712ZM242.074 89.664V93.84L241.498 97.152V99.024H240.634C239.722 99.168 238.93 99.288 238.258 99.384C237.586 99.432 236.842 99.456 236.026 99.456C235.546 99.456 235.042 99.432 234.514 99.384C234.034 99.336 233.482 99.192 232.858 98.952C232.762 98.952 232.666 98.976 232.57 99.024C232.522 99.024 232.474 99.024 232.426 99.024C231.562 99.024 230.914 98.736 230.482 98.16C230.098 97.536 229.906 96.504 229.906 95.064C229.906 94.008 230.05 93.24 230.338 92.76C230.626 92.28 231.034 91.92 231.562 91.68C232.138 91.44 232.762 91.272 233.434 91.176C234.154 91.08 234.922 90.912 235.738 90.672C236.218 90.576 236.626 90.48 236.962 90.384C237.346 90.24 237.754 90.144 238.186 90.096H238.546C238.594 90.144 238.69 90.168 238.834 90.168C239.074 90.168 239.41 90.096 239.842 89.952C240.274 89.76 240.802 89.664 241.426 89.664H242.074Z" fill="#171717"/>
</svg>
