<svg width="108" height="94" viewBox="0 0 108 94" fill="none" xmlns="http://www.w3.org/2000/svg">
<path d="M107.914 86.822C108.076 86.7589 108.026 86.563 107.585 86.4899L107.216 86.7456L107.914 86.822Z" fill="#343434"/>
<path d="M105.394 85.3542C105.147 85.3154 104.896 85.3053 104.646 85.3243C104.442 85.3443 104.317 85.4339 104.376 85.6564C104.587 85.6561 104.797 85.6728 105.005 85.7062C105.223 85.7457 105.446 85.7457 105.664 85.7062C106.056 85.8457 106.323 86.0649 106.201 86.1612C106.372 86.128 106.807 86.4734 107.091 86.304C106.843 86.112 106.572 85.9534 106.283 85.8324C106.124 85.7743 105.961 85.7255 105.796 85.6863C105.623 85.6304 105.447 85.586 105.269 85.5535C105.163 85.4074 105.335 85.3974 105.394 85.3542Z" fill="#343434"/>
<path d="M91.1608 48.7971V49.0595C91.1734 48.9725 91.1734 48.8841 91.1608 48.7971Z" fill="#343434"/>
<path d="M87.3291 24.1756C87.3621 24.3649 87.4049 24.4379 87.4346 24.4446C87.3884 24.2719 87.3522 24.1291 87.3291 24.1756Z" fill="#343434"/>
<path d="M87.138 19.9081C87.138 20.0011 87.138 20.0775 87.138 20.1605C87.1656 20.0787 87.1656 19.99 87.138 19.9081Z" fill="#343434"/>
<path d="M91.1608 48.7971L91.1279 48.1329C91.0159 48.0997 91.118 48.4916 91.1608 48.7971Z" fill="#343434"/>
<path d="M100.597 82.259C100.684 82.3544 100.784 82.4372 100.893 82.5048C100.811 82.4217 100.729 82.3354 100.65 82.2457L100.597 82.259Z" fill="#343434"/>
<path d="M93.8263 59.4507L93.8757 59.6467C93.9267 59.6961 93.9831 59.7395 94.0437 59.7762L93.8263 59.4507Z" fill="#343434"/>
<path d="M96.0798 67.5439C96.0403 67.3579 95.7503 67.3745 95.6186 67.338C95.7543 67.4086 95.8597 67.5267 95.9151 67.6701C95.982 67.647 96.0398 67.6027 96.0798 67.5439Z" fill="#343434"/>
<path d="M100.422 80.0406C100.472 80.1037 100.528 80.1602 100.58 80.2166C100.538 80.1702 100.488 80.0905 100.422 80.0406Z" fill="#343434"/>
<path d="M92.5084 53.566C92.5412 53.543 92.5664 53.5106 92.5809 53.473C92.5545 53.473 92.5282 53.5162 92.5084 53.566Z" fill="#343434"/>
<path d="M5.67017 84.3579C5.6537 84.3579 5.64052 84.3579 5.62405 84.338C5.63064 84.401 5.64052 84.4243 5.67017 84.3579Z" fill="#343434"/>
<path d="M0.395384 92.7035L0.438215 92.5706C0.398037 92.5355 0.353786 92.5054 0.306427 92.481L0.395384 92.7035Z" fill="#343434"/>
<path d="M86.5516 12.1337V12.1669C86.6076 12.3662 86.5878 12.2533 86.5516 12.1337Z" fill="#343434"/>
<path d="M55.5452 61.1578C56.2042 60.6165 55.1037 62.4364 55.99 61.5696C55.8385 61.6028 56.2239 60.4006 55.5452 61.1578Z" fill="#343434"/>
<path d="M100.488 82.0565L100.267 81.7709C100.333 81.8718 100.407 81.9673 100.488 82.0565Z" fill="#343434"/>
<path d="M55.99 61.5695L56.079 61.4799L55.99 61.5695Z" fill="#343434"/>
<path d="M79.7316 13.7676C79.8005 13.7396 79.8624 13.6965 79.9128 13.6414C79.8765 13.6215 79.8304 13.6614 79.7316 13.7676Z" fill="#343434"/>
<path d="M85.2568 5.82066L85.2271 5.23285C85.2304 5.4952 85.2436 5.67454 85.2568 5.82066Z" fill="#343434"/>
<path d="M77.5044 20.3299C77.4075 20.461 77.337 20.6099 77.2968 20.7683C77.3188 20.752 77.3387 20.733 77.3561 20.7118C77.3643 20.5719 77.4162 20.4382 77.5044 20.3299Z" fill="#343434"/>
<path d="M74.6446 26.9419C74.6808 26.9154 74.7138 26.8755 74.75 26.8423C74.7862 26.8091 74.8027 26.6962 74.8291 26.6298L74.6446 26.9419Z" fill="#343434"/>
<path d="M14.5856 64.296C14.4771 64.3848 14.353 64.4524 14.2199 64.4953C14.4472 64.4754 14.0749 65.4716 14.5856 64.296Z" fill="#343434"/>
<path d="M100.715 82.1595C100.672 82.1631 100.627 82.1556 100.587 82.1376C100.547 82.1196 100.512 82.0917 100.485 82.0565L100.65 82.2458C100.696 82.2392 100.729 82.2192 100.715 82.1595Z" fill="#343434"/>
<path d="M79.4021 21.459L78.9178 22.5084C79.0726 22.2195 79.2505 21.8376 79.4021 21.459Z" fill="#343434"/>
<path d="M34.1759 45.6721L34.0375 45.4463C34.0654 45.5315 34.1128 45.6088 34.1759 45.6721Z" fill="#343434"/>
<path d="M77.6065 25.6667C77.4363 25.8171 77.2887 25.9916 77.1683 26.1848C77.1597 26.2353 77.1597 26.287 77.1683 26.3375L77.6065 25.6667Z" fill="#343434"/>
<path d="M11.7062 71.6604C12.1642 70.6642 11.5909 71.0461 11.4987 70.7439C11.9402 69.5118 11.9896 70.3055 12.3421 69.98C12.5892 69.1963 12.5431 68.4856 12.8067 67.9377C12.8791 67.9211 12.9483 67.8247 12.9582 67.9808C13.0505 67.0742 13.9993 65.6562 14.0817 64.5769C14.118 64.5368 14.1649 64.508 14.2168 64.4938C14.1311 64.5266 14.0386 64.5373 13.9478 64.5251C13.8569 64.513 13.7705 64.4782 13.6962 64.4241C13.8939 63.9758 13.861 63.5009 14.1542 63.4278C14.1147 63.5033 14.0906 63.5859 14.0833 63.6709C14.0759 63.7558 14.0855 63.8414 14.1114 63.9226L14.23 63.4112C14.7308 63.1322 14.0488 64.0986 14.2794 64.2049C14.5924 63.2452 14.8131 62.0629 15.2184 61.402C15.5874 61.402 14.5825 63.0857 15.2744 62.2754L14.6682 63.3049C15.5248 62.7005 14.3387 63.9492 15.1986 63.4245C15.93 62.0396 15.762 61.764 16.4934 60.3792C16.4671 59.9807 16.1936 60.3792 16.164 59.9707C16.7702 57.8121 17.6499 58.7353 17.9134 57.0615C17.8838 56.5833 17.5642 56.2579 18.2429 55.2948L18.4274 55.8129C19.0863 54.4479 18.2857 54.7966 19.1687 53.4583C19.1885 53.7904 18.7964 54.5974 18.9315 54.4048C19.6267 53.5945 19.0336 53.6542 19.3598 52.9336H19.7321C20.3449 51.4425 20.8556 49.7222 21.5343 48.0684C21.5837 48.2012 21.5541 48.5234 21.8209 48.1879C22.5952 46.0659 23.834 43.8242 24.9114 41.9279L24.9871 41.0512C25.0695 40.8752 25.254 40.7789 25.2178 40.9948C25.6691 40.2675 25.0695 40.8752 25.1321 40.4568C25.3133 40.0118 25.5472 39.9487 25.5011 40.2641C25.8899 38.7996 26.7696 36.1628 27.6987 34.861L27.6525 35.1931C27.7799 34.9755 27.8722 34.739 27.926 34.4923C27.926 34.3861 27.8832 34.3064 27.8667 34.1835C27.8436 34.0628 27.8436 33.9388 27.8667 33.8182C27.8742 33.7605 27.8944 33.7053 27.9257 33.6565C27.9571 33.6076 27.9988 33.5664 28.0479 33.5359L28.0281 33.7053C28.1006 33.5791 28.1698 33.4529 28.2357 33.32L28.3312 33.1175L28.3807 33.0145C28.3807 32.9813 28.3807 33.0145 28.407 33.0145L28.4334 33.0676L28.8551 33.878C28.9243 34.0174 28.9902 34.1536 29.0462 34.2864L29.2076 34.6451L29.3856 35.0669C29.6076 35.5827 29.7915 36.1144 29.9358 36.6576C30.4794 36.817 30.9242 39.1018 31.5073 38.9989C31.9027 40.49 31.6161 40.1446 32.3541 42.1538C32.5715 42.6818 33.0394 42.7681 33.3919 43.3825L33.1217 43.5286L33.8136 44.2593L33.695 44.8736L34.0245 45.4415C33.9322 45.1958 33.919 44.877 34.0245 44.8736C34.5747 45.757 34.8679 47.2548 34.7361 47.3444L35.9585 49.4665C35.8234 49.4665 35.629 49.1112 35.4214 48.8488C36.2286 49.9115 35.2205 49.1809 35.965 50.1772C35.965 50.0012 36.166 50.1772 36.2319 50.1772C36.3044 50.7982 36.8349 52.0436 37.3027 52.9303L37.0325 52.8373C37.6915 54.521 38.6107 56.311 39.3718 58.1907C39.1873 57.48 39.5859 57.4933 39.8462 58.0346L39.6386 58.3667C39.9681 58.6456 39.5134 57.7457 40.0406 58.3667C40.291 59.084 39.8923 58.9777 39.632 58.6157L40.0801 59.4261C40.0109 59.5124 39.8824 59.3331 39.7507 59.3264C40.0801 59.6021 40.0439 60.9238 40.5677 61.3024L40.4985 61.3854C41.2333 63.275 41.678 64.0887 42.2777 65.6296C42.5478 65.5599 42.7225 66.1875 43.1079 66.5661C43.4374 67.7384 43.7175 69.0801 44.2413 70.4483C44.719 71.3682 44.5708 70.6476 44.8739 71.0261C44.663 71.1856 45.1803 72.5538 44.752 71.9029C44.8311 72.1088 44.9035 72.2947 44.9727 72.4674L45.0716 72.7232L45.2231 73.135L45.7865 74.6261C45.9743 75.1076 46.1687 75.6024 46.3993 76.1603C46.5114 76.4293 46.63 76.7249 46.765 77.047C46.798 77.1234 46.8309 77.2098 46.8672 77.2828L47.0451 77.0072L47.4273 76.4227C47.2098 76.5423 46.9924 76.7548 47.1341 76.4227C47.2743 76.1934 47.4475 75.9864 47.648 75.8083C47.7963 75.6854 47.9083 75.6489 47.8852 75.7817L47.7864 75.9611C48.3415 75.054 48.9545 74.1843 49.6215 73.3575L49.8159 73.1217L49.9906 72.9257L50.3398 72.5305C50.5803 72.2748 50.8175 72.0158 51.0547 71.7601C51.9838 70.7239 52.8668 69.7243 53.2226 68.7712L53.1798 68.8775C53.5093 68.2565 53.8388 67.6421 54.132 67.0144C54.702 66.2473 53.9705 67.5956 54.4944 67.1008C54.8751 66.2282 55.3609 65.4062 55.9408 64.6532C56.4736 63.992 56.927 63.2697 57.2916 62.5013C57.9901 62.1094 58.6655 61.0367 59.3442 59.8943C60.0229 58.7519 60.6621 57.5132 61.3803 56.8224H61.1727C61.288 56.3077 61.5747 56.3641 61.802 56.0719C61.6571 56.0453 61.3836 56.4505 61.4726 56.135C61.9898 55.2151 62.5236 54.2852 63.0837 53.362C63.6438 52.4388 64.2434 51.5255 64.8397 50.6056L66.6189 47.8359C66.9121 47.371 67.2086 46.9094 67.5018 46.4478L68.3354 45.0496C69.1294 43.6748 67.9631 43.8209 69.2777 42.2667L69.2974 42.9309C70.4473 39.9254 72.3187 37.1391 73.3796 34.1735C73.3796 34.3728 73.452 34.4226 73.317 34.6949C73.8211 34.21 74.4009 32.5064 74.2197 32.4101C74.4471 31.9784 74.4273 32.3835 74.6414 32.1544C75.05 31.6131 75.0697 30.5171 75.4322 30.298C75.4915 30.2614 75.4322 30.5005 75.3893 30.6301C75.4684 30.1884 76.2657 28.8201 75.8407 29.0792C76.4634 28.0829 76.6446 26.977 77.1784 26.1933C77.1454 25.5091 78.1239 24.4166 77.8043 24.0645C78.1931 24.3269 78.9377 22.3144 79.0333 21.5473C79.0596 21.8295 79.4122 21.0059 79.4715 21.348C79.8009 20.5642 80.0151 19.817 79.7449 19.8635C80.8453 18.6281 80.5093 16.7916 81.4746 16.2337C81.6558 15.6293 81.8305 15.0349 82.0051 14.4504C82.1797 13.8659 82.3345 13.288 82.5026 12.7202C82.5849 12.4346 82.6706 12.1556 82.753 11.8766L82.8815 11.4582L82.9078 11.3652V11.3187L82.9276 11.229C82.9836 10.98 83.0594 10.7043 83.1384 10.4055C83.2151 10.6601 83.207 10.933 83.1154 11.1826C83.0833 11.2722 83.0655 11.3663 83.0627 11.4615C83.0198 11.6774 83.033 11.8235 83.1516 11.8434L83.2043 11.6508L83.2274 11.5545V11.508V11.4217C83.2274 11.3586 83.2274 11.2822 83.2274 11.1958C83.2321 10.986 83.2475 10.7765 83.2735 10.5682C83.3223 10.0929 83.4434 9.62805 83.6326 9.18998C83.6689 9.18998 83.6326 9.38924 83.6326 9.61839C83.6326 9.84753 83.57 10.0933 83.5602 10.2361C83.6054 9.99255 83.6648 9.75192 83.7381 9.51544L83.7809 9.37596L83.8007 9.31286C83.8007 9.29293 83.8007 9.31286 83.8007 9.31286V9.34275C83.8007 9.42909 83.8171 9.51544 83.827 9.59846C83.8633 9.9538 83.8962 10.1863 84.0313 10.3158C84.0229 10.3413 84.0087 10.3645 83.9898 10.3836C83.971 10.4026 83.9479 10.4169 83.9226 10.4254C83.9489 10.525 83.9028 10.8239 84.0643 10.4619C84.0461 10.4444 84.0263 10.4288 84.005 10.4154C84.1071 10.0003 84.2389 9.81764 84.3838 9.90731C84.5288 9.99697 84.687 10.2892 84.7594 10.2394C84.6145 10.2394 84.5486 10.3855 84.5123 10.5217C84.483 10.6717 84.4654 10.8238 84.4596 10.9767C84.4654 11.1003 84.4345 11.2229 84.3707 11.3287C84.3048 11.4017 84.1927 11.3851 84.0082 11.3851C84.0403 11.4289 84.0837 11.4629 84.1337 11.4834C84.1837 11.504 84.2383 11.5102 84.2916 11.5014C84.2916 11.8335 84.229 11.9829 84.0313 11.6242C84.2982 12.9526 84.4563 12.4445 84.5947 13.6533C84.4959 13.6533 84.43 13.4242 84.2982 13.3212C84.6461 14.0077 84.8406 14.7627 84.8682 15.533C84.8023 15.4799 84.7397 15.6061 84.7034 15.3005C84.9439 17.054 85.5699 18.2263 85.6325 20.1724C85.1383 19.6609 85.5732 20.8366 85.2207 20.9927L85.4612 22.0122L85.5864 21.5738C85.6951 22.4804 86.0707 23.2343 86.051 24.0413L85.8104 23.3771L86.107 25.0641V24.0679C86.4167 24.9579 86.5583 23.9084 86.6144 25.1272C86.5452 24.8848 86.7264 26.0305 86.5781 26.532C86.8112 27.0171 86.9371 27.5473 86.9471 28.0862C86.8549 28.2755 86.5254 28.0032 86.4628 28.1294C86.8318 28.5246 86.8417 30.2349 87.2502 30.743C87.1448 30.5703 86.9537 30.5869 86.9208 30.6566L87.2239 30.9887C87.2074 31.4171 87.1777 31.4869 87.0163 31.4404C87.158 32.7057 87.4183 30.9721 87.4413 32.4931C87.4051 32.3802 87.3754 32.44 87.3029 32.2042C87.4216 33.7185 87.8927 35.0768 87.9981 36.4683C87.6983 36.9366 87.7148 35.2827 87.4809 35.8041C87.6752 36.8004 87.9487 37.7967 88.2057 38.793C88.4798 39.7669 88.6922 40.7575 88.8416 41.7586L88.8185 41.3933C89.3852 41.566 88.8185 42.8678 89.2303 43.791C89.148 43.5619 88.9009 43.532 88.9569 43.5851C89.1249 44.9135 89.5796 46.2419 90.1331 48.1879L89.9519 47.9688C89.9914 48.7625 90.2978 50.0111 90.4098 50.8547C90.591 51.0739 90.6668 51.5521 90.7986 51.2233C90.6042 53.9465 92.2615 56.0021 92.1989 58.3999C92.133 58.1309 91.9287 57.7855 91.9814 57.998L92.5679 59.891C92.7524 59.6818 92.6403 59.6054 92.7161 59.1571C92.9733 59.5166 93.1569 59.9242 93.2564 60.3559C92.894 59.5356 92.9006 60.4555 92.8776 60.8607C92.9303 60.781 93.039 60.8873 93.0983 60.8375C92.9698 61.94 93.5859 60.8873 93.6815 62.3186L93.5464 62.2788C93.7867 62.7517 93.9819 63.2465 94.1295 63.7566C93.9352 64.0555 93.866 63.2485 93.6485 63.2717C93.8627 64.0422 94.5315 64.6599 94.4854 65.4237C94.3206 65.1182 94.1823 64.6499 94.0241 64.3411C93.9533 64.8393 93.9973 65.3472 94.1526 65.8255V65.7691L94.3898 67.0975V66.7421C95.3288 67.5059 95.0488 68.6683 95.9021 69.814C95.1048 68.6948 95.6023 69.6812 95.286 69.6745C95.309 70.0299 95.3782 70.5579 95.253 70.4383C95.6715 70.9763 95.3881 71.5143 95.9943 72.2649C95.9153 72.3346 96.1887 72.9291 95.9153 72.8593C96.2447 73.6298 96.0108 72.6169 96.1525 72.6468C96.505 73.2047 96.65 73.9552 96.8576 74.7622C97.0435 75.6416 97.4081 76.4727 97.9283 77.2031C98.0932 77.4961 98.277 77.7779 98.4785 78.0466C98.633 78.2489 98.7992 78.4418 98.976 78.6245C99.3055 78.9566 99.6053 79.3053 100.057 79.8831C100.179 80.3912 99.546 79.7171 99.546 79.7171C99.798 80.4077 100.2 81.0329 100.722 81.5469C100.561 81.4739 100.6 81.6432 100.656 81.8956C100.774 82.0504 100.934 82.166 101.118 82.2277C101.246 82.2908 101.371 82.3805 101.592 82.7292C101.346 82.7049 101.108 82.6279 100.894 82.5034C101.452 83.0068 102.046 83.4696 102.669 83.8882C102.702 84.1539 102.165 83.7587 101.889 83.6458C102.547 84.2203 103.681 85.0372 104.066 84.9277C103.929 84.8055 103.799 84.6746 103.678 84.5358C103.925 84.7151 103.678 84.8214 103.457 84.7151C103.193 84.6216 102.964 84.4503 102.798 84.2236C102.73 84.1186 102.704 83.9917 102.725 83.8683C102.866 83.9796 103.015 84.0806 103.17 84.1705C103.124 83.7952 102.755 83.4365 102.258 83.0945C101.767 82.7469 101.324 82.3361 100.94 81.8724L101.533 81.9654C101.226 81.7528 100.91 81.5403 100.607 81.3012C100.564 81.0455 100.666 80.7864 101.006 81.1783C100.755 80.441 100.508 80.7134 100.347 80.0459C100.347 79.9662 100.373 79.9828 100.419 80.0459L99.9447 79.4813C100.09 79.561 100.132 79.2322 100.307 79.644C99.8491 78.4153 99.032 77.937 99.0946 77.3492L99.1671 77.4389C98.7059 76.6518 98.6433 76.6286 98.5477 76.6851C98.4522 76.7415 98.3698 76.8611 97.9316 76.2932C98.0338 75.9113 98.159 75.526 98.2611 75.1508L97.9151 75.0943C97.8525 74.9183 97.7471 74.5596 97.8822 74.5796C97.4506 73.9918 97.8031 74.739 97.4802 74.4235C97.4111 73.4803 96.5478 72.0822 96.9465 71.7335C96.617 71.4911 97.0388 72.6235 96.5973 71.7335C97.0058 71.3084 96.1755 70.6841 96.1558 69.8173C96.4853 69.98 96.5841 70.7771 96.5643 69.9103C95.9877 69.5782 96.1657 68.3362 95.9054 67.6853C95.5528 67.755 95.342 66.2606 94.9005 65.158C94.973 65.1779 94.8577 64.6333 94.7259 63.9426C94.5941 63.2518 94.4294 62.4182 94.3536 61.8703L94.4195 61.8869C94.0175 61.774 93.7869 60.6648 93.5134 59.8943C93.7309 59.8711 93.8429 59.9939 94.0571 60.4024C93.9879 60.1533 93.9253 59.901 93.866 59.6519C93.6544 59.4102 93.5061 59.1191 93.4344 58.805L93.7441 58.9279C93.4871 57.9316 92.9402 56.9885 92.8117 55.6568C92.5481 55.6568 92.3603 56.849 91.8859 55.5173C92.0078 55.4343 92.2153 55.3313 92.357 55.6767C92.2496 55.4769 92.1814 55.2582 92.156 55.0324L92.5053 55.5273C92.4723 54.9162 92.2483 55.2616 92.1758 54.7867C92.3702 54.7502 92.2351 54.4048 92.3998 54.4546C92.446 54.5708 92.3998 54.8863 92.5283 55.049C92.4302 54.5697 92.4246 54.0759 92.5118 53.5945C92.413 53.6675 92.2549 53.6542 92.1428 53.2624C91.9056 52.2661 92.2944 52.8672 92.2615 52.2661C92.0737 52.0535 92.0704 51.3794 91.7837 51.4226C91.7648 51.3343 91.7656 51.2429 91.7861 51.155C91.8067 51.0671 91.8464 50.9849 91.9023 50.9144C91.6684 50.4196 91.3653 48.4802 91.1808 49.1344V49.2706L91.1511 49.1876C90.4922 47.5271 90.6141 45.5876 90.1627 43.9072L90.2583 43.8906C89.9519 42.8943 89.7904 41.6324 89.4544 40.9383C89.4017 40.6361 89.5038 40.1944 89.6422 40.304C89.4379 39.5369 89.3127 39.4671 89.2798 38.3114C89.5763 39.0686 89.3819 38.0159 89.5334 39.0952C89.4478 38.0657 89.5697 37.81 89.1282 36.7705C89.4346 37.1026 89.316 35.9569 89.1644 35.4853L89.1018 36.2259C88.9958 35.7304 88.9177 35.2292 88.8679 34.7248L89.2336 34.934C89.3127 32.792 87.9882 31.281 88.4231 29.5939C88.12 29.0759 88.4231 30.7529 88.0937 30.298C88.0047 29.3282 88.3309 28.2622 88.2881 27.9733C88.2881 26.6449 87.6291 26.8143 87.5764 25.4195C87.4841 25.6121 87.1942 25.8213 86.9504 24.8051C86.8647 23.8354 87.2799 23.5564 87.4545 24.1409C87.494 24.3701 87.471 24.473 87.4314 24.473C87.5138 24.7752 87.6192 25.1771 87.695 24.7785L87.5599 24.6723C87.6159 24.1774 87.4281 22.8557 87.6621 23.1413C87.4545 22.4306 87.4281 22.8557 87.4413 23.4037C87.4413 22.1483 87.1909 21.4742 87.1448 20.189C87.1086 20.3982 86.9932 20.6041 86.9702 20.4015C86.8779 18.5185 86.6407 19.6078 86.4364 18.3492C86.5221 17.6119 86.8911 18.5551 86.5847 17.2998C86.6111 16.5094 86.8746 17.0972 87.0064 17.3961C86.6407 16.2636 86.8911 15.2109 86.8549 14.5434L87.0196 15.1445C86.9378 14.8286 86.8816 14.5065 86.8516 14.1814L86.6506 14.5268C86.6506 14.1648 86.6111 13.8626 86.7099 13.8626C86.5122 13.5105 86.3574 14.1947 86.051 13.484C86.1103 12.9925 85.7511 12.0427 86.051 11.8235C86.1201 13.3412 86.3409 11.6209 86.5419 12.8862C86.4683 12.591 86.4339 12.2872 86.4397 11.9829C86.4694 11.9231 86.5089 12.0261 86.5386 12.1224C86.6174 11.7124 86.5423 11.2875 86.3277 10.9302C86.1729 10.6412 85.9982 10.4088 85.8533 9.20327C85.9488 9.27965 86.0081 9.06711 86.0279 8.75826C86.0505 8.45797 86.0394 8.15607 85.9949 7.85828C86.1201 8.97412 85.7907 8.6387 85.5798 7.99776C85.5835 7.50358 85.5282 7.01075 85.4151 6.5299C85.324 6.2992 85.2663 6.0565 85.2438 5.80925L85.2932 6.80554C85.1252 6.88856 85.0691 6.19448 84.9275 5.45391C85.0098 4.97237 85.0889 6.02511 85.0922 5.53029C84.9242 5.42402 84.9209 4.68013 84.9011 3.69712C84.9011 3.21227 84.8813 2.67759 84.8517 2.20934C84.8495 1.86334 84.8008 1.51925 84.7067 1.18648V1.13667C84.7067 1.11674 84.7067 1.09682 84.7067 1.10346C84.7039 1.09596 84.7039 1.08771 84.7067 1.08021C84.6999 1.03843 84.6999 0.995801 84.7067 0.954016C84.7098 0.807399 84.7208 0.66106 84.7397 0.515651C84.7693 0.183555 84.8089 -0.128614 84.7001 0.054038C84.3212 1.46544 84.173 1.71451 83.9918 2.02336C83.6494 2.64782 83.3986 3.31898 83.2472 4.01594C83.3625 4.03918 83.4185 4.01594 83.3954 4.20855C83.3724 4.40117 83.2603 4.84949 83.066 5.75279L84.1269 2.26579C83.8677 3.33514 83.6392 4.32036 83.4416 5.22144C83.5865 4.82293 83.7381 4.28161 83.883 3.77351C83.9854 3.38116 84.1074 2.99433 84.2488 2.61449C83.8995 4.18198 83.9654 3.82 84.0412 4.18198C83.9028 4.04915 83.6887 4.80964 83.5075 5.51037C83.3262 6.21109 83.178 6.92177 82.9243 7.2439L82.7596 5.95869C82.2825 7.01348 81.9042 8.11083 81.6295 9.23647L81.1485 10.8704C81.0302 11.2811 80.8804 11.682 80.7004 12.0692L81.0068 11.5412C81.1353 11.8733 80.6312 12.6338 80.5093 13.2382C80.3446 13.112 80.1469 13.4408 79.9426 13.6401C80.0909 13.6633 79.4286 14.9053 79.7284 15.2076L79.1815 15.8717C78.5226 17.2333 79.0728 17.6883 78.4567 19.0067C78.427 18.5219 78.0481 19.0765 78.2788 18.12C78.0943 18.5684 77.89 18.9536 78.0119 19.0134C77.7912 19.2292 77.7352 20.3417 77.3925 20.6938C77.3925 20.9163 77.5539 21.0591 77.3299 21.5539C77.2706 21.5937 77.241 21.514 77.241 21.514C77.3299 21.5539 77.0334 22.3542 77.4156 21.9989C77.1143 22.3251 76.8643 22.6958 76.6743 23.0981C76.4502 23.5265 76.2492 24.0014 76.0516 24.473C75.6595 25.4162 75.2872 26.3394 74.7864 26.8242C74.4273 27.8205 73.9265 28.9961 73.541 29.8762C73.5147 29.7965 73.4521 29.833 73.541 29.6769C72.8195 30.7994 73.7057 30.6566 72.8821 31.9385C72.2726 32.4998 73.0666 31.1382 72.7536 31.5201C72.0946 31.4337 72.0485 33.2005 71.2644 33.9444L71.3369 33.7086C70.7998 34.3064 70.724 35.5152 70.1244 36.631C70.1244 36.631 70.1013 36.548 70.042 36.5812C69.9399 37.4978 69.2843 39.0088 68.8065 40.138C68.7571 39.683 68.9416 39.5834 68.6122 39.6697C68.3914 40.1712 69.0471 39.7162 68.6122 40.7224C68.3321 40.9748 67.8544 41.6125 67.5611 41.5759C67.7193 41.2704 67.8906 40.9682 68.029 40.6593C67.4821 40.9615 67.4129 41.8383 67.1065 42.2866L67.0043 42.1538C66.2993 43.5619 66.632 43.7678 65.8018 45.2489L65.9896 45.1493C65.8841 46.1456 65.4229 45.7238 65.2219 46.6703L64.7442 46.7201C64.5267 47.2979 64.0193 48.7724 63.5449 49.7654C63.6009 49.078 64.1017 47.8857 64.3422 47.1086C64.0424 47.6333 63.3538 48.9119 63.3538 49.2839C63.4192 49.0234 63.5308 48.777 63.6833 48.5566C63.625 49.0011 63.5144 49.437 63.3538 49.8551C63.1474 50.3625 62.9006 50.8523 62.6158 51.3196C62.0689 50.7451 60.863 53.9398 59.8977 54.3716C59.0114 56.3276 57.5914 57.915 56.2735 60.0172C57.2422 59.5987 55.8946 60.6349 56.4844 60.8408C56.201 61.3489 56.0758 61.5282 56.0132 61.5481C55.5948 61.9732 55.1863 62.4016 54.7547 62.8167C54.3758 63.0625 54.9491 62.2854 54.8074 62.2555C54.0628 63.2784 54.3 62.5544 53.7004 63.1555C53.9738 63.1356 53.7004 63.6935 53.2424 64.2448L54.0364 63.5606C53.3182 65.2211 52.768 64.5403 52.0366 66.2008L52.1947 65.623C51.7862 66.4532 50.264 68.3827 50.152 69.4022C50.0004 69.4952 49.7435 69.5749 49.9411 69.2195C49.6117 69.6546 49.3053 70.1428 48.9923 70.6409L48.531 71.3914L48.3037 71.77L48.1884 71.956C48.1557 72.0039 48.1281 72.0551 48.106 72.1088C48.0162 72.3277 47.9048 72.5368 47.7732 72.7331C47.7228 72.8142 47.6643 72.8898 47.5986 72.9589C47.5774 72.9805 47.553 72.9984 47.5261 73.0121C47.5153 73.0149 47.504 73.0149 47.4932 73.0121C47.4907 72.98 47.4907 72.9478 47.4932 72.9158C47.5162 72.8294 47.536 72.753 47.5591 72.6434C47.5327 72.6434 47.4932 72.7398 47.4503 72.763C47.4075 72.7862 47.3713 72.7331 47.3845 72.5471C47.4207 72.4708 47.48 72.3745 47.4701 72.3213C47.446 72.3338 47.4188 72.3389 47.3919 72.336C47.3649 72.333 47.3394 72.3221 47.3186 72.3047C47.2772 72.2734 47.2437 72.2328 47.2208 72.1861C47.1979 72.1393 47.1863 72.0878 47.1868 72.0357C47.2462 72.0606 47.3103 72.072 47.3746 72.0689C47.3765 72.0346 47.3765 72.0003 47.3746 71.966V71.9261L47.3581 71.8829L47.3284 71.7966C47.2494 71.5708 47.1637 71.3582 47.0748 71.1557C46.9059 70.778 46.7167 70.41 46.5081 70.0531C46.0762 69.3615 45.6846 68.6452 45.3352 67.9078C45.7404 67.7583 45.2923 66.1178 45.0518 65.3041H45.1177C44.7399 64.2472 44.2817 63.2213 43.7471 62.2356C43.2595 61.309 42.7587 60.4157 42.2381 59.3729C42.1525 57.8552 40.5908 54.7834 39.9319 52.5484C39.9945 52.907 39.6024 52.6281 39.3981 52.2694C39.263 51.7347 38.5283 51.0108 38.927 50.941L38.9962 51.1203C39.1906 50.589 38.6667 49.6027 38.3142 48.7957L37.7804 48.8787C37.5663 46.4743 35.0887 43.5652 35.1809 42.1372C34.8317 41.6922 34.545 41.0745 34.1925 40.6394L34.4594 40.5464C33.9464 39.2532 33.359 37.9913 32.7 36.7672L33.0295 37.0229C32.5814 36.0598 31.7116 36.1727 31.2767 35.306L31.5205 34.8543C31.3129 34.4392 31.1251 34.0141 30.9439 33.5824L30.8682 33.4031L30.7463 33.1341L30.4926 32.5828L29.9819 31.447C29.6261 30.6965 29.2538 29.936 28.8848 29.2419C28.697 28.9098 28.5158 28.5777 28.3345 28.2722V28.2456C28.3345 28.2456 28.3345 28.2157 28.3181 28.2456L28.2884 28.3253L28.2291 28.488L28.1105 28.8201L27.8832 29.4843C27.8989 29.1397 27.9806 28.8014 28.1237 28.488C27.7942 29.1755 27.1353 30.4474 26.6213 31.6263C26.3952 32.1083 26.1993 32.6041 26.0348 33.1108C25.9294 33.4761 25.9492 33.6554 26.1337 33.5957C25.768 33.496 25.31 35.3292 25.0464 36.3122L24.8586 36.0565C24.8323 36.9698 24.9114 37.0362 24.5292 38.1487C24.3809 38.3878 24.2261 38.2782 24.4435 37.9694C23.9295 38.7564 24.3842 38.7398 23.7846 39.7029V39.2479C23.3694 40.1081 23.4881 40.0782 23.4551 40.6461C23.3068 41.2372 22.6446 42.2667 22.3613 42.3065C22.4041 42.5168 22.4045 42.7337 22.3626 42.9442C22.3208 43.1547 22.2374 43.3546 22.1175 43.532C22.0021 43.5619 22.0318 43.3526 22.0483 43.2464C21.2213 44.6246 21.363 45.5445 20.6645 46.4312C20.6214 46.4256 20.5775 46.4323 20.538 46.4505C20.4984 46.4687 20.4646 46.4977 20.4405 46.5341C20.9676 45.3784 21.4025 44.4552 21.3794 44.5415C21.1488 44.4353 20.6876 45.3485 20.704 44.4585C20.5393 45.2888 20.3383 46.7467 19.8211 47.6068C19.7809 47.6418 19.7352 47.6698 19.686 47.6898V47.5835C19.5765 47.7501 19.4932 47.9327 19.4389 48.1248C19.2872 48.3569 19.1507 48.5988 19.0303 48.8488C18.7898 48.8687 18.4439 49.8717 18.2231 50.3333C18.4933 50.413 18.177 50.9975 18.6449 50.5259C18.5921 50.5923 18.6449 50.4263 18.7832 50.1108C18.8104 50.0431 18.8314 49.9731 18.8458 49.9016V49.9414L19.3499 48.7758C19.3416 49.2542 19.1745 49.716 18.8755 50.0875C18.9282 50.403 18.9776 50.7517 18.9875 50.9244C18.3483 51.4026 17.6037 52.5417 17.3072 52.6148C16.8097 54.0992 15.8905 56.0055 15.9597 57.118C15.8378 57.5497 15.6302 57.5198 15.4721 57.6394C15.5519 57.4161 15.6114 57.186 15.65 56.9519C15.4095 57.8154 14.6154 59.3696 14.8625 59.7117C14.253 60.6648 14.8131 59.001 14.2366 60.4257L14.2201 60.1899C12.4475 62.7005 13.0472 65.0551 10.9847 67.7982C11.1231 67.6056 11.189 67.5093 11.2647 67.4893C9.39336 70.8335 8.29952 74.7954 6.27988 78.0134C5.74284 78.9433 5.90758 79.1459 5.79885 79.8167L5.43314 79.9031L5.28488 81.0687C4.86316 82.6163 3.48927 83.2639 3.09721 85.293L3.38714 85.1402C3.05767 85.7811 2.55688 87.2722 2.39873 87.063C2.42965 87.15 2.4374 87.2436 2.42121 87.3345C2.40502 87.4254 2.36546 87.5104 2.30648 87.5811L2.15492 87.5346L1.6706 89.2615C1.01167 90.4637 1.19287 88.8065 0.352727 90.6198C0.0825624 91.3305 -0.121709 92.7419 0.085857 92.5293C0.217645 92.2603 0.491104 91.8651 0.64266 91.9149L0.438389 92.5791C0.8041 92.8847 1.01825 93.5588 2.00007 92.1707L2.22082 90.9984L2.57994 90.7493L2.18787 91.6493C2.60959 91.2275 2.58653 90.829 2.63265 90.4172C2.80807 90.3592 2.95822 90.2419 3.05767 90.0851L3.12686 88.8597C3.3476 88.8065 3.24217 89.474 3.64742 88.8165C3.68037 88.242 3.06755 89.1154 3.31795 88.2519C3.73638 87.8335 3.82533 88.0527 3.93076 87.3818C4.07902 87.3453 4.08891 87.5047 4.0296 87.7638C4.14162 87.1726 4.60947 86.3324 4.51063 85.9572C4.98506 85.5354 5.25852 84.1373 5.63082 84.3697C5.65797 83.8319 5.76916 83.3018 5.96029 82.7989C6.03278 83.9081 6.81032 80.9857 7.21228 81.4705C7.08378 80.6137 8.09855 78.9998 8.38848 77.7245C8.40522 77.838 8.38681 77.954 8.33576 78.0566C8.56763 77.6428 8.84146 77.2544 9.15285 76.8976C8.83985 76.6518 9.22204 75.5925 9.25169 74.9416C9.95675 74.2774 9.44608 75.6057 9.88756 75.5161C9.58116 75.4264 10.2335 73.9851 9.87109 74.1512C10.3587 73.6298 10.2006 73.6663 10.6486 73.487C10.2566 73.1781 10.8331 72.8792 10.7936 72.2449C11.413 71.4512 11.3109 72.2051 11.6173 71.1623C11.9435 70.7206 11.7062 71.6604 11.7062 71.6604ZM21.4585 48.0252C21.3762 48.2278 21.3037 48.4005 21.2575 48.5101L21.4585 48.0252ZM22.3382 46.0659C22.2196 46.2983 22.0845 46.5972 21.9461 46.9094C21.8275 46.9393 21.7715 46.823 21.8638 46.6271C21.8737 46.7633 22.1306 46.3249 22.3382 46.0659ZM18.714 49.3868C18.8162 49.0547 18.915 48.9817 18.9842 48.9617C18.9216 49.1112 18.8557 49.2938 18.7701 49.5196C18.7701 49.5196 18.7701 49.5562 18.7701 49.5695C18.7398 49.5179 18.7217 49.4599 18.7173 49.4001L18.714 49.3868Z" fill="#343434"/>
<path d="M18.7962 50.1122C18.7859 50.1584 18.7727 50.2039 18.7567 50.2484C18.8066 50.1978 18.8539 50.1446 18.8984 50.089C18.8984 50.0392 18.8753 49.9894 18.8687 49.9429C18.8424 49.9993 18.8193 50.0591 18.7962 50.1122Z" fill="#343434"/>
<path d="M91.1773 49.106V49.0595C91.1765 49.0933 91.1709 49.1269 91.1608 49.1591C91.1647 49.1409 91.1702 49.1232 91.1773 49.106Z" fill="#343434"/>
<path d="M33.0589 43.5633L33.1215 43.5334L32.9865 43.3873L33.0589 43.5633Z" fill="#343434"/>
<path d="M92.8807 60.8654C92.8568 60.9173 92.8466 60.9745 92.851 61.0315C92.8675 61.0215 92.8741 60.9518 92.8807 60.8654Z" fill="#343434"/>
<path d="M94.1557 65.8303L94.2611 66.5543C94.2282 66.2388 94.1919 66.0097 94.1557 65.8303Z" fill="#343434"/>
<path d="M95.1342 69.656C95.1751 69.6805 95.2218 69.6932 95.2693 69.6925L95.1342 69.656Z" fill="#343434"/>
<path d="M83.9132 10.4077C83.9132 10.3905 83.9132 10.3837 83.9132 10.3837C83.9132 10.3837 83.8688 10.4248 83.9132 10.4077Z" fill="#343434"/>
<path d="M86.5779 26.5335C86.496 26.3465 86.4255 26.1546 86.3671 25.9589C86.3868 26.291 86.4198 26.5467 86.5779 26.5335Z" fill="#343434"/>
<path d="M79.4647 21.3428C79.4462 21.3818 79.4297 21.4217 79.4153 21.4623L79.4647 21.3428Z" fill="#343434"/>
<path d="M86.2583 25.0988C86.2466 25.3896 86.2834 25.6803 86.3671 25.9589C86.3605 25.6692 86.3241 25.3809 86.2583 25.0988Z" fill="#343434"/>
<path d="M103.167 84.9224L103.318 85.0552C103.323 85.0477 103.33 85.0419 103.338 85.0384C103.347 85.0348 103.356 85.0338 103.364 85.0353L103.167 84.9224Z" fill="#343434"/>
<path d="M103.364 85.0221C103.43 85.0586 103.493 85.1018 103.562 85.1317C103.476 85.0885 103.411 85.0221 103.364 85.0221Z" fill="#343434"/>
<path d="M104 85.3542L103.562 85.1549C103.687 85.261 103.839 85.33 104 85.3542Z" fill="#343434"/>
<path d="M99.6645 80.7546H99.5426C99.5617 80.7636 99.5825 80.7682 99.6035 80.7682C99.6246 80.7682 99.6454 80.7636 99.6645 80.7546Z" fill="#343434"/>
<path d="M98.8144 79.3765C98.9668 79.8667 99.1805 80.3354 99.4503 80.7713H99.5425C99.2856 80.6152 99.1241 79.6056 98.8144 79.3765Z" fill="#343434"/>
<path d="M97.3878 72.7677C97.5031 73.1895 97.6119 73.6145 97.7404 74.033C97.7634 73.7806 97.7964 73.4518 98.0237 73.9998C97.7799 72.3393 97.9018 74.395 97.3878 72.7677Z" fill="#343434"/>
<path d="M96.3105 68.8125C96.5708 69.4767 96.4587 68.7594 96.5279 68.7793C96.3006 68.3775 96.2446 68.2812 96.3105 68.8125Z" fill="#343434"/>
<path d="M89.698 39.9633L89.9583 39.9932C89.8298 39.4586 89.8594 40.0032 89.698 39.9633Z" fill="#343434"/>
<path d="M87.4905 34.5735L87.4181 35.1281L87.6882 35.344L87.4905 34.5735Z" fill="#343434"/>
<path d="M88.7722 30.9868L88.8447 31.216L88.6173 30.3293L88.7722 30.9868Z" fill="#343434"/>
<path d="M74.9378 25.67L75.2903 25.6467C75.3891 25.2847 75.0992 25.0689 74.9378 25.67Z" fill="#343434"/>
<path d="M65.716 45.0112C65.3729 45.2443 65.1313 45.6007 65.0405 46.0075C65.2868 45.6905 65.5124 45.3577 65.716 45.0112Z" fill="#343434"/>
<path d="M37.6847 47.7179L37.9549 48.0732L37.543 47.3592L37.6847 47.7179Z" fill="#343434"/>
<path d="M37.4804 54.2966C37.4574 54.2601 37.3915 54.2601 37.3816 54.3497L37.4738 54.4361L37.4804 54.2966Z" fill="#343434"/>
<path d="M37.1378 54.818C37.1641 54.9309 37.2201 55.0704 37.3354 55.0339C37.263 54.9077 37.3091 54.8944 37.2168 54.7549C37.2168 54.6653 37.286 54.6154 37.3223 54.6387C37.3025 54.6022 37.3783 54.5125 37.3223 54.4494C37.2673 54.4971 37.227 54.5596 37.206 54.6296C37.185 54.6996 37.1842 54.7742 37.2036 54.8446C37.174 54.8678 37.1542 54.8313 37.1378 54.818Z" fill="#343434"/>
<path d="M33.6059 62.4105L33.6332 62.3865C33.6218 62.3914 33.6122 62.3998 33.6059 62.4105Z" fill="#343434"/>
<path d="M32.9469 60.2013C32.9469 60.2411 32.9667 60.2577 32.9766 60.2577C32.9865 60.2577 32.9469 60.1913 32.9469 60.2013Z" fill="#343434"/>
<path d="M32.9074 59.2747V59.3278C32.9173 59.3045 32.9206 59.2846 32.9074 59.2747Z" fill="#343434"/>
<path d="M33.6059 62.4097L33.5367 62.4528C33.5367 62.5027 33.5663 62.4396 33.6059 62.4097Z" fill="#343434"/>
<path d="M37.0587 56.0301C37.0654 56.0028 37.0654 55.9743 37.0587 55.9471V56.0201V56.0301Z" fill="#343434"/>
<path d="M34.6437 60.447L34.6635 60.4105C34.6571 60.3933 34.6494 60.3766 34.6404 60.3607L34.6437 60.447Z" fill="#343434"/>
<path d="M35.4081 58.8595C35.3883 58.8961 35.4674 58.9459 35.497 58.9791C35.4857 58.9641 35.4779 58.9469 35.4739 58.9285C35.4699 58.9102 35.4699 58.8912 35.4739 58.8728C35.4537 58.8623 35.4308 58.8577 35.4081 58.8595Z" fill="#343434"/>
<path d="M34.0045 61.553C33.9929 61.5483 33.9799 61.5483 33.9683 61.553C33.974 61.5556 33.9802 61.557 33.9864 61.557C33.9927 61.557 33.9989 61.5556 34.0045 61.553Z" fill="#343434"/>
<path d="M16.6547 56.8209H16.6718C16.6718 56.8209 16.6547 56.7935 16.6547 56.8209Z" fill="#343434"/>
<path d="M17.0665 54.7184V54.7483H17.1159L17.0665 54.7184Z" fill="#343434"/>
<path d="M32.1233 57.3651C32.176 57.2688 32.1496 57.312 32.1233 57.3651V57.3651Z" fill="#343434"/>
<path d="M26.6244 58.5939C26.5618 58.7732 26.486 58.3249 26.4267 58.5939C26.4597 58.5673 26.598 58.8131 26.6244 58.5939Z" fill="#343434"/>
<path d="M37.0356 56.0701L37.0126 56.1398C37.0228 56.1175 37.0305 56.0941 37.0356 56.0701Z" fill="#343434"/>
<path d="M29.5666 61.1111C29.5835 61.1178 29.6024 61.1178 29.6193 61.1111C29.6193 61.1111 29.5995 61.1111 29.5666 61.1111Z" fill="#343434"/>
<path d="M31.3325 58.9393L31.2831 58.9891C31.302 58.9752 31.3187 58.9584 31.3325 58.9393Z" fill="#343434"/>
<path d="M28.7297 62.3167C28.7 62.34 28.6836 62.34 28.6572 62.3865H28.6638C28.6662 62.3694 28.6739 62.3535 28.6857 62.341C28.6975 62.3285 28.7129 62.32 28.7297 62.3167Z" fill="#343434"/>
<path d="M27.7051 63.4358H27.738L27.7677 63.3993L27.7051 63.4358Z" fill="#343434"/>
<path d="M17.4388 61.4898C17.4533 61.4549 17.4746 61.4233 17.5014 61.3968C17.4421 61.4433 17.363 61.2208 17.4388 61.4898Z" fill="#343434"/>
<path d="M37.0093 56.0135C37.0179 56.0201 37.0249 56.0286 37.0295 56.0385C37.0341 56.0483 37.0362 56.0591 37.0357 56.07V56.0202C37.0321 56.017 37.0279 56.0148 37.0233 56.0136C37.0187 56.0125 37.0139 56.0125 37.0093 56.0135Z" fill="#343434"/>
<path d="M29.2371 62.8513L29.0625 63.024C29.1248 62.9708 29.1831 62.9131 29.2371 62.8513Z" fill="#343434"/>
<path d="M22.6345 62.8481V62.9045C22.6389 62.886 22.6389 62.8666 22.6345 62.8481Z" fill="#343434"/>
<path d="M28.5814 63.5754C28.531 63.5845 28.4828 63.6037 28.4398 63.6318C28.4398 63.6318 28.4398 63.6584 28.4398 63.6684L28.5814 63.5754Z" fill="#343434"/>
<path d="M16.938 59.8525C16.9808 60.085 17.0764 59.9388 17.1555 59.9721C17.2411 60.2444 17.0929 60.1182 17.05 60.2244C17.1126 60.3938 17.2543 60.5001 17.2774 60.6296C17.2576 60.6296 17.2576 60.6695 17.2246 60.6296C17.363 60.789 17.3466 61.1676 17.5245 61.3469C17.5192 61.3595 17.5113 61.3708 17.5014 61.3801C17.5437 61.3393 17.5981 61.3137 17.6563 61.3071C17.6826 61.41 17.7782 61.4764 17.7123 61.5362C17.7123 61.4731 17.6661 61.4764 17.6332 61.4532L17.6925 61.5495C17.6068 61.6757 17.62 61.4133 17.5376 61.4366C17.6458 61.6194 17.7321 61.8145 17.7946 62.0178C17.6925 62.0809 17.6563 61.6558 17.6167 61.8949L17.5937 61.6392C17.4718 61.8716 17.5673 61.4831 17.4289 61.7056C17.4816 62.0377 17.5838 62.0377 17.6464 62.3897C17.7254 62.4428 17.7254 62.3366 17.8078 62.3897C18.045 62.8115 17.6497 62.8314 17.8968 63.1236C17.9956 63.1867 18.1406 63.1735 18.1472 63.4325L18.0022 63.3926C18.0944 63.7081 18.2361 63.5089 18.2691 63.8576C18.2032 63.8177 18.1439 63.6317 18.1472 63.6849C18.1274 63.924 18.2658 63.8044 18.3251 63.9638L18.2328 64.0369C18.3646 64.369 18.5887 64.6812 18.7501 65.0332C18.7106 65.0332 18.6513 64.9801 18.6578 65.0764C18.7801 65.2974 18.8837 65.5285 18.9675 65.7671C19.0137 65.8867 19.0565 66.0095 19.096 66.1291L19.1257 66.2188C19.1257 66.252 19.1257 66.2653 19.1652 66.325C19.2048 66.3848 19.241 66.5276 19.2871 66.6272C19.3516 66.6931 19.4198 66.7552 19.4914 66.8132C19.521 66.8763 19.5276 66.9793 19.4914 66.9295C19.6199 67.2615 19.5309 66.873 19.6166 66.956C19.6924 67.0889 19.6957 67.2317 19.6331 67.1752C19.7056 67.2682 19.7879 67.3811 19.8703 67.5073C19.9098 67.5671 19.9527 67.6269 19.9922 67.6899L20.0087 67.7132C20.0087 67.7132 20.0087 67.6933 20.0087 67.6866L20.0383 67.6169L20.1009 67.4807C20.2274 67.1861 20.3877 66.9074 20.5786 66.6505L20.5457 66.7734C20.6351 66.64 20.6884 66.4855 20.7005 66.325V66.2387C20.6988 66.2177 20.6988 66.1966 20.7005 66.1756C20.7169 66.1281 20.7453 66.0858 20.7829 66.0527V66.1025C21.0794 65.621 21.2936 65.0299 21.6231 64.7177C21.5374 64.5782 21.9525 64.2528 21.7812 64.1299C21.9688 63.9845 22.1342 63.8122 22.2721 63.6185C22.338 63.5155 22.2491 63.3993 22.3018 63.2565L22.394 63.303V63.0705L22.5522 63.034L22.595 62.8978C22.562 62.9443 22.4995 62.9808 22.4764 62.9609C22.539 62.7451 22.7861 62.5192 22.8355 62.5392L23.0035 62.041C23.0332 62.0676 23.0035 62.1539 23.0035 62.227C23.0398 61.9314 23.1189 62.227 23.1551 61.9613C23.1189 61.9812 23.109 61.9181 23.0925 61.9015C23.2421 61.7503 23.3549 61.5661 23.422 61.3635L23.4648 61.4333C23.6592 61.1012 23.814 60.6993 24.015 60.3174C23.9129 60.4403 23.8239 60.3506 23.8733 60.2344H23.9919C23.9689 60.1315 23.8931 60.334 23.8997 60.1447C23.9854 60.0086 24.0578 60.1082 24.0447 60.2045L24.104 60.0152C24.1369 60.0152 24.1303 60.0684 24.1633 60.0983C24.1402 59.9953 24.4137 59.8492 24.3675 59.6931H24.4005C24.6015 59.3112 24.6608 59.1219 24.8189 58.8064C24.7398 58.7566 24.8189 58.647 24.8189 58.5175C24.997 58.2921 25.1578 58.0534 25.2999 57.8035C25.3625 57.5876 25.2604 57.7105 25.2571 57.5976C25.2999 57.5976 25.3559 57.5478 25.3955 57.5013C25.435 57.4548 25.4383 57.5013 25.4548 57.5212C25.4548 57.4747 25.4811 57.4448 25.4943 57.3983L25.5602 57.136C25.5602 57.0828 25.5306 57.0828 25.5372 57.0131C25.5437 56.9433 25.5866 56.9932 25.58 57.0928V57.126C25.5886 57.0526 25.6184 56.9833 25.6656 56.9267C25.669 56.9554 25.669 56.9844 25.6656 57.0131V57.1957C25.6656 57.4348 25.6096 57.4913 25.692 57.4448C25.7383 57.4768 25.7758 57.5203 25.8007 57.571C25.8007 57.674 25.7348 57.5411 25.6953 57.6308C25.7164 57.6455 25.7325 57.6663 25.7414 57.6906C25.7572 57.7385 25.7704 57.7873 25.781 57.8367C25.798 57.9277 25.809 58.0198 25.8139 58.1123C25.8161 58.2906 25.845 58.4675 25.8996 58.637C25.6887 58.9691 26.0314 59.6898 25.8996 60.1049L25.9589 60.0783C26.0215 60.178 25.9325 60.2078 25.9259 60.2842C25.9721 60.2842 25.9688 60.168 26.0083 60.2278C26.0939 61.1349 26.0873 62.0485 25.9885 62.9543C25.9885 63.2864 26.2949 63.1402 26.1533 63.5587L26.0281 63.4358C26.0412 63.4984 26.0511 63.5615 26.0577 63.6251C26.0577 63.665 26.0577 63.6716 26.0577 63.738V63.9107C26.0577 64.1432 26.0577 64.3723 26.0577 64.6048C26.0577 65.0697 26.0281 65.5347 26.0116 65.9963C26.2257 65.797 26.4531 65.5546 26.6705 65.3321C26.6281 65.4142 26.5749 65.4901 26.5124 65.5579C26.6652 65.4755 26.7998 65.3625 26.9077 65.2258C27.018 65.1229 27.1065 64.9987 27.168 64.8605C27.2932 64.7476 27.2076 64.9037 27.2965 64.8605C27.5008 64.7343 27.7281 64.2959 27.7841 64.3491C27.8039 64.3491 27.7841 64.3956 27.7611 64.4188C27.7973 64.3258 28.0708 64.1199 27.9423 64.1199C28.1466 63.9705 28.2454 63.748 28.42 63.6384C28.42 63.4723 28.7495 63.3594 28.6704 63.2299C28.766 63.3461 29.0493 62.9842 29.102 62.8214C29.102 62.8912 29.2272 62.7484 29.2338 62.8214C29.3524 62.6853 29.4381 62.5425 29.359 62.5159C29.7148 62.3797 29.6885 61.9115 29.9751 61.9148C30.2552 61.4499 30.5154 61.0248 30.7757 60.6196C30.8844 60.7226 30.4693 61.0547 30.6011 61.1311C30.7654 60.7723 30.9664 60.4317 31.2007 60.1149C31.2864 60.0318 31.2007 60.2078 31.2007 60.2543C31.3119 60.0614 31.434 59.8751 31.5664 59.6964C31.6257 59.6101 31.685 59.5237 31.7411 59.4341C31.7971 59.3444 31.7938 59.3444 31.8168 59.2979L31.8531 59.2282C31.8544 59.216 31.8544 59.2038 31.8531 59.1916C31.8531 59.2082 31.8761 59.2149 31.8531 59.2514C31.8761 59.2082 31.9025 59.2149 31.8531 59.1584V59.1983C31.8004 59.1983 31.7773 59.1285 31.7839 59.0355C31.7905 58.9426 31.8267 58.8197 31.8201 58.7798C31.8498 59.0854 31.9849 58.6204 31.9684 59.0887C31.9764 59.0292 31.9764 58.9689 31.9684 58.9093C31.9915 58.9093 31.9915 58.9426 31.9684 59.0555C31.9905 58.9277 32.027 58.8029 32.0771 58.6835V58.7134L32.0376 58.9093L32.0639 58.8064C32.0639 58.7566 32.0837 58.74 32.0936 58.7333C32.0972 58.7318 32.1012 58.731 32.1051 58.731C32.1091 58.731 32.113 58.7318 32.1167 58.7333C32.1331 58.7333 32.1496 58.7765 32.1562 58.8429C32.1628 58.9093 32.1298 58.926 32.1232 58.8994C32.1661 59.0189 32.3374 59.009 32.3605 59.4141C32.1957 59.3278 32.344 59.5603 32.2254 59.6034L32.3012 59.8093L32.344 59.713C32.3769 59.899 32.489 60.0451 32.4758 60.2211L32.4033 60.0883C32.4296 60.2045 32.456 60.3208 32.4758 60.4204L32.4955 60.2145C32.5845 60.3971 32.6471 60.1713 32.6471 60.4303C32.6273 60.3805 32.6735 60.6196 32.6076 60.7292C32.6727 60.8267 32.7008 60.9446 32.6866 61.0613C32.6504 61.1012 32.5516 61.0447 32.5252 61.0613C32.6372 61.1477 32.5845 61.503 32.6965 61.6192C32.6843 61.6037 32.6674 61.5927 32.6483 61.5879C32.6292 61.583 32.6091 61.5847 32.5911 61.5927L32.68 61.6691C32.657 61.7587 32.6438 61.772 32.5911 61.7587C32.5911 62.0244 32.7459 61.6691 32.6833 61.9879C32.6833 61.9613 32.6636 61.9879 32.6504 61.9248C32.6504 61.9646 32.6504 61.9978 32.6504 62.0477V62.2037C32.6504 62.3067 32.6504 62.4063 32.6504 62.5026C32.661 62.7035 32.651 62.9049 32.6207 63.1037C32.4692 63.4358 32.6207 62.7716 32.4857 63.0705C32.4857 63.3395 32.4659 63.6185 32.4857 63.8277C32.4956 64.0246 32.4956 64.2219 32.4857 64.4188C32.4969 64.4231 32.5071 64.4299 32.5153 64.4387V64.4587C32.5293 64.4439 32.5425 64.4284 32.5548 64.4122C32.5548 64.4122 32.5186 64.4587 32.5252 64.4122C32.5525 64.3265 32.5889 64.2441 32.6339 64.1664C32.6603 64.1299 32.6735 64.1332 32.6932 64.1365C32.713 64.1399 32.7888 64.1365 32.8942 63.9207C32.8531 64.0041 32.8221 64.0921 32.8019 64.183C33.0944 63.7802 33.3534 63.3536 33.5762 62.9078L33.5498 63.024C33.6849 62.8945 33.8793 62.5657 34.0276 62.3764C34.0276 62.3034 34.0803 62.2203 33.9913 62.2369C34.502 61.9049 34.4229 61.2639 34.8414 60.9351C34.815 60.9883 34.8084 61.0779 34.8414 61.0381L35.0061 60.6495C34.9237 60.6495 34.9402 60.6761 34.8447 60.7226C34.8364 60.6257 34.8571 60.5286 34.904 60.4436C34.8611 60.6362 35.0127 60.5001 35.0885 60.4436C35.0621 60.4436 35.0489 60.4071 35.0259 60.4038C35.2466 60.2709 34.9073 60.3008 35.1247 60.0717L35.1544 60.1049C35.1721 59.9909 35.2031 59.8795 35.2466 59.7728C35.3487 59.7728 35.2466 59.899 35.2927 59.9388C35.3619 59.7828 35.2927 59.5636 35.4344 59.4639C35.4344 59.5403 35.3817 59.6333 35.3718 59.7097C35.4689 59.6559 35.5463 59.5721 35.5926 59.4706L35.7573 59.2282L35.7013 59.2846C35.5794 58.9924 35.8462 58.8728 35.8199 58.5474C35.8429 58.8595 35.8759 58.6237 35.9583 58.6835C36.0143 58.6271 36.0868 58.5374 36.0999 58.5773C36.0769 58.4212 36.2449 58.3913 36.212 58.1688C36.2449 58.1688 36.268 58.0359 36.3339 58.0957C36.3734 57.9197 36.2647 58.1123 36.2317 58.0957C36.2317 57.8035 36.5941 57.5511 36.5843 57.1293C36.6436 56.7972 36.5579 56.6943 36.604 56.3821C36.6864 56.2991 36.6897 56.5017 36.6897 56.5017C36.7784 56.3737 36.8287 56.2226 36.8347 56.0666C36.8347 56.1065 36.8841 56.0832 36.9302 56.0467C36.9631 55.9205 36.8445 55.9305 36.9302 55.781C36.9686 55.8294 36.9977 55.8846 37.0159 55.9437C37.0159 55.7877 37.0159 55.6282 37.0356 55.4688C37.1015 55.4456 37.0916 55.5851 37.1114 55.6482C37.1378 55.4722 37.1872 55.1932 37.1114 55.1168L37.0488 55.2165C37.0488 55.1534 37.1312 55.2164 37.1345 55.2563C37.1608 55.4223 37.0455 55.4589 37.0126 55.4556V55.3426C36.8017 55.4024 36.917 55.781 36.8379 56.0068L36.7358 55.8773L36.7753 56.1297C36.7259 56.1662 36.6436 56.1729 36.6567 56.0633C36.5447 56.1928 36.6567 56.2127 36.5447 56.319H36.525V56.4817C36.525 56.4419 36.4261 56.4817 36.4755 56.3887C36.3108 56.6279 36.4294 56.8504 36.2943 56.9168V56.8902C36.2054 57.2721 36.3767 56.96 36.3866 57.2754L36.0868 57.3718L36.1691 57.4448C36.1494 57.4813 36.1131 57.5511 36.0802 57.5245C36.0802 57.6872 36.1329 57.5245 36.1592 57.6208C36.0044 57.7669 36.0077 58.1356 35.8298 58.1123C35.8726 58.2053 35.955 57.9629 35.9253 58.1754C35.7408 58.1754 35.8594 58.4046 35.7178 58.5374C35.6552 58.4511 35.7639 58.3182 35.6222 58.4477C35.721 58.6071 35.4575 58.7499 35.4212 58.8961C35.5267 58.9492 35.3389 59.2282 35.2631 59.4507C35.2334 59.4208 35.0061 59.8492 34.8578 60.0318V60.0152C34.9468 60.1115 34.8183 60.3141 34.759 60.4802C34.6997 60.4403 34.6865 60.3971 34.703 60.3008L34.6272 60.4436C34.6427 60.5136 34.6322 60.5869 34.5976 60.6495L34.5383 60.5698C34.4714 60.8015 34.3668 61.0204 34.2285 61.2174C34.2944 61.2772 34.558 61.1444 34.446 61.43C34.3999 61.43 34.3274 61.3868 34.3505 61.3104C34.3454 61.3593 34.3259 61.4056 34.2944 61.4432V61.3004C34.2022 61.3934 34.3175 61.3901 34.2582 61.4764C34.2055 61.4399 34.1824 61.5163 34.1429 61.4764C34.1429 61.4499 34.2121 61.41 34.2088 61.3635C34.1534 61.4554 34.0719 61.5283 33.9749 61.5728C34.0111 61.5728 34.0473 61.6192 34.0111 61.6923C33.9024 61.8816 33.9057 61.7156 33.8134 61.8052C33.8134 61.875 33.7113 61.9679 33.7904 62.0244C33.7574 62.0775 33.7146 62.0643 33.6783 62.0709C33.6577 62.1378 33.6301 62.2024 33.596 62.2635C33.5696 62.3233 33.5498 62.3897 33.596 62.403V62.4196C33.5496 62.5702 33.4657 62.7063 33.3522 62.8148C33.2558 62.8978 33.1754 62.998 33.1149 63.1104L33.1347 63.0207C33.0787 63.1336 33.0227 63.2199 32.9634 63.3196C32.9041 63.4192 32.9008 63.4358 32.8711 63.4856L32.8448 63.5354C32.8356 63.5428 32.8278 63.5518 32.8217 63.562C32.8323 63.5104 32.8455 63.4594 32.8613 63.4092C32.8853 63.32 32.915 63.2323 32.9502 63.1469C32.9502 63.117 32.8975 63.1801 32.97 62.8812C33.0227 62.8513 33.0293 62.7251 33.0062 62.8812C33.0491 62.6653 33.1051 62.569 33.0062 62.5923C33.0919 62.486 33.1215 62.3432 33.0985 62.3333C33.0754 62.3797 33.0556 62.4329 33.0326 62.4927C33.0231 62.4299 33.0231 62.3661 33.0326 62.3034C33.0711 62.2813 33.1075 62.2558 33.1413 62.227C33.1775 62.1539 33.1808 62.1274 33.1677 62.1008C33.1377 62.0521 33.1175 61.9979 33.1084 61.9414C33.0702 61.8558 33.0504 61.7629 33.0504 61.6691C33.0504 61.5752 33.0702 61.4824 33.1084 61.3967C33.026 61.2805 33.0655 61.6458 32.97 61.5429C33.0025 61.3708 33.05 61.2019 33.1117 61.0381C33.1479 60.7425 32.9304 60.7857 32.937 60.4802C32.9041 60.5233 32.8052 60.5731 32.7394 60.3573C32.7394 60.1514 32.8645 60.0816 32.9173 60.2078C32.9173 60.2577 32.9173 60.2809 32.9173 60.2809C32.9403 60.3473 32.9667 60.4337 32.9996 60.344L32.9568 60.3241C32.9865 60.2145 32.9337 59.9289 33.0095 59.992C32.9469 59.8392 32.9337 59.9355 32.9337 60.0551C32.9224 59.821 32.8948 59.5879 32.8514 59.3577C32.8514 59.4042 32.8019 59.454 32.7921 59.4108C32.7921 59.2116 32.7459 59.1651 32.7097 59.1252C32.6735 59.0854 32.6405 59.092 32.5911 58.926C32.5911 58.6868 32.7295 58.906 32.5911 58.5607C32.5581 58.285 32.6537 58.3913 32.7097 58.4776C32.6303 58.3048 32.576 58.1214 32.5483 57.933C32.5153 57.7371 32.489 57.5212 32.456 57.385L32.5384 57.5577C32.4915 57.4498 32.4519 57.3389 32.4198 57.2256V57.5079C32.3876 57.4002 32.371 57.2883 32.3703 57.1758C32.3407 57.1758 32.3341 57.2655 32.3242 57.3485C32.3199 57.3846 32.3122 57.4202 32.3012 57.4548C32.2962 57.4648 32.2895 57.4738 32.2814 57.4813C32.2814 57.4813 32.2616 57.4813 32.2484 57.5013C32.1694 57.561 32.0079 57.9562 31.9849 57.8068C32.1167 57.6275 32.1134 57.5876 32.1068 57.5378C32.1002 57.488 32.0804 57.4415 32.2155 57.2057C32.1659 57.311 32.1027 57.4093 32.0277 57.4979C32.0277 57.4979 32.0277 57.4382 32.0606 57.3917C31.7312 57.7238 31.9223 57.8367 31.6455 58.2618C31.662 58.1256 31.5302 58.2319 31.4808 58.3315C31.6126 58.1322 31.5796 58.3614 31.5071 58.5573C31.4052 58.6786 31.325 58.8168 31.2699 58.9658C31.2996 58.9359 31.3259 58.9094 31.3688 58.8595C31.3688 58.9592 31.3226 59.0156 31.2534 59.1518C31.2106 59.1352 31.2996 59.0256 31.2534 59.0588C31.2534 59.2448 30.9668 59.2879 30.8976 59.5071C30.8054 59.5669 30.8021 59.4507 30.7296 59.5071C30.6505 59.7529 30.5121 59.6765 30.4001 59.9189C30.5088 59.9189 30.499 59.8857 30.4561 60.075L30.6571 59.7031L30.5912 59.9887C30.667 59.8857 30.7098 59.7429 30.7658 59.6865C30.7428 59.8293 30.7329 59.8093 30.8218 59.796C30.6242 59.8691 30.6736 60.1281 30.4924 60.2344L30.3408 60.1115C30.0904 60.3008 30.1003 60.6064 29.817 60.8853L29.9817 60.779C30.0081 60.8687 29.84 60.9783 29.784 61.1111C29.7412 61.0613 29.672 61.1111 29.6061 61.1111C29.6489 61.1377 29.4216 61.3303 29.5007 61.4432L29.3228 61.5229C29.0921 61.7454 29.2338 61.9248 29.0163 62.1406C29.0163 62.0244 28.8977 62.1008 28.9933 61.9115C28.9274 61.9912 28.8582 62.051 28.8912 62.0809C28.822 62.1008 28.7725 62.3532 28.6638 62.3831C28.6638 62.4362 28.6968 62.4893 28.6177 62.5724C28.6121 62.5724 28.6067 62.5704 28.6024 62.5668C28.5982 62.5631 28.5954 62.558 28.5946 62.5524C28.6177 62.5724 28.5057 62.7152 28.6276 62.6886C28.2685 62.7849 28.0444 63.3528 27.7248 63.4258C27.5897 63.6052 27.3954 63.8111 27.2768 63.9572C27.2768 63.934 27.2537 63.934 27.2768 63.9107C27.1779 63.9672 27.2076 64.0037 27.201 64.0768C27.201 64.1189 27.1892 64.1603 27.1671 64.1961C27.145 64.2319 27.1133 64.2607 27.0758 64.2793C26.9835 64.2196 27.1516 64.1233 27.0955 64.1233C27.0626 64.0037 27.0428 64.0336 27 64.1C26.9572 64.1664 26.8847 64.2793 26.888 64.1897L26.911 64.1498C26.911 64.1199 26.911 64.1332 26.8649 64.1731C26.8188 64.2129 26.7924 64.2959 26.7595 64.3325C26.7265 64.369 26.7265 64.3325 26.7331 64.2561C26.7455 64.237 26.7566 64.217 26.7661 64.1963C26.6573 64.3125 26.6244 64.0768 26.598 63.8808C26.6804 63.9074 26.6409 63.9406 26.7298 63.8808C26.7298 63.8111 26.5915 63.9804 26.5684 63.7878C26.6145 63.7314 26.6574 63.552 26.7463 63.5321V63.7413C26.8649 63.655 26.7463 63.4624 26.7661 63.3528H26.8188C26.799 63.0207 26.6705 63.0207 26.6738 62.6487L26.6376 62.6886C26.5025 62.4927 26.7035 62.5192 26.6046 62.3266L26.7331 62.2635C26.663 62.0376 26.6047 61.8082 26.5585 61.5761C26.6562 61.7553 26.7315 61.946 26.7825 62.144C26.7885 61.9709 26.757 61.7987 26.6903 61.6392C26.6903 61.6923 26.7397 61.7554 26.7199 61.8085C26.6056 61.623 26.5441 61.4093 26.542 61.1908C26.799 61.2207 26.5684 60.5267 26.7463 60.3141C26.6178 59.8658 26.7134 59.4042 26.6376 58.8728C26.463 59.082 26.6145 58.7167 26.4201 58.7732C26.3938 58.6536 26.3905 58.6038 26.4004 58.5939L26.4761 58.2053C26.5223 58.109 26.5354 58.3149 26.5783 58.2983C26.5585 58.026 26.6475 58.1754 26.6771 57.9894C26.6112 58.0359 26.5618 57.9064 26.5684 57.7503L26.5058 57.9795C26.479 57.9241 26.4651 57.8634 26.4651 57.8018C26.4651 57.7402 26.479 57.6795 26.5058 57.6241C26.5156 57.5996 26.5222 57.574 26.5256 57.5478C26.529 57.5069 26.529 57.4658 26.5256 57.4249C26.5148 57.3113 26.4893 57.1997 26.4498 57.0928L26.542 57.2622C26.4959 57.0994 26.4531 56.8039 26.3872 56.505C26.3213 56.2061 26.2389 55.9305 26.1599 55.9371C26.1599 55.8408 26.1862 55.6515 26.2225 55.771C26.193 55.5707 26.1523 55.3723 26.1005 55.1766L26.0314 54.9209L26.0149 54.8644C26.0149 54.8644 26.0149 54.8312 26.0149 54.8478L25.9951 54.891L25.916 55.0637C25.7861 55.4021 25.6157 55.7233 25.4087 56.0201L25.4284 55.8773C25.3592 56.04 25.3329 56.2592 25.234 56.3389C25.234 56.3024 25.234 56.2161 25.211 56.2725C25.1531 56.4791 25.0701 56.6776 24.9639 56.8636L25.0067 56.6644C24.9112 56.8171 24.8254 56.9757 24.7497 57.1393C24.7144 57.226 24.6879 57.3161 24.6707 57.4083C24.643 57.5815 24.5989 57.7517 24.5389 57.9164C24.4104 57.85 24.2094 58.1422 24.0974 58.2883C23.8951 58.7156 23.7308 59.1602 23.6065 59.6167C23.3264 59.8093 23.0694 60.4968 22.763 60.8853C22.8223 60.8322 22.8586 60.9517 22.8322 61.0348C22.7531 61.1211 22.7729 61.3669 22.6642 61.2838L22.684 61.2473C22.5291 61.2639 22.45 61.4864 22.3545 61.6491L22.4929 61.7587C22.0481 62.0643 21.9888 62.9177 21.6659 63.0439C21.6659 63.1668 21.5835 63.293 21.5703 63.4159L21.488 63.3661C21.328 63.5995 21.1859 63.8448 21.063 64.1L21.0399 63.9971C20.9312 64.193 21.1453 64.3756 21.0399 64.5616H20.8883C20.7104 64.8937 20.4172 65.1992 20.348 65.6011C20.3323 65.5897 20.3215 65.5727 20.3178 65.5536C20.3142 65.5344 20.3179 65.5146 20.3282 65.4981C20.2821 65.5811 20.18 65.7273 20.1108 65.8568C20.0416 65.9863 20.0811 65.9298 20.0877 65.9531C20.1054 65.984 20.1289 66.0111 20.1569 66.0328C20.1075 65.9929 20.0943 66.0062 20.0877 66.0627C20.0811 66.1191 20.0877 66.2254 20.0548 66.3184V66.149C20.0611 66.2486 20.0611 66.3484 20.0548 66.4479C20.0548 66.4878 20.0548 66.5243 20.0317 66.5641C20.0087 66.604 20.0087 66.5641 19.9889 66.5442C19.9691 66.5243 19.9889 66.3782 19.9889 66.4579C19.9527 66.2819 19.9263 66.5343 19.8736 66.3217C19.8911 66.3113 19.9068 66.2978 19.9197 66.2819C19.8769 66.1822 19.8703 66.2387 19.7945 66.242C19.7562 66.1967 19.732 66.1411 19.725 66.082C19.718 66.0229 19.7284 65.963 19.755 65.9099C19.7077 65.9012 19.664 65.8786 19.6294 65.8449C19.5948 65.8112 19.5709 65.768 19.5606 65.7206C19.5804 65.6941 19.6166 65.7206 19.6364 65.7406C19.5441 65.4085 19.3333 65.3288 19.3069 65.0764C19.3175 65.0706 19.3263 65.062 19.3321 65.0514C19.3379 65.0408 19.3406 65.0287 19.3398 65.0166C19.4453 65.2623 19.5276 65.4616 19.5145 65.445C19.5902 65.4085 19.5145 65.2059 19.6924 65.3121C19.5134 65.1655 19.3722 64.9775 19.2805 64.7642C19.278 64.751 19.278 64.7375 19.2805 64.7243C19.2704 64.6806 19.2488 64.6405 19.2179 64.6081C19.2118 64.5502 19.1985 64.4933 19.1784 64.4387C19.2344 64.3889 19.1224 64.1963 19.0862 64.1066C19.0038 64.1465 18.9642 64.0137 18.9412 64.1631C18.9412 64.1432 18.961 64.1631 18.9906 64.2428C18.9966 64.2568 19.0056 64.2693 19.017 64.2793C19.0466 64.3457 19.0829 64.4288 19.1224 64.5251C19.0785 64.498 19.0424 64.4599 19.0175 64.4145C18.9927 64.3691 18.98 64.3179 18.9807 64.266C18.9144 64.2422 18.8495 64.2145 18.7863 64.183C18.8522 64.0004 18.8259 63.7081 18.8852 63.645C18.7204 63.3561 18.6018 62.931 18.3712 62.7882C18.3218 62.7052 18.3712 62.6687 18.4009 62.6288C18.4338 62.6753 18.4503 62.7351 18.4832 62.755C18.3811 62.5956 18.3053 62.2336 18.1768 62.227C18.1768 61.9846 18.3218 62.32 18.2131 62.0178L18.2592 62.0477C18.2757 61.3835 17.6892 61.1277 17.7782 60.3872C17.7782 60.437 17.7782 60.4636 17.7551 60.4768C17.6958 59.6698 17.3367 58.8629 17.4256 58.0492C17.4256 57.8201 17.3564 57.8035 17.284 57.674L17.3762 57.6142L17.2411 57.3917C17.1225 57.0596 17.4421 56.7972 17.2411 56.3954L17.1785 56.4518C17.1785 56.3024 17.1225 55.9736 17.1983 55.9969C17.1983 55.9803 17.1258 55.9471 17.1588 55.8873H17.2115L17.1126 55.5153C17.1522 55.2264 17.3202 55.5585 17.3301 55.1401C17.3136 54.984 17.1818 54.6917 17.1456 54.7515C17.1093 54.8113 17.1126 54.9109 17.0632 54.9142L17.0369 54.7714C16.882 54.7416 16.7272 54.6253 16.6151 54.984L16.7107 55.2364L16.6349 55.3161V55.1035C16.5624 55.2231 16.6349 55.2995 16.6678 55.3858C16.6474 55.3966 16.6294 55.4116 16.6152 55.4299C16.601 55.4483 16.5909 55.4695 16.5855 55.4921L16.737 55.7345C16.6777 55.7677 16.6151 55.6283 16.5855 55.7943C16.658 55.9072 16.7173 55.6814 16.7667 55.8707C16.7008 55.9902 16.6415 55.957 16.7074 56.0965C16.6678 56.1164 16.6415 56.0965 16.6217 56.0334C16.6744 56.1563 16.6514 56.3655 16.737 56.4253C16.658 56.5548 16.7865 56.847 16.6382 56.8437C16.7111 56.9414 16.7597 57.0553 16.7799 57.1758C16.5888 56.9799 16.8095 57.6075 16.6184 57.5677C16.7865 57.7105 16.7403 58.1223 16.8655 58.3846C16.8655 58.3846 16.8227 58.3448 16.826 58.3215C16.8252 58.4264 16.8086 58.5306 16.7766 58.6304C16.9051 58.6304 16.9644 58.8695 17.0665 58.9857C16.9743 59.1916 16.8985 58.8927 16.7898 58.9857C16.8919 58.9625 16.9446 59.2979 17.0204 59.2215C16.9677 59.3743 17.0204 59.351 16.9084 59.4407C17.0731 59.4407 16.9545 59.5702 17.0764 59.6732C17.0369 59.8924 16.938 59.7529 17.0303 59.9721C17.0336 60.0418 16.938 59.8525 16.938 59.8525ZM18.7797 65.0365L18.7303 64.9336L18.7797 65.0365ZM18.9642 65.455C18.9445 65.4051 18.9181 65.3387 18.8885 65.2723C18.8934 65.2658 18.9001 65.2608 18.9077 65.258C18.9154 65.2552 18.9236 65.2546 18.9316 65.2563C18.9395 65.2581 18.9468 65.2621 18.9526 65.2678C18.9584 65.2736 18.9624 65.2809 18.9642 65.2889C18.9346 65.2756 18.961 65.3819 18.9642 65.455ZM19.1817 64.3192C19.2212 64.379 19.2146 64.4088 19.1982 64.4255C19.1815 64.3868 19.1628 64.3491 19.1422 64.3125C19.1557 64.3119 19.1691 64.3142 19.1817 64.3192Z" fill="#343434"/>
<path d="M19.0236 64.2462C19.0236 64.2462 19.0236 64.2462 19.0071 64.2197C19.0057 64.2351 19.0057 64.2507 19.0071 64.2662H19.0433L19.0236 64.2462Z" fill="#343434"/>
<path d="M22.4368 63.3196L22.4171 63.3096V63.3528L22.4368 63.3196Z" fill="#343434"/>
<path d="M35.128 60.447C35.1417 60.4461 35.1546 60.4402 35.1643 60.4304C35.1643 60.4304 35.1445 60.447 35.128 60.447Z" fill="#343434"/>
<path d="M35.6321 59.4773L35.7276 59.3511C35.6922 59.3903 35.6602 59.4325 35.6321 59.4773Z" fill="#343434"/>
<path d="M36.0209 58.73C36.0117 58.7182 36.0006 58.708 35.9879 58.7001L36.0209 58.73Z" fill="#343434"/>
<path d="M31.8794 59.2415C31.8727 59.2507 31.8672 59.2608 31.8629 59.2714C31.8366 59.3445 31.8597 59.298 31.8794 59.2415Z" fill="#343434"/>
<path d="M32.657 60.716C32.635 60.6778 32.6163 60.6378 32.601 60.5964C32.6175 60.6662 32.6175 60.7193 32.657 60.716Z" fill="#343434"/>
<path d="M29.2576 62.8314H29.2542L29.2371 62.852L29.2576 62.8314Z" fill="#343434"/>
<path d="M32.5779 60.4171C32.569 60.4778 32.577 60.5399 32.601 60.5964C32.6047 60.5357 32.5969 60.4748 32.5779 60.4171Z" fill="#343434"/>
<path d="M37.2827 55.2662V55.2197C37.2794 55.2396 37.2761 55.2562 37.2827 55.2662Z" fill="#343434"/>
<path d="M37.2893 55.1335V55.2332C37.2967 55.2176 37.3005 55.2006 37.3005 55.1834C37.3005 55.1661 37.2967 55.1491 37.2893 55.1335Z" fill="#343434"/>
<path d="M36.917 56.3656L36.9467 56.3888C36.9397 56.3779 36.9293 56.3697 36.917 56.3656Z" fill="#343434"/>
<path d="M36.8182 56.6876C36.8511 56.6145 36.95 56.5216 36.9664 56.4053L36.9467 56.3887C36.9763 56.4618 36.7885 56.5979 36.8182 56.6876Z" fill="#343434"/>
<path d="M35.9418 57.8567L36.0703 57.6076C36.0176 57.6375 35.9517 57.6806 35.9879 57.5611C35.7606 57.8467 36.0901 57.5212 35.9418 57.8567Z" fill="#343434"/>
<path d="M35.5629 58.6338C35.6057 58.491 35.5135 58.6139 35.497 58.5973C35.4904 58.6969 35.4871 58.7235 35.5629 58.6338Z" fill="#343434"/>
<path d="M33.0326 62.9776L33.1281 62.7285C33.0893 62.8086 33.0573 62.892 33.0326 62.9776Z" fill="#343434"/>
<path d="M32.6372 62.589L32.5714 62.8115C32.5964 62.8164 32.6221 62.8164 32.6471 62.8115L32.6372 62.589Z" fill="#343434"/>
<path d="M33.2401 61.6891L33.2533 61.7422L33.2138 61.543L33.2401 61.6891Z" fill="#343434"/>
<path d="M27.8336 63.1834L27.9324 63.2299C27.9719 63.1601 27.8962 63.0671 27.8336 63.1834Z" fill="#343434"/>
<path d="M26.7562 62.692C26.7863 62.6567 26.8052 62.6132 26.8105 62.567C26.8157 62.5209 26.8072 62.4741 26.7859 62.4329C26.7691 62.5183 26.7592 62.6049 26.7562 62.692Z" fill="#343434"/>
<path d="M22.2656 61.855L22.2787 61.7587L22.2227 61.9248L22.2656 61.855Z" fill="#343434"/>
<path d="M89.016 39.9235C89.016 39.8836 88.9336 39.877 88.9139 39.9667L88.9929 40.0696L89.016 39.9235Z" fill="#343434"/>
<path d="M88.6042 40.4249C88.6042 40.5445 88.647 40.6973 88.7656 40.6707C88.7129 40.5312 88.7656 40.5246 88.6931 40.3685C88.7129 40.2788 88.7854 40.2357 88.815 40.2622C88.815 40.2224 88.8908 40.1393 88.8447 40.0663C88.7837 40.1101 88.7353 40.1695 88.7046 40.2383C88.674 40.3072 88.662 40.3831 88.6701 40.4582C88.6272 40.4814 88.6272 40.4415 88.6042 40.4249Z" fill="#343434"/>
<path d="M86.5318 40.5213L86.5582 40.4714C86.5468 40.4865 86.5379 40.5033 86.5318 40.5213Z" fill="#343434"/>
<path d="M85.0393 45.8348C85.0393 45.7916 85.0393 45.7717 85.0393 45.7684C85.0393 45.765 85.0261 45.8348 85.0393 45.8348Z" fill="#343434"/>
<path d="M84.6736 46.7048L84.6966 46.655C84.6893 46.661 84.6834 46.6686 84.6794 46.6773C84.6755 46.6859 84.6735 46.6953 84.6736 46.7048Z" fill="#343434"/>
<path d="M86.5318 40.5213L86.4593 40.6541C86.4923 40.6608 86.5054 40.5778 86.5318 40.5213Z" fill="#343434"/>
<path d="M88.3142 41.6603C88.3187 41.6328 88.3187 41.6048 88.3142 41.5773C88.3142 41.6005 88.3142 41.6238 88.2879 41.6503L88.3142 41.6603Z" fill="#343434"/>
<path d="M86.5582 41.7135V41.7567C86.5696 41.7716 86.5829 41.785 86.5977 41.7965L86.5582 41.7135Z" fill="#343434"/>
<path d="M86.568 43.0916C86.568 43.0651 86.4857 43.2112 86.4494 43.261C86.4857 43.2178 86.5054 43.2079 86.5153 43.2178L86.568 43.0916Z" fill="#343434"/>
<path d="M87.7838 41.8497L87.8003 41.7999L87.7838 41.8497Z" fill="#343434"/>
<path d="M86.8942 40.4814H86.9338C86.921 40.4766 86.907 40.4766 86.8942 40.4814Z" fill="#343434"/>
<path d="M69.5872 42.826V42.8559C69.6035 42.8591 69.6203 42.8591 69.6366 42.8559L69.5872 42.826Z" fill="#343434"/>
<path d="M84.1168 48.3421C84.1201 48.289 84.1168 48.3122 84.1168 48.3421V48.3421Z" fill="#343434"/>
<path d="M80.1895 42.6566C80.3608 42.557 80.1071 42.9555 80.3378 42.7894C80.2949 42.7894 80.3608 42.5138 80.1895 42.6566Z" fill="#343434"/>
<path d="M88.2978 41.7003L88.2615 41.77C88.2761 41.7482 88.2882 41.7248 88.2978 41.7003Z" fill="#343434"/>
<path d="M80.3378 42.79L80.3617 42.7728L80.3378 42.79Z" fill="#343434"/>
<path d="M83.8664 48.9565L83.8466 49.0595C83.8499 49.0429 83.8532 49.0196 83.8664 48.9565Z" fill="#343434"/>
<path d="M84.1201 49.0428V49.0599C84.1201 49.0599 84.1167 49.0531 84.1201 49.0428Z" fill="#343434"/>
<path d="M83.6193 48.299C83.6299 48.2643 83.6299 48.2273 83.6193 48.1927V48.2093C83.6262 48.2232 83.6299 48.2386 83.6299 48.2541C83.6299 48.2697 83.6262 48.2851 83.6193 48.299Z" fill="#343434"/>
<path d="M83.3557 46.7216C83.3544 46.7326 83.3544 46.7437 83.3557 46.7548V46.8046V46.7216Z" fill="#343434"/>
<path d="M69.4818 49.8964C69.5007 49.8645 69.5253 49.8364 69.5543 49.8134C69.4917 49.8466 69.4357 49.6141 69.4818 49.8964Z" fill="#343434"/>
<path d="M88.2681 41.6371C88.2736 41.6467 88.2765 41.6576 88.2765 41.6687C88.2765 41.6797 88.2736 41.6906 88.2681 41.7002L88.2879 41.6504C88.2879 41.6504 88.2978 41.6305 88.2681 41.6371Z" fill="#343434"/>
<path d="M82.8879 48.3654L82.8582 48.113C82.8628 48.1977 82.8727 48.282 82.8879 48.3654Z" fill="#343434"/>
<path d="M74.5787 51.8723L74.5523 51.9254C74.5676 51.9118 74.577 51.8927 74.5787 51.8723Z" fill="#343434"/>
<path d="M82.7132 47.3725C82.7342 47.3242 82.7465 47.2724 82.7495 47.2197L82.7231 47.1932L82.7132 47.3725Z" fill="#343434"/>
<path d="M69.1457 48.1594C69.1655 48.4052 69.2742 48.2624 69.35 48.3089C69.4093 48.5945 69.2709 48.4517 69.2182 48.5579C69.2676 48.7373 69.3994 48.8635 69.4093 48.9996C69.3895 48.9996 69.3862 49.0395 69.3566 48.9996C69.4752 49.179 69.4257 49.5708 69.5806 49.7734C69.5791 49.7807 69.576 49.7875 69.5714 49.7932C69.5668 49.799 69.5609 49.8036 69.5542 49.8066C69.6007 49.7709 69.6573 49.7511 69.7157 49.7502C69.7322 49.8598 69.8211 49.9395 69.7453 49.9926C69.7453 49.9262 69.7091 49.9262 69.6794 49.8963L69.7289 50.0059C69.63 50.1254 69.6663 49.8564 69.5839 49.8697C69.6741 50.0712 69.7394 50.2832 69.7783 50.5007C69.6728 50.5538 69.6761 50.1122 69.6135 50.3546V50.0856C69.4653 50.3114 69.6135 49.9229 69.4422 50.1354C69.4422 50.4874 69.5575 50.514 69.5806 50.866C69.6531 50.9324 69.6663 50.8228 69.7387 50.8893C69.9298 51.3608 69.5312 51.3243 69.7387 51.6564C69.831 51.7361 69.9727 51.7461 69.9496 52.0151L69.8079 51.952C69.8639 52.2841 70.0254 52.1047 70.0155 52.47C69.9529 52.4169 69.9199 52.2176 69.9134 52.2708C69.8639 52.5165 70.0188 52.4136 70.055 52.6029L69.9529 52.6626C70.0452 53.0147 70.2132 53.38 70.3285 53.7619C70.2923 53.7619 70.2395 53.6921 70.2297 53.7918C70.3194 54.0389 70.3877 54.2933 70.4339 54.5523C70.4603 54.6818 70.4833 54.8146 70.5031 54.9441V54.9906V55.0737L70.5361 55.243L70.6151 55.5751C70.6662 55.6489 70.7212 55.7199 70.7799 55.7877C70.7996 55.8541 70.7799 55.9703 70.7535 55.9172C70.8293 56.2858 70.7996 55.8541 70.8655 55.9471C70.9182 56.0965 70.9051 56.2592 70.8655 56.1895C70.9215 56.2991 70.9808 56.4253 71.0401 56.5581C71.0566 56.5913 71.0698 56.6245 71.0863 56.6611C71.1027 56.6976 71.1093 56.6378 71.1225 56.6245L71.1653 56.5548L71.3301 56.2925C71.5043 56.0026 71.7098 55.733 71.9429 55.4888L71.8935 55.6083C72.0013 55.4902 72.0743 55.3442 72.1043 55.1866C72.1031 55.1389 72.1143 55.0917 72.1368 55.0497C72.1594 55.0077 72.1925 54.9725 72.2328 54.9475V54.994C72.6051 54.5423 72.8918 53.9578 73.2871 53.6656C73.2245 53.5128 73.6759 53.2272 73.5408 53.0844C73.7506 52.9545 73.9423 52.797 74.1108 52.6162C74.1899 52.5198 74.1108 52.3937 74.1965 52.2542L74.2788 52.3106L74.3151 52.0748L74.4798 52.0549L74.5424 51.9188C74.5062 51.9619 74.4337 51.9918 74.4172 51.9686C74.5127 51.756 74.7961 51.5568 74.8422 51.5833L75.086 51.0918C75.1124 51.125 75.0695 51.2047 75.0498 51.2811C75.1321 50.9822 75.1684 51.3011 75.2442 51.0287C75.2046 51.0453 75.2046 50.9756 75.1915 50.959C75.3639 50.8215 75.5035 50.6467 75.6 50.4476L75.6329 50.524C75.88 50.2085 76.0942 49.8133 76.3578 49.448C76.2392 49.5609 76.1601 49.448 76.226 49.345L76.3446 49.3649C76.3446 49.2554 76.2326 49.4513 76.2688 49.262C76.3743 49.1325 76.4336 49.2421 76.4039 49.3417L76.4929 49.1524C76.5258 49.1524 76.5126 49.2122 76.539 49.2454C76.539 49.1358 76.8289 49.0196 76.8059 48.8535H76.8388C77.0991 48.4849 77.188 48.2989 77.3956 47.9967C77.3264 47.9369 77.4253 47.8307 77.4285 47.6978C77.6411 47.4904 77.8393 47.2685 78.0216 47.0336C78.1171 46.8211 77.9952 46.934 78.0216 46.8178C78.1007 46.8543 78.2819 46.5853 78.2325 46.758C78.4196 46.4843 78.588 46.198 78.7365 45.9012C78.6772 45.9244 78.6311 45.9643 78.6245 45.9211C78.6179 45.8779 78.7728 45.775 78.7958 45.8115V45.8348C79.0133 45.3101 79.7381 44.9381 79.8501 44.4765V44.4997L80.0412 44.0747C80.1763 43.9119 80.0215 44.2141 80.1533 44.1178C80.3246 43.633 80.6211 43.4935 80.7792 43.1215C80.9703 43.0684 81.1285 42.8359 81.2866 42.5902C81.3624 42.4673 81.4415 42.3378 81.5239 42.2249C81.5621 42.1701 81.6039 42.118 81.6491 42.0688C81.6754 42.0456 81.682 42.0688 81.6985 42.0688L81.6589 42.0223C81.6392 41.9526 81.6952 42.0223 81.7018 42.0422C81.6853 41.9891 81.6655 42.0024 81.6589 41.9592C81.6919 41.8752 81.7425 41.7993 81.8072 41.7367C81.8151 41.8399 81.8095 41.9438 81.7907 42.0456C81.7907 42.0987 81.7611 42.0256 81.7907 42.2481L81.8401 42.7197C81.883 43.0518 82.1696 42.8625 82.1103 43.3175L81.9818 43.2145C82.2322 43.8787 82.2289 44.6359 82.4595 45.2935C82.4266 45.2569 82.3937 45.2636 82.3838 45.1971C82.3311 45.3532 82.4727 45.7285 82.5353 45.7185C82.5353 45.8248 82.4826 45.7517 82.4628 45.8248C82.4431 45.9742 82.6276 46.1569 82.5617 46.2565C82.5617 46.2731 82.5287 46.22 82.5188 46.1968C82.5749 46.2831 82.588 46.6351 82.6605 46.5288C82.6605 46.7912 82.7857 47.0104 82.7692 47.2229C82.8944 47.3358 82.7989 47.6679 82.9472 47.6845C82.7989 47.6845 82.9076 48.1528 83.0065 48.2989C82.9537 48.2524 82.9867 48.4484 82.9142 48.3952C82.9472 48.5812 83.0032 48.7439 83.0756 48.6974C83.0573 48.7461 83.0505 48.7984 83.0559 48.8502C83.0591 48.9262 83.069 49.0018 83.0855 49.076C83.1113 49.2098 83.1454 49.3418 83.1877 49.4712C83.2803 49.711 83.3042 49.9722 83.2569 50.2251C83.4941 51.0918 83.6555 51.6996 83.7972 52.2907C83.7774 52.6228 83.7379 52.4036 83.6951 52.201C83.6522 51.9985 83.616 51.8092 83.5896 52.1014C83.6377 52.2936 83.7073 52.4797 83.7972 52.656C83.8607 52.2634 83.9488 51.8752 84.0608 51.4937C84.1135 51.3741 84.041 51.8258 84.0212 51.9852C84.1234 51.4837 84.2222 51.1417 84.3177 50.783C84.4221 50.4228 84.5057 50.0569 84.5681 49.6871C84.5786 49.7508 84.5786 49.8159 84.5681 49.8797C84.6011 49.7435 84.6703 49.5941 84.6143 49.5476L84.5945 49.6937C84.5319 49.7336 84.5319 49.5376 84.5319 49.3616C84.543 49.2417 84.5363 49.1209 84.5121 49.003C84.5747 49.1424 84.6176 49.0295 84.6703 48.9067C84.723 48.7838 84.7592 48.7406 84.8515 48.8701C84.8515 48.817 84.8515 48.7406 84.7922 48.7406C84.8284 48.6675 84.8581 48.6476 84.8877 48.7406C84.9306 48.445 84.8317 48.5281 84.9042 48.269C84.9339 48.269 84.9339 48.3321 84.9635 48.372C84.9198 48.2024 84.9313 48.0231 84.9965 47.8606C85.0129 47.8805 85.0426 47.8606 85.0261 47.927C85.1184 47.5451 85.0261 47.2395 85.204 46.841C85.3094 47.0004 85.2897 46.7115 85.4116 46.7248L85.4379 46.4923L85.3556 46.5654C85.4116 46.3694 85.3556 46.1735 85.4544 46.0174V46.1768L85.5302 45.8049L85.4281 45.9975C85.4281 45.785 85.2732 45.9776 85.3753 45.7285C85.3753 45.785 85.4281 45.5326 85.5269 45.4529C85.5018 45.334 85.5169 45.2101 85.5697 45.1008C85.6192 45.0709 85.6949 45.1639 85.7246 45.1473C85.6521 45.0245 85.8201 44.6857 85.7476 44.5363C85.7548 44.5546 85.7676 44.57 85.7843 44.5802C85.801 44.5904 85.8205 44.5948 85.8399 44.5927L85.7806 44.4898C85.83 44.4068 85.8465 44.3968 85.8926 44.4234C85.9783 44.1577 85.718 44.4699 85.8695 44.1643C85.8695 44.1909 85.8695 44.1843 85.8695 44.2407C85.9915 43.9252 85.9849 43.5998 86.1068 43.3142C86.2484 43.2577 86.0639 43.5798 86.1924 43.5101C86.2473 43.0635 86.3253 42.6201 86.4264 42.1817L86.3934 42.2548C86.2418 42.1518 86.5614 41.9692 86.5384 41.7367C86.5384 41.7932 86.6141 41.8297 86.5977 41.8098C86.6906 41.4711 86.7502 41.1241 86.7756 40.7736L86.8052 40.8401C86.8876 40.6806 86.9436 40.405 87.0128 40.229C86.9832 40.1626 87.0128 40.0596 86.9403 40.1061C86.9663 40.0762 86.9894 40.044 87.0095 40.0098L86.68 39.8903C86.5137 40.1029 86.4098 40.3583 86.3802 40.6275C86.3626 40.8807 86.2894 41.1269 86.1661 41.3482C86.1661 41.2884 86.1661 41.1921 86.1463 41.2419C86.1265 41.3947 86.1199 41.5441 86.1101 41.6969C86.1891 41.6703 86.1628 41.6437 86.2386 41.5607C86.2759 41.6555 86.2895 41.7582 86.2781 41.8596C86.2517 41.657 86.1562 41.8596 86.1035 41.9293C86.1265 41.9293 86.1529 41.9493 86.176 41.9293C86.0244 42.1518 86.3209 41.9825 86.2155 42.288L86.176 42.2681C86.2063 42.3843 86.2251 42.5034 86.232 42.6234C86.1463 42.6765 86.1924 42.4972 86.1199 42.4906C86.1207 42.5361 86.1297 42.5811 86.1463 42.6234C86.1593 42.6726 86.177 42.7204 86.199 42.7662C86.2404 42.8508 86.2486 42.9481 86.2221 43.0385C86.1891 42.9721 86.1825 42.8492 86.1529 42.7662C86.0919 42.9095 86.0736 43.0676 86.1002 43.2212V43.2046C86.1002 43.3474 86.1002 43.4968 86.1199 43.6429V43.5134C86.2386 43.5134 86.2583 43.6197 86.2913 43.7559C86.3016 43.8245 86.317 43.8922 86.3374 43.9584C86.345 43.9854 86.3585 44.0104 86.3769 44.0315C86.3934 44.0315 86.3967 44.0979 86.4362 44.0049C86.4 44.0879 86.3934 44.0547 86.3802 44.0614H86.3506C86.3506 44.0614 86.3341 44.0913 86.3308 44.1212C86.3347 44.1972 86.3269 44.2733 86.3077 44.347V44.4234V44.4665C86.3473 44.4499 86.3802 44.44 86.3506 44.5097C86.3922 44.4116 86.4566 44.325 86.5384 44.2573C86.6339 44.1639 86.7081 44.0505 86.7558 43.9252C86.7558 43.9684 86.8876 43.7658 86.8678 43.9252C87.0359 43.6728 86.8184 43.8987 86.8316 43.8156C86.9402 43.6149 87.0804 43.4332 87.2467 43.2776C87.4114 43.1239 87.533 42.9292 87.5993 42.7131C87.7343 42.381 87.675 42.2681 87.7903 41.9592C87.8892 41.8895 87.8464 42.0954 87.8464 42.0954C87.9629 41.9817 88.0442 41.8363 88.0803 41.6769C88.0803 41.7201 88.1264 41.7002 88.1824 41.6769C88.2384 41.5541 88.1231 41.5441 88.245 41.4046C88.2726 41.4621 88.2904 41.5238 88.2977 41.5873C88.3439 41.4312 88.3603 41.2552 88.4065 41.0991C88.4756 41.0991 88.4394 41.2286 88.446 41.295C88.5053 41.119 88.6041 40.8367 88.5481 40.7504L88.4691 40.8434C88.4921 40.7803 88.5514 40.8434 88.5481 40.8965C88.5481 41.0692 88.4229 41.0924 88.39 41.0858L88.4229 40.9696C88.2022 40.9995 88.2483 41.4046 88.1264 41.6105L88.0506 41.4611V41.7267C87.9946 41.7533 87.909 41.7467 87.9452 41.6371C87.8101 41.75 87.9188 41.7898 87.7838 41.8762C87.764 41.8762 87.764 41.8762 87.764 41.8762L87.7212 42.0389C87.7212 41.9957 87.6256 42.0123 87.6915 41.936C87.4774 42.1485 87.54 42.3943 87.3917 42.4308V42.4075C87.2138 42.7728 87.4576 42.4939 87.3917 42.816L87.0622 42.8459C87.086 42.8732 87.108 42.9021 87.1281 42.9323C87.1018 42.9621 87.0589 43.012 87.0392 42.9688C87.0062 43.1315 87.082 42.9854 87.0754 43.1083C86.993 43.1448 86.9304 43.2511 86.8613 43.3441C86.7921 43.437 86.7393 43.5035 86.7328 43.3706C86.6866 43.5599 86.8382 43.3374 86.713 43.5898C86.713 43.4536 86.6767 43.5001 86.6306 43.5898C86.5845 43.6795 86.5087 43.8223 86.4824 43.7891C86.568 43.53 86.6141 43.5566 86.5746 43.457C86.5614 43.5035 86.5449 43.549 86.5252 43.5931C86.5252 43.6164 86.5021 43.6496 86.4955 43.6463C86.494 43.633 86.494 43.6196 86.4955 43.6064C86.4955 43.5699 86.4955 43.5167 86.4955 43.4603C86.5063 43.3843 86.5063 43.3071 86.4955 43.2311C86.4461 43.3374 86.4198 43.2942 86.4066 43.2046C86.3963 43.1051 86.3798 43.0064 86.3572 42.909C86.3769 42.909 86.3901 42.7961 86.4 42.6832C86.4 42.6367 86.4165 42.5371 86.4231 42.464L86.4593 42.2515H86.4791C86.3605 42.2016 86.4 41.9559 86.3967 41.7766C86.4692 41.7766 86.4922 41.8297 86.5153 41.926L86.5351 41.7633C86.5146 41.7329 86.5004 41.6989 86.493 41.663C86.4857 41.6271 86.4854 41.5901 86.4922 41.5541L86.5746 41.6105C86.5616 41.3661 86.5998 41.1217 86.6866 40.8932C86.6141 40.85 86.3934 41.0526 86.4296 40.7371C86.4791 40.7371 86.5548 40.7371 86.5516 40.8334C86.5444 40.7835 86.5524 40.7325 86.5746 40.6873L86.6142 40.8268C86.6833 40.7139 86.5713 40.7404 86.6142 40.6441C86.6768 40.6674 86.6833 40.5843 86.7295 40.6175C86.7295 40.6441 86.6735 40.6939 86.6833 40.7404C86.7213 40.6384 86.7891 40.5504 86.8777 40.488C86.8415 40.488 86.7986 40.4548 86.8217 40.3718C86.9008 40.1659 86.9206 40.3319 87.0029 40.229C87.0029 40.1792 87.0392 40.1094 87.0326 40.0563L86.5977 39.8936C86.6006 39.9038 86.6061 39.9132 86.6136 39.9207C86.6211 39.9283 86.6303 39.9338 86.6405 39.9368C86.6207 39.9999 86.5746 39.9999 86.5417 40.0198C86.5417 40.1427 86.4099 40.5545 86.5417 40.4548V40.4283C86.5417 40.8301 86.2814 41.1921 86.2122 41.5773H86.1793C86.1305 41.7956 86.1018 42.0179 86.0936 42.2415C86.0771 42.3046 85.9948 42.381 85.9651 42.3411C85.9672 42.4932 85.9297 42.6432 85.8564 42.7762C85.8564 42.5902 85.7905 42.8227 85.8564 42.5902C85.7674 42.8061 85.7048 42.8393 85.7279 43.1016C85.6686 42.9987 85.5829 43.2378 85.5763 43.3507L85.6752 43.2112C85.6562 43.3245 85.6264 43.4358 85.5862 43.5433L85.4972 43.457C85.2469 43.8721 85.4972 44.3304 85.1875 44.616C85.2304 44.7555 85.3062 44.3835 85.3655 44.5163C85.2963 44.7189 85.0854 44.8949 85.0656 44.958C84.9306 45.227 85.1513 45.2669 85.0294 45.5525C85.0788 45.5259 85.1875 45.516 85.1645 45.7484C85.1414 45.9809 84.9372 45.961 84.9437 45.8215C84.9437 45.7684 84.9701 45.7484 84.9833 45.7551C84.9833 45.6853 84.9833 45.5923 84.9306 45.6621L84.9635 45.6986C84.8976 45.7916 84.8251 46.0805 84.779 45.9942C84.779 46.1602 84.8251 46.0805 84.8745 45.9676C84.7493 46.22 84.7625 46.3827 84.6505 46.6484C84.6835 46.6085 84.7395 46.582 84.7263 46.6252C84.5714 47.0137 84.7494 46.8211 84.6933 47.1001C84.5945 47.2362 84.5714 47.0071 84.5451 47.2927C84.4627 47.4488 84.4364 47.2927 84.4232 47.2262C84.396 47.4394 84.3192 47.6431 84.1991 47.8207V47.6779C84.1958 47.7513 84.1825 47.824 84.1596 47.8938L84.2551 47.8373C84.2222 47.9104 84.2057 47.9768 84.1728 47.9668C84.2024 48.0598 84.3145 47.9403 84.3408 48.1163C84.2749 48.2092 84.298 48.4484 84.1893 48.4484C84.3079 48.1163 84.0772 48.4484 84.1365 48.176C84.1308 48.2444 84.1117 48.311 84.0805 48.372C84.0805 48.372 84.0641 48.372 84.0641 48.3321C83.9784 48.4749 83.9949 48.5181 84.0245 48.5646C84.0448 48.5908 84.0584 48.6216 84.0641 48.6543C84.0641 48.6974 84.0838 48.6974 84.0641 48.734C84.0146 48.6974 83.9619 48.6908 83.9685 48.7074C83.9751 48.724 84.0608 48.7439 84.0805 48.8402C84.0245 48.8834 84.0805 48.9797 84.0575 49.0328L84.0904 48.9996C84.1134 49.0923 84.1134 49.1893 84.0904 49.2819C84.0641 49.2055 84.0904 49.1458 84.0904 49.1424C84.0904 49.2753 84.0739 49.2985 84.0443 49.2852C84.0146 49.272 83.9916 49.2288 83.9883 49.3782C83.9652 49.3151 83.9553 49.076 83.9422 49.0262C83.9422 49.1723 83.9422 49.1391 83.9224 49.0793C83.9026 49.0196 83.9224 48.9432 83.9224 49.0793C83.9305 49.2732 83.925 49.4674 83.9059 49.6605L83.9553 49.272C83.9553 49.4314 83.9553 49.604 83.9257 49.8133C83.9487 49.7336 83.9652 49.4812 83.9751 49.4812C83.9581 49.6101 83.9581 49.7408 83.9751 49.8697C83.9487 49.7402 83.9389 49.8398 83.9224 49.9893C83.9059 50.1387 83.8828 50.3214 83.8697 50.2284L83.8927 49.3849C83.8927 49.3384 83.8927 49.3218 83.8927 49.3284C83.8927 49.2819 83.8763 49.3716 83.8565 49.4148C83.8367 49.4579 83.8202 49.4579 83.817 49.3185V49.4878C83.7774 49.7103 83.7873 49.3882 83.7577 49.4081C83.7939 49.2421 83.8005 49.1424 83.8235 49.0262C83.7939 49.1391 83.8235 48.9299 83.7148 49.1325C83.7148 49.0494 83.7445 48.9731 83.7609 48.91C83.7774 48.8469 83.7181 48.8402 83.6687 48.8236C83.6193 48.807 83.56 48.7738 83.5435 48.6277C83.5563 48.6403 83.5724 48.6489 83.59 48.6525C83.6075 48.656 83.6257 48.6543 83.6423 48.6476C83.6753 48.6507 83.7058 48.6661 83.728 48.6908C83.728 48.6642 83.728 48.6642 83.728 48.621C83.728 48.5779 83.7049 48.5613 83.6852 48.5646C83.7115 48.4949 83.5468 48.2856 83.5896 48.176C83.5534 48.1362 83.4842 48.1362 83.4677 48.0133H83.5007C83.5007 48.0133 83.4249 47.834 83.3722 47.9502C83.5138 47.5882 83.1943 47.0403 83.3162 46.7248C83.2536 46.499 83.1844 46.2233 83.1415 46.0141C83.1646 46.0141 83.1745 46.0141 83.1745 46.0506C83.1745 45.7484 82.957 45.9045 82.9669 45.5624C83.0394 45.3765 83.0526 45.7285 83.0756 45.6156C83.2766 45.5326 82.9735 45.2237 83.0592 44.978L83.0822 45.0311C83.1218 44.8484 82.9274 44.6293 82.8944 44.3669C82.8944 44.3669 82.9142 44.3669 82.9241 44.3669C82.7742 44.1247 82.663 43.8602 82.5946 43.5832C82.6935 43.6496 82.6605 43.6961 82.7363 43.6297C82.7033 43.5134 82.6078 43.6894 82.5419 43.4536C82.5716 43.3673 82.5814 43.188 82.6671 43.1514L82.7099 43.3739C82.8055 43.2378 82.6572 43.085 82.6539 42.9621H82.7066C82.6309 42.63 82.5024 42.63 82.4464 42.2647L82.4134 42.3112C82.252 42.1286 82.4562 42.1319 82.3245 41.936C82.3659 41.9002 82.4034 41.8601 82.4365 41.8164C82.4035 41.7334 82.3475 41.5906 82.2882 41.4279C82.2289 41.2651 82.1762 41.1489 82.1433 41.026C82.2421 41.026 82.3508 41.3581 82.453 41.6138C82.4167 41.4046 82.3179 40.9065 82.2553 40.9131C82.2944 40.9796 82.316 41.055 82.3179 41.1323C82.1671 40.9737 82.0762 40.7669 82.0609 40.5478C82.0941 40.4335 82.1108 40.3149 82.1103 40.1958C82.0609 40.1958 81.9126 40.405 81.7808 40.5877C81.649 40.7703 81.4975 40.9397 81.3987 40.9496C81.2976 41.1246 81.1876 41.2942 81.0692 41.4577L80.9835 41.5773L80.9308 41.647L80.8155 41.7898C80.6428 41.981 80.4822 42.1829 80.3345 42.3943C80.6046 42.3511 80.2455 42.5304 80.4267 42.6201C80.3641 42.733 80.3312 42.7695 80.3147 42.7728L79.9852 43.0186C79.8831 43.0585 80.0215 42.8924 79.9852 42.8758C79.8106 43.0983 79.8501 42.9223 79.6986 43.0418C79.7777 43.0418 79.725 43.1846 79.6096 43.2976L79.8172 43.168C79.6755 43.55 79.4877 43.3474 79.3395 43.7326L79.3592 43.5931C79.2736 43.7791 78.9243 44.2009 78.9408 44.4599C78.9013 44.4765 78.8288 44.4831 78.8683 44.4001C78.5685 44.782 78.384 45.3964 78.0842 45.6322L78.0644 45.5724C78.0249 45.6554 78.048 45.7551 77.9425 45.8182C77.9425 45.8016 77.9228 45.7617 77.8964 45.7949C77.8698 45.9171 77.8144 46.031 77.735 46.127V46.0108C77.4055 46.3595 77.4253 46.675 77.221 47.027C77.1057 46.9406 76.852 47.2196 76.7235 47.3591V47.3425C76.4576 47.7512 76.2251 48.181 76.0283 48.6277C75.7186 48.7937 75.3694 49.4646 74.9872 49.8266C75.0531 49.7801 75.0728 49.9029 75.03 49.986C74.9378 50.0657 74.9213 50.3181 74.8257 50.2218L74.8521 50.1885C74.694 50.1885 74.5786 50.4077 74.4633 50.5605L74.5885 50.69C74.091 50.949 73.9032 51.8158 73.5573 51.9055C73.5243 52.0317 73.4354 52.1512 73.4024 52.2741L73.33 52.2143C73.1317 52.4472 72.9511 52.6948 72.7896 52.9549V52.8486C72.648 53.0346 72.8358 53.2471 72.7171 53.4265L72.5656 53.3966C72.3317 53.7287 71.9923 53.9977 71.8605 54.3929C71.8482 54.378 71.8414 54.3591 71.8414 54.3397C71.8414 54.3203 71.8482 54.3015 71.8605 54.2866C71.8012 54.363 71.676 54.4991 71.5871 54.6187L71.5311 54.7084C71.5311 54.7416 71.5047 54.7648 71.5113 54.7681C71.5267 54.7986 71.5493 54.8249 71.5772 54.8445C71.5278 54.8047 71.5146 54.818 71.5014 54.8711C71.4882 54.9242 71.4652 55.0272 71.4355 55.1202V54.9541C71.4254 55.0516 71.4077 55.1482 71.3828 55.243C71.3725 55.2806 71.3593 55.3172 71.3433 55.3526L71.3169 55.4157L71.3004 55.4456C71.3004 55.3825 71.3202 55.2596 71.3235 55.3526C71.3235 55.1567 71.2576 55.4356 71.2345 55.1965C71.2539 55.1859 71.2707 55.1711 71.284 55.1534C71.2576 55.0405 71.2444 55.1036 71.1719 55.1069C71.1159 55.0504 71.1126 54.8146 71.1917 54.7914C71.1423 54.7914 71.0401 54.6918 71.0303 54.5689C71.0566 54.5456 71.0863 54.5689 71.1027 54.6021C71.0665 54.2467 70.8622 54.1239 70.8886 53.8682C70.8998 53.8641 70.9098 53.8569 70.9173 53.8476C70.9249 53.8382 70.9297 53.827 70.9314 53.815C70.9756 53.9702 71.0119 54.1276 71.0401 54.2866C71.1192 54.2633 71.0797 54.0408 71.2378 54.1836C71.0786 53.9984 70.9657 53.7775 70.9084 53.5394C70.9117 53.5267 70.9186 53.5151 70.9281 53.5062H70.9446C70.9374 53.46 70.9205 53.4158 70.8952 53.3767C70.8981 53.3153 70.8926 53.2538 70.8787 53.194C70.9413 53.1508 70.8589 52.935 70.8359 52.8254C70.7502 52.8553 70.7304 52.7058 70.6876 52.8586C70.6876 52.8387 70.6876 52.8785 70.7239 52.9483C70.7278 52.9648 70.7345 52.9805 70.7436 52.9947C70.7601 53.0645 70.7865 53.1608 70.8128 53.2637C70.7734 53.2277 70.7432 53.1827 70.7249 53.1323C70.7065 53.082 70.7005 53.028 70.7074 52.9748C70.6382 52.9316 70.5624 52.8852 70.5262 52.8553C70.6151 52.6759 70.625 52.3704 70.6942 52.3139C70.5723 51.9819 70.5031 51.5302 70.2923 51.3509C70.2527 51.2579 70.3219 51.2313 70.3417 51.1915C70.3713 51.2413 70.3779 51.3077 70.4109 51.3343C70.3285 51.1516 70.2922 50.7664 70.1671 50.7431C70.1671 50.4907 70.2988 50.8594 70.2231 50.5306L70.2692 50.5671C70.3548 49.8863 69.8013 49.541 69.9628 48.7738C69.9628 48.827 69.9628 48.8535 69.9298 48.8668C69.9496 48.02 69.6597 47.1432 69.8013 46.303C69.8244 46.0639 69.7486 46.044 69.686 45.9012L69.7849 45.8447L69.663 45.6023C69.5674 45.2702 69.9002 44.9946 69.7354 44.5529L69.6696 44.6093C69.6696 44.4499 69.6366 44.1046 69.7124 44.1344C69.7124 44.1178 69.6432 44.0813 69.6794 44.0182H69.7322L69.6498 43.6263C69.7025 43.3241 69.8574 43.6795 69.8837 43.2378C69.8837 43.0751 69.7519 42.7662 69.7157 42.826C69.6794 42.8858 69.6761 42.992 69.6234 42.9954L69.6037 42.8426C69.4488 42.8094 69.2973 42.6832 69.1754 43.0518L69.2577 43.3142L69.1819 43.3972V43.178C69.1062 43.2976 69.1655 43.3806 69.205 43.4702C69.1838 43.4804 69.1651 43.4953 69.1503 43.5136C69.1355 43.532 69.1249 43.5535 69.1193 43.5765L69.2577 43.8356C69.1984 43.8654 69.1424 43.7193 69.1062 43.8887C69.1721 44.0116 69.2412 43.7791 69.2841 43.9784C69.2116 44.1012 69.1556 44.0614 69.2116 44.2108C69.1721 44.2307 69.1457 44.2108 69.1292 44.1411C69.1754 44.2706 69.1292 44.4732 69.2281 44.5529C69.1424 44.6824 69.2511 44.9946 69.1062 44.9813C69.1709 45.0875 69.2125 45.2063 69.2281 45.33C69.0469 45.1141 69.2281 45.7783 69.0403 45.7252C69.1984 45.8813 69.1259 46.3063 69.2314 46.5886C69.2314 46.5886 69.1918 46.5455 69.1984 46.5189C69.1914 46.633 69.1658 46.7452 69.1226 46.851C69.2511 46.851 69.2973 47.1133 69.3862 47.2429C69.2775 47.4488 69.2281 47.1333 69.1128 47.203C69.2149 47.1864 69.2412 47.5351 69.3236 47.4654C69.2577 47.6214 69.294 47.5982 69.1951 47.6845C69.3566 47.6845 69.2281 47.824 69.3401 47.9403C69.2808 48.1661 69.1951 48.01 69.2676 48.2458C69.2215 48.362 69.1457 48.1594 69.1457 48.1594ZM70.368 53.7486C70.368 53.7021 70.3417 53.6623 70.3318 53.6357L70.368 53.7486ZM70.4899 54.2135C70.4899 54.1571 70.4603 54.084 70.4405 54.011C70.4669 53.9877 70.5031 54.011 70.5163 54.0442C70.4866 54.0176 70.5064 54.1372 70.5064 54.2069L70.4899 54.2135ZM70.8721 53.0811C70.9018 53.1508 70.8721 53.1807 70.8721 53.194C70.861 53.1524 70.8478 53.1114 70.8326 53.0711C70.8458 53.0704 70.8592 53.0715 70.8721 53.0744V53.0811Z" fill="#343434"/>
<path d="M70.7239 52.9715C70.7221 52.9628 70.7221 52.9537 70.7239 52.9449C70.7224 52.9604 70.7224 52.976 70.7239 52.9914L70.7601 53.0114L70.7239 52.9715Z" fill="#343434"/>
<path d="M86.5615 40.4491C86.5615 40.4491 86.5615 40.4491 86.5615 40.4285C86.5615 40.408 86.5683 40.4457 86.5615 40.4491Z" fill="#343434"/>
<path d="M74.3085 52.3306L74.2887 52.3173L74.2822 52.3638L74.3085 52.3306Z" fill="#343434"/>
<path d="M86.1101 41.9128C86.0982 41.921 86.0891 41.9325 86.0837 41.946C86.0947 41.9369 86.1037 41.9256 86.1101 41.9128Z" fill="#343434"/>
<path d="M86.2946 44.4134C86.3047 44.3941 86.3135 44.3742 86.321 44.3536L86.2946 44.4134Z" fill="#343434"/>
<path d="M84.5385 49.8764V49.9362C84.5056 50.0923 84.5254 49.9926 84.5385 49.8764Z" fill="#343434"/>
<path d="M85.5072 45.443C85.512 45.4894 85.512 45.5361 85.5072 45.5825C85.5401 45.5028 85.5566 45.4596 85.5072 45.443Z" fill="#343434"/>
<path d="M82.8913 48.3928H82.8947L82.8879 48.3654L82.8913 48.3928Z" fill="#343434"/>
<path d="M85.4643 45.765C85.4966 45.7097 85.5136 45.6466 85.5137 45.5824C85.4892 45.6408 85.4726 45.7022 85.4643 45.765Z" fill="#343434"/>
<path d="M88.67 40.9563L88.6898 40.9164L88.67 40.9563Z" fill="#343434"/>
<path d="M88.6799 40.9065V40.86C88.6799 40.88 88.6734 40.8966 88.6799 40.9065Z" fill="#343434"/>
<path d="M88.7096 40.7571L88.6898 40.86C88.703 40.8268 88.7228 40.7903 88.7096 40.7571Z" fill="#343434"/>
<path d="M88.1034 41.9825L88.1273 42.0099C88.1225 41.9984 88.1141 41.9888 88.1034 41.9825Z" fill="#343434"/>
<path d="M87.9353 42.2946C87.9848 42.2282 88.1034 42.1485 88.1429 42.0323V42.009C88.1429 42.0854 87.9287 42.1983 87.9353 42.2946Z" fill="#343434"/>
<path d="M86.8744 43.1481C86.9219 43.104 86.967 43.0575 87.0095 43.0086C86.9667 43.0086 86.9239 42.982 86.9667 42.9123C86.7954 42.9654 87.0359 42.9555 86.8744 43.1481Z" fill="#343434"/>
<path d="M86.5615 43.3407C86.5944 43.3939 86.5977 43.2179 86.6142 43.1813C86.5812 43.2079 86.5681 43.2046 86.5615 43.3407Z" fill="#343434"/>
<path d="M85.9585 42.4109L85.8828 42.3711C85.863 42.494 85.9124 42.3811 85.9585 42.4109Z" fill="#343434"/>
<path d="M86.0541 43.7393L86.1332 43.6364L86.0739 43.5633L86.0541 43.7393Z" fill="#343434"/>
<path d="M85.2798 44.2972L85.2831 44.2441L85.2601 44.4467L85.2798 44.2972Z" fill="#343434"/>
<path d="M83.4677 46.9871L83.3722 47.0436C83.4051 47.12 83.5237 47.1166 83.4677 46.9871Z" fill="#343434"/>
<path d="M82.5353 42.3145C82.56 42.2735 82.5731 42.2264 82.5731 42.1784C82.5731 42.1304 82.56 42.0833 82.5353 42.0422C82.5273 42.1328 82.5273 42.224 82.5353 42.3145Z" fill="#343434"/>
<path d="M74.3645 50.8129L74.3908 50.7133L74.3085 50.8794L74.3645 50.8129Z" fill="#343434"/>
</svg>
