<svg width="1172" height="58" viewBox="0 0 1172 58" fill="none" xmlns="http://www.w3.org/2000/svg">
<path d="M492.119 32.616C492.023 33.48 491.943 34.264 491.879 34.968C491.847 35.672 491.831 36.376 491.831 37.08C491.831 37.624 491.847 38.152 491.879 38.664C491.943 39.176 492.103 39.704 492.359 40.248L492.887 41.016L499.607 43.272C499.959 43.272 500.247 43.272 500.471 43.272C500.727 43.272 500.951 43.256 501.143 43.224C501.367 43.16 501.591 43.096 501.815 43.032C502.039 42.936 502.311 42.776 502.631 42.552L507.863 40.584C508.759 40.264 509.655 39.704 510.551 38.904C511.479 38.072 512.247 37.08 512.855 35.928V35.496C512.855 33.192 512.343 31.128 511.319 29.304C510.327 27.448 508.839 26.024 506.855 25.032C506.791 24.936 506.647 24.888 506.423 24.888C506.263 24.888 506.023 24.904 505.703 24.936C505.415 24.968 505.143 24.984 504.887 24.984C504.567 24.984 504.263 24.968 503.975 24.936C503.719 24.872 503.575 24.728 503.543 24.504L498.935 25.32C498.135 25.576 497.335 25.912 496.535 26.328C495.767 26.744 495.063 27.256 494.423 27.864C493.815 28.44 493.287 29.128 492.839 29.928C492.423 30.728 492.183 31.624 492.119 32.616ZM503.831 29.304C504.375 29.528 504.951 29.72 505.559 29.88C506.167 30.04 506.711 30.264 507.191 30.552C507.703 30.808 508.151 31.16 508.535 31.608C508.951 32.056 509.255 32.68 509.447 33.48L507.767 36.12L501.095 37.656H500.231L498.695 36.072L498.983 31.752C499.239 31.56 499.495 31.336 499.751 31.08C500.039 30.792 500.343 30.52 500.663 30.264C500.983 29.976 501.319 29.736 501.671 29.544C502.023 29.32 502.423 29.208 502.871 29.208C503.159 29.208 503.479 29.24 503.831 29.304ZM534.439 33.144L532.999 28.152L530.599 27.624L529.879 28.008V35.832L529.303 36.216H528.487L526.039 37.032L525.511 36.84L525.319 36.12L524.935 35.544V30.264L524.119 27.768H520.519L519.751 28.008L519.367 31.128L520.183 32.76L519.655 37.992L520.711 40.632L521.863 41.016L523.207 41.88L524.263 41.544L524.455 41.208L526.135 41.4L527.095 40.92L529.015 39L529.639 38.712L530.119 39.192L529.975 39.528L531.127 40.296H534.007L534.439 39.72V33.144ZM555.999 29.352L554.175 26.472L553.551 26.664L550.335 29.256L548.895 31.752L547.887 32.712V29.4L546.591 26.616H543.807L543.039 27.48V39.768L542.799 40.296L542.895 41.544L548.175 41.112L548.991 40.632V39.672L549.231 38.136L548.991 35.592C549.215 35.432 549.391 35.24 549.519 35.016C549.679 34.792 549.839 34.568 549.999 34.344C550.191 34.12 550.399 33.88 550.623 33.624C550.879 33.336 551.183 33.064 551.535 32.808L553.743 31.128C554.095 30.872 554.447 30.6 554.799 30.312C555.183 30.024 555.583 29.704 555.999 29.352ZM590.014 35.352C590.302 35.256 590.686 35.064 591.166 34.776C591.678 34.456 592.158 34.104 592.606 33.72C593.086 33.336 593.486 32.92 593.806 32.472C594.126 32.024 594.286 31.56 594.286 31.08C594.286 30.12 594.126 29.144 593.806 28.152C593.486 27.128 593.006 26.216 592.366 25.416C591.726 24.616 590.926 23.944 589.966 23.4C589.006 22.856 587.886 22.552 586.606 22.488C586.222 22.456 585.854 22.408 585.502 22.344C585.182 22.248 585.006 22.072 584.974 21.816L580.654 22.152H579.886L579.55 22.584L577.582 22.2L576.718 22.92V35.832L575.758 35.976L576.094 36.072V44.52L576.286 45.624H577.006L577.534 45.24H581.278L582.19 44.424L582.046 42.216L582.286 38.952L582.094 38.088C582.478 38.024 582.814 37.944 583.102 37.848C583.39 37.752 583.71 37.608 584.062 37.416L585.598 36.936C585.822 37.256 586.03 37.496 586.222 37.656C586.446 37.784 586.638 37.928 586.798 38.088C586.958 38.472 587.182 38.776 587.47 39C587.758 39.192 587.902 39.464 587.902 39.816C588.35 40.328 588.702 40.776 588.958 41.16C589.214 41.512 589.454 41.864 589.678 42.216C589.934 42.536 590.19 42.872 590.446 43.224C590.734 43.576 591.086 43.976 591.502 44.424C591.47 44.744 591.582 44.984 591.838 45.144C592.126 45.336 592.382 45.512 592.606 45.672L593.518 46.152L595.198 45.336C595.838 45.016 596.446 44.744 597.022 44.52C597.63 44.296 597.934 44.072 597.934 43.848C597.934 43.688 597.838 43.496 597.646 43.272C597.454 43.016 597.214 42.76 596.926 42.504C596.67 42.216 596.398 41.944 596.11 41.688C595.854 41.432 595.63 41.192 595.438 40.968C594.382 40.008 593.406 39.08 592.51 38.184C591.646 37.256 590.814 36.312 590.014 35.352ZM581.422 26.28C581.646 26.248 581.87 26.232 582.094 26.232C582.318 26.2 582.526 26.184 582.718 26.184C583.102 26.184 583.47 26.232 583.822 26.328C584.206 26.392 584.686 26.488 585.262 26.616C585.774 26.776 586.318 26.872 586.894 26.904C587.47 26.936 588.014 27.016 588.526 27.144C589.07 27.272 589.55 27.496 589.966 27.816C590.382 28.104 590.686 28.616 590.878 29.352L589.15 31.752L582.526 33.048H581.806V31.8L581.422 29.544V26.28ZM601.249 33C601.153 33.576 601.089 34.12 601.057 34.632C601.057 35.144 601.057 35.608 601.057 36.024C601.057 36.792 601.169 37.464 601.393 38.04L601.873 38.664L606.961 40.152H608.113C608.241 40.12 608.385 40.072 608.545 40.008C608.705 39.944 608.881 39.848 609.073 39.72L613.105 38.376C613.329 38.28 613.649 38.12 614.065 37.896C614.513 37.672 614.929 37.416 615.313 37.128C615.729 36.808 616.081 36.456 616.369 36.072C616.657 35.688 616.801 35.288 616.801 34.872C616.801 33.336 616.401 31.944 615.601 30.696C614.833 29.448 613.729 28.488 612.289 27.816H612.193C612.065 27.816 611.841 27.832 611.521 27.864C611.201 27.896 610.913 27.912 610.657 27.912C610.433 27.912 610.225 27.88 610.033 27.816C609.873 27.752 609.793 27.656 609.793 27.528L606.385 28.056C605.809 28.216 605.233 28.44 604.657 28.728C604.081 29.016 603.553 29.368 603.073 29.784C602.593 30.168 602.193 30.632 601.873 31.176C601.553 31.688 601.345 32.296 601.249 33ZM610.129 30.792C610.513 30.92 610.929 31.032 611.377 31.128C611.825 31.224 612.241 31.368 612.625 31.56C613.009 31.72 613.345 31.944 613.633 32.232C613.953 32.52 614.193 32.952 614.353 33.528L613.105 35.352L607.969 36.408H607.297L606.049 35.304L606.289 32.424C606.481 32.328 606.673 32.184 606.865 31.992C607.057 31.8 607.265 31.608 607.489 31.416C607.745 31.192 608.017 31.016 608.305 30.888C608.625 30.728 608.961 30.648 609.313 30.648C609.537 30.648 609.809 30.696 610.129 30.792ZM638.736 33.144L637.296 28.152L634.896 27.624L634.176 28.008V35.832L633.6 36.216H632.784L630.336 37.032L629.808 36.84L629.616 36.12L629.232 35.544V30.264L628.416 27.768H624.816L624.048 28.008L623.664 31.128L624.48 32.76L623.952 37.992L625.008 40.632L626.16 41.016L627.504 41.88L628.56 41.544L628.752 41.208L630.432 41.4L631.392 40.92L633.312 39L633.936 38.712L634.416 39.192L634.272 39.528L635.424 40.296H638.304L638.736 39.72V33.144ZM655.736 33.768L656.984 33.72C657.144 33.784 657.288 33.832 657.416 33.864C657.544 33.896 657.72 33.912 657.944 33.912C658.072 33.912 658.2 33.896 658.328 33.864C658.488 33.832 658.632 33.8 658.76 33.768C658.92 33.736 659.112 33.72 659.336 33.72C659.592 33.688 659.912 33.672 660.296 33.672C660.424 33.672 660.536 33.688 660.632 33.72C660.76 33.72 660.856 33.72 660.92 33.72C660.952 33.72 660.984 33.72 661.016 33.72C661.08 33.72 661.208 33.656 661.4 33.528C661.24 33.528 661.16 33.416 661.16 33.192C661.16 33.16 661.176 33.064 661.208 32.904C661.24 32.744 661.256 32.632 661.256 32.568C661.224 32.568 661.208 32.488 661.208 32.328C661.208 32.2 661.24 32.104 661.304 32.04C661.08 31.88 660.968 31.72 660.968 31.56C660.968 31.368 660.904 31.176 660.776 30.984C660.584 31.048 660.44 31.08 660.344 31.08C660.12 31.08 659.96 31.08 659.864 31.08C659.8 31.048 659.72 31.016 659.624 30.984C659.528 30.952 659.352 30.936 659.096 30.936C658.872 30.904 658.488 30.872 657.944 30.84C657.56 30.808 657.096 30.776 656.552 30.744C656.008 30.712 655.416 30.664 654.776 30.6L654.296 25.272L653.864 24.648L650.696 24.936L649.928 26.04L649.784 30.36C649.336 30.36 648.904 30.36 648.488 30.36C648.072 30.328 647.672 30.312 647.288 30.312C646.968 30.408 646.792 30.456 646.76 30.456C646.472 30.456 646.216 30.456 645.992 30.456C645.768 30.456 645.544 30.424 645.32 30.36H644.552L643.832 30.984C643.832 31.24 643.832 31.528 643.832 31.848C643.832 32.168 643.848 32.488 643.88 32.808C643.944 33.128 644.024 33.416 644.12 33.672C644.216 33.896 644.344 34.04 644.504 34.104L644.888 34.44C645.208 34.44 645.448 34.44 645.608 34.44C645.768 34.408 646.056 34.36 646.472 34.296C646.504 34.232 646.648 34.2 646.904 34.2C647.096 34.2 647.288 34.216 647.48 34.248C647.704 34.28 647.848 34.312 647.912 34.344C648.008 34.344 648.104 34.344 648.2 34.344C648.328 34.312 648.456 34.296 648.584 34.296L649.256 34.248L649.064 35.208V41.448L649.256 44.184L649.784 45.288L650.984 45.096L654.92 45.384L657.608 45C657.8 44.456 657.896 43.912 657.896 43.368C657.896 42.824 657.8 42.248 657.608 41.64L655.736 40.632V33.768ZM682.647 42.888L682.503 42.696C682.503 42.536 682.455 42.392 682.359 42.264C682.263 42.104 682.183 41.928 682.119 41.736C681.927 41.736 681.751 41.784 681.591 41.88C681.431 41.944 681.255 42.024 681.063 42.12C680.903 42.184 680.695 42.264 680.439 42.36C680.215 42.424 679.927 42.456 679.575 42.456H679.335C678.951 42.488 678.615 42.504 678.327 42.504C678.039 42.504 677.767 42.52 677.511 42.552C677.255 42.552 676.999 42.568 676.743 42.6C676.487 42.6 676.183 42.6 675.831 42.6C675.223 42.504 674.823 42.44 674.631 42.408C674.471 42.344 674.391 42.312 674.391 42.312C674.391 42.312 674.407 42.312 674.439 42.312C674.471 42.312 674.423 42.28 674.295 42.216C674.263 42.248 674.231 42.264 674.199 42.264C674.167 42.264 674.135 42.28 674.103 42.312C674.103 42.312 674.071 42.312 674.007 42.312C673.655 42.184 673.367 42.088 673.143 42.024C672.951 41.96 672.855 41.848 672.855 41.688C672.855 41.56 672.695 41.336 672.375 41.016C672.087 40.696 671.943 40.328 671.943 39.912C671.943 39.432 671.991 38.824 672.087 38.088C672.183 37.32 672.375 36.712 672.663 36.264C672.919 36.104 673.367 35.928 674.007 35.736C674.647 35.512 675.287 35.4 675.927 35.4C676.311 35.4 676.599 35.464 676.791 35.592C677.015 35.688 677.191 35.816 677.319 35.976C677.447 36.136 677.511 36.312 677.511 36.504C677.543 36.664 677.559 36.824 677.559 36.984C677.559 37.208 677.479 37.368 677.319 37.464C677.159 37.56 676.967 37.624 676.743 37.656C676.519 37.688 676.295 37.704 676.071 37.704C675.847 37.704 675.655 37.72 675.495 37.752C674.855 37.944 674.327 38.072 673.911 38.136C673.527 38.2 673.303 38.232 673.239 38.232C673.399 38.296 673.511 38.424 673.575 38.616C673.639 38.808 673.687 39.016 673.719 39.24C673.751 39.432 673.767 39.624 673.767 39.816C673.767 39.976 673.783 40.056 673.815 40.056C674.935 40.056 675.863 40.008 676.599 39.912C677.335 39.816 677.943 39.704 678.423 39.576C678.903 39.416 679.287 39.288 679.575 39.192C679.863 39.064 680.151 38.984 680.439 38.952C680.567 38.632 680.711 38.44 680.871 38.376C681.031 38.28 681.207 38.12 681.399 37.896C681.335 37.448 681.223 37 681.063 36.552C680.935 36.072 680.791 35.64 680.631 35.256C680.471 34.84 680.311 34.488 680.151 34.2C680.023 33.912 679.959 33.736 679.959 33.672C679.735 33.672 679.543 33.624 679.383 33.528C679.255 33.432 679.143 33.336 679.047 33.24C678.983 33.144 678.935 33.048 678.903 32.952C678.871 32.856 678.839 32.808 678.807 32.808C678.455 32.808 678.183 32.728 677.991 32.568C677.863 32.504 677.767 32.424 677.703 32.328C677.191 32.328 676.791 32.264 676.503 32.136C676.215 32.008 675.895 31.944 675.543 31.944C674.743 32.232 673.879 32.44 672.951 32.568C672.055 32.696 671.255 32.968 670.551 33.384C670.167 33.704 669.815 34.008 669.495 34.296C669.175 34.584 668.887 34.904 668.631 35.256C668.375 35.608 668.103 35.992 667.815 36.408C667.527 36.824 667.239 37.32 666.951 37.896C666.791 38.152 666.679 38.408 666.615 38.664C666.583 38.92 666.551 39.176 666.519 39.432C666.519 39.912 666.535 40.392 666.567 40.872C666.631 41.32 666.855 41.832 667.239 42.408C667.399 42.536 667.527 42.68 667.623 42.84C667.751 43 667.815 43.08 667.815 43.08L668.103 43.32C668.167 43.32 668.215 43.416 668.247 43.608C668.311 43.768 668.359 43.848 668.391 43.848H669.255C669.639 44.072 669.943 44.264 670.167 44.424C670.391 44.552 670.599 44.648 670.791 44.712C670.983 44.744 671.191 44.776 671.415 44.808C671.639 44.84 671.927 44.856 672.279 44.856C672.471 44.856 672.663 44.856 672.855 44.856C673.079 44.824 673.303 44.808 673.527 44.808C673.719 44.808 673.927 44.808 674.151 44.808C674.375 44.808 674.647 44.84 674.967 44.904C675.671 44.904 676.247 44.872 676.695 44.808C677.175 44.712 677.639 44.6 678.087 44.472C678.567 44.344 679.063 44.232 679.575 44.136C680.119 44.04 680.775 43.976 681.543 43.944C681.735 43.88 681.959 43.736 682.215 43.512C682.503 43.256 682.647 43.096 682.647 43.032C682.647 42.936 682.567 42.888 682.407 42.888H682.647Z" fill="white"/>
<g clip-path="url(#clip0)">
<path d="M721.601 5.01062C721.525 4.98406 721.352 5.01062 721.388 5.07967L721.681 5.12924L721.601 5.01062Z" fill="#FFFEFE"/>
<path d="M721.068 5.53982C721.266 5.66364 721.505 5.70734 721.735 5.66198C721.45 5.577 721.567 5.55398 721.229 5.46546C721.192 5.38756 721.32 5.32914 721.429 5.33976C721.352 5.3132 721.491 5.2176 721.306 5.18042C721.08 5.28488 721.073 5.41235 721.265 5.53451C721.201 5.55313 721.133 5.55496 721.068 5.53982Z" fill="#FFFEFE"/>
<path d="M720.772 13.0608L720.806 13.0112C720.797 13.0168 720.79 13.024 720.784 13.0326C720.778 13.0411 720.774 13.0507 720.772 13.0608Z" fill="#FFFEFE"/>
<path d="M720.712 17.7191C720.708 17.7045 720.7 17.6915 720.689 17.6822C720.677 17.6729 720.663 17.6678 720.648 17.6677C720.667 17.6996 720.687 17.7261 720.712 17.7191Z" fill="#FFFEFE"/>
<path d="M720.404 18.5192C720.412 18.5045 720.418 18.4891 720.423 18.4731C720.397 18.4908 720.383 18.5086 720.404 18.5192Z" fill="#FFFEFE"/>
<path d="M720.772 13.0608L720.681 13.1865C720.777 13.1936 720.751 13.1228 720.772 13.0608Z" fill="#FFFEFE"/>
<path d="M721.799 6.55965C721.779 6.53135 721.752 6.50876 721.72 6.49414C721.733 6.51405 721.743 6.53476 721.753 6.55611L721.799 6.55965Z" fill="#FFFEFE"/>
<path d="M720.487 11.0196V10.9824C720.448 10.9708 720.407 10.9613 720.367 10.9541L720.487 11.0196Z" fill="#FFFEFE"/>
<path d="M720.409 9.44013C720.399 9.47731 720.649 9.48439 720.765 9.49501C720.662 9.47731 720.612 9.45252 720.587 9.42065C720.527 9.42213 720.468 9.42864 720.409 9.44013Z" fill="#FFFEFE"/>
<path d="M720.794 6.93537L720.758 6.89111C720.769 6.90671 720.781 6.9215 720.794 6.93537Z" fill="#FFFEFE"/>
<path d="M720.459 12.1418C720.429 12.1444 720.399 12.1507 720.37 12.1606C720.4 12.159 720.43 12.1527 720.459 12.1418Z" fill="#FFFEFE"/>
<path d="M723.3 56.1394C723.286 56.1384 723.271 56.1384 723.256 56.1394C723.281 56.1488 723.299 56.1525 723.3 56.1394Z" fill="#FFFEFE"/>
<path d="M722.101 57.9925L722.087 57.9663H721.948L722.101 57.9925Z" fill="#FFFEFE"/>
<path d="M720.115 19.9807C720.091 19.9376 720.096 19.9583 720.115 19.9807V19.9807Z" fill="#FFFEFE"/>
<path d="M720.592 33.327C720.813 33.1694 720.884 33.566 721.126 33.327C721.03 33.3571 720.733 33.134 720.592 33.327Z" fill="#FFFEFE"/>
<path d="M721.767 6.60229C721.77 6.62339 721.77 6.64493 721.767 6.66603C721.772 6.65619 721.775 6.64526 721.775 6.63416C721.775 6.62307 721.772 6.61214 721.767 6.60229Z" fill="#FFFEFE"/>
<path d="M721.128 33.3283L721.151 33.304L721.128 33.3283Z" fill="#FFFEFE"/>
<path d="M720.34 23.3279C720.377 23.3212 720.414 23.3093 720.448 23.2925C720.41 23.2965 720.373 23.3086 720.34 23.3279Z" fill="#FFFEFE"/>
<path d="M720.641 20.8245L720.608 20.8864C720.626 20.8701 720.637 20.8482 720.641 20.8245Z" fill="#FFFEFE"/>
<path d="M720.721 24.6167C720.703 24.6503 720.669 24.6627 720.703 24.7088C720.714 24.7049 720.724 24.6995 720.733 24.6928C720.699 24.6769 720.681 24.6521 720.721 24.6167Z" fill="#FFFEFE"/>
<path d="M720.753 25.9658C720.769 25.958 720.785 25.9491 720.801 25.9392C720.801 25.9268 720.801 25.9109 720.786 25.8967L720.753 25.9658Z" fill="#FFFEFE"/>
<path d="M723.09 52.0425C723.018 52.0721 722.943 52.0946 722.866 52.1098C723.044 52.0938 723.112 52.2815 723.09 52.0425Z" fill="#FFFEFE"/>
<path d="M721.658 6.5634C721.722 6.5634 721.752 6.5811 721.767 6.60235C721.763 6.58677 721.758 6.5714 721.752 6.55632C721.721 6.55271 721.689 6.55511 721.658 6.5634Z" fill="#FFFEFE"/>
<path d="M722.694 24.6287L722.669 24.8429C722.69 24.7736 722.699 24.701 722.694 24.6287Z" fill="#FFFEFE"/>
<path d="M722.847 42.3652L722.877 42.413C722.879 42.3953 722.872 42.3776 722.847 42.3652Z" fill="#FFFEFE"/>
<path d="M722.713 25.4788C722.644 25.5043 722.582 25.5477 722.535 25.6045C722.556 25.6146 722.578 25.6223 722.601 25.6275L722.713 25.4788Z" fill="#FFFEFE"/>
<path d="M723.489 53.5102C723.489 53.3066 723.165 53.4217 722.975 53.3827C722.877 53.1402 723.215 53.2641 723.38 53.1774C723.291 53.0269 722.987 52.9171 722.996 52.8038C723.051 52.7932 723.071 52.7719 723.138 52.7949C722.873 52.6409 723.115 52.3187 722.783 52.1381C722.808 52.125 722.836 52.1161 722.864 52.1116C722.716 52.1411 722.565 52.1542 722.414 52.1505C722.405 52.0584 722.203 51.9841 722.414 51.9451C722.414 52.0018 722.496 52.0053 722.564 52.0301L722.47 51.9363C722.776 51.8424 722.578 52.0638 722.808 52.0584C722.703 51.8814 722.441 51.6619 722.526 51.5167C722.827 51.4795 722.635 51.8495 722.9 51.653L722.788 51.8761C723.261 51.699 722.76 52.0124 723.265 51.846C723.347 51.5521 723.105 51.522 723.185 51.2299C723.016 51.1679 722.937 51.2564 722.768 51.1945C722.457 50.7873 723.521 50.8528 723.112 50.5571C722.909 50.4828 722.526 50.4597 722.724 50.2384L723.067 50.3057C723.094 50.0224 722.573 50.1552 722.795 49.8542C722.93 49.9038 722.913 50.0738 722.953 50.0313C723.219 49.8348 722.756 49.9003 722.752 49.7533L723.055 49.7162C723.001 49.4169 722.776 49.0894 722.713 48.7583C722.802 48.7743 722.891 48.8292 722.989 48.7583C722.829 48.3405 723.007 47.8607 723.178 47.45L722.913 47.3013C722.913 47.2659 723.03 47.2322 723.082 47.2694C723.176 47.1101 722.916 47.2694 722.811 47.1915C722.792 47.103 722.959 47.0693 723.039 47.126C722.811 46.8516 722.544 46.3417 722.816 46.0425L722.897 46.0974C722.996 45.8654 722.363 45.8513 722.594 45.6335L722.64 45.6725C722.744 45.175 722.493 44.6314 722.879 44.2437C722.5 44.18 723.035 43.748 722.51 43.7285C722.763 43.4382 722.866 43.5178 723.025 43.1159C723.048 43.0079 722.694 42.9637 722.637 42.8327L722.911 42.8238L722.619 42.6468L722.945 42.5441L722.872 42.4219C722.851 42.4551 722.821 42.4821 722.786 42.5001C722.751 42.5182 722.712 42.5266 722.672 42.5246C722.544 42.3334 722.85 42.0501 722.993 42.0413L722.751 41.5898C722.861 41.5898 722.902 41.673 722.973 41.7314C722.688 41.4942 723.261 41.6819 723 41.4641C722.937 41.4942 722.836 41.4517 722.781 41.4464C722.943 41.3331 722.939 41.0782 722.866 40.8923L723.055 40.9241C723.096 40.5842 722.95 40.216 722.945 39.8318C722.859 39.9699 722.53 39.9451 722.496 39.8318L722.786 39.7804C722.608 39.7131 722.679 39.899 722.457 39.7556C722.487 39.614 722.784 39.6529 722.88 39.7326L722.776 39.5556C722.863 39.5432 722.909 39.5821 723.019 39.591C722.841 39.5237 723.304 39.2865 722.989 39.1909L723.074 39.1802C723.074 38.7996 722.964 38.6296 722.945 38.3198C722.694 38.3198 722.747 38.1959 722.542 38.1091C722.617 37.879 722.808 37.6222 722.781 37.3496C722.653 37.1584 722.567 37.2965 722.425 37.2133C722.651 37.1938 722.624 36.9212 722.792 37.0592C722.767 36.7683 722.682 36.4855 722.542 36.2289C722.45 36.2749 722.411 36.3263 722.333 36.3015C722.293 36.2271 722.425 36.1245 722.534 36.1368L722.558 36.1563C722.203 35.696 723.199 35.064 722.715 34.701L722.74 34.7223L722.484 34.3416C722.519 34.1646 722.662 34.4443 722.795 34.3097C722.405 33.9025 722.836 33.6511 722.574 33.3148C723.242 33.035 722.507 32.3729 722.93 32.0064L722.772 32.0312C722.615 31.9409 722.861 31.9161 722.895 31.8541C722.772 31.8665 722.756 31.9586 722.669 31.9019C722.461 31.1229 722.864 30.2784 722.989 29.4729C723.025 29.1772 722.167 29.3224 722.537 28.9418L722.832 29.0409C722.468 28.4567 722.818 27.8282 722.507 27.2545C722.574 27.2864 722.663 27.2864 722.663 27.3431C722.873 27.2156 722.663 26.8881 722.486 26.8898C722.503 26.7995 722.644 26.8668 722.731 26.8084C722.854 26.6827 722.452 26.5056 722.662 26.4348C722.697 26.4242 722.733 26.4685 722.749 26.4915C722.644 26.4136 722.767 26.1161 722.523 26.1993C722.635 25.978 722.404 25.7851 722.546 25.608C722.268 25.5 722.671 25.2309 722.281 25.2044C722.683 25.2044 722.596 24.8149 722.404 24.6732C722.526 24.7175 722.528 24.5511 722.697 24.6006C722.688 24.4448 722.61 24.3014 722.404 24.3333C722.879 24.0341 722.003 23.7597 722.617 23.5826C722.41 23.1655 722.248 22.7275 722.135 22.276C722.537 22.276 722.185 22.7399 722.607 22.7133C722.429 22.3185 722.083 22.0955 722.171 21.6989C722.224 21.5944 722.349 21.752 722.416 21.7856C722.238 21.3908 722.436 21.0137 722.21 20.6649C722.247 20.6649 722.288 20.7021 722.32 20.7375C722.306 20.6685 722.375 20.5746 722.192 20.5853L722.244 20.6525C721.982 20.7694 721.685 20.387 721.544 20.3781C722.069 20.4861 721.669 20.024 722.333 20.2011C722.302 20.1674 722.264 20.1417 722.222 20.1263C722.179 20.1108 722.134 20.1061 722.089 20.1126C722.123 20.0435 722.194 20.0205 722.333 20.0878C722.228 19.8381 722.037 19.932 722.035 19.7054C722.124 19.7054 722.16 19.7496 722.263 19.7709C722.085 19.6593 721.907 19.5478 721.984 19.3548C722.037 19.3654 722.107 19.3406 722.107 19.3991C722.073 19.0698 721.635 18.8467 721.795 18.4838C722.179 18.5811 721.918 18.3581 722.249 18.3315L722.135 18.1367L721.977 18.2182C721.977 18.0411 721.733 17.903 721.838 17.7543L721.978 17.8783L721.911 17.5702L721.79 17.7472C721.612 17.5702 721.37 17.7756 721.457 17.5472C721.493 17.5932 721.457 17.3701 721.651 17.2834C721.543 17.202 721.43 17.117 721.509 16.9895C721.615 16.9541 721.877 17.0072 721.948 16.9895C721.669 16.9134 721.861 16.5947 721.564 16.4955C721.654 16.5239 721.75 16.5306 721.843 16.515L721.619 16.4424C721.688 16.3628 721.724 16.3504 721.863 16.3592C721.898 16.122 721.443 16.4442 721.619 16.1592C721.637 16.1804 721.671 16.1698 721.706 16.214C721.795 15.9308 721.551 15.6723 721.656 15.4103C721.989 15.3271 721.744 15.6351 722.023 15.5413C721.957 15.1695 721.601 14.7747 721.676 14.4117L721.64 14.4808C721.169 14.4401 721.868 14.2064 721.642 14.0293C721.707 14.0632 721.78 14.0779 721.852 14.0718C721.923 13.8222 721.726 13.5672 721.569 13.1866L721.69 13.2308C721.795 13.0821 721.745 12.8449 721.797 12.6856C721.674 12.6413 721.692 12.551 721.518 12.6094C722.197 12.1084 721.126 11.6888 721.696 11.2444C721.696 11.2958 721.804 11.3666 721.804 11.3241L721.685 10.9594C721.48 10.993 721.56 11.0107 721.402 11.0904C721.347 11.0764 721.297 11.0474 721.257 11.0068C721.218 10.9662 721.19 10.9154 721.178 10.8602C721.317 11.0213 721.507 10.8514 721.621 10.777C721.555 10.7805 721.489 10.7805 721.423 10.777C721.779 10.577 721.011 10.754 721.245 10.4849L721.354 10.4973C721.295 10.3999 721.151 10.3202 721.176 10.2069C721.423 10.1556 721.299 10.3114 721.495 10.3114C721.477 10.1627 721.037 10.0281 721.272 9.88825C721.34 9.94845 721.342 10.0405 721.409 10.1025C721.685 9.94845 721.614 9.93428 721.656 9.82451V9.83514L721.779 9.57842L721.706 9.64393C721.082 9.46688 721.583 9.2686 721.172 9.02604C721.562 9.26151 721.395 9.06145 721.665 9.07385C721.738 9.00834 721.82 8.9092 721.897 8.93575C721.676 8.82244 722.064 8.73392 721.742 8.58166C721.829 8.57104 721.742 8.45419 721.966 8.47544C721.895 8.32318 721.817 8.51616 721.706 8.50553C721.406 8.27361 722.062 7.93899 721.64 7.60615C721.462 7.3158 721.172 7.26799 721.021 6.99712C721.158 6.90151 721.338 7.06616 721.338 7.06616C721.365 7.04008 721.387 7.00885 721.401 6.97433C721.416 6.93982 721.423 6.90271 721.423 6.86522C721.423 6.82773 721.416 6.79062 721.401 6.7561C721.387 6.72158 721.365 6.69035 721.338 6.66427C721.414 6.69083 721.479 6.66427 721.575 6.61647C721.537 6.49785 721.245 6.54034 721.37 6.38985C721.492 6.41143 721.611 6.44647 721.726 6.49431C721.637 6.3633 721.473 6.23937 721.391 6.10127C721.543 6.06055 721.623 6.1774 721.722 6.2252C721.651 6.07117 721.576 5.82685 721.336 5.78613L721.245 5.88528C721.233 5.83039 721.45 5.85341 721.495 5.88528C721.687 6.01275 721.416 6.07649 721.329 6.08711L721.272 5.98973C720.765 6.10127 721.363 6.381 721.336 6.57752L720.971 6.51201L721.283 6.70853C721.188 6.75279 720.982 6.78643 720.927 6.69083C720.749 6.83601 721.06 6.81299 720.859 6.93869C720.85 6.94559 720.839 6.94931 720.827 6.94931C720.816 6.94931 720.805 6.94559 720.795 6.93869L720.909 7.07325C720.831 7.04846 720.648 7.10334 720.699 7.01659C720.491 7.26799 720.986 7.40963 720.708 7.50877L720.683 7.47868C720.815 7.8186 720.955 7.50523 721.279 7.75664L720.614 7.95139L720.89 7.97794C720.888 7.99356 720.883 8.00861 720.875 8.02211C720.866 8.03562 720.856 8.04726 720.843 8.05629C720.83 8.06532 720.815 8.07152 720.799 8.0745C720.784 8.07747 720.768 8.07715 720.753 8.07355C720.941 8.20279 720.87 8.04876 721.046 8.12135C720.802 8.29839 721.172 8.58875 720.742 8.63655C720.948 8.6932 720.897 8.47013 721.044 8.64894C720.58 8.71091 721.128 8.85785 720.918 9.01896C720.678 8.97647 720.801 8.82598 720.591 8.98709C720.998 9.07208 720.509 9.29161 720.591 9.42085C720.915 9.42085 720.731 9.70412 720.843 9.92189C720.735 9.91127 720.676 10.3415 720.562 10.5486H720.509C720.836 10.5805 720.779 10.7947 720.85 10.947C720.787 10.9547 720.722 10.9489 720.661 10.9299C720.599 10.911 720.543 10.8794 720.495 10.8372V10.9824C720.54 10.9927 720.583 11.0144 720.618 11.0453C720.653 11.0762 720.68 11.1155 720.696 11.1594L720.45 11.1293C720.468 11.3205 720.745 11.51 720.589 11.7614C720.817 11.7614 721.219 11.5507 721.375 11.8092C721.253 11.8216 721.043 11.8375 720.991 11.7685C721.007 11.7915 721.094 11.8464 721.043 11.8942L720.834 11.7932C720.745 11.9083 721.012 11.8481 720.991 11.9384C720.813 11.9384 720.866 12.0092 720.728 11.9986C720.71 11.9756 720.799 11.9189 720.728 11.8853C720.708 11.9473 720.674 12.004 720.628 12.0509C720.583 12.0979 720.528 12.1339 720.466 12.1562C720.566 12.1456 720.703 12.1562 720.726 12.2252C720.744 12.4182 720.516 12.2961 720.429 12.4111C720.552 12.4554 720.429 12.5882 720.69 12.5776C720.69 12.6342 720.569 12.6466 720.498 12.6714C720.616 12.7688 720.541 13.1352 720.818 13.0255L720.836 13.0007C720.836 13.0007 720.836 13.0113 720.847 13.0166C721.108 13.3211 720.712 13.6752 720.826 13.9975H720.738C720.843 14.1887 720.808 14.4259 720.998 14.5605C720.998 14.6189 720.842 14.7003 720.737 14.6773C720.806 14.8242 720.904 14.8384 720.765 15.0544C720.608 14.9092 720.63 15.1093 720.649 14.9057C720.576 15.0987 720.438 15.1465 720.681 15.3465C720.455 15.281 720.402 15.4988 720.471 15.5873L720.63 15.4457C720.655 15.5391 720.655 15.6373 720.63 15.7307L720.333 15.6865C719.977 16.0883 720.961 16.384 720.365 16.6956C720.573 16.7965 720.505 16.4796 720.749 16.5681C720.713 16.7452 720.294 16.947 720.294 17.0037C720.135 17.2551 720.731 17.225 720.624 17.487C720.729 17.4516 721.011 17.4144 721.114 17.6056C721.078 17.7827 720.676 17.8393 720.589 17.726C720.578 17.6835 720.612 17.6605 720.648 17.6623C720.608 17.6038 720.56 17.5295 720.448 17.6038L720.553 17.6251C720.448 17.7172 720.464 17.965 720.29 17.9101C720.395 18.0447 720.468 17.965 720.518 17.8623C720.37 18.0978 720.518 18.2164 720.423 18.4678C720.48 18.4289 720.601 18.3899 720.601 18.4289C720.479 18.783 720.806 18.5776 720.858 18.8148C720.699 18.9529 720.471 18.7741 720.612 19.0113C720.507 19.1601 720.333 19.0485 720.246 18.9919C720.454 19.2061 720.121 19.4026 720.085 19.523L720 19.4203C720.038 19.4713 720.057 19.5339 720.053 19.5974L720.262 19.5265C720.228 19.5956 720.228 19.6522 720.139 19.654C720.279 19.7195 720.495 19.5921 720.681 19.7266C720.576 19.8187 720.802 19.9975 720.523 20.0347C720.612 19.7496 720.242 20.0718 720.192 19.8328C720.21 19.8588 720.22 19.8897 720.22 19.9214C720.22 19.953 720.21 19.9839 720.192 20.0099C720.178 20.0131 720.164 20.0123 720.151 20.0076C720.138 20.0029 720.126 19.9944 720.117 19.9833C719.874 20.2595 720.438 20.1002 720.438 20.3799C720.278 20.348 720.139 20.4525 720.174 20.4967C720.174 20.3834 720.436 20.4366 720.559 20.5392C720.439 20.7163 720.655 20.7322 720.642 20.8261L720.697 20.7181C720.856 20.7499 720.838 20.8402 720.89 20.9659C720.767 20.9783 720.804 20.8526 720.751 20.8986C721.03 21.0314 720.47 21.2191 720.66 21.4103C720.557 21.5024 720.365 21.4245 720.294 21.5059C720.504 21.7184 720.082 21.7449 720.256 21.9698C720.468 21.8989 720.415 21.8901 720.626 22.0459L720.468 21.6741L720.781 21.9078C720.781 21.7945 720.644 21.6706 720.678 21.6033C720.856 21.713 720.801 21.7024 720.975 21.6458C720.66 21.8069 721.167 21.9485 720.957 22.1326H720.423C720.196 22.4071 720.705 22.6071 720.58 22.9594L720.669 22.8444C720.879 22.8868 720.703 23.0604 720.79 23.1719C720.665 23.1732 720.543 23.2141 720.443 23.2887C720.573 23.2887 720.443 23.5455 720.788 23.5685L720.56 23.7296C720.471 24.0146 721.068 24.0412 721.014 24.3156C720.82 24.2377 720.699 24.3634 720.559 24.1846C720.559 24.2749 720.528 24.3616 720.651 24.3616C720.541 24.4165 720.893 24.6077 720.728 24.6945C720.806 24.7316 720.989 24.7405 720.977 24.8432C720.949 24.8491 720.92 24.8491 720.891 24.8432C720.977 24.8432 721.012 25.0008 721.205 24.9069C720.671 25.199 721.261 25.6877 720.795 25.9409C720.864 26.1403 720.911 26.3461 720.938 26.5552C720.884 26.5446 720.85 26.5552 720.868 26.5216C720.712 26.7765 721.381 26.6614 721.205 26.9536C720.923 27.104 721.048 26.8066 720.943 26.8987C720.365 26.95 721.028 27.2368 720.696 27.4298L720.66 27.3838C720.468 27.5343 720.886 27.7379 720.85 27.9716C720.822 27.9657 720.792 27.9657 720.763 27.9716C721.062 28.1274 721.165 28.4336 721.253 28.6585C721.025 28.593 721.132 28.5576 720.897 28.6071C720.932 28.7081 721.265 28.5682 721.334 28.7718C721.212 28.8409 721.107 28.9896 720.861 29.0144L720.845 28.8231C720.528 28.9276 720.861 29.071 720.808 29.1772H720.669C720.721 29.4711 721.069 29.4676 721.051 29.7845L721.156 29.7491C721.512 29.9155 720.964 29.8996 721.226 30.066L720.87 30.1262C721.036 30.3051 721.177 30.5059 721.288 30.7228C721.027 30.6131 720.888 30.3687 720.729 30.2306C720.729 30.344 720.763 30.6148 720.939 30.6715C720.904 30.6255 720.817 30.5706 720.87 30.5245C721.149 30.6573 721.288 30.8361 721.286 31.0557C720.605 31.0309 721.128 31.6488 720.603 31.824C720.865 32.2171 720.514 32.619 720.564 33.0828C721.098 32.9058 720.582 33.2192 721.124 33.1784C721.162 33.2864 721.155 33.3272 721.124 33.3378L720.808 33.6742C720.649 33.7556 720.685 33.5732 720.562 33.5856C720.527 33.8246 720.334 33.6901 720.194 33.8512C720.388 33.814 720.473 33.9273 720.402 34.0637L720.655 33.8583C720.952 34.1823 720.205 34.1539 720.498 34.4833L720.32 34.3806C720.425 34.5576 720.32 35.0144 720.77 35.172C720.708 35.2038 720.56 35.2481 720.52 35.172C720.463 35.5845 721.005 36.0749 720.742 36.4006L720.608 36.3723C720.649 36.4484 720.861 36.4998 720.729 36.5989C720.674 36.5989 720.596 36.5706 720.589 36.5989C720.637 36.6379 720.827 36.7972 720.751 36.8999L720.6 36.8167C720.434 37.2204 720.979 37.4222 721.076 37.7568C720.941 37.7635 720.812 37.8146 720.708 37.902C720.605 37.9894 720.534 38.1082 720.505 38.2401H720.448C720.411 38.7058 720.79 39.0244 720.954 39.4511C720.536 39.7291 720.795 40.3629 720.568 40.7984C720.637 40.7311 720.872 40.7984 720.913 40.8781C720.836 40.9808 721.19 41.1507 720.831 41.1437V41.1065C720.475 41.1897 720.578 41.3968 720.571 41.5579L721.043 41.5756C720.368 42.013 721.318 42.6804 720.71 42.9247C720.831 43.0239 720.833 43.1513 720.952 43.2505H720.712C720.641 43.5034 720.634 43.7698 720.692 44.0259L720.514 43.9587C720.504 44.157 721.247 44.1924 721.265 44.3747L720.89 44.4455C720.902 44.7908 720.58 45.1537 720.929 45.4795C720.874 45.4795 720.763 45.4671 720.751 45.4122C720.751 45.5751 720.511 46.046 721.025 45.9752C720.689 45.9876 721 46.3293 721.153 46.5152L720.904 46.4922C721.224 46.6409 721.311 46.6444 721.402 46.8622C721.372 46.9153 721.206 46.9118 721.267 46.841C721.142 47.018 721.505 46.972 721.377 47.1844L721.217 47.1101C721.203 47.2871 721.286 47.2729 721.473 47.3668C721.576 47.4765 721.418 47.7067 721.196 47.7368C721.333 47.758 721.518 47.8519 721.455 47.9581C721.427 47.9638 721.397 47.9632 721.369 47.9565C721.341 47.9498 721.315 47.937 721.292 47.9191C721.128 48.2201 721.589 48.3564 721.35 48.5671C721.299 48.5659 721.248 48.5787 721.203 48.6043C721.19 48.4688 721.197 48.3321 721.226 48.1989C720.998 48.1989 720.963 48.3954 720.642 48.2502C720.82 48.4007 721.199 48.6557 721.096 48.8433C721.071 48.8556 721.044 48.8645 721.016 48.8699L720.991 48.8522C720.968 48.8947 720.991 48.9336 721.03 48.969C720.995 49.0141 720.972 49.0679 720.964 49.1248C720.776 49.1514 720.868 49.3461 720.861 49.4417C721.11 49.4276 721.073 49.5533 721.277 49.4329C721.26 49.4488 721.247 49.4152 721.235 49.3514C721.23 49.3362 721.22 49.3227 721.208 49.3125H721.229C721.229 49.2505 721.213 49.1691 721.208 49.0752C721.336 49.1478 721.445 49.2257 721.309 49.3337C721.471 49.3798 721.637 49.4293 721.715 49.4577C721.37 49.5958 721.181 49.8525 720.971 49.8914C721.119 50.18 721.08 50.5748 721.553 50.7483C721.615 50.8298 721.422 50.8475 721.347 50.8793C721.299 50.8333 721.306 50.7749 721.237 50.7519C721.361 50.9147 721.295 51.2405 721.624 51.2724C721.48 51.4848 721.318 51.1626 721.379 51.4494L721.277 51.414C720.765 51.9876 722.135 52.3098 721.477 52.9507C721.49 52.9312 721.506 52.9144 721.526 52.9013C721.546 52.8883 721.567 52.8792 721.591 52.8746C721.308 53.5934 721.9 54.337 721.445 55.0523C721.354 55.2541 721.564 55.27 721.726 55.3886L721.459 55.4382L721.779 55.6347C722.012 55.9269 721.132 56.1659 721.567 56.52L721.745 56.4686C721.715 56.6032 721.863 56.8918 721.653 56.8741C721.687 56.8864 721.843 56.9148 721.749 56.9679H721.608L721.857 57.2919C721.761 57.5504 721.299 57.2635 721.279 57.646C721.336 57.7841 721.697 58.0337 721.79 57.9788C721.805 57.9322 721.836 57.8921 721.877 57.8645C721.918 57.837 721.967 57.8237 722.016 57.8266L722.091 57.9523C722.505 57.9664 722.932 58.0549 723.215 57.7363L722.957 57.5238L723.156 57.4494L723.172 57.6265C723.359 57.5185 723.19 57.4495 723.074 57.3857C723.156 57.378 723.233 57.3445 723.293 57.2901L722.893 57.0847C723.055 57.0564 723.217 57.1733 723.302 57.0281C723.124 56.9325 722.946 57.1325 722.818 56.9697C722.996 56.8617 723.158 56.8882 722.996 56.7696C723.035 56.7585 723.075 56.7576 723.114 56.7669C723.153 56.7762 723.189 56.7954 723.219 56.8227C723.089 56.7165 723.158 56.5359 722.937 56.4846C723.167 56.3712 722.868 56.1181 723.261 56.1216C723.165 56.088 722.948 55.9357 722.93 55.8366C723.404 56.0136 722.95 55.463 723.453 55.5002C723.028 55.3745 723.256 55.0151 723.016 54.7814C723.05 54.7938 723.119 54.8186 723.098 54.8416C723.13 54.7053 723.256 54.6645 723.334 54.576C722.978 54.5654 722.9 54.3583 722.683 54.2503C723.016 54.0732 723.094 54.3405 723.416 54.2821C723.135 54.2963 723.128 54.0024 722.895 54.0626C723.099 53.9316 722.993 53.951 723.281 53.8855C722.845 53.8731 723.204 53.7705 722.934 53.6713C723.146 53.4837 723.341 53.6147 723.204 53.4181C723.331 53.3332 723.489 53.5102 723.489 53.5102ZM722.631 48.7566C722.631 48.7973 722.644 48.8327 722.649 48.8557C722.647 48.8327 722.642 48.8044 722.631 48.7548V48.7566ZM722.619 48.3564C722.612 48.4153 722.612 48.4747 722.619 48.5335C722.534 48.5494 722.441 48.5335 722.441 48.4963C722.5 48.5105 722.546 48.4166 722.619 48.3547V48.3564ZM720.904 49.2417C720.868 49.1797 720.916 49.1567 720.968 49.1461C720.974 49.1844 720.985 49.2219 721 49.2576H721.03C720.988 49.2555 720.945 49.2496 720.904 49.2399V49.2417Z" fill="#FFFEFE"/>
<path d="M721.235 49.3461C721.235 49.355 721.251 49.3603 721.253 49.3727L721.309 49.3337L721.229 49.3125L721.235 49.3461Z" fill="#FFFEFE"/>
<path d="M720.811 13.0033C720.821 12.9942 720.833 12.9877 720.845 12.9846C720.834 12.9917 720.823 12.998 720.811 13.0033Z" fill="#FFFEFE"/>
<path d="M722.977 42.8096L722.913 42.8113L722.968 42.845L722.977 42.8096Z" fill="#FFFEFE"/>
<path d="M721.621 10.7772C721.644 10.772 721.666 10.7617 721.685 10.7471C721.662 10.7527 721.64 10.763 721.621 10.7772Z" fill="#FFFEFE"/>
<path d="M721.656 9.82267L721.742 9.68457C721.705 9.72517 721.676 9.77193 721.656 9.82267Z" fill="#FFFEFE"/>
<path d="M721.763 9.08708C721.728 9.07975 721.692 9.07537 721.656 9.07397L721.763 9.08708Z" fill="#FFFEFE"/>
<path d="M722.313 20.7378C722.315 20.7478 722.318 20.7575 722.324 20.7661C722.373 20.8316 722.354 20.7874 722.313 20.7378Z" fill="#FFFEFE"/>
<path d="M721.653 17.2818C721.699 17.314 721.742 17.3514 721.779 17.3933C721.792 17.3278 721.795 17.28 721.653 17.2818Z" fill="#FFFEFE"/>
<path d="M722.697 24.606C722.698 24.614 722.698 24.6221 722.697 24.6301V24.606Z" fill="#FFFEFE"/>
<path d="M721.779 17.5506C721.799 17.5289 721.809 17.5009 721.809 17.4719C721.809 17.4428 721.799 17.4148 721.779 17.3931C721.758 17.4409 721.733 17.5011 721.779 17.5506Z" fill="#FFFEFE"/>
<path d="M721.808 5.90638L721.817 5.87097L721.779 5.86743L721.808 5.90638Z" fill="#FFFEFE"/>
<path d="M721.779 5.86756L721.749 5.82861C721.747 5.84632 721.749 5.86225 721.779 5.86756Z" fill="#FFFEFE"/>
<path d="M721.681 5.74731L721.747 5.82875C721.747 5.80043 721.754 5.76502 721.681 5.74731Z" fill="#FFFEFE"/>
<path d="M721.713 6.87839L721.804 6.88775C721.774 6.88042 721.744 6.87728 721.713 6.87839Z" fill="#FFFEFE"/>
<path d="M721.745 7.17426C721.765 7.10345 721.936 6.99722 721.877 6.8963L721.804 6.88745C721.941 6.93171 721.601 7.11053 721.745 7.17426Z" fill="#FFFEFE"/>
<path d="M720.653 8.42932L720.712 8.18677C720.617 8.2328 720.488 8.29122 720.463 8.18677C720.189 8.49128 720.685 8.10356 720.653 8.42932Z" fill="#FFFEFE"/>
<path d="M720.534 9.19788C720.486 9.06686 720.395 9.19788 720.34 9.19788C720.423 9.27932 720.447 9.29879 720.534 9.19788Z" fill="#FFFEFE"/>
<path d="M720.649 14.7376H720.422C720.455 14.8297 720.509 14.727 720.649 14.7376Z" fill="#FFFEFE"/>
<path d="M721.849 15.7694L721.987 15.6668L721.777 15.6243L721.849 15.7694Z" fill="#FFFEFE"/>
<path d="M720.242 16.43L720.208 16.3857L720.294 16.5557L720.242 16.43Z" fill="#FFFEFE"/>
<path d="M720.534 25.7303L720.815 25.6931C720.753 25.6258 720.438 25.617 720.534 25.7303Z" fill="#FFFEFE"/>
<path d="M720.898 29.7402C720.76 29.7863 720.673 29.9013 720.811 29.9686C720.829 29.8783 720.936 29.7863 720.898 29.7402Z" fill="#FFFEFE"/>
<path d="M720.705 41.7935L720.61 41.7139L720.692 41.8644L720.705 41.7935Z" fill="#FFFEFE"/>
<path d="M722.012 27.704C721.955 27.7766 721.977 27.9519 722.124 27.9235L722.244 27.6367L722.012 27.704Z" fill="#FFFEFE"/>
<path d="M722.975 28.2903C723.153 28.1575 723.364 27.9168 723.263 27.6423C723.085 27.9168 723.044 27.7964 722.845 28.1239C722.815 28.1326 722.783 28.1332 722.753 28.1258C722.722 28.1184 722.695 28.1031 722.672 28.0816C722.65 28.0601 722.633 28.033 722.624 28.0031C722.616 27.9733 722.615 27.9416 722.623 27.9114C722.567 27.984 722.398 27.8371 722.309 28.0177C722.487 28.2514 722.733 28.2726 722.994 28.0956C723.046 28.1628 722.991 28.2372 722.975 28.2903Z" fill="#FFFEFE"/>
<path d="M737.416 28.4814L737.32 28.4548C737.35 28.471 737.383 28.4801 737.416 28.4814Z" fill="#FFFEFE"/>
<path d="M746.343 27.5715C746.277 27.5892 746.254 27.6229 746.254 27.6494C746.314 27.6193 746.362 27.5945 746.343 27.5715Z" fill="#FFFEFE"/>
<path d="M747.912 27.6387H747.819C747.857 27.663 747.894 27.663 747.912 27.6387Z" fill="#FFFEFE"/>
<path d="M737.416 28.4814L737.664 28.5523C737.673 28.4567 737.536 28.4921 737.416 28.4814Z" fill="#FFFEFE"/>
<path d="M724.982 27.6616C724.932 27.6746 724.887 27.7002 724.85 27.736C724.89 27.724 724.93 27.7146 724.971 27.7076C724.982 27.6846 724.982 27.6722 724.982 27.6616Z" fill="#FFFEFE"/>
<path d="M733.483 28.9697H733.41C733.388 29.009 733.37 29.0498 733.355 29.0919L733.483 28.9697Z" fill="#FFFEFE"/>
<path d="M730.446 29.1187C730.515 29.1276 730.533 28.878 730.558 28.7646C730.549 28.8035 730.532 28.8399 730.506 28.8707C730.481 28.9014 730.448 28.9258 730.412 28.9417C730.413 29.0022 730.424 29.0621 730.446 29.1187Z" fill="#FFFEFE"/>
<path d="M725.633 28.6797L725.546 28.7133C725.569 28.7027 725.606 28.6939 725.633 28.6797Z" fill="#FFFEFE"/>
<path d="M735.657 28.9009C735.663 28.9314 735.675 28.9607 735.691 28.9876C735.688 28.956 735.677 28.9258 735.657 28.9009Z" fill="#FFFEFE"/>
<path d="M724.667 9.74128C724.667 9.72358 724.667 9.71118 724.667 9.69702C724.649 9.72181 724.644 9.73951 724.667 9.74128Z" fill="#FFFEFE"/>
<path d="M721.165 8.50016L721.213 8.486C721.22 8.4402 721.223 8.3941 721.224 8.3479L721.165 8.50016Z" fill="#FFFEFE"/>
<path d="M747.869 24.6521H747.88C747.965 24.6708 747.921 24.6521 747.869 24.6521Z" fill="#FFFEFE"/>
<path d="M750.506 16.9648C750.698 17.1419 750.467 17.1419 750.31 17.1684C750.196 17.2092 750.079 17.2517 750.266 17.4446C750.255 17.3897 750.417 17.3419 750.55 17.2782C750.684 17.2145 750.78 17.1313 750.506 16.9648Z" fill="#FFFEFE"/>
<path d="M725.058 27.6904C725.099 27.6876 725.14 27.6876 725.181 27.6904C725.141 27.68 725.099 27.68 725.058 27.6904Z" fill="#FFFEFE"/>
<path d="M750.266 17.4446L750.316 17.4853C750.298 17.4726 750.282 17.459 750.266 17.4446Z" fill="#FFFEFE"/>
<path d="M744.711 23.8945L744.364 23.9565L744.711 23.8945Z" fill="#FFFEFE"/>
<path d="M746.047 24.4751L745.941 24.406C745.972 24.4352 746.008 24.4586 746.047 24.4751Z" fill="#FFFEFE"/>
<path d="M744.453 23.5773C744.522 23.5667 744.601 23.5685 744.572 23.5437H744.499C744.553 23.5579 744.569 23.5685 744.453 23.5773Z" fill="#FFFEFE"/>
<path d="M745.636 23.0371C745.62 23.023 745.606 23.0141 745.59 23.0017L745.556 23.0318L745.636 23.0371Z" fill="#FFFEFE"/>
<path d="M732.538 9.64202C732.488 9.57629 732.447 9.5035 732.419 9.42603C732.454 9.60307 732.079 9.65618 732.538 9.64202Z" fill="#FFFEFE"/>
<path d="M724.982 27.7944C725 27.7324 725.021 27.7023 725.062 27.6899C725.032 27.6899 725.003 27.6899 724.975 27.7006C724.969 27.7158 724.967 27.7321 724.968 27.7482C724.969 27.7644 724.974 27.7801 724.982 27.7944Z" fill="#FFFEFE"/>
<path d="M740.695 23.2197C740.93 23.1135 741.149 23.0073 741.389 22.9028C741.152 22.9945 740.92 23.1003 740.695 23.2197Z" fill="#FFFEFE"/>
<path d="M746.028 9.97558L745.992 9.96436C745.976 9.97184 745.976 9.97745 746.028 9.97558Z" fill="#FFFEFE"/>
<path d="M743.307 21.9325C743.487 21.9333 743.666 21.9143 743.841 21.8759C743.855 21.8508 743.863 21.823 743.864 21.7944L743.307 21.9325Z" fill="#FFFEFE"/>
<path d="M729.707 9.99985C730.099 9.99985 729.885 9.6794 729.976 9.49174C730.444 9.39967 730.191 9.73252 730.349 9.90071C730.643 9.81573 730.867 9.51475 731.084 9.52891C731.102 9.58203 731.143 9.60327 731.093 9.67055C731.403 9.41029 732.011 9.65993 732.372 9.33417C732.394 9.35713 732.41 9.38509 732.419 9.41561C732.369 9.2712 732.35 9.118 732.364 8.96591C732.541 8.96591 732.691 8.76054 732.757 8.97477C732.648 8.97477 732.639 9.05444 732.589 9.11994L732.767 9.02788C732.933 9.33594 732.517 9.13411 732.517 9.36072C732.872 9.26158 733.294 9.00663 733.57 9.09693C733.627 9.3979 732.926 9.19607 733.292 9.46341L732.867 9.34833C733.191 9.82281 732.607 9.31469 732.906 9.82281C733.467 9.91133 733.532 9.67055 734.091 9.76084C734.217 9.59265 734.05 9.51298 734.177 9.34656C734.972 9.04735 734.801 10.1043 735.386 9.70065C735.538 9.50059 735.598 9.12171 736.013 9.32354L735.87 9.66347C736.404 9.69711 736.182 9.17483 736.749 9.40498C736.648 9.53777 736.322 9.51652 736.404 9.55724C736.771 9.82635 736.666 9.36426 736.948 9.36603L737.005 9.66701C737.584 9.62098 738.221 9.40498 738.859 9.35187C738.824 9.44216 738.715 9.52891 738.859 9.62806C739.665 9.47934 740.582 9.66878 741.35 9.84936L741.667 9.60327C741.736 9.60327 741.795 9.72012 741.72 9.77147C742.025 9.87061 741.736 9.60681 741.882 9.50413C742.06 9.48642 742.11 9.65462 742.001 9.73252C742.535 9.51298 743.526 9.26158 744.09 9.54131L743.98 9.61744C744.419 9.72366 744.476 9.0863 744.884 9.33062L744.805 9.37489C744.925 9.39082 745.046 9.39967 745.161 9.40498H745.295H745.378C745.489 9.40498 745.604 9.40498 745.713 9.40498C745.924 9.40498 746.127 9.44747 745.924 9.64399C746.243 9.4581 746.28 9.49882 746.321 9.52183C746.362 9.54485 746.416 9.55016 747.033 9.29168C746.912 9.38616 746.78 9.46581 746.64 9.52891L746.273 9.70596L745.905 9.85999C746.025 9.83805 746.144 9.80968 746.261 9.77501C746.404 9.73016 746.552 9.70572 746.702 9.70242L746.07 9.85999C746.247 9.82653 746.425 9.80465 746.604 9.79448C746.353 9.85645 746.111 9.91133 745.882 9.95736C745.912 9.96034 745.943 9.96566 745.973 9.9733C746.117 9.93284 746.264 9.90091 746.412 9.87769C746.474 9.90779 746.296 9.991 746.113 10.0353C745.954 10.0754 745.791 10.0927 745.627 10.0866C745.664 10.1071 745.693 10.1374 745.713 10.1741C745.732 10.2108 745.741 10.2523 745.738 10.2937C745.633 10.2389 745.624 10.1964 745.56 10.1592C745.681 10.2424 745.586 10.2247 745.512 10.1893C745.437 10.1539 745.36 10.1132 745.455 10.2035C745.519 10.2393 745.579 10.2834 745.633 10.3345C745.593 10.3224 745.552 10.3147 745.51 10.3115H745.465H745.446L745.417 10.3309C745.258 10.4453 745.114 10.5785 744.987 10.7275L744.923 10.5381C744.389 10.9099 743.914 11.4693 743.345 11.9243C743.392 11.9025 743.445 11.8974 743.496 11.9099C743.547 11.9223 743.592 11.9516 743.623 11.9928C743.655 12.0341 743.672 12.0848 743.671 12.1367C743.669 12.1887 743.65 12.2386 743.617 12.2784L743.368 12.1014C743.368 12.3262 743.61 12.0465 743.528 12.3935C743.295 12.5387 743.172 12.2536 743.24 12.0819L743.046 12.3669C742.976 12.3138 743.007 12.2288 742.953 12.1315C742.953 12.243 742.8 12.2766 742.649 12.328C742.4 12.4555 742.115 12.6378 742.103 12.8467L742.001 12.8166C741.455 13.2557 741.085 13.585 740.756 13.8789C740.427 14.1728 740.14 14.4472 739.729 14.7889C740.151 14.7677 739.729 15.0332 739.907 15.143L739.747 15.2474C739.961 15.3678 740.176 15.5077 740.459 15.6564C740.79 15.8318 741.136 15.9769 741.493 16.0902C741.868 16.1521 741.957 16.1274 742.026 16.0902C742.063 16.0551 742.106 16.0276 742.153 16.0093C742.201 15.9911 742.251 15.9825 742.302 15.984C742.21 16.0725 742.37 16.1822 742.492 16.269C742.615 16.3557 742.695 16.4212 742.409 16.4106L743.092 16.616L743.377 16.6974L743.514 16.7364L743.58 16.7523L743.62 16.7612C743.841 16.8054 744.087 16.8373 744.494 16.8798C744.442 16.7647 744.364 16.6939 744.437 16.6372C744.587 16.6496 744.718 16.8338 744.663 16.9311H744.619C745.578 16.8993 746.362 18.2253 747.191 18.0093H747.147H747.928C748.237 18.1581 747.679 18.1049 747.871 18.3192C748.75 18.22 749.049 18.7795 749.75 18.7529C749.721 19.0964 749.7 19.0769 749.824 19.0751C749.884 19.0668 749.944 19.0698 750.002 19.084C750.036 19.0999 750.017 19.13 749.824 19.1761L750.129 19.1123C750.298 19.0893 750.269 19.1123 750.18 19.1123L749.917 19.1654C750.184 19.1265 750.186 19.107 750.39 19.0858C750.519 19.0934 750.645 19.1202 750.766 19.1654C750.801 19.1814 750.823 19.1973 750.828 19.2132C750.83 19.2165 750.831 19.2202 750.831 19.2239C750.831 19.2276 750.83 19.2312 750.828 19.2345C750.828 19.2345 750.828 19.2345 750.808 19.2345H750.732C750.487 19.2547 750.242 19.2606 749.997 19.2522C749.864 19.2537 749.731 19.2345 749.604 19.1955C749.744 19.2636 749.879 19.3424 750.008 19.431C750.091 19.4894 750.154 19.5443 750.15 19.5726C750.146 19.601 750.079 19.6045 749.951 19.5461C749.89 19.4582 749.819 19.3779 749.739 19.3071C749.75 19.3196 749.757 19.3342 749.761 19.35C749.766 19.3657 749.766 19.3822 749.763 19.3982C749.76 19.4142 749.754 19.4294 749.745 19.4427C749.735 19.4561 749.723 19.4672 749.709 19.4753H749.696L749.645 19.4947L749.542 19.5355L749.335 19.608L748.915 19.7461C748.348 19.8997 747.808 20.1385 747.314 20.4543C747.353 20.3676 747.325 20.2773 747.43 20.2472C747.127 20.1286 746.593 20.5535 746.656 20.7163C746.478 20.7624 746.56 20.5853 746.424 20.5393C746.152 20.5092 745.965 21.0173 745.768 20.8686C745.734 20.8438 745.803 20.7783 745.839 20.7464C745.732 20.9022 745.151 20.9996 745.385 21.1696C745.046 21.1891 744.432 21.6865 743.845 21.8069C743.789 21.984 743.503 22.0778 743.234 22.1805C742.966 22.2832 742.745 22.3859 742.955 22.501C742.72 22.3912 742.338 22.4886 741.989 22.655C741.831 22.7276 741.682 22.816 741.542 22.9188C741.428 23.0073 741.364 23.0958 741.364 23.1419C741.268 23.0533 740.8 23.2906 740.631 23.1879C740.46 23.2649 740.304 23.3723 740.171 23.5048C740.115 23.5845 740.188 23.6252 740.45 23.6057C740.125 23.6671 739.811 23.7732 739.516 23.9208C739.38 23.9899 739.259 24.0849 739.16 24.2006C739.074 24.3075 738.962 24.3905 738.834 24.4414C738.492 24.5737 738.138 24.6739 737.778 24.7406L737.584 24.9034L737.489 24.9831L737.466 25.0026C737.466 25.0026 737.447 25.0168 737.454 25.0168L737.477 25.0274C737.547 25.0541 737.619 25.0749 737.692 25.0893C737.714 25.1436 737.749 25.1916 737.794 25.2292L737.811 25.2434H737.82V25.2593C737.82 25.2788 737.806 25.3 737.801 25.3195C737.79 25.3572 737.782 25.3957 737.778 25.4346C738.781 25.362 739.653 25.3089 740.398 25.2575C740.12 25.3371 739.835 25.3962 739.548 25.4346C739.254 25.4735 738.954 25.4983 738.658 25.516L737.769 25.562C737.47 25.578 737.174 25.601 736.845 25.6382C736.763 25.6169 736.543 25.6382 736.016 25.7586C735.995 25.7787 735.98 25.8045 735.973 25.8329C736.863 25.7533 737.714 25.6718 738.464 25.5975L740.404 25.3992C740.953 25.3461 741.471 25.3 741.85 25.2841C742.051 25.2752 742.245 25.2699 742.437 25.2699H742.724C742.801 25.276 742.877 25.2861 742.953 25.3C743.094 25.339 742.985 25.3708 742.795 25.4009C742.701 25.4151 742.587 25.4293 742.48 25.4417L742.4 25.4523L742.313 25.4664L742.169 25.4912C742.24 25.4912 742.329 25.4771 742.382 25.4788H742.56H742.884C743.094 25.4788 743.295 25.493 743.489 25.5036C743.827 25.5497 744.14 25.6063 744.451 25.6647L744.889 25.7763L745.106 25.8276L745.304 25.8701C745.464 25.9084 745.629 25.9281 745.795 25.9285C745.782 25.9622 745.702 25.9799 745.631 25.9887C745.757 26.0117 745.884 26.141 745.933 25.9639H745.802C745.695 25.6453 746.467 25.6099 746.545 25.5054C746.149 25.9055 747.093 25.8736 746.517 26.3481C746.57 26.3515 746.623 26.3381 746.668 26.3098C746.713 26.2815 746.748 26.2398 746.768 26.1906C746.866 26.2755 746.869 26.3552 746.7 26.4296C747.145 26.5269 747.09 26.2808 747.453 26.4721C747.412 26.55 747.323 26.5429 747.238 26.6155C747.367 26.5798 747.5 26.5626 747.634 26.5641C747.784 26.5766 747.925 26.639 748.035 26.7412C747.99 26.7766 747.99 26.8562 747.901 26.8049C748.096 26.8965 748.301 26.962 748.513 26.9996L748.741 25.863C748.426 26.0401 748.12 26.2171 747.673 26.1923C747.809 25.7816 747.421 26.1091 747.33 25.7904L746.974 25.9498L747.152 26.0843C746.83 26.1321 746.586 26.4136 746.293 26.3517L746.51 26.1746L745.919 26.3322L746.275 26.4012C745.978 26.6225 746.376 26.8102 745.933 26.7872C746.015 26.7394 745.611 26.835 745.414 26.6686C745.35 26.7462 745.268 26.8066 745.175 26.844C745.081 26.8815 744.98 26.8948 744.88 26.8828C744.804 26.7872 744.88 26.5145 744.825 26.4508C744.709 26.7465 744.085 26.6279 743.926 26.9554C743.948 26.9119 743.961 26.8642 743.962 26.8156C743.964 26.767 743.955 26.7186 743.935 26.6739L743.836 26.9147C743.676 26.8651 743.658 26.8315 743.658 26.6916C743.204 26.7093 743.859 27.0882 743.302 26.9802C743.341 26.9554 743.316 26.9253 743.4 26.881C742.852 26.8545 742.384 27.1608 741.877 27.1076C741.699 26.7943 742.297 26.9766 742.096 26.7181C741.395 26.8562 740.672 27.29 739.975 27.2776L740.108 27.3006C740.06 27.7769 739.575 27.1236 739.245 27.3768C739.327 27.3343 739.331 27.1076 739.313 27.1608C738.834 27.136 738.361 27.3661 737.657 27.575L737.735 27.4476C737.448 27.3644 736.998 27.4476 736.692 27.4139C736.612 27.5414 736.44 27.5343 736.557 27.7007C736.066 27.3891 735.634 27.5237 735.21 27.6476C734.787 27.7716 734.374 27.9238 733.947 27.6618C734.047 27.6618 734.177 27.5432 734.098 27.5467C733.867 27.5981 733.636 27.6459 733.403 27.6919C733.468 27.8937 733.5 27.8123 733.655 27.9645C733.601 28.0336 733.533 28.0902 733.455 28.1305C733.377 28.1709 733.291 28.194 733.203 28.1982C733.515 28.0495 733.186 27.8707 733.045 27.7627C733.07 27.8247 733.025 27.8955 733.045 27.9592C732.662 27.6051 733.002 28.3717 732.488 28.1487L732.511 28.0407C732.333 28.1026 732.155 28.2549 731.953 28.2283C731.86 27.9929 732.15 28.1133 732.155 27.9167C731.872 27.9398 731.607 28.3806 731.342 28.1522C731.461 28.0832 731.636 28.0779 731.755 28.0088C731.465 27.7379 731.435 27.8105 731.221 27.7716H731.241L730.757 27.66L730.881 27.7308C730.54 28.3594 730.159 27.8619 729.686 28.2708C730.148 27.8813 729.761 28.0478 729.793 27.7804C729.668 27.7078 729.481 27.6264 729.533 27.5503C729.31 27.7698 729.156 27.3838 728.839 27.7043C728.825 27.6193 728.597 27.7043 728.647 27.4812C728.353 27.5485 728.716 27.6317 728.693 27.7397C728.239 28.0336 727.626 27.3856 726.974 27.7822C726.41 27.9398 726.302 28.2301 725.773 28.3664C725.596 28.2248 725.925 28.0548 725.925 28.0548C725.806 27.9969 725.675 27.965 725.543 27.9613C725.41 27.9577 725.278 27.9823 725.156 28.0336C725.213 27.961 725.156 27.8955 725.08 27.7963C724.864 27.8123 724.927 28.1062 724.647 27.9734C724.701 27.8478 724.777 27.7327 724.871 27.6335C724.617 27.7043 724.361 27.8583 724.096 27.9274C724.032 27.7751 724.261 27.7043 724.357 27.6087C724.06 27.6689 723.59 27.722 723.489 27.9539L723.667 28.0478C723.56 28.0478 723.621 27.8406 723.701 27.8017C723.96 27.6246 724.057 27.8937 724.074 27.9787L723.886 28.0283C724.064 28.5399 724.64 27.9699 725.016 28.0106L724.848 28.3735L725.243 28.0796C725.323 28.1788 725.375 28.3859 725.186 28.4337C725.453 28.6231 725.43 28.308 725.658 28.5152C725.683 28.547 725.67 28.5647 725.647 28.5789L725.914 28.4744C725.861 28.5506 725.953 28.7347 725.791 28.678C726.264 28.8993 726.563 28.4142 726.74 28.6957L726.699 28.7188C727.36 28.6037 726.766 28.4514 727.263 28.1363L727.578 28.9011L727.65 28.6355C727.72 28.6444 727.853 28.6656 727.828 28.7736C728.083 28.5877 727.786 28.655 727.933 28.4815C728.261 28.7276 728.835 28.3682 728.912 28.7949C729.028 28.5877 728.597 28.6409 728.946 28.4939C729.051 28.956 729.35 28.4089 729.657 28.6178C729.568 28.8568 729.282 28.7347 729.584 28.9436C729.762 28.5382 730.172 29.025 730.424 28.9436C730.424 28.6231 730.97 28.7949 731.392 28.6763C731.369 28.7843 732.196 28.8338 732.597 28.9294L732.586 28.9825C732.65 28.655 733.059 28.6993 733.353 28.6196C733.362 28.6953 733.347 28.772 733.309 28.8384C733.271 28.9047 733.213 28.9572 733.143 28.9879L733.422 28.9737C733.457 28.9168 733.505 28.8684 733.561 28.8319C733.617 28.7955 733.681 28.772 733.748 28.763L733.689 29.0091C734.061 28.979 734.422 28.6816 734.908 28.8179C734.92 28.5895 734.493 28.2089 734.986 28.03C735.013 28.1504 735.043 28.3593 734.915 28.416C734.958 28.3983 735.063 28.3062 735.152 28.354L734.945 28.57C735.169 28.6479 735.048 28.393 735.223 28.4018C735.223 28.5789 735.36 28.5187 735.344 28.6586C735.301 28.678 735.187 28.5948 735.125 28.6674C735.325 28.6776 735.514 28.7608 735.657 28.9011C735.634 28.8037 735.643 28.6656 735.783 28.6338C736.153 28.5948 735.925 28.8338 736.139 28.9082C736.221 28.7807 736.466 28.8887 736.454 28.6285C736.562 28.6285 736.591 28.7418 736.632 28.8055C736.81 28.6798 737.521 28.7064 737.288 28.4514L737.238 28.4373C737.248 28.4315 737.258 28.4267 737.269 28.4231C737.874 28.1079 738.584 28.462 739.196 28.2868V28.3753C739.551 28.2372 740.016 28.2319 740.263 28.0212C740.373 28.0106 740.541 28.1522 740.505 28.262C740.781 28.1646 740.8 28.0619 741.227 28.1575C740.959 28.3434 741.341 28.2815 740.948 28.3027C741.324 28.3363 741.425 28.4656 741.793 28.1823C741.685 28.4195 742.105 28.4302 742.272 28.3416L741.994 28.2142C742.172 28.1691 742.355 28.1482 742.539 28.1522L742.48 28.4567C743.284 28.7117 743.759 27.6813 744.416 28.1876C744.594 27.9557 743.985 28.1044 744.129 27.8335C744.485 27.8229 744.903 28.1876 745.019 28.1735C745.519 28.2655 745.398 27.6884 745.908 27.7185C745.83 27.6246 745.731 27.3644 746.086 27.1997C746.442 27.1838 746.581 27.568 746.376 27.6848C746.295 27.7078 746.248 27.6848 746.247 27.6459C746.142 27.7007 746.003 27.768 746.158 27.8601L746.184 27.7485C746.373 27.8264 746.848 27.7485 746.764 27.9256C747.01 27.7857 746.848 27.7379 746.645 27.7149C747.113 27.7946 747.339 27.6105 747.812 27.6282C747.729 27.5839 747.634 27.4741 747.714 27.4635C748.403 27.4741 747.972 27.2156 748.417 27.0917C748.702 27.2033 748.392 27.483 748.823 27.2688C748.912 27.2847 748.958 27.3148 748.972 27.3537L749.079 27.6335L749.266 25.8843C749.267 25.8752 749.27 25.8665 749.275 25.8588C749.28 25.8511 749.286 25.8447 749.294 25.84L748.981 27.4051C748.957 27.4944 748.907 27.5745 748.837 27.6352C748.891 27.5969 748.951 27.567 749.015 27.5467L751.579 26.6827L749.381 25.7178C749.224 25.6412 749.089 25.5246 748.992 25.3797C748.912 25.2624 748.819 25.1538 748.716 25.0557L748.969 25.1017C748.842 25.0746 748.721 25.0248 748.613 24.9548L748.631 25.2062C748.527 25.1053 748.422 25.0469 748.467 24.9725C748.273 25.0291 748.396 25.3266 748.059 25.3691C748.003 25.2806 747.867 25.2416 747.753 25.192C747.64 25.1425 747.547 25.0893 747.576 24.9495C748.058 25.2788 747.638 24.6644 748.109 24.8415C747.991 24.8171 747.881 24.7621 747.791 24.6821C747.791 24.6467 747.834 24.6396 747.876 24.6414C747.463 24.1776 747.51 24.8185 746.987 24.5883C747.113 24.4715 746.974 24.2572 746.869 24.259C747.09 24.344 746.869 24.5405 746.638 24.5812C746.335 24.3369 746.234 24.5299 746.058 24.4591L746.236 24.5812C746.117 24.7069 745.953 24.6326 745.702 24.6025C745.718 24.4803 745.942 24.5918 745.88 24.5139C745.842 24.5339 745.8 24.5442 745.757 24.544C745.738 24.5468 745.719 24.5468 745.7 24.544C745.689 24.5423 745.678 24.538 745.668 24.5317C745.624 24.5025 745.59 24.4605 745.57 24.4113C745.515 24.3086 745.517 24.213 745.352 24.2679C745.352 24.2147 745.423 24.1563 745.485 24.1014C745.537 24.0611 745.583 24.0141 745.622 23.9616C745.467 24.0288 745.476 23.9793 745.526 23.9315C745.576 23.8837 745.649 23.8394 745.474 23.889C745.275 24.0075 745.054 24.0863 744.825 24.1209C745.021 24.1067 745.193 24.0873 745.339 24.0696C745.132 24.1405 744.921 24.1996 744.708 24.2466C744.797 24.2524 744.886 24.2483 744.974 24.2342C745.067 24.2342 745.14 24.2147 745.152 24.2342C744.843 24.3387 744.893 24.298 744.761 24.4431C744.845 24.305 744.715 24.3227 744.519 24.3475C744.323 24.3723 744.079 24.3953 744.147 24.3157L745.097 23.9828C745.188 23.9226 745.133 23.9244 744.982 23.9474C744.83 23.9704 744.592 24.0058 744.398 24.0271C744.254 24.043 744.138 24.0448 744.163 24.0271C744.106 24.0448 744.053 24.0607 744.005 24.0802C743.862 24.1162 743.716 24.1352 743.569 24.1368C743.49 24.1204 743.408 24.1204 743.329 24.1368C743.896 24.0377 744.04 24.0058 744.371 23.9439C744.156 23.981 744.12 23.981 743.983 23.9987C743.736 23.9964 743.489 24.0189 743.247 24.066C743.553 24.0023 743.845 23.9456 744.124 23.889C744.364 23.8235 744.039 23.8376 743.756 23.8235C743.473 23.8093 743.222 23.7774 743.466 23.6889C743.655 23.7012 743.845 23.7012 744.035 23.6889C744.18 23.6829 744.326 23.6924 744.469 23.7172C744.538 23.6854 744.668 23.6588 744.378 23.6588C744.531 23.6482 744.435 23.627 744.378 23.5933C744.321 23.5597 744.302 23.5172 744.506 23.5154C744.385 23.4853 744.042 23.4375 744.193 23.3826C744.246 23.3858 744.298 23.3935 744.35 23.4056C744.272 23.395 744.263 23.3649 744.225 23.3348C744.188 23.3047 744.119 23.2729 743.887 23.2729C744.118 23.2769 744.349 23.2568 744.576 23.2127C744.697 23.1808 744.813 23.1319 744.921 23.0675C745.021 23.0063 745.129 22.9576 745.241 22.9223C745.301 22.9041 745.363 22.8993 745.425 22.9082C745.487 22.9171 745.545 22.9394 745.597 22.9737C745.618 22.9577 745.634 22.9418 745.665 22.9223L745.793 22.8444L746.058 22.6886C746.236 22.5912 746.414 22.501 746.57 22.4301C746.57 22.4868 746.602 22.5116 746.537 22.5187C747.033 22.4921 746.615 21.9433 747.186 21.9149C747.542 22.0796 746.976 22.161 747.173 22.1982C747.453 22.7081 747.748 21.8902 748.207 22.0814L748.136 22.1433C748.462 22.2301 748.689 21.706 749.129 21.5963C749.127 21.6264 749.136 21.6561 749.155 21.6795C749.272 21.4767 749.436 21.3053 749.634 21.1802C749.735 21.1076 749.844 21.0421 749.951 20.9801C750.058 20.9182 750.157 20.8598 750.283 20.8031C750.259 20.8787 750.225 20.9508 750.182 21.0173C750.182 21.0527 750.182 21.0811 750.264 21.1749C750.394 21.1165 750.337 21.0386 750.314 20.9447C750.291 20.8509 750.294 20.7464 750.492 20.6526C750.691 20.7181 751.109 20.7004 751.381 20.8757L750.872 21.0527C750.965 21.0902 751.065 21.1051 751.164 21.0961C751.264 21.0872 751.359 21.0547 751.443 21.0014C751.571 20.9027 751.719 20.8322 751.876 20.7942L751.984 20.9076C752.413 20.7641 752.509 20.6367 752.589 20.5198C752.669 20.403 752.744 20.3003 753.176 20.1994L752.892 20.1657C752.767 20.0188 752.926 20.0259 753.143 20.0294C753.36 20.033 753.618 20.04 753.522 19.932C753.842 19.971 754.171 20.0064 754.511 20.0418C754.584 19.9647 754.644 19.8762 754.689 19.7798C754.723 19.6844 754.787 19.6025 754.872 19.5461C755.182 19.6027 755.278 19.6806 755.281 19.7674C755.285 19.8541 755.196 19.9444 755.167 20.0383C755.39 19.9866 755.609 19.9198 755.822 19.8382C756.011 19.7621 756.089 19.6913 755.884 19.6612C755.874 19.6983 755.977 19.7621 755.678 19.7798C755.349 19.6559 755.219 19.5567 755.375 19.4664C755.369 19.4587 755.365 19.4496 755.363 19.4399V19.4257C755.363 19.4257 755.374 19.4168 755.345 19.4115C755.269 19.3903 755.198 19.369 755.135 19.346C755.706 19.362 755.943 19.346 755.973 19.2929C756.004 19.2398 755.838 19.1707 755.642 19.0911C755.24 18.9282 754.742 18.7529 755.093 18.5936C754.431 18.4759 753.787 18.273 753.178 17.9899C752.567 17.6926 751.937 17.4342 751.292 17.2162C751.33 17.3684 751.308 17.4322 751.271 17.4552C751.234 17.4782 751.171 17.4552 751.093 17.4375C750.945 17.3932 750.751 17.3348 750.645 17.5844C750.364 17.526 750.273 17.4853 750.26 17.4428C750.082 17.2658 749.928 17.1011 749.759 16.9311C749.668 16.7328 749.985 16.8816 750.006 16.7541C749.59 16.5664 749.901 16.4744 749.663 16.2407C749.663 16.4443 749.422 16.4531 749.2 16.2991L749.465 16.6532C748.768 16.7187 749.091 16.0459 748.398 16.1079L748.645 16.0123C748.3 16.0017 747.495 15.6157 747.044 15.9238C747.008 15.8459 746.983 15.6812 747.134 15.6901C746.41 15.3749 745.325 15.5626 744.834 15.1111L744.933 15.0049C744.782 14.9943 744.61 15.1572 744.48 14.973C744.506 14.9235 744.578 14.8668 744.517 14.8367C744.426 14.8569 744.334 14.8694 744.241 14.8739C744.179 14.8969 744.129 14.9093 744.115 14.8633C744.158 14.8279 744.197 14.7888 744.232 14.7464C744.209 14.6933 744.183 14.6844 744.127 14.6951C744.072 14.7057 743.99 14.734 743.882 14.7623C743.622 14.8338 743.352 14.8578 743.083 14.8332C743.248 14.7813 743.41 14.7192 743.567 14.6473L743.805 14.5393L743.983 14.4879L744.087 14.4755C744.165 14.4419 744.051 14.4313 743.987 14.3463C743.945 14.2838 743.924 14.2096 743.927 14.1345C743.93 14.0594 743.958 13.9872 744.005 13.9285C744.672 13.9285 745.471 12.9742 746.263 12.6396C746.12 12.6644 746.085 12.3917 746.175 12.2696C746.376 12.2094 746.421 11.7225 746.624 12.0199L746.565 12.0571C746.636 12.0992 746.719 12.1172 746.802 12.1085C746.839 12.1051 746.876 12.0961 746.91 12.0819C746.972 12.05 747.031 12.0139 747.088 11.9739C747.328 11.8075 747.568 11.5879 747.8 11.4109C747.675 11.31 747.545 11.2144 747.412 11.1205C747.832 10.9916 748.224 10.7876 748.57 10.5186C748.885 10.2774 749.182 10.0141 749.46 9.73074C749.69 9.49624 749.935 9.27627 750.193 9.07214C750.538 8.81557 750.914 8.60433 751.314 8.44363C751.299 8.30377 751.623 8.04528 751.554 7.95145L752.223 7.73368L752.561 7.4929C751.791 7.43607 751.018 7.43015 750.248 7.4752L750.858 7.29816C750.502 7.2893 749.929 7.4752 749.419 7.65224C748.908 7.82929 748.447 8.02227 748.191 8.02935C748.321 7.90542 748.442 7.77972 748.547 7.65579C747.992 7.65579 747.515 7.57612 746.946 7.5354C746.655 7.51194 746.363 7.50721 746.072 7.52123C745.924 7.52123 745.773 7.54425 745.627 7.56726C745.554 7.57789 745.481 7.59205 745.41 7.60798L745.305 7.63454C745.291 7.64049 745.277 7.6476 745.264 7.65579L745.234 7.67172C745.239 7.63518 745.251 7.5998 745.268 7.56726C745.315 7.52051 745.379 7.49385 745.446 7.4929H745.33L745.264 7.47874H745.223L745.046 7.45573C744.917 7.43552 744.788 7.42487 744.658 7.42386C744.41 7.42386 744.215 7.4929 744.27 7.74962C744.27 7.41501 743.588 7.71421 743.229 7.86116L743.286 7.61507C742.983 7.92843 742.973 8.01519 742.551 8.10194C742.452 8.0683 742.466 7.90365 742.597 7.96738C742.265 7.83637 742.338 8.19931 741.934 8.0683L742.085 7.91073C741.743 7.89125 741.77 7.97447 741.581 8.15859C741.366 8.25597 740.932 8.09486 740.882 7.87178C740.853 7.95911 740.792 8.03274 740.712 8.07898C740.632 8.12522 740.537 8.14092 740.446 8.12318C740.418 8.03997 740.493 7.98686 740.53 7.96207C739.957 7.78503 739.678 8.24711 739.285 8.00279C739.285 7.97506 739.279 7.94763 739.267 7.92231C739.256 7.89698 739.239 7.87433 739.219 7.85585C739.481 7.84674 739.745 7.85977 740.005 7.8948C740.005 7.66818 739.639 7.62746 739.93 7.31409C739.635 7.49113 739.13 7.85585 738.772 7.74785C738.753 7.72378 738.737 7.69691 738.726 7.66818L738.763 7.64339C738.725 7.63385 738.685 7.63223 738.646 7.63863C738.606 7.64502 738.569 7.65929 738.536 7.68057C738.441 7.64161 738.342 7.61771 738.24 7.60975C738.197 7.42209 737.819 7.50884 737.635 7.49822C737.649 7.74785 737.411 7.70713 737.635 7.9125C737.605 7.8948 737.669 7.8824 737.792 7.87355C737.819 7.86982 737.846 7.8608 737.87 7.84699L737.858 7.87001C737.977 7.87001 738.133 7.85762 738.313 7.85408C738.167 7.97978 738.016 8.086 737.813 7.94791C737.719 8.10725 737.616 8.27013 737.557 8.34803C737.308 7.99394 736.824 7.8169 736.758 7.59736C736.198 7.73546 735.44 7.68588 735.087 8.15328C734.927 8.2117 734.91 8.01873 734.845 7.94437C734.938 7.89834 735.047 7.90542 735.096 7.83814C734.778 7.95676 734.153 7.8824 734.077 8.20816C733.677 8.06122 734.303 7.90896 733.753 7.9603L733.828 7.86116C732.744 7.33002 732.065 8.68972 730.864 8.01696C730.947 8.05768 730.99 8.07715 731.006 8.13203C729.64 7.83283 728.184 8.3976 726.836 7.92489C726.451 7.82929 726.41 8.0382 726.176 8.19577L726.092 7.92843L725.693 8.23649C725.124 8.46134 724.709 7.57789 723.989 8.00279L724.081 8.17984C723.823 8.14443 723.263 8.28429 723.307 8.07715C723.281 8.10902 723.222 8.26305 723.13 8.16921V8.02935L722.494 8.26836C722.002 8.16567 722.573 7.71244 721.854 7.68411C721.587 7.73723 721.094 8.08954 721.194 8.18338C721.301 8.18338 721.468 8.27013 721.477 8.40999L721.231 8.48258C721.169 8.8951 720.98 9.32 721.578 9.60327L721.996 9.35187L722.135 9.55901L721.779 9.57141C721.978 9.75907 722.105 9.59265 722.247 9.47934C722.259 9.5268 722.281 9.57113 722.312 9.60933C722.342 9.64752 722.381 9.67867 722.425 9.70065L722.836 9.30761C722.884 9.46872 722.658 9.62629 722.925 9.71658C723.119 9.53954 722.747 9.36249 723.06 9.23502C723.259 9.42269 723.201 9.57495 723.436 9.41207C723.45 9.45598 723.446 9.50369 723.426 9.54503C723.405 9.58636 723.369 9.61806 723.325 9.63337C723.535 9.5059 723.879 9.58026 723.987 9.36072C724.194 9.59265 724.699 9.30407 724.67 9.69357C724.819 9.53168 725.015 9.41973 725.231 9.37312C724.875 9.83874 725.942 9.40144 725.854 9.90425C726.113 9.48465 726.791 9.7272 727.25 9.48819C727.225 9.52183 727.174 9.58911 727.133 9.56609C727.392 9.60327 727.467 9.72897 727.633 9.80864C727.666 9.45456 728.069 9.38374 728.286 9.17128C728.602 9.5059 728.093 9.57672 728.191 9.89894C728.177 9.61744 728.743 9.61921 728.636 9.38551C728.878 9.59265 728.844 9.48642 728.969 9.77501C729.012 9.34125 729.193 9.70065 729.396 9.43508C729.752 9.65107 729.485 9.84228 729.871 9.71127C730.049 9.84582 729.707 9.99985 729.707 9.99985ZM738.859 9.2722L738.671 9.28636L738.859 9.2722ZM739.63 9.2722C739.519 9.26196 739.407 9.25842 739.295 9.26158C739.269 9.1766 739.295 9.08453 739.375 9.08453C739.34 9.14827 739.521 9.19784 739.637 9.27043L739.63 9.2722ZM738.005 7.54425C738.128 7.50884 738.169 7.55841 738.183 7.60798C738.112 7.6141 738.04 7.62415 737.97 7.63808C737.97 7.63808 737.959 7.65756 737.956 7.66818C737.967 7.62315 737.986 7.58054 738.012 7.54248L738.005 7.54425Z" fill="#FFFEFE"/>
<path d="M737.792 7.86829C737.776 7.87656 737.758 7.88252 737.74 7.88599C737.764 7.90609 737.788 7.925 737.813 7.94265L737.858 7.86475L737.792 7.86829Z" fill="#FFFEFE"/>
<path d="M737.304 28.4515H737.32C737.306 28.4438 737.294 28.4329 737.285 28.4197C737.293 28.4293 737.299 28.4401 737.304 28.4515Z" fill="#FFFEFE"/>
<path d="M745.939 9.88825L746.085 9.85107L745.969 9.87409L745.939 9.88825Z" fill="#FFFEFE"/>
<path d="M733.024 27.8566C733.011 27.8303 732.991 27.8086 732.965 27.7947C732.968 27.8124 732.988 27.8389 733.024 27.8566Z" fill="#FFFEFE"/>
<path d="M731.209 27.8654L730.947 27.7839C731.031 27.8206 731.119 27.8479 731.209 27.8654Z" fill="#FFFEFE"/>
<path d="M729.796 27.7712C729.784 27.8061 729.775 27.8424 729.771 27.8792L729.796 27.7712Z" fill="#FFFEFE"/>
<path d="M745.61 26.0791C745.592 26.0765 745.575 26.0765 745.558 26.0791C745.43 26.0829 745.512 26.0904 745.61 26.0791Z" fill="#FFFEFE"/>
<path d="M745.405 26.762C745.465 26.7068 745.53 26.657 745.599 26.6133C745.48 26.6133 745.387 26.6221 745.405 26.762Z" fill="#FFFEFE"/>
<path d="M740.619 23.2552L740.688 23.218L740.619 23.2552Z" fill="#FFFEFE"/>
<path d="M745.903 26.5695C745.852 26.5557 745.799 26.5526 745.746 26.5602C745.694 26.5678 745.644 26.586 745.599 26.6138C745.702 26.6268 745.808 26.6115 745.903 26.5695Z" fill="#FFFEFE"/>
<path d="M723.736 27.5944L723.67 27.582C723.671 27.5958 723.667 27.6094 723.66 27.621L723.736 27.5944Z" fill="#FFFEFE"/>
<path d="M723.658 27.6208L723.583 27.6474C723.617 27.6492 723.647 27.6474 723.658 27.6208Z" fill="#FFFEFE"/>
<path d="M723.423 27.7024L723.583 27.6475C723.528 27.644 723.462 27.6334 723.423 27.7024Z" fill="#FFFEFE"/>
<path d="M725.583 27.7624L725.606 27.6721C725.591 27.7 725.584 27.7309 725.583 27.7624Z" fill="#FFFEFE"/>
<path d="M726.147 27.7449C726.012 27.7237 725.813 27.5484 725.626 27.6015L725.606 27.6723C725.693 27.5396 726.015 27.8954 726.147 27.7449Z" fill="#FFFEFE"/>
<path d="M728.501 28.878L728.024 28.8054C728.108 28.901 728.218 29.0303 728.001 29.0533C728.602 29.3401 727.876 28.8373 728.501 28.878Z" fill="#FFFEFE"/>
<path d="M729.979 29C729.725 29.0478 729.979 29.1399 729.979 29.1947C730.141 29.1045 730.173 29.0779 729.979 29Z" fill="#FFFEFE"/>
<path d="M740.639 28.3345V28.5629C740.834 28.508 740.639 28.4761 740.639 28.3345Z" fill="#FFFEFE"/>
<path d="M742.523 26.9344L742.316 26.8193L742.252 27.0371L742.523 26.9344Z" fill="#FFFEFE"/>
<path d="M743.928 28.3769L743.846 28.4194L744.163 28.2937L743.928 28.3769Z" fill="#FFFEFE"/>
<path d="M745.588 23.2975C745.512 23.2284 745.432 23.1629 745.35 23.0974C745.32 23.1647 745.594 23.3878 745.588 23.2975Z" fill="#FFFEFE"/>
<path d="M753.363 20.3269C753.744 20.3711 754.31 20.3269 754.217 20.2012C753.895 20.2631 753.422 20.2755 753.363 20.3269Z" fill="#FFFEFE"/>
<path d="M748.284 10.876L748.173 11.0849L748.492 10.7273L748.284 10.876Z" fill="#FFFEFE"/>
</g>
<defs>
<clipPath id="clip0">
<rect width="36" height="53" fill="white" transform="translate(720 5)"/>
</clipPath>
</defs>
</svg>
