<svg width="270" height="58" viewBox="0 0 270 58" fill="none" xmlns="http://www.w3.org/2000/svg">
<path d="M6.11913 32.616C6.02313 33.48 5.94313 34.264 5.87913 34.968C5.84713 35.672 5.83113 36.376 5.83113 37.08C5.83113 37.624 5.84713 38.152 5.87913 38.664C5.94313 39.176 6.10313 39.704 6.35913 40.248L6.88713 41.016L13.6071 43.272C13.9591 43.272 14.2471 43.272 14.4711 43.272C14.7271 43.272 14.9511 43.256 15.1431 43.224C15.3671 43.16 15.5911 43.096 15.8151 43.032C16.0391 42.936 16.3111 42.776 16.6311 42.552L21.8631 40.584C22.7591 40.264 23.6551 39.704 24.5511 38.904C25.4791 38.072 26.2471 37.08 26.8551 35.928V35.496C26.8551 33.192 26.3431 31.128 25.3191 29.304C24.3271 27.448 22.8391 26.024 20.8551 25.032C20.7911 24.936 20.6471 24.888 20.4231 24.888C20.2631 24.888 20.0231 24.904 19.7031 24.936C19.4151 24.968 19.1431 24.984 18.8871 24.984C18.5671 24.984 18.2631 24.968 17.9751 24.936C17.7191 24.872 17.5751 24.728 17.5431 24.504L12.9351 25.32C12.1351 25.576 11.3351 25.912 10.5351 26.328C9.76713 26.744 9.06313 27.256 8.42313 27.864C7.81513 28.44 7.28713 29.128 6.83913 29.928C6.42313 30.728 6.18313 31.624 6.11913 32.616ZM17.8311 29.304C18.3751 29.528 18.9511 29.72 19.5591 29.88C20.1671 30.04 20.7111 30.264 21.1911 30.552C21.7031 30.808 22.1511 31.16 22.5351 31.608C22.9511 32.056 23.2551 32.68 23.4471 33.48L21.7671 36.12L15.0951 37.656H14.2311L12.6951 36.072L12.9831 31.752C13.2391 31.56 13.4951 31.336 13.7511 31.08C14.0391 30.792 14.3431 30.52 14.6631 30.264C14.9831 29.976 15.3191 29.736 15.6711 29.544C16.0231 29.32 16.4231 29.208 16.8711 29.208C17.1591 29.208 17.4791 29.24 17.8311 29.304ZM48.4386 33.144L46.9986 28.152L44.5986 27.624L43.8786 28.008V35.832L43.3026 36.216H42.4866L40.0386 37.032L39.5106 36.84L39.3186 36.12L38.9346 35.544V30.264L38.1186 27.768H34.5186L33.7506 28.008L33.3666 31.128L34.1826 32.76L33.6546 37.992L34.7106 40.632L35.8626 41.016L37.2066 41.88L38.2626 41.544L38.4546 41.208L40.1346 41.4L41.0946 40.92L43.0146 39L43.6386 38.712L44.1186 39.192L43.9746 39.528L45.1266 40.296H48.0066L48.4386 39.72V33.144ZM69.9989 29.352L68.1749 26.472L67.5509 26.664L64.3349 29.256L62.8949 31.752L61.8869 32.712V29.4L60.5909 26.616H57.8069L57.0389 27.48V39.768L56.7989 40.296L56.8949 41.544L62.1749 41.112L62.9909 40.632V39.672L63.2309 38.136L62.9909 35.592C63.2149 35.432 63.3909 35.24 63.5189 35.016C63.6789 34.792 63.8389 34.568 63.9989 34.344C64.1909 34.12 64.3989 33.88 64.6229 33.624C64.8789 33.336 65.1829 33.064 65.5349 32.808L67.7429 31.128C68.0949 30.872 68.4469 30.6 68.7989 30.312C69.1829 30.024 69.5829 29.704 69.9989 29.352ZM104.014 35.352C104.302 35.256 104.686 35.064 105.166 34.776C105.678 34.456 106.158 34.104 106.606 33.72C107.086 33.336 107.486 32.92 107.806 32.472C108.126 32.024 108.286 31.56 108.286 31.08C108.286 30.12 108.126 29.144 107.806 28.152C107.486 27.128 107.006 26.216 106.366 25.416C105.726 24.616 104.926 23.944 103.966 23.4C103.006 22.856 101.886 22.552 100.606 22.488C100.222 22.456 99.8536 22.408 99.5016 22.344C99.1816 22.248 99.0056 22.072 98.9736 21.816L94.6536 22.152H93.8856L93.5496 22.584L91.5816 22.2L90.7176 22.92V35.832L89.7576 35.976L90.0936 36.072V44.52L90.2856 45.624H91.0056L91.5336 45.24H95.2776L96.1896 44.424L96.0456 42.216L96.2856 38.952L96.0936 38.088C96.4776 38.024 96.8136 37.944 97.1016 37.848C97.3896 37.752 97.7096 37.608 98.0616 37.416L99.5976 36.936C99.8216 37.256 100.03 37.496 100.222 37.656C100.446 37.784 100.638 37.928 100.798 38.088C100.958 38.472 101.182 38.776 101.47 39C101.758 39.192 101.902 39.464 101.902 39.816C102.35 40.328 102.702 40.776 102.958 41.16C103.214 41.512 103.454 41.864 103.678 42.216C103.934 42.536 104.19 42.872 104.446 43.224C104.734 43.576 105.086 43.976 105.502 44.424C105.47 44.744 105.582 44.984 105.838 45.144C106.126 45.336 106.382 45.512 106.606 45.672L107.518 46.152L109.198 45.336C109.838 45.016 110.446 44.744 111.022 44.52C111.63 44.296 111.934 44.072 111.934 43.848C111.934 43.688 111.838 43.496 111.646 43.272C111.454 43.016 111.214 42.76 110.926 42.504C110.67 42.216 110.398 41.944 110.11 41.688C109.854 41.432 109.63 41.192 109.438 40.968C108.382 40.008 107.406 39.08 106.51 38.184C105.646 37.256 104.814 36.312 104.014 35.352ZM95.4216 26.28C95.6456 26.248 95.8696 26.232 96.0936 26.232C96.3176 26.2 96.5256 26.184 96.7176 26.184C97.1016 26.184 97.4696 26.232 97.8216 26.328C98.2056 26.392 98.6856 26.488 99.2616 26.616C99.7736 26.776 100.318 26.872 100.894 26.904C101.47 26.936 102.014 27.016 102.526 27.144C103.07 27.272 103.55 27.496 103.966 27.816C104.382 28.104 104.686 28.616 104.878 29.352L103.15 31.752L96.5256 33.048H95.8056V31.8L95.4216 29.544V26.28ZM115.249 33C115.153 33.576 115.089 34.12 115.057 34.632C115.057 35.144 115.057 35.608 115.057 36.024C115.057 36.792 115.169 37.464 115.393 38.04L115.873 38.664L120.961 40.152H122.113C122.241 40.12 122.385 40.072 122.545 40.008C122.705 39.944 122.881 39.848 123.073 39.72L127.105 38.376C127.329 38.28 127.649 38.12 128.065 37.896C128.513 37.672 128.929 37.416 129.313 37.128C129.729 36.808 130.081 36.456 130.369 36.072C130.657 35.688 130.801 35.288 130.801 34.872C130.801 33.336 130.401 31.944 129.601 30.696C128.833 29.448 127.729 28.488 126.289 27.816H126.193C126.065 27.816 125.841 27.832 125.521 27.864C125.201 27.896 124.913 27.912 124.657 27.912C124.433 27.912 124.225 27.88 124.033 27.816C123.873 27.752 123.793 27.656 123.793 27.528L120.385 28.056C119.809 28.216 119.233 28.44 118.657 28.728C118.081 29.016 117.553 29.368 117.073 29.784C116.593 30.168 116.193 30.632 115.873 31.176C115.553 31.688 115.345 32.296 115.249 33ZM124.129 30.792C124.513 30.92 124.929 31.032 125.377 31.128C125.825 31.224 126.241 31.368 126.625 31.56C127.009 31.72 127.345 31.944 127.633 32.232C127.953 32.52 128.193 32.952 128.353 33.528L127.105 35.352L121.969 36.408H121.297L120.049 35.304L120.289 32.424C120.481 32.328 120.673 32.184 120.865 31.992C121.057 31.8 121.265 31.608 121.489 31.416C121.745 31.192 122.017 31.016 122.305 30.888C122.625 30.728 122.961 30.648 123.313 30.648C123.537 30.648 123.809 30.696 124.129 30.792ZM152.736 33.144L151.296 28.152L148.896 27.624L148.176 28.008V35.832L147.6 36.216H146.784L144.336 37.032L143.808 36.84L143.616 36.12L143.232 35.544V30.264L142.416 27.768H138.816L138.048 28.008L137.664 31.128L138.48 32.76L137.952 37.992L139.008 40.632L140.16 41.016L141.504 41.88L142.56 41.544L142.752 41.208L144.432 41.4L145.392 40.92L147.312 39L147.936 38.712L148.416 39.192L148.272 39.528L149.424 40.296H152.304L152.736 39.72V33.144ZM169.736 33.768L170.984 33.72C171.144 33.784 171.288 33.832 171.416 33.864C171.544 33.896 171.72 33.912 171.944 33.912C172.072 33.912 172.2 33.896 172.328 33.864C172.488 33.832 172.632 33.8 172.76 33.768C172.92 33.736 173.112 33.72 173.336 33.72C173.592 33.688 173.912 33.672 174.296 33.672C174.424 33.672 174.536 33.688 174.632 33.72C174.76 33.72 174.856 33.72 174.92 33.72C174.952 33.72 174.984 33.72 175.016 33.72C175.08 33.72 175.208 33.656 175.4 33.528C175.24 33.528 175.16 33.416 175.16 33.192C175.16 33.16 175.176 33.064 175.208 32.904C175.24 32.744 175.256 32.632 175.256 32.568C175.224 32.568 175.208 32.488 175.208 32.328C175.208 32.2 175.24 32.104 175.304 32.04C175.08 31.88 174.968 31.72 174.968 31.56C174.968 31.368 174.904 31.176 174.776 30.984C174.584 31.048 174.44 31.08 174.344 31.08C174.12 31.08 173.96 31.08 173.864 31.08C173.8 31.048 173.72 31.016 173.624 30.984C173.528 30.952 173.352 30.936 173.096 30.936C172.872 30.904 172.488 30.872 171.944 30.84C171.56 30.808 171.096 30.776 170.552 30.744C170.008 30.712 169.416 30.664 168.776 30.6L168.296 25.272L167.864 24.648L164.696 24.936L163.928 26.04L163.784 30.36C163.336 30.36 162.904 30.36 162.488 30.36C162.072 30.328 161.672 30.312 161.288 30.312C160.968 30.408 160.792 30.456 160.76 30.456C160.472 30.456 160.216 30.456 159.992 30.456C159.768 30.456 159.544 30.424 159.32 30.36H158.552L157.832 30.984C157.832 31.24 157.832 31.528 157.832 31.848C157.832 32.168 157.848 32.488 157.88 32.808C157.944 33.128 158.024 33.416 158.12 33.672C158.216 33.896 158.344 34.04 158.504 34.104L158.888 34.44C159.208 34.44 159.448 34.44 159.608 34.44C159.768 34.408 160.056 34.36 160.472 34.296C160.504 34.232 160.648 34.2 160.904 34.2C161.096 34.2 161.288 34.216 161.48 34.248C161.704 34.28 161.848 34.312 161.912 34.344C162.008 34.344 162.104 34.344 162.2 34.344C162.328 34.312 162.456 34.296 162.584 34.296L163.256 34.248L163.064 35.208V41.448L163.256 44.184L163.784 45.288L164.984 45.096L168.92 45.384L171.608 45C171.8 44.456 171.896 43.912 171.896 43.368C171.896 42.824 171.8 42.248 171.608 41.64L169.736 40.632V33.768ZM196.647 42.888L196.503 42.696C196.503 42.536 196.455 42.392 196.359 42.264C196.263 42.104 196.183 41.928 196.119 41.736C195.927 41.736 195.751 41.784 195.591 41.88C195.431 41.944 195.255 42.024 195.063 42.12C194.903 42.184 194.695 42.264 194.439 42.36C194.215 42.424 193.927 42.456 193.575 42.456H193.335C192.951 42.488 192.615 42.504 192.327 42.504C192.039 42.504 191.767 42.52 191.511 42.552C191.255 42.552 190.999 42.568 190.743 42.6C190.487 42.6 190.183 42.6 189.831 42.6C189.223 42.504 188.823 42.44 188.631 42.408C188.471 42.344 188.391 42.312 188.391 42.312C188.391 42.312 188.407 42.312 188.439 42.312C188.471 42.312 188.423 42.28 188.295 42.216C188.263 42.248 188.231 42.264 188.199 42.264C188.167 42.264 188.135 42.28 188.103 42.312C188.103 42.312 188.071 42.312 188.007 42.312C187.655 42.184 187.367 42.088 187.143 42.024C186.951 41.96 186.855 41.848 186.855 41.688C186.855 41.56 186.695 41.336 186.375 41.016C186.087 40.696 185.943 40.328 185.943 39.912C185.943 39.432 185.991 38.824 186.087 38.088C186.183 37.32 186.375 36.712 186.663 36.264C186.919 36.104 187.367 35.928 188.007 35.736C188.647 35.512 189.287 35.4 189.927 35.4C190.311 35.4 190.599 35.464 190.791 35.592C191.015 35.688 191.191 35.816 191.319 35.976C191.447 36.136 191.511 36.312 191.511 36.504C191.543 36.664 191.559 36.824 191.559 36.984C191.559 37.208 191.479 37.368 191.319 37.464C191.159 37.56 190.967 37.624 190.743 37.656C190.519 37.688 190.295 37.704 190.071 37.704C189.847 37.704 189.655 37.72 189.495 37.752C188.855 37.944 188.327 38.072 187.911 38.136C187.527 38.2 187.303 38.232 187.239 38.232C187.399 38.296 187.511 38.424 187.575 38.616C187.639 38.808 187.687 39.016 187.719 39.24C187.751 39.432 187.767 39.624 187.767 39.816C187.767 39.976 187.783 40.056 187.815 40.056C188.935 40.056 189.863 40.008 190.599 39.912C191.335 39.816 191.943 39.704 192.423 39.576C192.903 39.416 193.287 39.288 193.575 39.192C193.863 39.064 194.151 38.984 194.439 38.952C194.567 38.632 194.711 38.44 194.871 38.376C195.031 38.28 195.207 38.12 195.399 37.896C195.335 37.448 195.223 37 195.063 36.552C194.935 36.072 194.791 35.64 194.631 35.256C194.471 34.84 194.311 34.488 194.151 34.2C194.023 33.912 193.959 33.736 193.959 33.672C193.735 33.672 193.543 33.624 193.383 33.528C193.255 33.432 193.143 33.336 193.047 33.24C192.983 33.144 192.935 33.048 192.903 32.952C192.871 32.856 192.839 32.808 192.807 32.808C192.455 32.808 192.183 32.728 191.991 32.568C191.863 32.504 191.767 32.424 191.703 32.328C191.191 32.328 190.791 32.264 190.503 32.136C190.215 32.008 189.895 31.944 189.543 31.944C188.743 32.232 187.879 32.44 186.951 32.568C186.055 32.696 185.255 32.968 184.551 33.384C184.167 33.704 183.815 34.008 183.495 34.296C183.175 34.584 182.887 34.904 182.631 35.256C182.375 35.608 182.103 35.992 181.815 36.408C181.527 36.824 181.239 37.32 180.951 37.896C180.791 38.152 180.679 38.408 180.615 38.664C180.583 38.92 180.551 39.176 180.519 39.432C180.519 39.912 180.535 40.392 180.567 40.872C180.631 41.32 180.855 41.832 181.239 42.408C181.399 42.536 181.527 42.68 181.623 42.84C181.751 43 181.815 43.08 181.815 43.08L182.103 43.32C182.167 43.32 182.215 43.416 182.247 43.608C182.311 43.768 182.359 43.848 182.391 43.848H183.255C183.639 44.072 183.943 44.264 184.167 44.424C184.391 44.552 184.599 44.648 184.791 44.712C184.983 44.744 185.191 44.776 185.415 44.808C185.639 44.84 185.927 44.856 186.279 44.856C186.471 44.856 186.663 44.856 186.855 44.856C187.079 44.824 187.303 44.808 187.527 44.808C187.719 44.808 187.927 44.808 188.151 44.808C188.375 44.808 188.647 44.84 188.967 44.904C189.671 44.904 190.247 44.872 190.695 44.808C191.175 44.712 191.639 44.6 192.087 44.472C192.567 44.344 193.063 44.232 193.575 44.136C194.119 44.04 194.775 43.976 195.543 43.944C195.735 43.88 195.959 43.736 196.215 43.512C196.503 43.256 196.647 43.096 196.647 43.032C196.647 42.936 196.567 42.888 196.407 42.888H196.647Z" fill="white"/>
<g clip-path="url(#clip0)">
<path d="M235.601 5.01062C235.525 4.98406 235.352 5.01062 235.388 5.07967L235.681 5.12924L235.601 5.01062Z" fill="#FFFEFE"/>
<path d="M235.068 5.53982C235.266 5.66364 235.505 5.70734 235.735 5.66198C235.45 5.577 235.567 5.55398 235.229 5.46546C235.192 5.38756 235.32 5.32914 235.429 5.33976C235.352 5.3132 235.491 5.2176 235.306 5.18042C235.08 5.28488 235.073 5.41235 235.265 5.53451C235.201 5.55313 235.133 5.55496 235.068 5.53982Z" fill="#FFFEFE"/>
<path d="M234.772 13.0608L234.806 13.0112C234.797 13.0168 234.79 13.024 234.784 13.0326C234.778 13.0411 234.774 13.0507 234.772 13.0608Z" fill="#FFFEFE"/>
<path d="M234.712 17.7191C234.708 17.7045 234.7 17.6915 234.689 17.6822C234.677 17.6729 234.663 17.6678 234.648 17.6677C234.667 17.6996 234.687 17.7261 234.712 17.7191Z" fill="#FFFEFE"/>
<path d="M234.404 18.5192C234.412 18.5045 234.418 18.4891 234.423 18.4731C234.397 18.4908 234.383 18.5086 234.404 18.5192Z" fill="#FFFEFE"/>
<path d="M234.772 13.0608L234.681 13.1865C234.777 13.1936 234.751 13.1228 234.772 13.0608Z" fill="#FFFEFE"/>
<path d="M235.799 6.55965C235.779 6.53135 235.752 6.50876 235.72 6.49414C235.733 6.51405 235.743 6.53476 235.753 6.55611L235.799 6.55965Z" fill="#FFFEFE"/>
<path d="M234.487 11.0196V10.9824C234.448 10.9708 234.407 10.9613 234.367 10.9541L234.487 11.0196Z" fill="#FFFEFE"/>
<path d="M234.409 9.44013C234.399 9.47731 234.649 9.48439 234.765 9.49501C234.662 9.47731 234.612 9.45252 234.587 9.42065C234.527 9.42213 234.468 9.42864 234.409 9.44013Z" fill="#FFFEFE"/>
<path d="M234.794 6.93537L234.758 6.89111C234.769 6.90671 234.781 6.9215 234.794 6.93537Z" fill="#FFFEFE"/>
<path d="M234.459 12.1418C234.429 12.1444 234.399 12.1507 234.37 12.1606C234.4 12.159 234.43 12.1527 234.459 12.1418Z" fill="#FFFEFE"/>
<path d="M237.3 56.1394C237.286 56.1384 237.271 56.1384 237.256 56.1394C237.281 56.1488 237.299 56.1525 237.3 56.1394Z" fill="#FFFEFE"/>
<path d="M236.101 57.9925L236.087 57.9663H235.948L236.101 57.9925Z" fill="#FFFEFE"/>
<path d="M234.115 19.9807C234.091 19.9376 234.096 19.9583 234.115 19.9807V19.9807Z" fill="#FFFEFE"/>
<path d="M234.592 33.327C234.813 33.1694 234.884 33.566 235.126 33.327C235.03 33.3571 234.733 33.134 234.592 33.327Z" fill="#FFFEFE"/>
<path d="M235.767 6.60229C235.77 6.62339 235.77 6.64493 235.767 6.66603C235.772 6.65619 235.775 6.64526 235.775 6.63416C235.775 6.62307 235.772 6.61214 235.767 6.60229Z" fill="#FFFEFE"/>
<path d="M235.128 33.3283L235.151 33.304L235.128 33.3283Z" fill="#FFFEFE"/>
<path d="M234.34 23.3279C234.377 23.3212 234.414 23.3093 234.448 23.2925C234.41 23.2965 234.373 23.3086 234.34 23.3279Z" fill="#FFFEFE"/>
<path d="M234.641 20.8245L234.608 20.8864C234.626 20.8701 234.637 20.8482 234.641 20.8245Z" fill="#FFFEFE"/>
<path d="M234.721 24.6167C234.703 24.6503 234.669 24.6627 234.703 24.7088C234.714 24.7049 234.724 24.6995 234.733 24.6928C234.699 24.6769 234.681 24.6521 234.721 24.6167Z" fill="#FFFEFE"/>
<path d="M234.753 25.9658C234.769 25.958 234.785 25.9491 234.801 25.9392C234.801 25.9268 234.801 25.9109 234.786 25.8967L234.753 25.9658Z" fill="#FFFEFE"/>
<path d="M237.09 52.0425C237.018 52.0721 236.943 52.0946 236.866 52.1098C237.044 52.0938 237.112 52.2815 237.09 52.0425Z" fill="#FFFEFE"/>
<path d="M235.658 6.5634C235.722 6.5634 235.752 6.5811 235.767 6.60235C235.763 6.58677 235.758 6.5714 235.752 6.55632C235.721 6.55271 235.689 6.55511 235.658 6.5634Z" fill="#FFFEFE"/>
<path d="M236.694 24.6287L236.669 24.8429C236.69 24.7736 236.699 24.701 236.694 24.6287Z" fill="#FFFEFE"/>
<path d="M236.847 42.3652L236.877 42.413C236.879 42.3953 236.872 42.3776 236.847 42.3652Z" fill="#FFFEFE"/>
<path d="M236.713 25.4788C236.644 25.5043 236.582 25.5477 236.535 25.6045C236.556 25.6146 236.578 25.6223 236.601 25.6275L236.713 25.4788Z" fill="#FFFEFE"/>
<path d="M237.489 53.5102C237.489 53.3066 237.165 53.4217 236.975 53.3827C236.877 53.1402 237.215 53.2641 237.38 53.1774C237.291 53.0269 236.987 52.9171 236.996 52.8038C237.051 52.7932 237.071 52.7719 237.138 52.7949C236.873 52.6409 237.115 52.3187 236.783 52.1381C236.808 52.125 236.836 52.1161 236.864 52.1116C236.716 52.1411 236.565 52.1542 236.414 52.1505C236.405 52.0584 236.203 51.9841 236.414 51.9451C236.414 52.0018 236.496 52.0053 236.564 52.0301L236.47 51.9363C236.776 51.8424 236.578 52.0638 236.808 52.0584C236.703 51.8814 236.441 51.6619 236.526 51.5167C236.827 51.4795 236.635 51.8495 236.9 51.653L236.788 51.8761C237.261 51.699 236.76 52.0124 237.265 51.846C237.347 51.5521 237.105 51.522 237.185 51.2299C237.016 51.1679 236.937 51.2564 236.768 51.1945C236.457 50.7873 237.521 50.8528 237.112 50.5571C236.909 50.4828 236.526 50.4597 236.724 50.2384L237.067 50.3057C237.094 50.0224 236.573 50.1552 236.795 49.8542C236.93 49.9038 236.913 50.0738 236.953 50.0313C237.219 49.8348 236.756 49.9003 236.752 49.7533L237.055 49.7162C237.001 49.4169 236.776 49.0894 236.713 48.7583C236.802 48.7743 236.891 48.8292 236.989 48.7583C236.829 48.3405 237.007 47.8607 237.178 47.45L236.913 47.3013C236.913 47.2659 237.03 47.2322 237.082 47.2694C237.176 47.1101 236.916 47.2694 236.811 47.1915C236.792 47.103 236.959 47.0693 237.039 47.126C236.811 46.8516 236.544 46.3417 236.816 46.0425L236.897 46.0974C236.996 45.8654 236.363 45.8513 236.594 45.6335L236.64 45.6725C236.744 45.175 236.493 44.6314 236.879 44.2437C236.5 44.18 237.035 43.748 236.51 43.7285C236.763 43.4382 236.866 43.5178 237.025 43.1159C237.048 43.0079 236.694 42.9637 236.637 42.8327L236.911 42.8238L236.619 42.6468L236.945 42.5441L236.872 42.4219C236.851 42.4551 236.821 42.4821 236.786 42.5001C236.751 42.5182 236.712 42.5266 236.672 42.5246C236.544 42.3334 236.85 42.0501 236.993 42.0413L236.751 41.5898C236.861 41.5898 236.902 41.673 236.973 41.7314C236.688 41.4942 237.261 41.6819 237 41.4641C236.937 41.4942 236.836 41.4517 236.781 41.4464C236.943 41.3331 236.939 41.0782 236.866 40.8923L237.055 40.9241C237.096 40.5842 236.95 40.216 236.945 39.8318C236.859 39.9699 236.53 39.9451 236.496 39.8318L236.786 39.7804C236.608 39.7131 236.679 39.899 236.457 39.7556C236.487 39.614 236.784 39.6529 236.88 39.7326L236.776 39.5556C236.863 39.5432 236.909 39.5821 237.019 39.591C236.841 39.5237 237.304 39.2865 236.989 39.1909L237.074 39.1802C237.074 38.7996 236.964 38.6296 236.945 38.3198C236.694 38.3198 236.747 38.1959 236.542 38.1091C236.617 37.879 236.808 37.6222 236.781 37.3496C236.653 37.1584 236.567 37.2965 236.425 37.2133C236.651 37.1938 236.624 36.9212 236.792 37.0592C236.767 36.7683 236.682 36.4855 236.542 36.2289C236.45 36.2749 236.411 36.3263 236.333 36.3015C236.293 36.2271 236.425 36.1245 236.534 36.1368L236.558 36.1563C236.203 35.696 237.199 35.064 236.715 34.701L236.74 34.7223L236.484 34.3416C236.519 34.1646 236.662 34.4443 236.795 34.3097C236.405 33.9025 236.836 33.6511 236.574 33.3148C237.242 33.035 236.507 32.3729 236.93 32.0064L236.772 32.0312C236.615 31.9409 236.861 31.9161 236.895 31.8541C236.772 31.8665 236.756 31.9586 236.669 31.9019C236.461 31.1229 236.864 30.2784 236.989 29.4729C237.025 29.1772 236.167 29.3224 236.537 28.9418L236.832 29.0409C236.468 28.4567 236.818 27.8282 236.507 27.2545C236.574 27.2864 236.663 27.2864 236.663 27.3431C236.873 27.2156 236.663 26.8881 236.486 26.8898C236.503 26.7995 236.644 26.8668 236.731 26.8084C236.854 26.6827 236.452 26.5056 236.662 26.4348C236.697 26.4242 236.733 26.4685 236.749 26.4915C236.644 26.4136 236.767 26.1161 236.523 26.1993C236.635 25.978 236.404 25.7851 236.546 25.608C236.268 25.5 236.671 25.2309 236.281 25.2044C236.683 25.2044 236.596 24.8149 236.404 24.6732C236.526 24.7175 236.528 24.5511 236.697 24.6006C236.688 24.4448 236.61 24.3014 236.404 24.3333C236.879 24.0341 236.003 23.7597 236.617 23.5826C236.41 23.1655 236.248 22.7275 236.135 22.276C236.537 22.276 236.185 22.7399 236.607 22.7133C236.429 22.3185 236.083 22.0955 236.171 21.6989C236.224 21.5944 236.349 21.752 236.416 21.7856C236.238 21.3908 236.436 21.0137 236.21 20.6649C236.247 20.6649 236.288 20.7021 236.32 20.7375C236.306 20.6685 236.375 20.5746 236.192 20.5853L236.244 20.6525C235.982 20.7694 235.685 20.387 235.544 20.3781C236.069 20.4861 235.669 20.024 236.333 20.2011C236.302 20.1674 236.264 20.1417 236.222 20.1263C236.179 20.1108 236.134 20.1061 236.089 20.1126C236.123 20.0435 236.194 20.0205 236.333 20.0878C236.228 19.8381 236.037 19.932 236.035 19.7054C236.124 19.7054 236.16 19.7496 236.263 19.7709C236.085 19.6593 235.907 19.5478 235.984 19.3548C236.037 19.3654 236.107 19.3406 236.107 19.3991C236.073 19.0698 235.635 18.8467 235.795 18.4838C236.179 18.5811 235.918 18.3581 236.249 18.3315L236.135 18.1367L235.977 18.2182C235.977 18.0411 235.733 17.903 235.838 17.7543L235.978 17.8783L235.911 17.5702L235.79 17.7472C235.612 17.5702 235.37 17.7756 235.457 17.5472C235.493 17.5932 235.457 17.3701 235.651 17.2834C235.543 17.202 235.43 17.117 235.509 16.9895C235.615 16.9541 235.877 17.0072 235.948 16.9895C235.669 16.9134 235.861 16.5947 235.564 16.4955C235.654 16.5239 235.75 16.5306 235.843 16.515L235.619 16.4424C235.688 16.3628 235.724 16.3504 235.863 16.3592C235.898 16.122 235.443 16.4442 235.619 16.1592C235.637 16.1804 235.671 16.1698 235.706 16.214C235.795 15.9308 235.551 15.6723 235.656 15.4103C235.989 15.3271 235.744 15.6351 236.023 15.5413C235.957 15.1695 235.601 14.7747 235.676 14.4117L235.64 14.4808C235.169 14.4401 235.868 14.2064 235.642 14.0293C235.707 14.0632 235.78 14.0779 235.852 14.0718C235.923 13.8222 235.726 13.5672 235.569 13.1866L235.69 13.2308C235.795 13.0821 235.745 12.8449 235.797 12.6856C235.674 12.6413 235.692 12.551 235.518 12.6094C236.197 12.1084 235.126 11.6888 235.696 11.2444C235.696 11.2958 235.804 11.3666 235.804 11.3241L235.685 10.9594C235.48 10.993 235.56 11.0107 235.402 11.0904C235.347 11.0764 235.297 11.0474 235.257 11.0068C235.218 10.9662 235.19 10.9154 235.178 10.8602C235.317 11.0213 235.507 10.8514 235.621 10.777C235.555 10.7805 235.489 10.7805 235.423 10.777C235.779 10.577 235.011 10.754 235.245 10.4849L235.354 10.4973C235.295 10.3999 235.151 10.3202 235.176 10.2069C235.423 10.1556 235.299 10.3114 235.495 10.3114C235.477 10.1627 235.037 10.0281 235.272 9.88825C235.34 9.94845 235.342 10.0405 235.409 10.1025C235.685 9.94845 235.614 9.93428 235.656 9.82451V9.83514L235.779 9.57842L235.706 9.64393C235.082 9.46688 235.583 9.2686 235.172 9.02604C235.562 9.26151 235.395 9.06145 235.665 9.07385C235.738 9.00834 235.82 8.9092 235.897 8.93575C235.676 8.82244 236.064 8.73392 235.742 8.58166C235.829 8.57104 235.742 8.45419 235.966 8.47544C235.895 8.32318 235.817 8.51616 235.706 8.50553C235.406 8.27361 236.062 7.93899 235.64 7.60615C235.462 7.3158 235.172 7.26799 235.021 6.99712C235.158 6.90151 235.338 7.06616 235.338 7.06616C235.365 7.04008 235.387 7.00885 235.401 6.97433C235.416 6.93982 235.423 6.90271 235.423 6.86522C235.423 6.82773 235.416 6.79062 235.401 6.7561C235.387 6.72158 235.365 6.69035 235.338 6.66427C235.414 6.69083 235.479 6.66427 235.575 6.61647C235.537 6.49785 235.245 6.54034 235.37 6.38985C235.492 6.41143 235.611 6.44647 235.726 6.49431C235.637 6.3633 235.473 6.23937 235.391 6.10127C235.543 6.06055 235.623 6.1774 235.722 6.2252C235.651 6.07117 235.576 5.82685 235.336 5.78613L235.245 5.88528C235.233 5.83039 235.45 5.85341 235.495 5.88528C235.687 6.01275 235.416 6.07649 235.329 6.08711L235.272 5.98973C234.765 6.10127 235.363 6.381 235.336 6.57752L234.971 6.51201L235.283 6.70853C235.188 6.75279 234.982 6.78643 234.927 6.69083C234.749 6.83601 235.06 6.81299 234.859 6.93869C234.85 6.94559 234.839 6.94931 234.827 6.94931C234.816 6.94931 234.805 6.94559 234.795 6.93869L234.909 7.07325C234.831 7.04846 234.648 7.10334 234.699 7.01659C234.491 7.26799 234.986 7.40963 234.708 7.50877L234.683 7.47868C234.815 7.8186 234.955 7.50523 235.279 7.75664L234.614 7.95139L234.89 7.97794C234.888 7.99356 234.883 8.00861 234.875 8.02211C234.866 8.03562 234.856 8.04726 234.843 8.05629C234.83 8.06532 234.815 8.07152 234.799 8.0745C234.784 8.07747 234.768 8.07715 234.753 8.07355C234.941 8.20279 234.87 8.04876 235.046 8.12135C234.802 8.29839 235.172 8.58875 234.742 8.63655C234.948 8.6932 234.897 8.47013 235.044 8.64894C234.58 8.71091 235.128 8.85785 234.918 9.01896C234.678 8.97647 234.801 8.82598 234.591 8.98709C234.998 9.07208 234.509 9.29161 234.591 9.42085C234.915 9.42085 234.731 9.70412 234.843 9.92189C234.735 9.91127 234.676 10.3415 234.562 10.5486H234.509C234.836 10.5805 234.779 10.7947 234.85 10.947C234.787 10.9547 234.722 10.9489 234.661 10.9299C234.599 10.911 234.543 10.8794 234.495 10.8372V10.9824C234.54 10.9927 234.583 11.0144 234.618 11.0453C234.653 11.0762 234.68 11.1155 234.696 11.1594L234.45 11.1293C234.468 11.3205 234.745 11.51 234.589 11.7614C234.817 11.7614 235.219 11.5507 235.375 11.8092C235.253 11.8216 235.043 11.8375 234.991 11.7685C235.007 11.7915 235.094 11.8464 235.043 11.8942L234.834 11.7932C234.745 11.9083 235.012 11.8481 234.991 11.9384C234.813 11.9384 234.866 12.0092 234.728 11.9986C234.71 11.9756 234.799 11.9189 234.728 11.8853C234.708 11.9473 234.674 12.004 234.628 12.0509C234.583 12.0979 234.528 12.1339 234.466 12.1562C234.566 12.1456 234.703 12.1562 234.726 12.2252C234.744 12.4182 234.516 12.2961 234.429 12.4111C234.552 12.4554 234.429 12.5882 234.69 12.5776C234.69 12.6342 234.569 12.6466 234.498 12.6714C234.616 12.7688 234.541 13.1352 234.818 13.0255L234.836 13.0007C234.836 13.0007 234.836 13.0113 234.847 13.0166C235.108 13.3211 234.712 13.6752 234.826 13.9975H234.738C234.843 14.1887 234.808 14.4259 234.998 14.5605C234.998 14.6189 234.842 14.7003 234.737 14.6773C234.806 14.8242 234.904 14.8384 234.765 15.0544C234.608 14.9092 234.63 15.1093 234.649 14.9057C234.576 15.0987 234.438 15.1465 234.681 15.3465C234.455 15.281 234.402 15.4988 234.471 15.5873L234.63 15.4457C234.655 15.5391 234.655 15.6373 234.63 15.7307L234.333 15.6865C233.977 16.0883 234.961 16.384 234.365 16.6956C234.573 16.7965 234.505 16.4796 234.749 16.5681C234.713 16.7452 234.294 16.947 234.294 17.0037C234.135 17.2551 234.731 17.225 234.624 17.487C234.729 17.4516 235.011 17.4144 235.114 17.6056C235.078 17.7827 234.676 17.8393 234.589 17.726C234.578 17.6835 234.612 17.6605 234.648 17.6623C234.608 17.6038 234.56 17.5295 234.448 17.6038L234.553 17.6251C234.448 17.7172 234.464 17.965 234.29 17.9101C234.395 18.0447 234.468 17.965 234.518 17.8623C234.37 18.0978 234.518 18.2164 234.423 18.4678C234.48 18.4289 234.601 18.3899 234.601 18.4289C234.479 18.783 234.806 18.5776 234.858 18.8148C234.699 18.9529 234.471 18.7741 234.612 19.0113C234.507 19.1601 234.333 19.0485 234.246 18.9919C234.454 19.2061 234.121 19.4026 234.085 19.523L234 19.4203C234.038 19.4713 234.057 19.5339 234.053 19.5974L234.262 19.5265C234.228 19.5956 234.228 19.6522 234.139 19.654C234.279 19.7195 234.495 19.5921 234.681 19.7266C234.576 19.8187 234.802 19.9975 234.523 20.0347C234.612 19.7496 234.242 20.0718 234.192 19.8328C234.21 19.8588 234.22 19.8897 234.22 19.9214C234.22 19.953 234.21 19.9839 234.192 20.0099C234.178 20.0131 234.164 20.0123 234.151 20.0076C234.138 20.0029 234.126 19.9944 234.117 19.9833C233.874 20.2595 234.438 20.1002 234.438 20.3799C234.278 20.348 234.139 20.4525 234.174 20.4967C234.174 20.3834 234.436 20.4366 234.559 20.5392C234.439 20.7163 234.655 20.7322 234.642 20.8261L234.697 20.7181C234.856 20.7499 234.838 20.8402 234.89 20.9659C234.767 20.9783 234.804 20.8526 234.751 20.8986C235.03 21.0314 234.47 21.2191 234.66 21.4103C234.557 21.5024 234.365 21.4245 234.294 21.5059C234.504 21.7184 234.082 21.7449 234.256 21.9698C234.468 21.8989 234.415 21.8901 234.626 22.0459L234.468 21.6741L234.781 21.9078C234.781 21.7945 234.644 21.6706 234.678 21.6033C234.856 21.713 234.801 21.7024 234.975 21.6458C234.66 21.8069 235.167 21.9485 234.957 22.1326H234.423C234.196 22.4071 234.705 22.6071 234.58 22.9594L234.669 22.8444C234.879 22.8868 234.703 23.0604 234.79 23.1719C234.665 23.1732 234.543 23.2141 234.443 23.2887C234.573 23.2887 234.443 23.5455 234.788 23.5685L234.56 23.7296C234.471 24.0146 235.068 24.0412 235.014 24.3156C234.82 24.2377 234.699 24.3634 234.559 24.1846C234.559 24.2749 234.528 24.3616 234.651 24.3616C234.541 24.4165 234.893 24.6077 234.728 24.6945C234.806 24.7316 234.989 24.7405 234.977 24.8432C234.949 24.8491 234.92 24.8491 234.891 24.8432C234.977 24.8432 235.012 25.0008 235.205 24.9069C234.671 25.199 235.261 25.6877 234.795 25.9409C234.864 26.1403 234.911 26.3461 234.938 26.5552C234.884 26.5446 234.85 26.5552 234.868 26.5216C234.712 26.7765 235.381 26.6614 235.205 26.9536C234.923 27.104 235.048 26.8066 234.943 26.8987C234.365 26.95 235.028 27.2368 234.696 27.4298L234.66 27.3838C234.468 27.5343 234.886 27.7379 234.85 27.9716C234.822 27.9657 234.792 27.9657 234.763 27.9716C235.062 28.1274 235.165 28.4336 235.253 28.6585C235.025 28.593 235.132 28.5576 234.897 28.6071C234.932 28.7081 235.265 28.5682 235.334 28.7718C235.212 28.8409 235.107 28.9896 234.861 29.0144L234.845 28.8231C234.528 28.9276 234.861 29.071 234.808 29.1772H234.669C234.721 29.4711 235.069 29.4676 235.051 29.7845L235.156 29.7491C235.512 29.9155 234.964 29.8996 235.226 30.066L234.87 30.1262C235.036 30.3051 235.177 30.5059 235.288 30.7228C235.027 30.6131 234.888 30.3687 234.729 30.2306C234.729 30.344 234.763 30.6148 234.939 30.6715C234.904 30.6255 234.817 30.5706 234.87 30.5245C235.149 30.6573 235.288 30.8361 235.286 31.0557C234.605 31.0309 235.128 31.6488 234.603 31.824C234.865 32.2171 234.514 32.619 234.564 33.0828C235.098 32.9058 234.582 33.2192 235.124 33.1784C235.162 33.2864 235.155 33.3272 235.124 33.3378L234.808 33.6742C234.649 33.7556 234.685 33.5732 234.562 33.5856C234.527 33.8246 234.334 33.6901 234.194 33.8512C234.388 33.814 234.473 33.9273 234.402 34.0637L234.655 33.8583C234.952 34.1823 234.205 34.1539 234.498 34.4833L234.32 34.3806C234.425 34.5576 234.32 35.0144 234.77 35.172C234.708 35.2038 234.56 35.2481 234.52 35.172C234.463 35.5845 235.005 36.0749 234.742 36.4006L234.608 36.3723C234.649 36.4484 234.861 36.4998 234.729 36.5989C234.674 36.5989 234.596 36.5706 234.589 36.5989C234.637 36.6379 234.827 36.7972 234.751 36.8999L234.6 36.8167C234.434 37.2204 234.979 37.4222 235.076 37.7568C234.941 37.7635 234.812 37.8146 234.708 37.902C234.605 37.9894 234.534 38.1082 234.505 38.2401H234.448C234.411 38.7058 234.79 39.0244 234.954 39.4511C234.536 39.7291 234.795 40.3629 234.568 40.7984C234.637 40.7311 234.872 40.7984 234.913 40.8781C234.836 40.9808 235.19 41.1507 234.831 41.1437V41.1065C234.475 41.1897 234.578 41.3968 234.571 41.5579L235.043 41.5756C234.368 42.013 235.318 42.6804 234.71 42.9247C234.831 43.0239 234.833 43.1513 234.952 43.2505H234.712C234.641 43.5034 234.634 43.7698 234.692 44.0259L234.514 43.9587C234.504 44.157 235.247 44.1924 235.265 44.3747L234.89 44.4455C234.902 44.7908 234.58 45.1537 234.929 45.4795C234.874 45.4795 234.763 45.4671 234.751 45.4122C234.751 45.5751 234.511 46.046 235.025 45.9752C234.689 45.9876 235 46.3293 235.153 46.5152L234.904 46.4922C235.224 46.6409 235.311 46.6444 235.402 46.8622C235.372 46.9153 235.206 46.9118 235.267 46.841C235.142 47.018 235.505 46.972 235.377 47.1844L235.217 47.1101C235.203 47.2871 235.286 47.2729 235.473 47.3668C235.576 47.4765 235.418 47.7067 235.196 47.7368C235.333 47.758 235.518 47.8519 235.455 47.9581C235.427 47.9638 235.397 47.9632 235.369 47.9565C235.341 47.9498 235.315 47.937 235.292 47.9191C235.128 48.2201 235.589 48.3564 235.35 48.5671C235.299 48.5659 235.248 48.5787 235.203 48.6043C235.19 48.4688 235.197 48.3321 235.226 48.1989C234.998 48.1989 234.963 48.3954 234.642 48.2502C234.82 48.4007 235.199 48.6557 235.096 48.8433C235.071 48.8556 235.044 48.8645 235.016 48.8699L234.991 48.8522C234.968 48.8947 234.991 48.9336 235.03 48.969C234.995 49.0141 234.972 49.0679 234.964 49.1248C234.776 49.1514 234.868 49.3461 234.861 49.4417C235.11 49.4276 235.073 49.5533 235.277 49.4329C235.26 49.4488 235.247 49.4152 235.235 49.3514C235.23 49.3362 235.22 49.3227 235.208 49.3125H235.229C235.229 49.2505 235.213 49.1691 235.208 49.0752C235.336 49.1478 235.445 49.2257 235.309 49.3337C235.471 49.3798 235.637 49.4293 235.715 49.4577C235.37 49.5958 235.181 49.8525 234.971 49.8914C235.119 50.18 235.08 50.5748 235.553 50.7483C235.615 50.8298 235.422 50.8475 235.347 50.8793C235.299 50.8333 235.306 50.7749 235.237 50.7519C235.361 50.9147 235.295 51.2405 235.624 51.2724C235.48 51.4848 235.318 51.1626 235.379 51.4494L235.277 51.414C234.765 51.9876 236.135 52.3098 235.477 52.9507C235.49 52.9312 235.506 52.9144 235.526 52.9013C235.546 52.8883 235.567 52.8792 235.591 52.8746C235.308 53.5934 235.9 54.337 235.445 55.0523C235.354 55.2541 235.564 55.27 235.726 55.3886L235.459 55.4382L235.779 55.6347C236.012 55.9269 235.132 56.1659 235.567 56.52L235.745 56.4686C235.715 56.6032 235.863 56.8918 235.653 56.8741C235.687 56.8864 235.843 56.9148 235.749 56.9679H235.608L235.857 57.2919C235.761 57.5504 235.299 57.2635 235.279 57.646C235.336 57.7841 235.697 58.0337 235.79 57.9788C235.805 57.9322 235.836 57.8921 235.877 57.8645C235.918 57.837 235.967 57.8237 236.016 57.8266L236.091 57.9523C236.505 57.9664 236.932 58.0549 237.215 57.7363L236.957 57.5238L237.156 57.4494L237.172 57.6265C237.359 57.5185 237.19 57.4495 237.074 57.3857C237.156 57.378 237.233 57.3445 237.293 57.2901L236.893 57.0847C237.055 57.0564 237.217 57.1733 237.302 57.0281C237.124 56.9325 236.946 57.1325 236.818 56.9697C236.996 56.8617 237.158 56.8882 236.996 56.7696C237.035 56.7585 237.075 56.7576 237.114 56.7669C237.153 56.7762 237.189 56.7954 237.219 56.8227C237.089 56.7165 237.158 56.5359 236.937 56.4846C237.167 56.3712 236.868 56.1181 237.261 56.1216C237.165 56.088 236.948 55.9357 236.93 55.8366C237.404 56.0136 236.95 55.463 237.453 55.5002C237.028 55.3745 237.256 55.0151 237.016 54.7814C237.05 54.7938 237.119 54.8186 237.098 54.8416C237.13 54.7053 237.256 54.6645 237.334 54.576C236.978 54.5654 236.9 54.3583 236.683 54.2503C237.016 54.0732 237.094 54.3405 237.416 54.2821C237.135 54.2963 237.128 54.0024 236.895 54.0626C237.099 53.9316 236.993 53.951 237.281 53.8855C236.845 53.8731 237.204 53.7705 236.934 53.6713C237.146 53.4837 237.341 53.6147 237.204 53.4181C237.331 53.3332 237.489 53.5102 237.489 53.5102ZM236.631 48.7566C236.631 48.7973 236.644 48.8327 236.649 48.8557C236.647 48.8327 236.642 48.8044 236.631 48.7548V48.7566ZM236.619 48.3564C236.612 48.4153 236.612 48.4747 236.619 48.5335C236.534 48.5494 236.441 48.5335 236.441 48.4963C236.5 48.5105 236.546 48.4166 236.619 48.3547V48.3564ZM234.904 49.2417C234.868 49.1797 234.916 49.1567 234.968 49.1461C234.974 49.1844 234.985 49.2219 235 49.2576H235.03C234.988 49.2555 234.945 49.2496 234.904 49.2399V49.2417Z" fill="#FFFEFE"/>
<path d="M235.235 49.3461C235.235 49.355 235.251 49.3603 235.253 49.3727L235.309 49.3337L235.229 49.3125L235.235 49.3461Z" fill="#FFFEFE"/>
<path d="M234.811 13.0033C234.821 12.9942 234.833 12.9877 234.845 12.9846C234.834 12.9917 234.823 12.998 234.811 13.0033Z" fill="#FFFEFE"/>
<path d="M236.977 42.8096L236.913 42.8113L236.968 42.845L236.977 42.8096Z" fill="#FFFEFE"/>
<path d="M235.621 10.7772C235.644 10.772 235.666 10.7617 235.685 10.7471C235.662 10.7527 235.64 10.763 235.621 10.7772Z" fill="#FFFEFE"/>
<path d="M235.656 9.82267L235.742 9.68457C235.705 9.72517 235.676 9.77193 235.656 9.82267Z" fill="#FFFEFE"/>
<path d="M235.763 9.08708C235.728 9.07975 235.692 9.07537 235.656 9.07397L235.763 9.08708Z" fill="#FFFEFE"/>
<path d="M236.313 20.7378C236.315 20.7478 236.318 20.7575 236.324 20.7661C236.373 20.8316 236.354 20.7874 236.313 20.7378Z" fill="#FFFEFE"/>
<path d="M235.653 17.2818C235.699 17.314 235.742 17.3514 235.779 17.3933C235.792 17.3278 235.795 17.28 235.653 17.2818Z" fill="#FFFEFE"/>
<path d="M236.697 24.606C236.698 24.614 236.698 24.6221 236.697 24.6301V24.606Z" fill="#FFFEFE"/>
<path d="M235.779 17.5506C235.799 17.5289 235.809 17.5009 235.809 17.4719C235.809 17.4428 235.799 17.4148 235.779 17.3931C235.758 17.4409 235.733 17.5011 235.779 17.5506Z" fill="#FFFEFE"/>
<path d="M235.808 5.90638L235.817 5.87097L235.779 5.86743L235.808 5.90638Z" fill="#FFFEFE"/>
<path d="M235.779 5.86756L235.749 5.82861C235.747 5.84632 235.749 5.86225 235.779 5.86756Z" fill="#FFFEFE"/>
<path d="M235.681 5.74731L235.747 5.82875C235.747 5.80043 235.754 5.76502 235.681 5.74731Z" fill="#FFFEFE"/>
<path d="M235.713 6.87839L235.804 6.88775C235.774 6.88042 235.744 6.87728 235.713 6.87839Z" fill="#FFFEFE"/>
<path d="M235.745 7.17426C235.765 7.10345 235.936 6.99722 235.877 6.8963L235.804 6.88745C235.941 6.93171 235.601 7.11053 235.745 7.17426Z" fill="#FFFEFE"/>
<path d="M234.653 8.42932L234.712 8.18677C234.617 8.2328 234.488 8.29122 234.463 8.18677C234.189 8.49128 234.685 8.10356 234.653 8.42932Z" fill="#FFFEFE"/>
<path d="M234.534 9.19788C234.486 9.06686 234.395 9.19788 234.34 9.19788C234.423 9.27932 234.447 9.29879 234.534 9.19788Z" fill="#FFFEFE"/>
<path d="M234.649 14.7376H234.422C234.455 14.8297 234.509 14.727 234.649 14.7376Z" fill="#FFFEFE"/>
<path d="M235.849 15.7694L235.987 15.6668L235.777 15.6243L235.849 15.7694Z" fill="#FFFEFE"/>
<path d="M234.242 16.43L234.208 16.3857L234.294 16.5557L234.242 16.43Z" fill="#FFFEFE"/>
<path d="M234.534 25.7303L234.815 25.6931C234.753 25.6258 234.438 25.617 234.534 25.7303Z" fill="#FFFEFE"/>
<path d="M234.898 29.7402C234.76 29.7863 234.673 29.9013 234.811 29.9686C234.829 29.8783 234.936 29.7863 234.898 29.7402Z" fill="#FFFEFE"/>
<path d="M234.705 41.7935L234.61 41.7139L234.692 41.8644L234.705 41.7935Z" fill="#FFFEFE"/>
<path d="M236.012 27.704C235.955 27.7766 235.977 27.9519 236.124 27.9235L236.244 27.6367L236.012 27.704Z" fill="#FFFEFE"/>
<path d="M236.975 28.2903C237.153 28.1575 237.364 27.9168 237.263 27.6423C237.085 27.9168 237.044 27.7964 236.845 28.1239C236.815 28.1326 236.783 28.1332 236.753 28.1258C236.722 28.1184 236.695 28.1031 236.672 28.0816C236.65 28.0601 236.633 28.033 236.624 28.0031C236.616 27.9733 236.615 27.9416 236.623 27.9114C236.567 27.984 236.398 27.8371 236.309 28.0177C236.487 28.2514 236.733 28.2726 236.994 28.0956C237.046 28.1628 236.991 28.2372 236.975 28.2903Z" fill="#FFFEFE"/>
<path d="M251.416 28.4814L251.32 28.4548C251.35 28.471 251.383 28.4801 251.416 28.4814Z" fill="#FFFEFE"/>
<path d="M260.343 27.5715C260.277 27.5892 260.254 27.6229 260.254 27.6494C260.314 27.6193 260.362 27.5945 260.343 27.5715Z" fill="#FFFEFE"/>
<path d="M261.912 27.6387H261.819C261.857 27.663 261.894 27.663 261.912 27.6387Z" fill="#FFFEFE"/>
<path d="M251.416 28.4814L251.664 28.5523C251.673 28.4567 251.536 28.4921 251.416 28.4814Z" fill="#FFFEFE"/>
<path d="M238.982 27.6616C238.932 27.6746 238.887 27.7002 238.85 27.736C238.89 27.724 238.93 27.7146 238.971 27.7076C238.982 27.6846 238.982 27.6722 238.982 27.6616Z" fill="#FFFEFE"/>
<path d="M247.483 28.9697H247.41C247.388 29.009 247.37 29.0498 247.355 29.0919L247.483 28.9697Z" fill="#FFFEFE"/>
<path d="M244.446 29.1187C244.515 29.1276 244.533 28.878 244.558 28.7646C244.549 28.8035 244.532 28.8399 244.506 28.8707C244.481 28.9014 244.448 28.9258 244.412 28.9417C244.413 29.0022 244.424 29.0621 244.446 29.1187Z" fill="#FFFEFE"/>
<path d="M239.633 28.6797L239.546 28.7133C239.569 28.7027 239.606 28.6939 239.633 28.6797Z" fill="#FFFEFE"/>
<path d="M249.657 28.9009C249.663 28.9314 249.675 28.9607 249.691 28.9876C249.688 28.956 249.677 28.9258 249.657 28.9009Z" fill="#FFFEFE"/>
<path d="M238.667 9.74128C238.667 9.72358 238.667 9.71118 238.667 9.69702C238.649 9.72181 238.644 9.73951 238.667 9.74128Z" fill="#FFFEFE"/>
<path d="M235.165 8.50016L235.213 8.486C235.22 8.4402 235.223 8.3941 235.224 8.3479L235.165 8.50016Z" fill="#FFFEFE"/>
<path d="M261.869 24.6521H261.88C261.965 24.6708 261.921 24.6521 261.869 24.6521Z" fill="#FFFEFE"/>
<path d="M264.506 16.9648C264.698 17.1419 264.467 17.1419 264.31 17.1684C264.196 17.2092 264.079 17.2517 264.266 17.4446C264.255 17.3897 264.417 17.3419 264.55 17.2782C264.684 17.2145 264.78 17.1313 264.506 16.9648Z" fill="#FFFEFE"/>
<path d="M239.058 27.6904C239.099 27.6876 239.14 27.6876 239.181 27.6904C239.141 27.68 239.099 27.68 239.058 27.6904Z" fill="#FFFEFE"/>
<path d="M264.266 17.4446L264.316 17.4853C264.298 17.4726 264.282 17.459 264.266 17.4446Z" fill="#FFFEFE"/>
<path d="M258.711 23.8945L258.364 23.9565L258.711 23.8945Z" fill="#FFFEFE"/>
<path d="M260.047 24.4751L259.941 24.406C259.972 24.4352 260.008 24.4586 260.047 24.4751Z" fill="#FFFEFE"/>
<path d="M258.453 23.5773C258.522 23.5667 258.601 23.5685 258.572 23.5437H258.499C258.553 23.5579 258.569 23.5685 258.453 23.5773Z" fill="#FFFEFE"/>
<path d="M259.636 23.0371C259.62 23.023 259.606 23.0141 259.59 23.0017L259.556 23.0318L259.636 23.0371Z" fill="#FFFEFE"/>
<path d="M246.538 9.64202C246.488 9.57629 246.447 9.5035 246.419 9.42603C246.454 9.60307 246.079 9.65618 246.538 9.64202Z" fill="#FFFEFE"/>
<path d="M238.982 27.7944C239 27.7324 239.021 27.7023 239.062 27.6899C239.032 27.6899 239.003 27.6899 238.975 27.7006C238.969 27.7158 238.967 27.7321 238.968 27.7482C238.969 27.7644 238.974 27.7801 238.982 27.7944Z" fill="#FFFEFE"/>
<path d="M254.695 23.2197C254.93 23.1135 255.149 23.0073 255.389 22.9028C255.152 22.9945 254.92 23.1003 254.695 23.2197Z" fill="#FFFEFE"/>
<path d="M260.028 9.97558L259.992 9.96436C259.976 9.97184 259.976 9.97745 260.028 9.97558Z" fill="#FFFEFE"/>
<path d="M257.307 21.9325C257.487 21.9333 257.666 21.9143 257.841 21.8759C257.855 21.8508 257.863 21.823 257.864 21.7944L257.307 21.9325Z" fill="#FFFEFE"/>
<path d="M243.707 9.99985C244.099 9.99985 243.885 9.6794 243.976 9.49174C244.444 9.39967 244.191 9.73252 244.349 9.90071C244.643 9.81573 244.867 9.51475 245.084 9.52891C245.102 9.58203 245.143 9.60327 245.093 9.67055C245.403 9.41029 246.011 9.65993 246.372 9.33417C246.394 9.35713 246.41 9.38509 246.419 9.41561C246.369 9.2712 246.35 9.118 246.364 8.96591C246.541 8.96591 246.691 8.76054 246.757 8.97477C246.648 8.97477 246.639 9.05444 246.589 9.11994L246.767 9.02788C246.933 9.33594 246.517 9.13411 246.517 9.36072C246.872 9.26158 247.294 9.00663 247.57 9.09693C247.627 9.3979 246.926 9.19607 247.292 9.46341L246.867 9.34833C247.191 9.82281 246.607 9.31469 246.906 9.82281C247.467 9.91133 247.532 9.67055 248.091 9.76084C248.217 9.59265 248.05 9.51298 248.177 9.34656C248.972 9.04735 248.801 10.1043 249.386 9.70065C249.538 9.50059 249.598 9.12171 250.013 9.32354L249.87 9.66347C250.404 9.69711 250.182 9.17483 250.749 9.40498C250.648 9.53777 250.322 9.51652 250.404 9.55724C250.771 9.82635 250.666 9.36426 250.948 9.36603L251.005 9.66701C251.584 9.62098 252.221 9.40498 252.859 9.35187C252.824 9.44216 252.715 9.52891 252.859 9.62806C253.665 9.47934 254.582 9.66878 255.35 9.84936L255.667 9.60327C255.736 9.60327 255.795 9.72012 255.72 9.77147C256.025 9.87061 255.736 9.60681 255.882 9.50413C256.06 9.48642 256.11 9.65462 256.001 9.73252C256.535 9.51298 257.526 9.26158 258.09 9.54131L257.98 9.61744C258.419 9.72366 258.476 9.0863 258.884 9.33062L258.805 9.37489C258.925 9.39082 259.046 9.39967 259.161 9.40498H259.295H259.378C259.489 9.40498 259.604 9.40498 259.713 9.40498C259.924 9.40498 260.127 9.44747 259.924 9.64399C260.243 9.4581 260.28 9.49882 260.321 9.52183C260.362 9.54485 260.416 9.55016 261.033 9.29168C260.912 9.38616 260.78 9.46581 260.64 9.52891L260.273 9.70596L259.905 9.85999C260.025 9.83805 260.144 9.80968 260.261 9.77501C260.404 9.73016 260.552 9.70572 260.702 9.70242L260.07 9.85999C260.247 9.82653 260.425 9.80465 260.604 9.79448C260.353 9.85645 260.111 9.91133 259.882 9.95736C259.912 9.96034 259.943 9.96566 259.973 9.9733C260.117 9.93284 260.264 9.90091 260.412 9.87769C260.474 9.90779 260.296 9.991 260.113 10.0353C259.954 10.0754 259.791 10.0927 259.627 10.0866C259.664 10.1071 259.693 10.1374 259.713 10.1741C259.732 10.2108 259.741 10.2523 259.738 10.2937C259.633 10.2389 259.624 10.1964 259.56 10.1592C259.681 10.2424 259.586 10.2247 259.512 10.1893C259.437 10.1539 259.36 10.1132 259.455 10.2035C259.519 10.2393 259.579 10.2834 259.633 10.3345C259.593 10.3224 259.552 10.3147 259.51 10.3115H259.465H259.446L259.417 10.3309C259.258 10.4453 259.114 10.5785 258.987 10.7275L258.923 10.5381C258.389 10.9099 257.914 11.4693 257.345 11.9243C257.392 11.9025 257.445 11.8974 257.496 11.9099C257.547 11.9223 257.592 11.9516 257.623 11.9928C257.655 12.0341 257.672 12.0848 257.671 12.1367C257.669 12.1887 257.65 12.2386 257.617 12.2784L257.368 12.1014C257.368 12.3262 257.61 12.0465 257.528 12.3935C257.295 12.5387 257.172 12.2536 257.24 12.0819L257.046 12.3669C256.976 12.3138 257.007 12.2288 256.953 12.1315C256.953 12.243 256.8 12.2766 256.649 12.328C256.4 12.4555 256.115 12.6378 256.103 12.8467L256.001 12.8166C255.455 13.2557 255.085 13.585 254.756 13.8789C254.427 14.1728 254.14 14.4472 253.729 14.7889C254.151 14.7677 253.729 15.0332 253.907 15.143L253.747 15.2474C253.961 15.3678 254.176 15.5077 254.459 15.6564C254.79 15.8318 255.136 15.9769 255.493 16.0902C255.868 16.1521 255.957 16.1274 256.026 16.0902C256.063 16.0551 256.106 16.0276 256.153 16.0093C256.201 15.9911 256.251 15.9825 256.302 15.984C256.21 16.0725 256.37 16.1822 256.492 16.269C256.615 16.3557 256.695 16.4212 256.409 16.4106L257.092 16.616L257.377 16.6974L257.514 16.7364L257.58 16.7523L257.62 16.7612C257.841 16.8054 258.087 16.8373 258.494 16.8798C258.442 16.7647 258.364 16.6939 258.437 16.6372C258.587 16.6496 258.718 16.8338 258.663 16.9311H258.619C259.578 16.8993 260.362 18.2253 261.191 18.0093H261.147H261.928C262.237 18.1581 261.679 18.1049 261.871 18.3192C262.75 18.22 263.049 18.7795 263.75 18.7529C263.721 19.0964 263.7 19.0769 263.824 19.0751C263.884 19.0668 263.944 19.0698 264.002 19.084C264.036 19.0999 264.017 19.13 263.824 19.1761L264.129 19.1123C264.298 19.0893 264.269 19.1123 264.18 19.1123L263.917 19.1654C264.184 19.1265 264.186 19.107 264.39 19.0858C264.519 19.0934 264.645 19.1202 264.766 19.1654C264.801 19.1814 264.823 19.1973 264.828 19.2132C264.83 19.2165 264.831 19.2202 264.831 19.2239C264.831 19.2276 264.83 19.2312 264.828 19.2345C264.828 19.2345 264.828 19.2345 264.808 19.2345H264.732C264.487 19.2547 264.242 19.2606 263.997 19.2522C263.864 19.2537 263.731 19.2345 263.604 19.1955C263.744 19.2636 263.879 19.3424 264.008 19.431C264.091 19.4894 264.154 19.5443 264.15 19.5726C264.146 19.601 264.079 19.6045 263.951 19.5461C263.89 19.4582 263.819 19.3779 263.739 19.3071C263.75 19.3196 263.757 19.3342 263.761 19.35C263.766 19.3657 263.766 19.3822 263.763 19.3982C263.76 19.4142 263.754 19.4294 263.745 19.4427C263.735 19.4561 263.723 19.4672 263.709 19.4753H263.696L263.645 19.4947L263.542 19.5355L263.335 19.608L262.915 19.7461C262.348 19.8997 261.808 20.1385 261.314 20.4543C261.353 20.3676 261.325 20.2773 261.43 20.2472C261.127 20.1286 260.593 20.5535 260.656 20.7163C260.478 20.7624 260.56 20.5853 260.424 20.5393C260.152 20.5092 259.965 21.0173 259.768 20.8686C259.734 20.8438 259.803 20.7783 259.839 20.7464C259.732 20.9022 259.151 20.9996 259.385 21.1696C259.046 21.1891 258.432 21.6865 257.845 21.8069C257.789 21.984 257.503 22.0778 257.234 22.1805C256.966 22.2832 256.745 22.3859 256.955 22.501C256.72 22.3912 256.338 22.4886 255.989 22.655C255.831 22.7276 255.682 22.816 255.542 22.9188C255.428 23.0073 255.364 23.0958 255.364 23.1419C255.268 23.0533 254.8 23.2906 254.631 23.1879C254.46 23.2649 254.304 23.3723 254.171 23.5048C254.115 23.5845 254.188 23.6252 254.45 23.6057C254.125 23.6671 253.811 23.7732 253.516 23.9208C253.38 23.9899 253.259 24.0849 253.16 24.2006C253.074 24.3075 252.962 24.3905 252.834 24.4414C252.492 24.5737 252.138 24.6739 251.778 24.7406L251.584 24.9034L251.489 24.9831L251.466 25.0026C251.466 25.0026 251.447 25.0168 251.454 25.0168L251.477 25.0274C251.547 25.0541 251.619 25.0749 251.692 25.0893C251.714 25.1436 251.749 25.1916 251.794 25.2292L251.811 25.2434H251.82V25.2593C251.82 25.2788 251.806 25.3 251.801 25.3195C251.79 25.3572 251.782 25.3957 251.778 25.4346C252.781 25.362 253.653 25.3089 254.398 25.2575C254.12 25.3371 253.835 25.3962 253.548 25.4346C253.254 25.4735 252.954 25.4983 252.658 25.516L251.769 25.562C251.47 25.578 251.174 25.601 250.845 25.6382C250.763 25.6169 250.543 25.6382 250.016 25.7586C249.995 25.7787 249.98 25.8045 249.973 25.8329C250.863 25.7533 251.714 25.6718 252.464 25.5975L254.404 25.3992C254.953 25.3461 255.471 25.3 255.85 25.2841C256.051 25.2752 256.245 25.2699 256.437 25.2699H256.724C256.801 25.276 256.877 25.2861 256.953 25.3C257.094 25.339 256.985 25.3708 256.795 25.4009C256.701 25.4151 256.587 25.4293 256.48 25.4417L256.4 25.4523L256.313 25.4664L256.169 25.4912C256.24 25.4912 256.329 25.4771 256.382 25.4788H256.56H256.884C257.094 25.4788 257.295 25.493 257.489 25.5036C257.827 25.5497 258.14 25.6063 258.451 25.6647L258.889 25.7763L259.106 25.8276L259.304 25.8701C259.464 25.9084 259.629 25.9281 259.795 25.9285C259.782 25.9622 259.702 25.9799 259.631 25.9887C259.757 26.0117 259.884 26.141 259.933 25.9639H259.802C259.695 25.6453 260.467 25.6099 260.545 25.5054C260.149 25.9055 261.093 25.8736 260.517 26.3481C260.57 26.3515 260.623 26.3381 260.668 26.3098C260.713 26.2815 260.748 26.2398 260.768 26.1906C260.866 26.2755 260.869 26.3552 260.7 26.4296C261.145 26.5269 261.09 26.2808 261.453 26.4721C261.412 26.55 261.323 26.5429 261.238 26.6155C261.367 26.5798 261.5 26.5626 261.634 26.5641C261.784 26.5766 261.925 26.639 262.035 26.7412C261.99 26.7766 261.99 26.8562 261.901 26.8049C262.096 26.8965 262.301 26.962 262.513 26.9996L262.741 25.863C262.426 26.0401 262.12 26.2171 261.673 26.1923C261.809 25.7816 261.421 26.1091 261.33 25.7904L260.974 25.9498L261.152 26.0843C260.83 26.1321 260.586 26.4136 260.293 26.3517L260.51 26.1746L259.919 26.3322L260.275 26.4012C259.978 26.6225 260.376 26.8102 259.933 26.7872C260.015 26.7394 259.611 26.835 259.414 26.6686C259.35 26.7462 259.268 26.8066 259.175 26.844C259.081 26.8815 258.98 26.8948 258.88 26.8828C258.804 26.7872 258.88 26.5145 258.825 26.4508C258.709 26.7465 258.085 26.6279 257.926 26.9554C257.948 26.9119 257.961 26.8642 257.962 26.8156C257.964 26.767 257.955 26.7186 257.935 26.6739L257.836 26.9147C257.676 26.8651 257.658 26.8315 257.658 26.6916C257.204 26.7093 257.859 27.0882 257.302 26.9802C257.341 26.9554 257.316 26.9253 257.4 26.881C256.852 26.8545 256.384 27.1608 255.877 27.1076C255.699 26.7943 256.297 26.9766 256.096 26.7181C255.395 26.8562 254.672 27.29 253.975 27.2776L254.108 27.3006C254.06 27.7769 253.575 27.1236 253.245 27.3768C253.327 27.3343 253.331 27.1076 253.313 27.1608C252.834 27.136 252.361 27.3661 251.657 27.575L251.735 27.4476C251.448 27.3644 250.998 27.4476 250.692 27.4139C250.612 27.5414 250.44 27.5343 250.557 27.7007C250.066 27.3891 249.634 27.5237 249.21 27.6476C248.787 27.7716 248.374 27.9238 247.947 27.6618C248.047 27.6618 248.177 27.5432 248.098 27.5467C247.867 27.5981 247.636 27.6459 247.403 27.6919C247.468 27.8937 247.5 27.8123 247.655 27.9645C247.601 28.0336 247.533 28.0902 247.455 28.1305C247.377 28.1709 247.291 28.194 247.203 28.1982C247.515 28.0495 247.186 27.8707 247.045 27.7627C247.07 27.8247 247.025 27.8955 247.045 27.9592C246.662 27.6051 247.002 28.3717 246.488 28.1487L246.511 28.0407C246.333 28.1026 246.155 28.2549 245.953 28.2283C245.86 27.9929 246.15 28.1133 246.155 27.9167C245.872 27.9398 245.607 28.3806 245.342 28.1522C245.461 28.0832 245.636 28.0779 245.755 28.0088C245.465 27.7379 245.435 27.8105 245.221 27.7716H245.241L244.757 27.66L244.881 27.7308C244.54 28.3594 244.159 27.8619 243.686 28.2708C244.148 27.8813 243.761 28.0478 243.793 27.7804C243.668 27.7078 243.481 27.6264 243.533 27.5503C243.31 27.7698 243.156 27.3838 242.839 27.7043C242.825 27.6193 242.597 27.7043 242.647 27.4812C242.353 27.5485 242.716 27.6317 242.693 27.7397C242.239 28.0336 241.626 27.3856 240.974 27.7822C240.41 27.9398 240.302 28.2301 239.773 28.3664C239.596 28.2248 239.925 28.0548 239.925 28.0548C239.806 27.9969 239.675 27.965 239.543 27.9613C239.41 27.9577 239.278 27.9823 239.156 28.0336C239.213 27.961 239.156 27.8955 239.08 27.7963C238.864 27.8123 238.927 28.1062 238.647 27.9734C238.701 27.8478 238.777 27.7327 238.871 27.6335C238.617 27.7043 238.361 27.8583 238.096 27.9274C238.032 27.7751 238.261 27.7043 238.357 27.6087C238.06 27.6689 237.59 27.722 237.489 27.9539L237.667 28.0478C237.56 28.0478 237.621 27.8406 237.701 27.8017C237.96 27.6246 238.057 27.8937 238.074 27.9787L237.886 28.0283C238.064 28.5399 238.64 27.9699 239.016 28.0106L238.848 28.3735L239.243 28.0796C239.323 28.1788 239.375 28.3859 239.186 28.4337C239.453 28.6231 239.43 28.308 239.658 28.5152C239.683 28.547 239.67 28.5647 239.647 28.5789L239.914 28.4744C239.861 28.5506 239.953 28.7347 239.791 28.678C240.264 28.8993 240.563 28.4142 240.74 28.6957L240.699 28.7188C241.36 28.6037 240.766 28.4514 241.263 28.1363L241.578 28.9011L241.65 28.6355C241.72 28.6444 241.853 28.6656 241.828 28.7736C242.083 28.5877 241.786 28.655 241.933 28.4815C242.261 28.7276 242.835 28.3682 242.912 28.7949C243.028 28.5877 242.597 28.6409 242.946 28.4939C243.051 28.956 243.35 28.4089 243.657 28.6178C243.568 28.8568 243.282 28.7347 243.584 28.9436C243.762 28.5382 244.172 29.025 244.424 28.9436C244.424 28.6231 244.97 28.7949 245.392 28.6763C245.369 28.7843 246.196 28.8338 246.597 28.9294L246.586 28.9825C246.65 28.655 247.059 28.6993 247.353 28.6196C247.362 28.6953 247.347 28.772 247.309 28.8384C247.271 28.9047 247.213 28.9572 247.143 28.9879L247.422 28.9737C247.457 28.9168 247.505 28.8684 247.561 28.8319C247.617 28.7955 247.681 28.772 247.748 28.763L247.689 29.0091C248.061 28.979 248.422 28.6816 248.908 28.8179C248.92 28.5895 248.493 28.2089 248.986 28.03C249.013 28.1504 249.043 28.3593 248.915 28.416C248.958 28.3983 249.063 28.3062 249.152 28.354L248.945 28.57C249.169 28.6479 249.048 28.393 249.223 28.4018C249.223 28.5789 249.36 28.5187 249.344 28.6586C249.301 28.678 249.187 28.5948 249.125 28.6674C249.325 28.6776 249.514 28.7608 249.657 28.9011C249.634 28.8037 249.643 28.6656 249.783 28.6338C250.153 28.5948 249.925 28.8338 250.139 28.9082C250.221 28.7807 250.466 28.8887 250.454 28.6285C250.562 28.6285 250.591 28.7418 250.632 28.8055C250.81 28.6798 251.521 28.7064 251.288 28.4514L251.238 28.4373C251.248 28.4315 251.258 28.4267 251.269 28.4231C251.874 28.1079 252.584 28.462 253.196 28.2868V28.3753C253.551 28.2372 254.016 28.2319 254.263 28.0212C254.373 28.0106 254.541 28.1522 254.505 28.262C254.781 28.1646 254.8 28.0619 255.227 28.1575C254.959 28.3434 255.341 28.2815 254.948 28.3027C255.324 28.3363 255.425 28.4656 255.793 28.1823C255.685 28.4195 256.105 28.4302 256.272 28.3416L255.994 28.2142C256.172 28.1691 256.355 28.1482 256.539 28.1522L256.48 28.4567C257.284 28.7117 257.759 27.6813 258.416 28.1876C258.594 27.9557 257.985 28.1044 258.129 27.8335C258.485 27.8229 258.903 28.1876 259.019 28.1735C259.519 28.2655 259.398 27.6884 259.908 27.7185C259.83 27.6246 259.731 27.3644 260.086 27.1997C260.442 27.1838 260.581 27.568 260.376 27.6848C260.295 27.7078 260.248 27.6848 260.247 27.6459C260.142 27.7007 260.003 27.768 260.158 27.8601L260.184 27.7485C260.373 27.8264 260.848 27.7485 260.764 27.9256C261.01 27.7857 260.848 27.7379 260.645 27.7149C261.113 27.7946 261.339 27.6105 261.812 27.6282C261.729 27.5839 261.634 27.4741 261.714 27.4635C262.403 27.4741 261.972 27.2156 262.417 27.0917C262.702 27.2033 262.392 27.483 262.823 27.2688C262.912 27.2847 262.958 27.3148 262.972 27.3537L263.079 27.6335L263.266 25.8843C263.267 25.8752 263.27 25.8665 263.275 25.8588C263.28 25.8511 263.286 25.8447 263.294 25.84L262.981 27.4051C262.957 27.4944 262.907 27.5745 262.837 27.6352C262.891 27.5969 262.951 27.567 263.015 27.5467L265.579 26.6827L263.381 25.7178C263.224 25.6412 263.089 25.5246 262.992 25.3797C262.912 25.2624 262.819 25.1538 262.716 25.0557L262.969 25.1017C262.842 25.0746 262.721 25.0248 262.613 24.9548L262.631 25.2062C262.527 25.1053 262.422 25.0469 262.467 24.9725C262.273 25.0291 262.396 25.3266 262.059 25.3691C262.003 25.2806 261.867 25.2416 261.753 25.192C261.64 25.1425 261.547 25.0893 261.576 24.9495C262.058 25.2788 261.638 24.6644 262.109 24.8415C261.991 24.8171 261.881 24.7621 261.791 24.6821C261.791 24.6467 261.834 24.6396 261.876 24.6414C261.463 24.1776 261.51 24.8185 260.987 24.5883C261.113 24.4715 260.974 24.2572 260.869 24.259C261.09 24.344 260.869 24.5405 260.638 24.5812C260.335 24.3369 260.234 24.5299 260.058 24.4591L260.236 24.5812C260.117 24.7069 259.953 24.6326 259.702 24.6025C259.718 24.4803 259.942 24.5918 259.88 24.5139C259.842 24.5339 259.8 24.5442 259.757 24.544C259.738 24.5468 259.719 24.5468 259.7 24.544C259.689 24.5423 259.678 24.538 259.668 24.5317C259.624 24.5025 259.59 24.4605 259.57 24.4113C259.515 24.3086 259.517 24.213 259.352 24.2679C259.352 24.2147 259.423 24.1563 259.485 24.1014C259.537 24.0611 259.583 24.0141 259.622 23.9616C259.467 24.0288 259.476 23.9793 259.526 23.9315C259.576 23.8837 259.649 23.8394 259.474 23.889C259.275 24.0075 259.054 24.0863 258.825 24.1209C259.021 24.1067 259.193 24.0873 259.339 24.0696C259.132 24.1405 258.921 24.1996 258.708 24.2466C258.797 24.2524 258.886 24.2483 258.974 24.2342C259.067 24.2342 259.14 24.2147 259.152 24.2342C258.843 24.3387 258.893 24.298 258.761 24.4431C258.845 24.305 258.715 24.3227 258.519 24.3475C258.323 24.3723 258.079 24.3953 258.147 24.3157L259.097 23.9828C259.188 23.9226 259.133 23.9244 258.982 23.9474C258.83 23.9704 258.592 24.0058 258.398 24.0271C258.254 24.043 258.138 24.0448 258.163 24.0271C258.106 24.0448 258.053 24.0607 258.005 24.0802C257.862 24.1162 257.716 24.1352 257.569 24.1368C257.49 24.1204 257.408 24.1204 257.329 24.1368C257.896 24.0377 258.04 24.0058 258.371 23.9439C258.156 23.981 258.12 23.981 257.983 23.9987C257.736 23.9964 257.489 24.0189 257.247 24.066C257.553 24.0023 257.845 23.9456 258.124 23.889C258.364 23.8235 258.039 23.8376 257.756 23.8235C257.473 23.8093 257.222 23.7774 257.466 23.6889C257.655 23.7012 257.845 23.7012 258.035 23.6889C258.18 23.6829 258.326 23.6924 258.469 23.7172C258.538 23.6854 258.668 23.6588 258.378 23.6588C258.531 23.6482 258.435 23.627 258.378 23.5933C258.321 23.5597 258.302 23.5172 258.506 23.5154C258.385 23.4853 258.042 23.4375 258.193 23.3826C258.246 23.3858 258.298 23.3935 258.35 23.4056C258.272 23.395 258.263 23.3649 258.225 23.3348C258.188 23.3047 258.119 23.2729 257.887 23.2729C258.118 23.2769 258.349 23.2568 258.576 23.2127C258.697 23.1808 258.813 23.1319 258.921 23.0675C259.021 23.0063 259.129 22.9576 259.241 22.9223C259.301 22.9041 259.363 22.8993 259.425 22.9082C259.487 22.9171 259.545 22.9394 259.597 22.9737C259.618 22.9577 259.634 22.9418 259.665 22.9223L259.793 22.8444L260.058 22.6886C260.236 22.5912 260.414 22.501 260.57 22.4301C260.57 22.4868 260.602 22.5116 260.537 22.5187C261.033 22.4921 260.615 21.9433 261.186 21.9149C261.542 22.0796 260.976 22.161 261.173 22.1982C261.453 22.7081 261.748 21.8902 262.207 22.0814L262.136 22.1433C262.462 22.2301 262.689 21.706 263.129 21.5963C263.127 21.6264 263.136 21.6561 263.155 21.6795C263.272 21.4767 263.436 21.3053 263.634 21.1802C263.735 21.1076 263.844 21.0421 263.951 20.9801C264.058 20.9182 264.157 20.8598 264.283 20.8031C264.259 20.8787 264.225 20.9508 264.182 21.0173C264.182 21.0527 264.182 21.0811 264.264 21.1749C264.394 21.1165 264.337 21.0386 264.314 20.9447C264.291 20.8509 264.294 20.7464 264.492 20.6526C264.691 20.7181 265.109 20.7004 265.381 20.8757L264.872 21.0527C264.965 21.0902 265.065 21.1051 265.164 21.0961C265.264 21.0872 265.359 21.0547 265.443 21.0014C265.571 20.9027 265.719 20.8322 265.876 20.7942L265.984 20.9076C266.413 20.7641 266.509 20.6367 266.589 20.5198C266.669 20.403 266.744 20.3003 267.176 20.1994L266.892 20.1657C266.767 20.0188 266.926 20.0259 267.143 20.0294C267.36 20.033 267.618 20.04 267.522 19.932C267.842 19.971 268.171 20.0064 268.511 20.0418C268.584 19.9647 268.644 19.8762 268.689 19.7798C268.723 19.6844 268.787 19.6025 268.872 19.5461C269.182 19.6027 269.278 19.6806 269.281 19.7674C269.285 19.8541 269.196 19.9444 269.167 20.0383C269.39 19.9866 269.609 19.9198 269.822 19.8382C270.011 19.7621 270.089 19.6913 269.884 19.6612C269.874 19.6983 269.977 19.7621 269.678 19.7798C269.349 19.6559 269.219 19.5567 269.375 19.4664C269.369 19.4587 269.365 19.4496 269.363 19.4399V19.4257C269.363 19.4257 269.374 19.4168 269.345 19.4115C269.269 19.3903 269.198 19.369 269.135 19.346C269.706 19.362 269.943 19.346 269.973 19.2929C270.004 19.2398 269.838 19.1707 269.642 19.0911C269.24 18.9282 268.742 18.7529 269.093 18.5936C268.431 18.4759 267.787 18.273 267.178 17.9899C266.567 17.6926 265.937 17.4342 265.292 17.2162C265.33 17.3684 265.308 17.4322 265.271 17.4552C265.234 17.4782 265.171 17.4552 265.093 17.4375C264.945 17.3932 264.751 17.3348 264.645 17.5844C264.364 17.526 264.273 17.4853 264.26 17.4428C264.082 17.2658 263.928 17.1011 263.759 16.9311C263.668 16.7328 263.985 16.8816 264.006 16.7541C263.59 16.5664 263.901 16.4744 263.663 16.2407C263.663 16.4443 263.422 16.4531 263.2 16.2991L263.465 16.6532C262.768 16.7187 263.091 16.0459 262.398 16.1079L262.645 16.0123C262.3 16.0017 261.495 15.6157 261.044 15.9238C261.008 15.8459 260.983 15.6812 261.134 15.6901C260.41 15.3749 259.325 15.5626 258.834 15.1111L258.933 15.0049C258.782 14.9943 258.61 15.1572 258.48 14.973C258.506 14.9235 258.578 14.8668 258.517 14.8367C258.426 14.8569 258.334 14.8694 258.241 14.8739C258.179 14.8969 258.129 14.9093 258.115 14.8633C258.158 14.8279 258.197 14.7888 258.232 14.7464C258.209 14.6933 258.183 14.6844 258.127 14.6951C258.072 14.7057 257.99 14.734 257.882 14.7623C257.622 14.8338 257.352 14.8578 257.083 14.8332C257.248 14.7813 257.41 14.7192 257.567 14.6473L257.805 14.5393L257.983 14.4879L258.087 14.4755C258.165 14.4419 258.051 14.4313 257.987 14.3463C257.945 14.2838 257.924 14.2096 257.927 14.1345C257.93 14.0594 257.958 13.9872 258.005 13.9285C258.672 13.9285 259.471 12.9742 260.263 12.6396C260.12 12.6644 260.085 12.3917 260.175 12.2696C260.376 12.2094 260.421 11.7225 260.624 12.0199L260.565 12.0571C260.636 12.0992 260.719 12.1172 260.802 12.1085C260.839 12.1051 260.876 12.0961 260.91 12.0819C260.972 12.05 261.031 12.0139 261.088 11.9739C261.328 11.8075 261.568 11.5879 261.8 11.4109C261.675 11.31 261.545 11.2144 261.412 11.1205C261.832 10.9916 262.224 10.7876 262.57 10.5186C262.885 10.2774 263.182 10.0141 263.46 9.73074C263.69 9.49624 263.935 9.27627 264.193 9.07214C264.538 8.81557 264.914 8.60433 265.314 8.44363C265.299 8.30377 265.623 8.04528 265.554 7.95145L266.223 7.73368L266.561 7.4929C265.791 7.43607 265.018 7.43015 264.248 7.4752L264.858 7.29816C264.502 7.2893 263.929 7.4752 263.419 7.65224C262.908 7.82929 262.447 8.02227 262.191 8.02935C262.321 7.90542 262.442 7.77972 262.547 7.65579C261.992 7.65579 261.515 7.57612 260.946 7.5354C260.655 7.51194 260.363 7.50721 260.072 7.52123C259.924 7.52123 259.773 7.54425 259.627 7.56726C259.554 7.57789 259.481 7.59205 259.41 7.60798L259.305 7.63454C259.291 7.64049 259.277 7.6476 259.264 7.65579L259.234 7.67172C259.239 7.63518 259.251 7.5998 259.268 7.56726C259.315 7.52051 259.379 7.49385 259.446 7.4929H259.33L259.264 7.47874H259.223L259.046 7.45573C258.917 7.43552 258.788 7.42487 258.658 7.42386C258.41 7.42386 258.215 7.4929 258.27 7.74962C258.27 7.41501 257.588 7.71421 257.229 7.86116L257.286 7.61507C256.983 7.92843 256.973 8.01519 256.551 8.10194C256.452 8.0683 256.466 7.90365 256.597 7.96738C256.265 7.83637 256.338 8.19931 255.934 8.0683L256.085 7.91073C255.743 7.89125 255.77 7.97447 255.581 8.15859C255.366 8.25597 254.932 8.09486 254.882 7.87178C254.853 7.95911 254.792 8.03274 254.712 8.07898C254.632 8.12522 254.537 8.14092 254.446 8.12318C254.418 8.03997 254.493 7.98686 254.53 7.96207C253.957 7.78503 253.678 8.24711 253.285 8.00279C253.285 7.97506 253.279 7.94763 253.267 7.92231C253.256 7.89698 253.239 7.87433 253.219 7.85585C253.481 7.84674 253.745 7.85977 254.005 7.8948C254.005 7.66818 253.639 7.62746 253.93 7.31409C253.635 7.49113 253.13 7.85585 252.772 7.74785C252.753 7.72378 252.737 7.69691 252.726 7.66818L252.763 7.64339C252.725 7.63385 252.685 7.63223 252.646 7.63863C252.606 7.64502 252.569 7.65929 252.536 7.68057C252.441 7.64161 252.342 7.61771 252.24 7.60975C252.197 7.42209 251.819 7.50884 251.635 7.49822C251.649 7.74785 251.411 7.70713 251.635 7.9125C251.605 7.8948 251.669 7.8824 251.792 7.87355C251.819 7.86982 251.846 7.8608 251.87 7.84699L251.858 7.87001C251.977 7.87001 252.133 7.85762 252.313 7.85408C252.167 7.97978 252.016 8.086 251.813 7.94791C251.719 8.10725 251.616 8.27013 251.557 8.34803C251.308 7.99394 250.824 7.8169 250.758 7.59736C250.198 7.73546 249.44 7.68588 249.087 8.15328C248.927 8.2117 248.91 8.01873 248.845 7.94437C248.938 7.89834 249.047 7.90542 249.096 7.83814C248.778 7.95676 248.153 7.8824 248.077 8.20816C247.677 8.06122 248.303 7.90896 247.753 7.9603L247.828 7.86116C246.744 7.33002 246.065 8.68972 244.864 8.01696C244.947 8.05768 244.99 8.07715 245.006 8.13203C243.64 7.83283 242.184 8.3976 240.836 7.92489C240.451 7.82929 240.41 8.0382 240.176 8.19577L240.092 7.92843L239.693 8.23649C239.124 8.46134 238.709 7.57789 237.989 8.00279L238.081 8.17984C237.823 8.14443 237.263 8.28429 237.307 8.07715C237.281 8.10902 237.222 8.26305 237.13 8.16921V8.02935L236.494 8.26836C236.002 8.16567 236.573 7.71244 235.854 7.68411C235.587 7.73723 235.094 8.08954 235.194 8.18338C235.301 8.18338 235.468 8.27013 235.477 8.40999L235.231 8.48258C235.169 8.8951 234.98 9.32 235.578 9.60327L235.996 9.35187L236.135 9.55901L235.779 9.57141C235.978 9.75907 236.105 9.59265 236.247 9.47934C236.259 9.5268 236.281 9.57113 236.312 9.60933C236.342 9.64752 236.381 9.67867 236.425 9.70065L236.836 9.30761C236.884 9.46872 236.658 9.62629 236.925 9.71658C237.119 9.53954 236.747 9.36249 237.06 9.23502C237.259 9.42269 237.201 9.57495 237.436 9.41207C237.45 9.45598 237.446 9.50369 237.426 9.54503C237.405 9.58636 237.369 9.61806 237.325 9.63337C237.535 9.5059 237.879 9.58026 237.987 9.36072C238.194 9.59265 238.699 9.30407 238.67 9.69357C238.819 9.53168 239.015 9.41973 239.231 9.37312C238.875 9.83874 239.942 9.40144 239.854 9.90425C240.113 9.48465 240.791 9.7272 241.25 9.48819C241.225 9.52183 241.174 9.58911 241.133 9.56609C241.392 9.60327 241.467 9.72897 241.633 9.80864C241.666 9.45456 242.069 9.38374 242.286 9.17128C242.602 9.5059 242.093 9.57672 242.191 9.89894C242.177 9.61744 242.743 9.61921 242.636 9.38551C242.878 9.59265 242.844 9.48642 242.969 9.77501C243.012 9.34125 243.193 9.70065 243.396 9.43508C243.752 9.65107 243.485 9.84228 243.871 9.71127C244.049 9.84582 243.707 9.99985 243.707 9.99985ZM252.859 9.2722L252.671 9.28636L252.859 9.2722ZM253.63 9.2722C253.519 9.26196 253.407 9.25842 253.295 9.26158C253.269 9.1766 253.295 9.08453 253.375 9.08453C253.34 9.14827 253.521 9.19784 253.637 9.27043L253.63 9.2722ZM252.005 7.54425C252.128 7.50884 252.169 7.55841 252.183 7.60798C252.112 7.6141 252.04 7.62415 251.97 7.63808C251.97 7.63808 251.959 7.65756 251.956 7.66818C251.967 7.62315 251.986 7.58054 252.012 7.54248L252.005 7.54425Z" fill="#FFFEFE"/>
<path d="M251.792 7.86829C251.776 7.87656 251.758 7.88252 251.74 7.88599C251.764 7.90609 251.788 7.925 251.813 7.94265L251.858 7.86475L251.792 7.86829Z" fill="#FFFEFE"/>
<path d="M251.304 28.4515H251.32C251.306 28.4438 251.294 28.4329 251.285 28.4197C251.293 28.4293 251.299 28.4401 251.304 28.4515Z" fill="#FFFEFE"/>
<path d="M259.939 9.88825L260.085 9.85107L259.969 9.87409L259.939 9.88825Z" fill="#FFFEFE"/>
<path d="M247.024 27.8566C247.011 27.8303 246.991 27.8086 246.965 27.7947C246.968 27.8124 246.988 27.8389 247.024 27.8566Z" fill="#FFFEFE"/>
<path d="M245.209 27.8654L244.947 27.7839C245.031 27.8206 245.119 27.8479 245.209 27.8654Z" fill="#FFFEFE"/>
<path d="M243.796 27.7712C243.784 27.8061 243.775 27.8424 243.771 27.8792L243.796 27.7712Z" fill="#FFFEFE"/>
<path d="M259.61 26.0791C259.592 26.0765 259.575 26.0765 259.558 26.0791C259.43 26.0829 259.512 26.0904 259.61 26.0791Z" fill="#FFFEFE"/>
<path d="M259.405 26.762C259.465 26.7068 259.53 26.657 259.599 26.6133C259.48 26.6133 259.387 26.6221 259.405 26.762Z" fill="#FFFEFE"/>
<path d="M254.619 23.2552L254.688 23.218L254.619 23.2552Z" fill="#FFFEFE"/>
<path d="M259.903 26.5695C259.852 26.5557 259.799 26.5526 259.746 26.5602C259.694 26.5678 259.644 26.586 259.599 26.6138C259.702 26.6268 259.808 26.6115 259.903 26.5695Z" fill="#FFFEFE"/>
<path d="M237.736 27.5944L237.67 27.582C237.671 27.5958 237.667 27.6094 237.66 27.621L237.736 27.5944Z" fill="#FFFEFE"/>
<path d="M237.658 27.6208L237.583 27.6474C237.617 27.6492 237.647 27.6474 237.658 27.6208Z" fill="#FFFEFE"/>
<path d="M237.423 27.7024L237.583 27.6475C237.528 27.644 237.462 27.6334 237.423 27.7024Z" fill="#FFFEFE"/>
<path d="M239.583 27.7624L239.606 27.6721C239.591 27.7 239.584 27.7309 239.583 27.7624Z" fill="#FFFEFE"/>
<path d="M240.147 27.7449C240.012 27.7237 239.813 27.5484 239.626 27.6015L239.606 27.6723C239.693 27.5396 240.015 27.8954 240.147 27.7449Z" fill="#FFFEFE"/>
<path d="M242.501 28.878L242.024 28.8054C242.108 28.901 242.218 29.0303 242.001 29.0533C242.602 29.3401 241.876 28.8373 242.501 28.878Z" fill="#FFFEFE"/>
<path d="M243.979 29C243.725 29.0478 243.979 29.1399 243.979 29.1947C244.141 29.1045 244.173 29.0779 243.979 29Z" fill="#FFFEFE"/>
<path d="M254.639 28.3345V28.5629C254.834 28.508 254.639 28.4761 254.639 28.3345Z" fill="#FFFEFE"/>
<path d="M256.523 26.9344L256.316 26.8193L256.252 27.0371L256.523 26.9344Z" fill="#FFFEFE"/>
<path d="M257.928 28.3769L257.846 28.4194L258.163 28.2937L257.928 28.3769Z" fill="#FFFEFE"/>
<path d="M259.588 23.2975C259.512 23.2284 259.432 23.1629 259.35 23.0974C259.32 23.1647 259.594 23.3878 259.588 23.2975Z" fill="#FFFEFE"/>
<path d="M267.363 20.3269C267.744 20.3711 268.31 20.3269 268.217 20.2012C267.895 20.2631 267.422 20.2755 267.363 20.3269Z" fill="#FFFEFE"/>
<path d="M262.284 10.876L262.173 11.0849L262.492 10.7273L262.284 10.876Z" fill="#FFFEFE"/>
</g>
<defs>
<clipPath id="clip0">
<rect width="36" height="53" fill="white" transform="translate(234 5)"/>
</clipPath>
</defs>
</svg>
