<svg width="490" height="74" viewBox="0 0 490 74" fill="none" xmlns="http://www.w3.org/2000/svg">
<path d="M42.6652 54.314C42.3399 52.4433 42.1365 50.654 42.0552 48.946C41.9739 47.238 41.7299 45.6113 41.3232 44.066C40.9165 42.4393 40.1845 40.9347 39.1272 39.552C38.1512 38.1693 36.6059 36.868 34.4912 35.648C33.5965 35.0787 32.6205 34.6313 31.5632 34.306C30.5872 33.8993 29.4892 33.2893 28.2692 32.476L24.7312 31.866L34.0032 24.912L36.0772 20.886L38.7612 16.738L37.1752 7.954L31.5632 2.952L18.8752 1L16.1912 1.244L15.9472 0.633997H4.11321H2.03921L1.18521 4.294V12.834L3.50321 13.444L7.65121 12.834L22.9012 13.566C24.7719 13.7287 26.0732 14.176 26.8052 14.908C27.5372 15.5587 27.9032 16.2093 27.9032 16.86C27.9032 17.9987 27.0899 19.2187 25.4632 20.52C23.9179 21.8213 22.0879 23.082 19.9732 24.302C17.8585 25.4407 15.6625 26.4573 13.3852 27.352C11.1892 28.2467 9.35921 28.8973 7.89521 29.304L4.96721 30.524V32.598V36.502C4.96721 37.1527 5.00788 37.8033 5.08921 38.454C5.25188 39.1047 5.53654 39.8773 5.94321 40.772L14.7272 42.236L25.0972 45.774C26.6425 47.238 27.4152 48.824 27.4152 50.532C27.4152 53.46 25.9919 55.2493 23.1452 55.9L11.9212 59.072H0.453211V67.856L1.30721 69.686V72.614L3.62521 73.712L21.8032 71.15L26.1952 69.808L31.0752 68.1L39.3712 60.658L42.6652 54.314ZM145.269 51.996C144.862 51.02 144.578 50.3287 144.415 49.922C144.334 49.5153 144.293 49.2307 144.293 49.068C143.154 49.068 142.178 49.068 141.365 49.068C140.633 48.9867 139.942 48.946 139.291 48.946L134.167 48.702C131.808 48.7833 129.775 48.9053 128.067 49.068C126.359 49.1493 124.448 49.19 122.333 49.19C121.357 49.0273 120.584 48.9053 120.015 48.824C119.446 48.7427 118.917 48.6613 118.429 48.58C118.022 48.4987 117.616 48.4173 117.209 48.336C116.802 48.1733 116.314 47.97 115.745 47.726C115.664 47.8073 115.542 47.848 115.379 47.848C114.566 47.848 113.752 47.5633 112.939 46.994C112.207 46.4247 111.516 45.6927 110.865 44.798C110.214 43.9033 109.686 42.8867 109.279 41.748C108.954 40.528 108.791 39.2267 108.791 37.844C108.791 36.624 108.994 35.648 109.401 34.916C109.808 34.184 110.296 33.4927 110.865 32.842C111.516 32.1913 112.166 31.5407 112.817 30.89C113.468 30.2393 114.037 29.3447 114.525 28.206C115.094 27.7993 115.501 27.5553 115.745 27.474L116.355 26.986C116.355 26.986 116.518 26.8233 116.843 26.498C117.168 26.1727 117.534 25.8067 117.941 25.4C118.429 24.9933 118.876 24.6273 119.283 24.302C119.771 23.8953 120.096 23.692 120.259 23.692C120.747 23.448 121.438 23.1633 122.333 22.838C123.309 22.5127 124.244 22.228 125.139 21.984C126.034 21.74 126.847 21.5367 127.579 21.374C128.311 21.2113 128.84 21.13 129.165 21.13C129.734 21.2927 130.141 21.4553 130.385 21.618C130.71 21.6993 130.914 21.74 130.995 21.74C132.052 21.74 132.947 21.6993 133.679 21.618C134.492 21.4553 135.265 21.374 135.997 21.374L140.023 21.008L142.341 15.396C142.26 14.908 142.219 14.3793 142.219 13.81C142.3 13.1593 142.3 12.5493 142.219 11.98C142.138 11.3293 142.016 10.76 141.853 10.272C141.772 9.70266 141.487 9.174 140.999 8.686H132.215C130.914 8.686 129.572 8.686 128.189 8.686C126.888 8.60466 125.383 8.564 123.675 8.564L120.381 9.54C119.161 9.54 117.9 9.74333 116.599 10.15C115.379 10.4753 114.2 10.882 113.061 11.37C111.922 11.858 110.906 12.346 110.011 12.834C109.116 13.322 108.547 13.688 108.303 13.932C106.676 15.3147 105.294 16.5753 104.155 17.714C103.016 18.7713 101.959 19.91 100.983 21.13C100.088 22.35 99.2345 23.692 98.4211 25.156C97.6078 26.5387 96.7131 28.2467 95.7371 30.28C95.1678 31.5 94.8018 32.8013 94.6391 34.184C94.4765 35.4853 94.3951 36.868 94.3951 38.332C94.3951 40.9347 94.5985 42.968 95.0051 44.432C95.4931 45.8147 95.9811 46.9127 96.4691 47.726C96.9571 48.458 97.4045 49.0273 97.8111 49.434C98.2991 49.8407 98.5431 50.3287 98.5431 50.898L101.349 53.46L102.813 53.826C104.196 54.2327 105.212 54.5987 105.863 54.924C106.595 55.2493 107.205 55.534 107.693 55.778C108.181 55.9407 108.628 56.144 109.035 56.388C109.523 56.632 110.255 56.9167 111.231 57.242C111.556 57.3233 111.841 57.4047 112.085 57.486C112.41 57.486 112.736 57.486 113.061 57.486C113.712 57.486 114.322 57.4453 114.891 57.364C115.542 57.2827 116.274 57.242 117.087 57.242C117.738 57.242 118.429 57.2827 119.161 57.364C119.893 57.364 120.788 57.4453 121.845 57.608C124.122 57.608 126.034 57.608 127.579 57.608C129.124 57.608 130.588 57.608 131.971 57.608C133.435 57.5267 134.94 57.486 136.485 57.486C138.112 57.4047 140.064 57.3233 142.341 57.242L143.561 56.144C143.968 55.8187 144.252 55.6153 144.415 55.534C144.659 55.4527 145.188 55.0053 146.001 54.192L146.855 53.338C146.774 53.338 146.489 53.2973 146.001 53.216C145.513 53.0533 145.269 52.6467 145.269 51.996ZM163.148 18.324C163.717 18.324 164.205 18.568 164.612 19.056C165.1 19.544 165.507 20.1133 165.832 20.764C166.239 21.4147 166.605 21.984 166.93 22.472C167.255 22.96 167.54 23.204 167.784 23.204C168.597 23.0413 169.817 22.716 171.444 22.228C173.152 21.6587 174.982 21.0893 176.934 20.52C178.967 19.9507 180.919 19.4627 182.79 19.056C184.742 18.6493 186.328 18.446 187.548 18.446C188.199 18.446 188.646 18.568 188.89 18.812C189.215 19.056 189.419 19.3407 189.5 19.666C189.581 19.9913 189.663 20.3167 189.744 20.642C189.907 20.886 190.191 21.0893 190.598 21.252C190.761 21.496 191.005 21.74 191.33 21.984C191.655 22.1467 191.818 22.472 191.818 22.96C191.411 23.936 191.167 24.8713 191.086 25.766C191.005 26.5793 190.964 27.352 190.964 28.084V28.816L187.426 29.06C186.857 29.1413 186.287 29.2227 185.718 29.304C185.149 29.304 184.498 29.304 183.766 29.304L180.106 31.378C179.049 31.378 178.154 31.5 177.422 31.744C176.69 31.9067 175.917 32.1913 175.104 32.598C174.372 32.9233 173.518 33.2893 172.542 33.696C171.566 34.1027 170.265 34.5093 168.638 34.916C164.734 36.868 161.806 39.2267 159.854 41.992C157.983 44.7573 157.048 48.1733 157.048 52.24C157.048 53.5413 157.495 54.8427 158.39 56.144C159.285 57.364 160.383 58.5027 161.684 59.56C162.985 60.536 164.327 61.3493 165.71 62C167.093 62.5693 168.313 62.854 169.37 62.854C170.59 62.854 171.729 62.854 172.786 62.854C173.843 62.9353 174.901 62.976 175.958 62.976H182.668H182.79C182.953 62.976 183.075 62.854 183.156 62.61C183.319 62.4473 183.481 62.244 183.644 62C183.888 61.6747 184.254 61.4307 184.742 61.268C185.311 61.024 186.084 60.902 187.06 60.902C188.117 60.902 189.215 61.2273 190.354 61.878C191.493 62.4473 192.469 62.732 193.282 62.732C193.933 62.732 194.543 62.6913 195.112 62.61C195.681 62.5287 196.251 62.4067 196.82 62.244C197.471 62.0813 198.203 61.9593 199.016 61.878C199.829 61.7153 200.765 61.634 201.822 61.634C202.066 62.0407 202.513 62.4067 203.164 62.732H204.872C204.953 62.3253 205.116 61.9593 205.36 61.634C205.604 61.2273 205.889 60.6987 206.214 60.048C206.133 58.1773 206.011 56.51 205.848 55.046C205.767 53.582 205.685 52.1993 205.604 50.898C205.604 49.5153 205.563 48.092 205.482 46.628C205.482 45.164 205.441 43.4967 205.36 41.626H205.726C205.807 41.5447 205.889 41.504 205.97 41.504C205.726 41.504 205.523 41.1787 205.36 40.528C205.197 39.8773 205.075 39.2267 204.994 38.576C204.913 37.844 204.831 37.1933 204.75 36.624C204.75 35.9733 204.75 35.648 204.75 35.648C204.669 34.9973 204.506 34.5093 204.262 34.184C204.099 33.7773 203.896 33.33 203.652 32.842C203.489 32.2727 203.286 31.5 203.042 30.524C202.879 29.548 202.757 27.962 202.676 25.766C202.432 25.6033 202.229 25.1153 202.066 24.302C201.903 23.4887 201.741 22.6347 201.578 21.74C201.497 20.764 201.415 19.8693 201.334 19.056C201.334 18.1613 201.293 17.6327 201.212 17.47H200.968C200.317 17.47 199.789 17.104 199.382 16.372C198.975 15.64 198.609 14.8267 198.284 13.932C197.959 13.0373 197.674 12.2647 197.43 11.614C197.186 10.882 196.901 10.516 196.576 10.516C196.413 10.3533 196.251 10.1907 196.088 10.028C195.925 9.784 195.763 9.58066 195.6 9.418H193.648C192.835 9.418 192.143 9.418 191.574 9.418C191.086 9.418 190.598 9.418 190.11 9.418C189.703 9.418 189.256 9.37733 188.768 9.296C188.28 9.21466 187.67 9.09266 186.938 8.93C186.857 9.33666 186.369 9.62133 185.474 9.784C184.661 9.86533 183.725 9.906 182.668 9.906C181.692 9.906 180.757 9.906 179.862 9.906C179.049 9.906 178.601 10.028 178.52 10.272C176.324 11.004 174.331 11.614 172.542 12.102C170.753 12.59 169.248 13.1187 168.028 13.688C166.808 14.176 165.791 14.786 164.978 15.518C164.165 16.1687 163.555 17.104 163.148 18.324ZM189.622 38.82V45.042C189.215 46.3433 188.971 47.6853 188.89 49.068C188.809 50.4507 188.768 51.4673 188.768 52.118V53.094H187.06C185.433 53.2567 183.929 53.3787 182.546 53.46C181.163 53.5413 179.821 53.6227 178.52 53.704L169.98 54.192C169.411 53.216 168.923 52.4433 168.516 51.874C168.191 51.3047 168.028 50.4507 168.028 49.312C168.028 47.0347 168.313 45.2453 168.882 43.944C169.533 42.6427 170.387 41.6667 171.444 41.016C172.583 40.284 173.884 39.7553 175.348 39.43C176.812 39.1047 178.357 38.7387 179.984 38.332C180.797 38.088 181.529 37.8847 182.18 37.722C182.912 37.5593 183.603 37.478 184.254 37.478H184.742C185.555 37.722 186.369 37.966 187.182 38.21C188.077 38.454 188.89 38.6573 189.622 38.82ZM284.084 48.336L283.718 25.644C283.149 24.3427 282.498 23.082 281.766 21.862C281.034 20.642 280.058 19.7473 278.838 19.178L266.882 18.934L263.1 19.3L261.636 20.154L258.708 20.642L252.852 17.104L246.264 16.616L239.066 19.178L237.602 18.812L236.992 17.714L233.942 15.64L231.258 16.006L225.768 14.664L223.328 19.3L222.352 29.67V51.142L228.696 51.63L230.404 50.776H236.87L239.554 50.166V25.644H245.654L247.118 27.718L247.606 32.354V41.87V49.068L248.826 50.166H258.83L261.514 48.092L260.294 39.674V33.94V29.914L260.538 27.23L265.784 27.718L266.516 29.914L268.102 42.602V48.702L271.274 50.044H282.986L284.084 48.336ZM319.192 13.932L315.044 12.224L309.676 11.248L305.772 10.394L302.844 11.37V22.96L303.21 24.424L310.53 23.204L316.264 24.302L317.972 23.082L319.192 13.932ZM320.046 54.558L317.972 52.85L318.704 50.654V44.92L317.85 41.87V33.452L316.386 31.866L313.824 31.744L312.848 32.232L307.968 31.866L305.894 32.842L303.332 62.366L304.552 63.708H306.748L308.212 63.22H317.606L319.924 62.122L319.314 59.194L320.046 54.558ZM379.412 21.252L377.46 19.666H369.042L361.966 22.594L359.16 23.814L356.598 24.912L352.816 18.08H344.276L342.08 21.252V24.302V45.652L343.788 49.678L346.96 48.458H348.912L350.742 49.556L356.598 48.092L355.866 36.38L355.622 36.136V31.256L363.43 30.402L365.626 29.182H367.09L369.896 33.208L367.944 47.36L369.53 48.702H382.218L383.438 47.238V32.598L383.926 29.792L379.412 21.252ZM398.266 31.5C398.022 32.964 397.859 34.3467 397.778 35.648C397.778 36.9493 397.778 38.1287 397.778 39.186C397.778 41.138 398.062 42.846 398.632 44.31L399.852 45.896L412.784 49.678H415.712C416.037 49.5967 416.403 49.4747 416.81 49.312C417.216 49.1493 417.664 48.9053 418.152 48.58L428.4 45.164C428.969 44.92 429.782 44.5133 430.84 43.944C431.978 43.3747 433.036 42.724 434.012 41.992C435.069 41.1787 435.964 40.284 436.696 39.308C437.428 38.332 437.794 37.3153 437.794 36.258C437.794 32.354 436.777 28.816 434.744 25.644C432.792 22.472 429.986 20.032 426.326 18.324H426.082C425.756 18.324 425.187 18.3647 424.374 18.446C423.56 18.5273 422.828 18.568 422.178 18.568C421.608 18.568 421.08 18.4867 420.592 18.324C420.185 18.1613 419.982 17.9173 419.982 17.592L411.32 18.934C409.856 19.3407 408.392 19.91 406.928 20.642C405.464 21.374 404.122 22.2687 402.902 23.326C401.682 24.302 400.665 25.4813 399.852 26.864C399.038 28.1653 398.51 29.7107 398.266 31.5ZM420.836 25.888C421.812 26.2133 422.869 26.498 424.008 26.742C425.146 26.986 426.204 27.352 427.18 27.84C428.156 28.2467 429.01 28.816 429.742 29.548C430.555 30.28 431.165 31.378 431.572 32.842L428.4 37.478L415.346 40.162H413.638L410.466 37.356L411.076 30.036C411.564 29.792 412.052 29.426 412.54 28.938C413.028 28.45 413.556 27.962 414.126 27.474C414.776 26.9047 415.468 26.4573 416.2 26.132C417.013 25.7253 417.867 25.522 418.762 25.522C419.331 25.522 420.022 25.644 420.836 25.888ZM489.273 42.114C489.11 41.382 488.744 40.8127 488.175 40.406C487.606 39.9993 487.321 39.43 487.321 38.698C486.589 38.454 486.02 38.2507 485.613 38.088C485.206 37.844 484.84 37.6813 484.515 37.6C484.271 37.4373 483.986 37.234 483.661 36.99C483.417 36.746 483.01 36.502 482.441 36.258C482.278 36.258 481.79 36.0547 480.977 35.648C480.245 35.16 479.757 34.8753 479.513 34.794L477.805 33.94C476.748 33.452 475.975 33.0047 475.487 32.598C475.08 32.1913 474.836 31.8253 474.755 31.5L472.559 29.426C472.234 29.426 471.908 29.2633 471.583 28.938C471.339 28.5313 471.217 27.718 471.217 26.498C471.217 25.3593 471.339 24.5053 471.583 23.936C471.908 23.3667 472.844 22.6753 474.389 21.862H474.633C474.877 21.862 475.202 21.7807 475.609 21.618C476.016 21.4553 476.382 21.13 476.707 20.642C476.707 20.4793 476.829 20.3167 477.073 20.154C477.317 19.9913 478.293 19.666 480.001 19.178C480.408 19.178 480.733 19.1373 480.977 19.056C481.221 18.8933 481.546 18.69 481.953 18.446H483.661C483.905 18.446 484.149 18.446 484.393 18.446C484.637 18.3647 484.922 18.2833 485.247 18.202C485.166 18.202 485.125 18.1613 485.125 18.08C485.206 18.08 485.247 18.0393 485.247 17.958C485.247 17.8767 485.288 17.836 485.369 17.836C485.369 17.592 485.328 17.3887 485.247 17.226C485.247 17.0633 485.247 16.9007 485.247 16.738V16.006C485.247 14.786 484.922 14.0947 484.271 13.932C483.702 13.688 483.214 13.3627 482.807 12.956C481.831 13.1187 480.977 13.2407 480.245 13.322C479.594 13.322 478.781 13.322 477.805 13.322C477.236 13.322 476.829 13.322 476.585 13.322C476.422 13.2407 476.3 13.1593 476.219 13.078C475.162 13.4847 474.226 13.7693 473.413 13.932C472.6 14.0133 471.705 14.2573 470.729 14.664L466.093 16.616C465.036 17.2667 463.856 17.8767 462.555 18.446C461.335 19.0153 460.318 19.788 459.505 20.764C459.098 21.496 458.448 22.1873 457.553 22.838C457.553 23.57 457.35 24.1393 456.943 24.546C456.618 24.9527 456.455 25.4407 456.455 26.01C456.455 26.1727 456.496 26.2947 456.577 26.376C456.658 26.4573 456.699 26.7013 456.699 27.108C456.699 27.4333 456.658 27.7993 456.577 28.206C456.496 28.6127 456.374 28.8973 456.211 29.06C456.211 29.792 456.414 30.6053 456.821 31.5C457.309 32.3133 457.756 32.8013 458.163 32.964L459.261 33.94C460.074 34.2653 460.766 34.6313 461.335 35.038C461.904 35.4447 462.433 35.892 462.921 36.38C463.409 36.7867 463.897 37.1933 464.385 37.6C464.954 37.9253 465.646 38.1287 466.459 38.21C467.598 38.6167 468.289 38.9827 468.533 39.308C468.858 39.552 469.021 39.796 469.021 40.04C469.102 40.2027 469.224 40.406 469.387 40.65C469.55 40.8127 470.16 41.138 471.217 41.626C471.217 41.9513 471.502 42.3987 472.071 42.968L473.047 43.944C473.291 44.5947 473.413 45.2047 473.413 45.774C473.413 46.506 473.128 47.116 472.559 47.604C472.071 48.0107 471.461 48.3767 470.729 48.702C470.078 48.946 469.468 49.1087 468.899 49.19C468.33 49.2713 468.045 49.2713 468.045 49.19C466.174 49.7593 464.832 50.166 464.019 50.41C463.287 50.654 462.555 50.776 461.823 50.776C461.254 50.776 460.115 50.654 458.407 50.41C458.244 50.654 457.96 50.776 457.553 50.776C457.146 50.776 456.618 50.654 455.967 50.41C455.398 50.166 455.154 50.0847 455.235 50.166C455.723 51.3047 455.926 52.362 455.845 53.338C455.764 54.2327 455.926 54.68 456.333 54.68H456.455C456.374 54.7613 456.292 54.8833 456.211 55.046C456.13 55.2087 456.089 55.412 456.089 55.656C456.089 55.656 456.13 55.656 456.211 55.656C456.048 55.7373 455.967 55.778 455.967 55.778C455.967 55.9407 456.292 56.2253 456.943 56.632C457.675 56.9573 458.082 57.12 458.163 57.12C459.708 56.9573 461.254 56.7133 462.799 56.388C464.344 56.0627 466.052 55.9 467.923 55.9C469.062 55.9 470.119 56.022 471.095 56.266C472.071 56.51 473.088 56.632 474.145 56.632C475.69 56.632 476.91 56.4693 477.805 56.144C478.781 55.8187 479.554 55.4933 480.123 55.168C480.692 54.7613 481.221 54.436 481.709 54.192C482.197 53.8667 482.766 53.704 483.417 53.704L485.979 52.484C486.874 51.996 487.687 51.3047 488.419 50.41C489.232 49.434 489.639 48.3767 489.639 47.238C489.639 46.506 489.558 45.7333 489.395 44.92C489.314 44.1067 489.273 43.1713 489.273 42.114Z" fill="#FFB830"/>
</svg>
