<svg width="1100" height="240" viewBox="0 0 1100 240" fill="none" xmlns="http://www.w3.org/2000/svg">
<rect width="1100" height="240" fill="#FFF9F9"/>
<path d="M348.665 135.314C348.34 133.443 348.137 131.654 348.055 129.946C347.974 128.238 347.73 126.611 347.323 125.066C346.917 123.439 346.185 121.935 345.127 120.552C344.151 119.169 342.606 117.868 340.491 116.648C339.597 116.079 338.621 115.631 337.563 115.306C336.587 114.899 335.489 114.289 334.269 113.476L330.731 112.866L340.003 105.912L342.077 101.886L344.761 97.738L343.175 88.954L337.563 83.952L324.875 82L322.191 82.244L321.947 81.634H310.113H308.039L307.185 85.294V93.834L309.503 94.444L313.651 93.834L328.901 94.566C330.772 94.7287 332.073 95.176 332.805 95.908C333.537 96.5587 333.903 97.2093 333.903 97.86C333.903 98.9987 333.09 100.219 331.463 101.52C329.918 102.821 328.088 104.082 325.973 105.302C323.859 106.441 321.663 107.457 319.385 108.352C317.189 109.247 315.359 109.897 313.895 110.304L310.967 111.524V113.598V117.502C310.967 118.153 311.008 118.803 311.089 119.454C311.252 120.105 311.537 120.877 311.943 121.772L320.727 123.236L331.097 126.774C332.643 128.238 333.415 129.824 333.415 131.532C333.415 134.46 331.992 136.249 329.145 136.9L317.921 140.072H306.453V148.856L307.307 150.686V153.614L309.625 154.712L327.803 152.15L332.195 150.808L337.075 149.1L345.371 141.658L348.665 135.314ZM451.269 132.996C450.862 132.02 450.578 131.329 450.415 130.922C450.334 130.515 450.293 130.231 450.293 130.068C449.154 130.068 448.178 130.068 447.365 130.068C446.633 129.987 445.942 129.946 445.291 129.946L440.167 129.702C437.808 129.783 435.775 129.905 434.067 130.068C432.359 130.149 430.448 130.19 428.333 130.19C427.357 130.027 426.584 129.905 426.015 129.824C425.446 129.743 424.917 129.661 424.429 129.58C424.022 129.499 423.616 129.417 423.209 129.336C422.802 129.173 422.314 128.97 421.745 128.726C421.664 128.807 421.542 128.848 421.379 128.848C420.566 128.848 419.752 128.563 418.939 127.994C418.207 127.425 417.516 126.693 416.865 125.798C416.214 124.903 415.686 123.887 415.279 122.748C414.954 121.528 414.791 120.227 414.791 118.844C414.791 117.624 414.994 116.648 415.401 115.916C415.808 115.184 416.296 114.493 416.865 113.842C417.516 113.191 418.166 112.541 418.817 111.89C419.468 111.239 420.037 110.345 420.525 109.206C421.094 108.799 421.501 108.555 421.745 108.474L422.355 107.986C422.355 107.986 422.518 107.823 422.843 107.498C423.168 107.173 423.534 106.807 423.941 106.4C424.429 105.993 424.876 105.627 425.283 105.302C425.771 104.895 426.096 104.692 426.259 104.692C426.747 104.448 427.438 104.163 428.333 103.838C429.309 103.513 430.244 103.228 431.139 102.984C432.034 102.74 432.847 102.537 433.579 102.374C434.311 102.211 434.84 102.13 435.165 102.13C435.734 102.293 436.141 102.455 436.385 102.618C436.71 102.699 436.914 102.74 436.995 102.74C438.052 102.74 438.947 102.699 439.679 102.618C440.492 102.455 441.265 102.374 441.997 102.374L446.023 102.008L448.341 96.396C448.26 95.908 448.219 95.3793 448.219 94.81C448.3 94.1593 448.3 93.5493 448.219 92.98C448.138 92.3293 448.016 91.76 447.853 91.272C447.772 90.7027 447.487 90.174 446.999 89.686H438.215C436.914 89.686 435.572 89.686 434.189 89.686C432.888 89.6047 431.383 89.564 429.675 89.564L426.381 90.54C425.161 90.54 423.9 90.7433 422.599 91.15C421.379 91.4753 420.2 91.882 419.061 92.37C417.922 92.858 416.906 93.346 416.011 93.834C415.116 94.322 414.547 94.688 414.303 94.932C412.676 96.3147 411.294 97.5753 410.155 98.714C409.016 99.7713 407.959 100.91 406.983 102.13C406.088 103.35 405.234 104.692 404.421 106.156C403.608 107.539 402.713 109.247 401.737 111.28C401.168 112.5 400.802 113.801 400.639 115.184C400.476 116.485 400.395 117.868 400.395 119.332C400.395 121.935 400.598 123.968 401.005 125.432C401.493 126.815 401.981 127.913 402.469 128.726C402.957 129.458 403.404 130.027 403.811 130.434C404.299 130.841 404.543 131.329 404.543 131.898L407.349 134.46L408.813 134.826C410.196 135.233 411.212 135.599 411.863 135.924C412.595 136.249 413.205 136.534 413.693 136.778C414.181 136.941 414.628 137.144 415.035 137.388C415.523 137.632 416.255 137.917 417.231 138.242C417.556 138.323 417.841 138.405 418.085 138.486C418.41 138.486 418.736 138.486 419.061 138.486C419.712 138.486 420.322 138.445 420.891 138.364C421.542 138.283 422.274 138.242 423.087 138.242C423.738 138.242 424.429 138.283 425.161 138.364C425.893 138.364 426.788 138.445 427.845 138.608C430.122 138.608 432.034 138.608 433.579 138.608C435.124 138.608 436.588 138.608 437.971 138.608C439.435 138.527 440.94 138.486 442.485 138.486C444.112 138.405 446.064 138.323 448.341 138.242L449.561 137.144C449.968 136.819 450.252 136.615 450.415 136.534C450.659 136.453 451.188 136.005 452.001 135.192L452.855 134.338C452.774 134.338 452.489 134.297 452.001 134.216C451.513 134.053 451.269 133.647 451.269 132.996ZM469.148 99.324C469.717 99.324 470.205 99.568 470.612 100.056C471.1 100.544 471.507 101.113 471.832 101.764C472.239 102.415 472.605 102.984 472.93 103.472C473.255 103.96 473.54 104.204 473.784 104.204C474.597 104.041 475.817 103.716 477.444 103.228C479.152 102.659 480.982 102.089 482.934 101.52C484.967 100.951 486.919 100.463 488.79 100.056C490.742 99.6493 492.328 99.446 493.548 99.446C494.199 99.446 494.646 99.568 494.89 99.812C495.215 100.056 495.419 100.341 495.5 100.666C495.581 100.991 495.663 101.317 495.744 101.642C495.907 101.886 496.191 102.089 496.598 102.252C496.761 102.496 497.005 102.74 497.33 102.984C497.655 103.147 497.818 103.472 497.818 103.96C497.411 104.936 497.167 105.871 497.086 106.766C497.005 107.579 496.964 108.352 496.964 109.084V109.816L493.426 110.06C492.857 110.141 492.287 110.223 491.718 110.304C491.149 110.304 490.498 110.304 489.766 110.304L486.106 112.378C485.049 112.378 484.154 112.5 483.422 112.744C482.69 112.907 481.917 113.191 481.104 113.598C480.372 113.923 479.518 114.289 478.542 114.696C477.566 115.103 476.265 115.509 474.638 115.916C470.734 117.868 467.806 120.227 465.854 122.992C463.983 125.757 463.048 129.173 463.048 133.24C463.048 134.541 463.495 135.843 464.39 137.144C465.285 138.364 466.383 139.503 467.684 140.56C468.985 141.536 470.327 142.349 471.71 143C473.093 143.569 474.313 143.854 475.37 143.854C476.59 143.854 477.729 143.854 478.786 143.854C479.843 143.935 480.901 143.976 481.958 143.976H488.668H488.79C488.953 143.976 489.075 143.854 489.156 143.61C489.319 143.447 489.481 143.244 489.644 143C489.888 142.675 490.254 142.431 490.742 142.268C491.311 142.024 492.084 141.902 493.06 141.902C494.117 141.902 495.215 142.227 496.354 142.878C497.493 143.447 498.469 143.732 499.282 143.732C499.933 143.732 500.543 143.691 501.112 143.61C501.681 143.529 502.251 143.407 502.82 143.244C503.471 143.081 504.203 142.959 505.016 142.878C505.829 142.715 506.765 142.634 507.822 142.634C508.066 143.041 508.513 143.407 509.164 143.732H510.872C510.953 143.325 511.116 142.959 511.36 142.634C511.604 142.227 511.889 141.699 512.214 141.048C512.133 139.177 512.011 137.51 511.848 136.046C511.767 134.582 511.685 133.199 511.604 131.898C511.604 130.515 511.563 129.092 511.482 127.628C511.482 126.164 511.441 124.497 511.36 122.626H511.726C511.807 122.545 511.889 122.504 511.97 122.504C511.726 122.504 511.523 122.179 511.36 121.528C511.197 120.877 511.075 120.227 510.994 119.576C510.913 118.844 510.831 118.193 510.75 117.624C510.75 116.973 510.75 116.648 510.75 116.648C510.669 115.997 510.506 115.509 510.262 115.184C510.099 114.777 509.896 114.33 509.652 113.842C509.489 113.273 509.286 112.5 509.042 111.524C508.879 110.548 508.757 108.962 508.676 106.766C508.432 106.603 508.229 106.115 508.066 105.302C507.903 104.489 507.741 103.635 507.578 102.74C507.497 101.764 507.415 100.869 507.334 100.056C507.334 99.1613 507.293 98.6327 507.212 98.47H506.968C506.317 98.47 505.789 98.104 505.382 97.372C504.975 96.64 504.609 95.8267 504.284 94.932C503.959 94.0373 503.674 93.2647 503.43 92.614C503.186 91.882 502.901 91.516 502.576 91.516C502.413 91.3533 502.251 91.1907 502.088 91.028C501.925 90.784 501.763 90.5807 501.6 90.418H499.648C498.835 90.418 498.143 90.418 497.574 90.418C497.086 90.418 496.598 90.418 496.11 90.418C495.703 90.418 495.256 90.3773 494.768 90.296C494.28 90.2147 493.67 90.0927 492.938 89.93C492.857 90.3367 492.369 90.6213 491.474 90.784C490.661 90.8653 489.725 90.906 488.668 90.906C487.692 90.906 486.757 90.906 485.862 90.906C485.049 90.906 484.601 91.028 484.52 91.272C482.324 92.004 480.331 92.614 478.542 93.102C476.753 93.59 475.248 94.1187 474.028 94.688C472.808 95.176 471.791 95.786 470.978 96.518C470.165 97.1687 469.555 98.104 469.148 99.324ZM495.622 119.82V126.042C495.215 127.343 494.971 128.685 494.89 130.068C494.809 131.451 494.768 132.467 494.768 133.118V134.094H493.06C491.433 134.257 489.929 134.379 488.546 134.46C487.163 134.541 485.821 134.623 484.52 134.704L475.98 135.192C475.411 134.216 474.923 133.443 474.516 132.874C474.191 132.305 474.028 131.451 474.028 130.312C474.028 128.035 474.313 126.245 474.882 124.944C475.533 123.643 476.387 122.667 477.444 122.016C478.583 121.284 479.884 120.755 481.348 120.43C482.812 120.105 484.357 119.739 485.984 119.332C486.797 119.088 487.529 118.885 488.18 118.722C488.912 118.559 489.603 118.478 490.254 118.478H490.742C491.555 118.722 492.369 118.966 493.182 119.21C494.077 119.454 494.89 119.657 495.622 119.82ZM590.084 129.336L589.718 106.644C589.149 105.343 588.498 104.082 587.766 102.862C587.034 101.642 586.058 100.747 584.838 100.178L572.882 99.934L569.1 100.3L567.636 101.154L564.708 101.642L558.852 98.104L552.264 97.616L545.066 100.178L543.602 99.812L542.992 98.714L539.942 96.64L537.258 97.006L531.768 95.664L529.328 100.3L528.352 110.67V132.142L534.696 132.63L536.404 131.776H542.87L545.554 131.166V106.644H551.654L553.118 108.718L553.606 113.354V122.87V130.068L554.826 131.166H564.83L567.514 129.092L566.294 120.674V114.94V110.914L566.538 108.23L571.784 108.718L572.516 110.914L574.102 123.602V129.702L577.274 131.044H588.986L590.084 129.336ZM625.192 94.932L621.044 93.224L615.676 92.248L611.772 91.394L608.844 92.37V103.96L609.21 105.424L616.53 104.204L622.264 105.302L623.972 104.082L625.192 94.932ZM626.046 135.558L623.972 133.85L624.704 131.654V125.92L623.85 122.87V114.452L622.386 112.866L619.824 112.744L618.848 113.232L613.968 112.866L611.894 113.842L609.332 143.366L610.552 144.708H612.748L614.212 144.22H623.606L625.924 143.122L625.314 140.194L626.046 135.558ZM685.412 102.252L683.46 100.666H675.042L667.966 103.594L665.16 104.814L662.598 105.912L658.816 99.08H650.276L648.08 102.252V105.302V126.652L649.788 130.678L652.96 129.458H654.912L656.742 130.556L662.598 129.092L661.866 117.38L661.622 117.136V112.256L669.43 111.402L671.626 110.182H673.09L675.896 114.208L673.944 128.36L675.53 129.702H688.218L689.438 128.238V113.598L689.926 110.792L685.412 102.252ZM704.266 112.5C704.022 113.964 703.859 115.347 703.778 116.648C703.778 117.949 703.778 119.129 703.778 120.186C703.778 122.138 704.062 123.846 704.632 125.31L705.852 126.896L718.784 130.678H721.712C722.037 130.597 722.403 130.475 722.81 130.312C723.216 130.149 723.664 129.905 724.152 129.58L734.4 126.164C734.969 125.92 735.782 125.513 736.84 124.944C737.978 124.375 739.036 123.724 740.012 122.992C741.069 122.179 741.964 121.284 742.696 120.308C743.428 119.332 743.794 118.315 743.794 117.258C743.794 113.354 742.777 109.816 740.744 106.644C738.792 103.472 735.986 101.032 732.326 99.324H732.082C731.756 99.324 731.187 99.3647 730.374 99.446C729.56 99.5273 728.828 99.568 728.178 99.568C727.608 99.568 727.08 99.4867 726.592 99.324C726.185 99.1613 725.982 98.9173 725.982 98.592L717.32 99.934C715.856 100.341 714.392 100.91 712.928 101.642C711.464 102.374 710.122 103.269 708.902 104.326C707.682 105.302 706.665 106.481 705.852 107.864C705.038 109.165 704.51 110.711 704.266 112.5ZM726.836 106.888C727.812 107.213 728.869 107.498 730.008 107.742C731.146 107.986 732.204 108.352 733.18 108.84C734.156 109.247 735.01 109.816 735.742 110.548C736.555 111.28 737.165 112.378 737.572 113.842L734.4 118.478L721.346 121.162H719.638L716.466 118.356L717.076 111.036C717.564 110.792 718.052 110.426 718.54 109.938C719.028 109.45 719.556 108.962 720.126 108.474C720.776 107.905 721.468 107.457 722.2 107.132C723.013 106.725 723.867 106.522 724.762 106.522C725.331 106.522 726.022 106.644 726.836 106.888ZM795.273 123.114C795.11 122.382 794.744 121.813 794.175 121.406C793.606 120.999 793.321 120.43 793.321 119.698C792.589 119.454 792.02 119.251 791.613 119.088C791.206 118.844 790.84 118.681 790.515 118.6C790.271 118.437 789.986 118.234 789.661 117.99C789.417 117.746 789.01 117.502 788.441 117.258C788.278 117.258 787.79 117.055 786.977 116.648C786.245 116.16 785.757 115.875 785.513 115.794L783.805 114.94C782.748 114.452 781.975 114.005 781.487 113.598C781.08 113.191 780.836 112.825 780.755 112.5L778.559 110.426C778.234 110.426 777.908 110.263 777.583 109.938C777.339 109.531 777.217 108.718 777.217 107.498C777.217 106.359 777.339 105.505 777.583 104.936C777.908 104.367 778.844 103.675 780.389 102.862H780.633C780.877 102.862 781.202 102.781 781.609 102.618C782.016 102.455 782.382 102.13 782.707 101.642C782.707 101.479 782.829 101.317 783.073 101.154C783.317 100.991 784.293 100.666 786.001 100.178C786.408 100.178 786.733 100.137 786.977 100.056C787.221 99.8933 787.546 99.69 787.953 99.446H789.661C789.905 99.446 790.149 99.446 790.393 99.446C790.637 99.3647 790.922 99.2833 791.247 99.202C791.166 99.202 791.125 99.1613 791.125 99.08C791.206 99.08 791.247 99.0393 791.247 98.958C791.247 98.8767 791.288 98.836 791.369 98.836C791.369 98.592 791.328 98.3887 791.247 98.226C791.247 98.0633 791.247 97.9007 791.247 97.738V97.006C791.247 95.786 790.922 95.0947 790.271 94.932C789.702 94.688 789.214 94.3627 788.807 93.956C787.831 94.1187 786.977 94.2407 786.245 94.322C785.594 94.322 784.781 94.322 783.805 94.322C783.236 94.322 782.829 94.322 782.585 94.322C782.422 94.2407 782.3 94.1593 782.219 94.078C781.162 94.4847 780.226 94.7693 779.413 94.932C778.6 95.0133 777.705 95.2573 776.729 95.664L772.093 97.616C771.036 98.2667 769.856 98.8767 768.555 99.446C767.335 100.015 766.318 100.788 765.505 101.764C765.098 102.496 764.448 103.187 763.553 103.838C763.553 104.57 763.35 105.139 762.943 105.546C762.618 105.953 762.455 106.441 762.455 107.01C762.455 107.173 762.496 107.295 762.577 107.376C762.658 107.457 762.699 107.701 762.699 108.108C762.699 108.433 762.658 108.799 762.577 109.206C762.496 109.613 762.374 109.897 762.211 110.06C762.211 110.792 762.414 111.605 762.821 112.5C763.309 113.313 763.756 113.801 764.163 113.964L765.261 114.94C766.074 115.265 766.766 115.631 767.335 116.038C767.904 116.445 768.433 116.892 768.921 117.38C769.409 117.787 769.897 118.193 770.385 118.6C770.954 118.925 771.646 119.129 772.459 119.21C773.598 119.617 774.289 119.983 774.533 120.308C774.858 120.552 775.021 120.796 775.021 121.04C775.102 121.203 775.224 121.406 775.387 121.65C775.55 121.813 776.16 122.138 777.217 122.626C777.217 122.951 777.502 123.399 778.071 123.968L779.047 124.944C779.291 125.595 779.413 126.205 779.413 126.774C779.413 127.506 779.128 128.116 778.559 128.604C778.071 129.011 777.461 129.377 776.729 129.702C776.078 129.946 775.468 130.109 774.899 130.19C774.33 130.271 774.045 130.271 774.045 130.19C772.174 130.759 770.832 131.166 770.019 131.41C769.287 131.654 768.555 131.776 767.823 131.776C767.254 131.776 766.115 131.654 764.407 131.41C764.244 131.654 763.96 131.776 763.553 131.776C763.146 131.776 762.618 131.654 761.967 131.41C761.398 131.166 761.154 131.085 761.235 131.166C761.723 132.305 761.926 133.362 761.845 134.338C761.764 135.233 761.926 135.68 762.333 135.68H762.455C762.374 135.761 762.292 135.883 762.211 136.046C762.13 136.209 762.089 136.412 762.089 136.656C762.089 136.656 762.13 136.656 762.211 136.656C762.048 136.737 761.967 136.778 761.967 136.778C761.967 136.941 762.292 137.225 762.943 137.632C763.675 137.957 764.082 138.12 764.163 138.12C765.708 137.957 767.254 137.713 768.799 137.388C770.344 137.063 772.052 136.9 773.923 136.9C775.062 136.9 776.119 137.022 777.095 137.266C778.071 137.51 779.088 137.632 780.145 137.632C781.69 137.632 782.91 137.469 783.805 137.144C784.781 136.819 785.554 136.493 786.123 136.168C786.692 135.761 787.221 135.436 787.709 135.192C788.197 134.867 788.766 134.704 789.417 134.704L791.979 133.484C792.874 132.996 793.687 132.305 794.419 131.41C795.232 130.434 795.639 129.377 795.639 128.238C795.639 127.506 795.558 126.733 795.395 125.92C795.314 125.107 795.273 124.171 795.273 123.114Z" fill="#FFB830"/>
</svg>
