<svg width="105" height="27" viewBox="0 0 105 27" fill="none" xmlns="http://www.w3.org/2000/svg">
<path d="M19.5721 17.616C19.5401 17.424 19.4601 17.248 19.3321 17.088C19.2361 16.928 19.1241 16.768 18.9961 16.608C18.8681 16.448 18.7561 16.304 18.6601 16.176C18.5641 16.016 18.5161 15.84 18.5161 15.648C18.1641 15.52 17.8921 15.408 17.7001 15.312C17.5081 15.184 17.3161 15.056 17.1241 14.928L15.6361 14.112C15.4761 14.048 15.3801 13.968 15.3481 13.872C14.5801 13.552 13.7961 13.184 12.9961 12.768C12.2281 12.32 11.5401 11.92 10.9321 11.568L8.72413 10.32C8.59613 10.32 8.45213 10.224 8.29213 10.032C8.13213 9.808 8.05213 9.344 8.05213 8.64C8.05213 7.968 8.13213 7.472 8.29213 7.152C8.48413 6.8 8.94813 6.4 9.68413 5.952H9.92413C10.2441 5.952 10.6121 5.872 11.0281 5.712C11.4441 5.52 11.7641 5.36 11.9881 5.232C12.3081 5.104 12.7241 4.96 13.2361 4.8C13.7801 4.64 14.2441 4.512 14.6281 4.416L15.5401 3.984C15.7321 3.984 16.0361 3.984 16.4521 3.984C16.9001 3.984 17.2361 3.824 17.4601 3.504C17.4281 3.248 17.4121 3.056 17.4121 2.928C17.4121 2.8 17.3961 2.688 17.3641 2.592C17.3641 2.464 17.3641 2.336 17.3641 2.208C17.3641 2.048 17.3641 1.824 17.3641 1.536C17.0121 1.376 16.7561 1.264 16.5961 1.2C16.4681 1.136 16.2441 1.008 15.9241 0.816C15.4121 0.879999 14.9801 0.927999 14.6281 0.959999C14.2761 0.991999 13.8441 1.008 13.3321 1.008C13.1081 1.008 12.9321 1.008 12.8041 1.008C12.7081 0.975999 12.5641 0.927999 12.3721 0.863999C11.7001 1.088 11.1561 1.248 10.7401 1.344C10.3241 1.44 9.82813 1.568 9.25213 1.728L6.80413 2.976C6.22813 3.264 5.57213 3.6 4.83613 3.984C4.10013 4.368 3.57213 4.816 3.25213 5.328C3.12413 5.488 2.98013 5.664 2.82013 5.856C2.69213 6.048 2.48413 6.256 2.19613 6.48C2.19613 6.896 2.08413 7.264 1.86013 7.584C1.66813 7.872 1.57213 8.176 1.57213 8.496C1.57213 8.592 1.58813 8.656 1.62013 8.688C1.65213 8.72 1.66813 8.832 1.66813 9.024C1.66813 9.216 1.63613 9.424 1.57213 9.648C1.54013 9.84 1.49213 9.968 1.42813 10.032C1.49213 10.576 1.60413 11.04 1.76413 11.424C1.95613 11.808 2.21213 12.128 2.53213 12.384L3.10813 12.864C3.55613 13.024 3.92413 13.216 4.21213 13.44C4.53213 13.664 4.82013 13.92 5.07613 14.208C5.33213 14.464 5.60413 14.704 5.89213 14.928C6.21213 15.12 6.56413 15.248 6.94813 15.312L10.0201 16.704L11.3641 17.28C11.3641 17.472 11.4121 17.648 11.5081 17.808C11.6361 17.936 11.7641 18.096 11.8921 18.288C12.0201 18.448 12.1481 18.624 12.2761 18.816C12.4041 19.008 12.4681 19.216 12.4681 19.44C12.4681 20.016 12.3081 20.464 11.9881 20.784C11.6681 21.072 11.3161 21.296 10.9321 21.456C10.5481 21.584 10.1961 21.664 9.87613 21.696C9.55613 21.728 9.38013 21.744 9.34813 21.744C8.38813 21.968 7.62013 22.16 7.04413 22.32C6.50013 22.48 5.89213 22.56 5.22013 22.56C4.90013 22.56 4.53213 22.544 4.11613 22.512C3.70013 22.448 3.22013 22.384 2.67613 22.32C2.58013 22.416 2.42013 22.464 2.19613 22.464C1.97213 22.464 1.70013 22.416 1.38013 22.32C1.09213 22.224 0.932125 22.192 0.900125 22.224C0.964125 22.48 1.01213 22.752 1.04413 23.04C1.10813 23.328 1.15613 23.6 1.18813 23.856C1.25213 24.112 1.30013 24.32 1.33213 24.48C1.39613 24.672 1.46013 24.768 1.52413 24.768H1.62013C1.55613 24.8 1.49213 24.864 1.42813 24.96C1.39613 25.056 1.38013 25.136 1.38013 25.2C1.38013 25.296 1.39613 25.344 1.42813 25.344C1.39613 25.376 1.38013 25.408 1.38013 25.44C1.38013 25.504 1.42813 25.584 1.52413 25.68C1.62013 25.776 1.73213 25.856 1.86013 25.92C1.98813 25.984 2.11613 26.048 2.24413 26.112C2.37213 26.176 2.43613 26.208 2.43613 26.208C2.82013 26.176 3.14013 26.144 3.39613 26.112C3.68413 26.112 3.95613 26.08 4.21213 26.016C4.50013 25.984 4.78813 25.952 5.07613 25.92C5.39613 25.888 5.76413 25.824 6.18013 25.728C6.50013 25.664 6.78813 25.6 7.04413 25.536C7.33213 25.472 7.62013 25.456 7.90813 25.488C8.61213 25.488 9.23613 25.552 9.78013 25.68C10.3241 25.84 10.8521 25.92 11.3641 25.92C11.6201 25.92 11.8761 25.904 12.1321 25.872C12.3881 25.84 12.6281 25.776 12.8521 25.68C13.1081 25.616 13.3161 25.552 13.4761 25.488C13.6361 25.456 13.7321 25.44 13.7641 25.44C13.7961 25.44 13.8281 25.424 13.8601 25.392C13.9241 25.392 14.0041 25.376 14.1001 25.344C14.1961 25.312 14.3401 25.232 14.5321 25.104C14.7241 25.008 14.9801 24.88 15.3001 24.72C15.7161 24.496 16.1801 24.256 16.6921 24C17.2041 23.776 17.6841 23.504 18.1321 23.184C18.6121 22.864 18.9961 22.496 19.2841 22.08C19.6041 21.632 19.7641 21.088 19.7641 20.448C19.7641 20.064 19.7321 19.648 19.6681 19.2C19.6041 18.72 19.5721 18.192 19.5721 17.616ZM36.392 12.768L37.64 12.72C37.8 12.784 37.944 12.832 38.072 12.864C38.2 12.896 38.376 12.912 38.6 12.912C38.728 12.912 38.856 12.896 38.984 12.864C39.144 12.832 39.288 12.8 39.416 12.768C39.576 12.736 39.768 12.72 39.992 12.72C40.248 12.688 40.568 12.672 40.952 12.672C41.08 12.672 41.192 12.688 41.288 12.72C41.416 12.72 41.512 12.72 41.576 12.72C41.608 12.72 41.64 12.72 41.672 12.72C41.736 12.72 41.864 12.656 42.056 12.528C41.896 12.528 41.816 12.416 41.816 12.192C41.816 12.16 41.832 12.064 41.864 11.904C41.896 11.744 41.912 11.632 41.912 11.568C41.88 11.568 41.864 11.488 41.864 11.328C41.864 11.2 41.896 11.104 41.96 11.04C41.736 10.88 41.624 10.72 41.624 10.56C41.624 10.368 41.56 10.176 41.432 9.984C41.24 10.048 41.096 10.08 41 10.08C40.776 10.08 40.616 10.08 40.52 10.08C40.456 10.048 40.376 10.016 40.28 9.984C40.184 9.952 40.008 9.936 39.752 9.936C39.528 9.904 39.144 9.872 38.6 9.84C38.216 9.808 37.752 9.776 37.208 9.744C36.664 9.712 36.072 9.664 35.432 9.6L34.952 4.272L34.52 3.648L31.352 3.936L30.584 5.04L30.44 9.36C29.992 9.36 29.56 9.36 29.144 9.36C28.728 9.328 28.328 9.312 27.944 9.312C27.624 9.408 27.448 9.456 27.416 9.456C27.128 9.456 26.872 9.456 26.648 9.456C26.424 9.456 26.2 9.424 25.976 9.36H25.208L24.488 9.984C24.488 10.24 24.488 10.528 24.488 10.848C24.488 11.168 24.504 11.488 24.536 11.808C24.6 12.128 24.68 12.416 24.776 12.672C24.872 12.896 25 13.04 25.16 13.104L25.544 13.44C25.864 13.44 26.104 13.44 26.264 13.44C26.424 13.408 26.712 13.36 27.128 13.296C27.16 13.232 27.304 13.2 27.56 13.2C27.752 13.2 27.944 13.216 28.136 13.248C28.36 13.28 28.504 13.312 28.568 13.344C28.664 13.344 28.76 13.344 28.856 13.344C28.984 13.312 29.112 13.296 29.24 13.296L29.912 13.248L29.72 14.208V20.448L29.912 23.184L30.44 24.288L31.64 24.096L35.576 24.384L38.264 24C38.456 23.456 38.552 22.912 38.552 22.368C38.552 21.824 38.456 21.248 38.264 20.64L36.392 19.632V12.768ZM47.4628 6.816C47.6868 6.816 47.8788 6.912 48.0388 7.104C48.2308 7.296 48.3908 7.52 48.5188 7.776C48.6788 8.032 48.8228 8.256 48.9508 8.448C49.0788 8.64 49.1908 8.736 49.2868 8.736C49.6068 8.672 50.0868 8.544 50.7268 8.352C51.3988 8.128 52.1188 7.904 52.8868 7.68C53.6868 7.456 54.4548 7.264 55.1908 7.104C55.9588 6.944 56.5828 6.864 57.0628 6.864C57.3188 6.864 57.4948 6.912 57.5908 7.008C57.7188 7.104 57.7988 7.216 57.8307 7.344C57.8628 7.472 57.8948 7.6 57.9268 7.728C57.9908 7.824 58.1028 7.904 58.2628 7.968C58.3268 8.064 58.4228 8.16 58.5508 8.256C58.6788 8.32 58.7428 8.448 58.7428 8.64C58.5828 9.024 58.4868 9.392 58.4548 9.744C58.4228 10.064 58.4068 10.368 58.4068 10.656V10.944L57.0148 11.04C56.7908 11.072 56.5668 11.104 56.3428 11.136C56.1188 11.136 55.8628 11.136 55.5748 11.136L54.1348 11.952C53.7188 11.952 53.3668 12 53.0788 12.096C52.7908 12.16 52.4868 12.272 52.1668 12.432C51.8788 12.56 51.5428 12.704 51.1588 12.864C50.7748 13.024 50.2628 13.184 49.6228 13.344C48.0868 14.112 46.9348 15.04 46.1668 16.128C45.4308 17.216 45.0628 18.56 45.0628 20.16C45.0628 20.672 45.2388 21.184 45.5908 21.696C45.9428 22.176 46.3748 22.624 46.8867 23.04C47.3988 23.424 47.9268 23.744 48.4708 24C49.0148 24.224 49.4948 24.336 49.9108 24.336C50.3908 24.336 50.8388 24.336 51.2548 24.336C51.6708 24.368 52.0868 24.384 52.5028 24.384H55.1428H55.1908C55.2548 24.384 55.3028 24.336 55.3348 24.24C55.3988 24.176 55.4628 24.096 55.5268 24C55.6228 23.872 55.7668 23.776 55.9588 23.712C56.1828 23.616 56.4868 23.568 56.8708 23.568C57.2868 23.568 57.7188 23.696 58.1668 23.952C58.6148 24.176 58.9988 24.288 59.3188 24.288C59.5748 24.288 59.8148 24.272 60.0388 24.24C60.2628 24.208 60.4868 24.16 60.7108 24.096C60.9668 24.032 61.2548 23.984 61.5748 23.952C61.8948 23.888 62.2628 23.856 62.6788 23.856C62.7748 24.016 62.9508 24.16 63.2068 24.288H63.8788C63.9108 24.128 63.9748 23.984 64.0708 23.856C64.1668 23.696 64.2788 23.488 64.4068 23.232C64.3748 22.496 64.3268 21.84 64.2628 21.264C64.2308 20.688 64.1988 20.144 64.1668 19.632C64.1668 19.088 64.1508 18.528 64.1188 17.952C64.1188 17.376 64.1028 16.72 64.0708 15.984H64.2148C64.2468 15.952 64.2788 15.936 64.3108 15.936C64.2148 15.936 64.1348 15.808 64.0708 15.552C64.0068 15.296 63.9588 15.04 63.9268 14.784C63.8948 14.496 63.8628 14.24 63.8308 14.016C63.8308 13.76 63.8308 13.632 63.8308 13.632C63.7988 13.376 63.7348 13.184 63.6388 13.056C63.5748 12.896 63.4948 12.72 63.3988 12.528C63.3348 12.304 63.2548 12 63.1588 11.616C63.0948 11.232 63.0468 10.608 63.0148 9.744C62.9188 9.68 62.8388 9.488 62.7748 9.168C62.7108 8.848 62.6468 8.512 62.5828 8.16C62.5508 7.776 62.5188 7.424 62.4868 7.104C62.4868 6.752 62.4708 6.544 62.4388 6.48H62.3428C62.0868 6.48 61.8788 6.336 61.7188 6.048C61.5588 5.76 61.4148 5.44 61.2868 5.088C61.1588 4.736 61.0468 4.432 60.9508 4.176C60.8548 3.888 60.7428 3.744 60.6148 3.744C60.5508 3.68 60.4868 3.616 60.4228 3.552C60.3588 3.456 60.2948 3.376 60.2308 3.312H59.4628C59.1428 3.312 58.8708 3.312 58.6468 3.312C58.4548 3.312 58.2628 3.312 58.0708 3.312C57.9108 3.312 57.7348 3.296 57.5428 3.264C57.3508 3.232 57.1108 3.184 56.8228 3.12C56.7908 3.28 56.5988 3.392 56.2468 3.456C55.9268 3.488 55.5588 3.504 55.1428 3.504C54.7588 3.504 54.3908 3.504 54.0388 3.504C53.7188 3.504 53.5428 3.552 53.5108 3.648C52.6468 3.936 51.8628 4.176 51.1588 4.368C50.4548 4.56 49.8628 4.768 49.3828 4.992C48.9028 5.184 48.5028 5.424 48.1828 5.712C47.8628 5.968 47.6228 6.336 47.4628 6.816ZM57.8788 14.88V17.328C57.7188 17.84 57.6228 18.368 57.5908 18.912C57.5588 19.456 57.5428 19.856 57.5428 20.112V20.496H56.8708C56.2308 20.56 55.6388 20.608 55.0948 20.64C54.5508 20.672 54.0228 20.704 53.5108 20.736L50.1508 20.928C49.9268 20.544 49.7348 20.24 49.5748 20.016C49.4468 19.792 49.3828 19.456 49.3828 19.008C49.3828 18.112 49.4948 17.408 49.7188 16.896C49.9748 16.384 50.3108 16 50.7268 15.744C51.1748 15.456 51.6868 15.248 52.2628 15.12C52.8388 14.992 53.4468 14.848 54.0868 14.688C54.4068 14.592 54.6948 14.512 54.9508 14.448C55.2388 14.384 55.5108 14.352 55.7668 14.352H55.9588C56.2788 14.448 56.5988 14.544 56.9188 14.64C57.2708 14.736 57.5908 14.816 57.8788 14.88ZM80.5483 12.768L81.7963 12.72C81.9563 12.784 82.1003 12.832 82.2283 12.864C82.3563 12.896 82.5323 12.912 82.7563 12.912C82.8843 12.912 83.0123 12.896 83.1403 12.864C83.3003 12.832 83.4443 12.8 83.5723 12.768C83.7323 12.736 83.9243 12.72 84.1483 12.72C84.4043 12.688 84.7243 12.672 85.1083 12.672C85.2363 12.672 85.3483 12.688 85.4443 12.72C85.5723 12.72 85.6683 12.72 85.7323 12.72C85.7643 12.72 85.7963 12.72 85.8283 12.72C85.8923 12.72 86.0203 12.656 86.2123 12.528C86.0523 12.528 85.9723 12.416 85.9723 12.192C85.9723 12.16 85.9883 12.064 86.0203 11.904C86.0523 11.744 86.0683 11.632 86.0683 11.568C86.0363 11.568 86.0203 11.488 86.0203 11.328C86.0203 11.2 86.0523 11.104 86.1163 11.04C85.8923 10.88 85.7803 10.72 85.7803 10.56C85.7803 10.368 85.7163 10.176 85.5883 9.984C85.3963 10.048 85.2523 10.08 85.1563 10.08C84.9323 10.08 84.7723 10.08 84.6763 10.08C84.6123 10.048 84.5323 10.016 84.4363 9.984C84.3403 9.952 84.1643 9.936 83.9083 9.936C83.6843 9.904 83.3003 9.872 82.7563 9.84C82.3723 9.808 81.9083 9.776 81.3643 9.744C80.8203 9.712 80.2283 9.664 79.5883 9.6L79.1083 4.272L78.6763 3.648L75.5083 3.936L74.7403 5.04L74.5963 9.36C74.1483 9.36 73.7163 9.36 73.3003 9.36C72.8843 9.328 72.4843 9.312 72.1003 9.312C71.7803 9.408 71.6043 9.456 71.5723 9.456C71.2843 9.456 71.0283 9.456 70.8043 9.456C70.5803 9.456 70.3563 9.424 70.1323 9.36H69.3643L68.6443 9.984C68.6443 10.24 68.6443 10.528 68.6443 10.848C68.6443 11.168 68.6603 11.488 68.6923 11.808C68.7563 12.128 68.8363 12.416 68.9323 12.672C69.0283 12.896 69.1563 13.04 69.3163 13.104L69.7003 13.44C70.0203 13.44 70.2603 13.44 70.4203 13.44C70.5803 13.408 70.8683 13.36 71.2843 13.296C71.3163 13.232 71.4603 13.2 71.7163 13.2C71.9083 13.2 72.1003 13.216 72.2923 13.248C72.5163 13.28 72.6603 13.312 72.7243 13.344C72.8203 13.344 72.9163 13.344 73.0123 13.344C73.1403 13.312 73.2683 13.296 73.3963 13.296L74.0683 13.248L73.8763 14.208V20.448L74.0683 23.184L74.5963 24.288L75.7963 24.096L79.7323 24.384L82.4203 24C82.6123 23.456 82.7083 22.912 82.7083 22.368C82.7083 21.824 82.6123 21.248 82.4203 20.64L80.5483 19.632V12.768ZM104.243 16.176C104.179 15.888 104.035 15.664 103.811 15.504C103.587 15.344 103.475 15.12 103.475 14.832C103.187 14.736 102.963 14.656 102.803 14.592C102.643 14.496 102.499 14.432 102.371 14.4C102.275 14.336 102.163 14.256 102.035 14.16C101.939 14.064 101.779 13.968 101.555 13.872C101.491 13.872 101.299 13.792 100.979 13.632C100.691 13.44 100.499 13.328 100.403 13.296L99.731 12.96C99.315 12.768 99.011 12.592 98.819 12.432C98.659 12.272 98.563 12.128 98.531 12L97.667 11.184C97.539 11.184 97.411 11.12 97.283 10.992C97.187 10.832 97.139 10.512 97.139 10.032C97.139 9.584 97.187 9.248 97.283 9.024C97.411 8.8 97.779 8.528 98.387 8.208H98.483C98.579 8.208 98.707 8.176 98.867 8.112C99.027 8.048 99.171 7.92 99.299 7.728C99.299 7.664 99.347 7.6 99.443 7.536C99.539 7.472 99.923 7.344 100.595 7.152C100.755 7.152 100.883 7.136 100.979 7.104C101.075 7.04 101.203 6.96 101.363 6.864H102.035C102.131 6.864 102.227 6.864 102.323 6.864C102.419 6.832 102.531 6.8 102.659 6.768C102.627 6.768 102.611 6.752 102.611 6.72C102.643 6.72 102.659 6.704 102.659 6.672C102.659 6.64 102.675 6.624 102.707 6.624C102.707 6.528 102.691 6.448 102.659 6.384C102.659 6.32 102.659 6.256 102.659 6.192V5.904C102.659 5.424 102.531 5.152 102.275 5.088C102.051 4.992 101.859 4.864 101.699 4.704C101.315 4.768 100.979 4.816 100.691 4.848C100.435 4.848 100.115 4.848 99.731 4.848C99.507 4.848 99.347 4.848 99.251 4.848C99.187 4.816 99.139 4.784 99.107 4.752C98.691 4.912 98.323 5.024 98.003 5.088C97.683 5.12 97.331 5.216 96.947 5.376L95.123 6.144C94.707 6.4 94.243 6.64 93.731 6.864C93.251 7.088 92.851 7.392 92.531 7.776C92.371 8.064 92.115 8.336 91.763 8.592C91.763 8.88 91.683 9.104 91.523 9.264C91.395 9.424 91.331 9.616 91.331 9.84C91.331 9.904 91.347 9.952 91.379 9.984C91.411 10.016 91.427 10.112 91.427 10.272C91.427 10.4 91.411 10.544 91.379 10.704C91.347 10.864 91.299 10.976 91.235 11.04C91.235 11.328 91.315 11.648 91.475 12C91.667 12.32 91.843 12.512 92.003 12.576L92.435 12.96C92.755 13.088 93.027 13.232 93.251 13.392C93.475 13.552 93.683 13.728 93.875 13.92C94.067 14.08 94.259 14.24 94.451 14.4C94.675 14.528 94.947 14.608 95.267 14.64C95.715 14.8 95.987 14.944 96.083 15.072C96.211 15.168 96.275 15.264 96.275 15.36C96.307 15.424 96.355 15.504 96.419 15.6C96.483 15.664 96.723 15.792 97.139 15.984C97.139 16.112 97.251 16.288 97.475 16.512L97.859 16.896C97.955 17.152 98.003 17.392 98.003 17.616C98.003 17.904 97.891 18.144 97.667 18.336C97.475 18.496 97.235 18.64 96.947 18.768C96.691 18.864 96.451 18.928 96.227 18.96C96.003 18.992 95.891 18.992 95.891 18.96C95.155 19.184 94.627 19.344 94.307 19.44C94.019 19.536 93.731 19.584 93.443 19.584C93.219 19.584 92.771 19.536 92.099 19.44C92.035 19.536 91.923 19.584 91.763 19.584C91.603 19.584 91.395 19.536 91.139 19.44C90.915 19.344 90.819 19.312 90.851 19.344C91.043 19.792 91.123 20.208 91.091 20.592C91.059 20.944 91.123 21.12 91.283 21.12H91.331C91.299 21.152 91.267 21.2 91.235 21.264C91.203 21.328 91.187 21.408 91.187 21.504C91.187 21.504 91.203 21.504 91.235 21.504C91.171 21.536 91.139 21.552 91.139 21.552C91.139 21.616 91.267 21.728 91.523 21.888C91.811 22.016 91.971 22.08 92.003 22.08C92.611 22.016 93.219 21.92 93.827 21.792C94.435 21.664 95.107 21.6 95.843 21.6C96.291 21.6 96.707 21.648 97.091 21.744C97.475 21.84 97.875 21.888 98.291 21.888C98.899 21.888 99.379 21.824 99.731 21.696C100.115 21.568 100.419 21.44 100.643 21.312C100.867 21.152 101.075 21.024 101.267 20.928C101.459 20.8 101.683 20.736 101.939 20.736L102.947 20.256C103.299 20.064 103.619 19.792 103.907 19.44C104.227 19.056 104.387 18.64 104.387 18.192C104.387 17.904 104.355 17.6 104.291 17.28C104.259 16.96 104.243 16.592 104.243 16.176Z" fill="#171717"/>
</svg>
