<svg width="45" height="12" viewBox="0 0 45 12" fill="none" xmlns="http://www.w3.org/2000/svg">
<path d="M4.08788 2.216V3.776L3.67988 6.08V9.44L3.75188 10.808L4.03988 11.36L4.63988 11.24L6.58388 11.408L7.20788 11.216V9.56L7.06388 9.056V4.952L6.48788 3.512L6.39188 2.216H7.25588C7.35188 2.248 7.42388 2.272 7.47188 2.288C7.51988 2.304 7.59988 2.312 7.71188 2.312C7.75988 2.312 7.82388 2.304 7.90388 2.288C7.99988 2.256 8.16788 2.224 8.40788 2.192C8.58388 2.224 8.74388 2.24 8.88788 2.24C9.04788 2.24 9.22388 2.24 9.41588 2.24C9.47988 2.224 9.59188 2.192 9.75188 2.144C9.92788 2.08 10.1039 1.992 10.2799 1.88C10.2479 1.88 10.2159 1.88 10.1839 1.88C10.1679 1.864 10.1599 1.824 10.1599 1.76C10.1599 1.728 10.1679 1.672 10.1839 1.592C10.1999 1.512 10.2079 1.456 10.2079 1.424C10.1919 1.424 10.1839 1.384 10.1839 1.304C10.1839 1.24 10.1999 1.184 10.2319 1.136C10.1039 1.04 10.0399 0.951999 10.0399 0.872C10.0559 0.792 10.0319 0.712 9.96788 0.632C9.83988 0.664 9.73588 0.696 9.65588 0.727999C9.57588 0.759999 9.48788 0.791999 9.39188 0.823999C9.29588 0.84 9.17588 0.856 9.03188 0.872C8.90388 0.872 8.71988 0.872 8.47988 0.872C8.36788 0.872 8.29588 0.864 8.26388 0.848L8.19188 0.775999C8.15988 0.743999 8.14388 0.703999 8.14388 0.655999C7.56788 0.655999 7.04788 0.639999 6.58388 0.607999C6.11988 0.559999 5.65588 0.512 5.19188 0.464C4.74388 0.415999 4.28788 0.375999 3.82388 0.343999C3.35988 0.295999 2.85588 0.271999 2.31188 0.271999L2.19188 0.343999C2.09588 0.359999 2.04788 0.368 2.04788 0.368C1.90388 0.368 1.77588 0.368 1.66388 0.368C1.55188 0.368 1.43988 0.359999 1.32788 0.343999H0.943875L0.775875 0.487999C0.743875 0.52 0.711875 0.552 0.679875 0.584C0.663875 0.599999 0.647875 0.615999 0.631875 0.632C0.631875 0.712 0.631875 0.832 0.631875 0.991999C0.631875 1.152 0.631875 1.32 0.631875 1.496C0.647875 1.672 0.679875 1.824 0.727875 1.952C0.775875 2.08 0.839875 2.16 0.919875 2.192C0.951875 2.224 0.983875 2.256 1.01588 2.288C1.04788 2.304 1.08788 2.32 1.13588 2.336C1.29588 2.336 1.40788 2.336 1.47188 2.336C1.55188 2.32 1.70388 2.304 1.92788 2.288C1.94388 2.24 2.00788 2.216 2.11988 2.216C2.23188 2.216 2.33588 2.232 2.43188 2.264C2.52788 2.28 2.59188 2.296 2.62388 2.312C2.68788 2.312 2.75188 2.312 2.81588 2.312C2.89588 2.296 2.97588 2.288 3.05588 2.288L3.48788 2.24C3.55188 2.16 3.63988 2.12 3.75188 2.12C3.87988 2.12 3.94388 2.152 3.94388 2.216H4.08788ZM16.7019 1.544L15.8859 1.208L14.8299 1.016L14.0619 0.848L13.4859 1.04V3.32L13.5579 3.608L14.9979 3.368L16.1259 3.584L16.4619 3.344L16.7019 1.544ZM16.8699 9.536L16.4619 9.2L16.6059 8.768V7.64L16.4379 7.04V5.384L16.1499 5.072L15.6459 5.048L15.4539 5.144L14.4939 5.072L14.0859 5.264L13.5819 11.072L13.8219 11.336H14.2539L14.5419 11.24H16.3899L16.8459 11.024L16.7259 10.448L16.8699 9.536ZM33.4206 8.312L33.3486 3.848C33.2366 3.592 33.1086 3.344 32.9646 3.104C32.8206 2.864 32.6286 2.688 32.3886 2.576L30.0366 2.528L29.2926 2.6L29.0046 2.768L28.4286 2.864L27.2766 2.168L25.9806 2.072L24.5646 2.576L24.2766 2.504L24.1566 2.288L23.5566 1.88L23.0286 1.952L21.9486 1.688L21.4686 2.6L21.2766 4.64V8.864L22.5246 8.96L22.8606 8.792H24.1326L24.6606 8.672V3.848H25.8606L26.1486 4.256L26.2446 5.168V7.04V8.456L26.4846 8.672H28.4526L28.9806 8.264L28.7406 6.608V5.48V4.688L28.7886 4.16L29.8206 4.256L29.9646 4.688L30.2766 7.184V8.384L30.9006 8.648H33.2046L33.4206 8.312ZM44.5029 9.944L44.4309 9.848C44.4309 9.768 44.4069 9.696 44.3589 9.632C44.3109 9.552 44.2709 9.464 44.2389 9.368C44.1429 9.368 44.0549 9.392 43.9749 9.44C43.8949 9.472 43.8069 9.512 43.7109 9.56C43.6309 9.592 43.5269 9.632 43.3989 9.68C43.2869 9.712 43.1429 9.728 42.9669 9.728H42.8469C42.6549 9.744 42.4869 9.752 42.3429 9.752C42.1989 9.752 42.0629 9.76 41.9349 9.776C41.8069 9.776 41.6789 9.784 41.5509 9.8C41.4229 9.8 41.2709 9.8 41.0949 9.8C40.7909 9.752 40.5909 9.72 40.4949 9.704C40.4149 9.672 40.3749 9.656 40.3749 9.656C40.3749 9.656 40.3829 9.656 40.3989 9.656C40.4149 9.656 40.3909 9.64 40.3269 9.608C40.3109 9.624 40.2949 9.632 40.2789 9.632C40.2629 9.632 40.2469 9.64 40.2309 9.656C40.2309 9.656 40.2149 9.656 40.1829 9.656C40.0069 9.592 39.8629 9.544 39.7509 9.512C39.6549 9.48 39.6069 9.424 39.6069 9.344C39.6069 9.28 39.5269 9.168 39.3669 9.008C39.2229 8.848 39.1509 8.664 39.1509 8.456C39.1509 8.216 39.1749 7.912 39.2229 7.544C39.2709 7.16 39.3669 6.856 39.5109 6.632C39.6389 6.552 39.8629 6.464 40.1829 6.368C40.5029 6.256 40.8229 6.2 41.1429 6.2C41.3349 6.2 41.4789 6.232 41.5749 6.296C41.6869 6.344 41.7749 6.408 41.8389 6.488C41.9029 6.568 41.9349 6.656 41.9349 6.752C41.9509 6.832 41.9589 6.912 41.9589 6.992C41.9589 7.104 41.9189 7.184 41.8389 7.232C41.7589 7.28 41.6629 7.312 41.5509 7.328C41.4389 7.344 41.3269 7.352 41.2149 7.352C41.1029 7.352 41.0069 7.36 40.9269 7.376C40.6069 7.472 40.3429 7.536 40.1349 7.568C39.9429 7.6 39.8309 7.616 39.7989 7.616C39.8789 7.648 39.9349 7.712 39.9669 7.808C39.9989 7.904 40.0229 8.008 40.0389 8.12C40.0549 8.216 40.0629 8.312 40.0629 8.408C40.0629 8.488 40.0709 8.528 40.0869 8.528C40.6469 8.528 41.1109 8.504 41.4789 8.456C41.8469 8.408 42.1509 8.352 42.3909 8.288C42.6309 8.208 42.8229 8.144 42.9669 8.096C43.1109 8.032 43.2549 7.992 43.3989 7.976C43.4629 7.816 43.5349 7.72 43.6149 7.688C43.6949 7.64 43.7829 7.56 43.8789 7.448C43.8469 7.224 43.7909 7 43.7109 6.776C43.6469 6.536 43.5749 6.32 43.4949 6.128C43.4149 5.92 43.3349 5.744 43.2549 5.6C43.1909 5.456 43.1589 5.368 43.1589 5.336C43.0469 5.336 42.9509 5.312 42.8709 5.264C42.8069 5.216 42.7509 5.168 42.7029 5.12C42.6709 5.072 42.6469 5.024 42.6309 4.976C42.6149 4.928 42.5989 4.904 42.5829 4.904C42.4069 4.904 42.2709 4.864 42.1749 4.784C42.1109 4.752 42.0629 4.712 42.0309 4.664C41.7749 4.664 41.5749 4.632 41.4309 4.568C41.2869 4.504 41.1269 4.472 40.9509 4.472C40.5509 4.616 40.1189 4.72 39.6549 4.784C39.2069 4.848 38.8069 4.984 38.4549 5.192C38.2629 5.352 38.0869 5.504 37.9269 5.648C37.7669 5.792 37.6229 5.952 37.4949 6.128C37.3669 6.304 37.2309 6.496 37.0869 6.704C36.9429 6.912 36.7989 7.16 36.6549 7.448C36.5749 7.576 36.5189 7.704 36.4869 7.832C36.4709 7.96 36.4549 8.088 36.4389 8.216C36.4389 8.456 36.4469 8.696 36.4629 8.936C36.4949 9.16 36.6069 9.416 36.7989 9.704C36.8789 9.768 36.9429 9.84 36.9909 9.92C37.0549 10 37.0869 10.04 37.0869 10.04L37.2309 10.16C37.2629 10.16 37.2869 10.208 37.3029 10.304C37.3349 10.384 37.3589 10.424 37.3749 10.424H37.8069C37.9989 10.536 38.1509 10.632 38.2629 10.712C38.3749 10.776 38.4789 10.824 38.5749 10.856C38.6709 10.872 38.7749 10.888 38.8869 10.904C38.9989 10.92 39.1429 10.928 39.3189 10.928C39.4149 10.928 39.5109 10.928 39.6069 10.928C39.7189 10.912 39.8309 10.904 39.9429 10.904C40.0389 10.904 40.1429 10.904 40.2549 10.904C40.3669 10.904 40.5029 10.92 40.6629 10.952C41.0149 10.952 41.3029 10.936 41.5269 10.904C41.7669 10.856 41.9989 10.8 42.2229 10.736C42.4629 10.672 42.7109 10.616 42.9669 10.568C43.2389 10.52 43.5669 10.488 43.9509 10.472C44.0469 10.44 44.1589 10.368 44.2869 10.256C44.4309 10.128 44.5029 10.048 44.5029 10.016C44.5029 9.968 44.4629 9.944 44.3829 9.944H44.5029Z" fill="white"/>
</svg>
