<svg width="70" height="82" viewBox="0 0 70 82" fill="none" xmlns="http://www.w3.org/2000/svg">
<g clip-path="url(#clip0)">
<path d="M46.1561 1.69653C46.0277 1.69653 46.0919 1.7735 46.4387 1.81839L46.6987 1.75105L46.1561 1.69653Z" fill="#171717"/>
<path d="M48.4422 2.30581C48.8532 2.35392 49.3413 2.38278 49.1069 2.22564C48.683 2.22564 48.5963 2.1583 48.1436 2.17112C47.8033 2.08775 47.5528 2.01719 47.617 1.98513C47.3727 1.94709 47.1259 1.92672 46.8785 1.92419C47.1205 2.00387 47.3686 2.06393 47.6202 2.10378C47.8964 2.13906 48.1789 2.21923 48.4808 2.2513C48.606 2.2994 48.484 2.29299 48.4422 2.30581Z" fill="#171717"/>
<path d="M68.6418 27.5216L68.6096 27.3035C68.6156 27.3768 68.6264 27.4497 68.6418 27.5216Z" fill="#171717"/>
<path d="M68.0703 48.3438C68.0944 48.2681 68.1063 48.1891 68.1056 48.1097C68.0703 48.2572 68.0703 48.3759 68.0703 48.3438Z" fill="#171717"/>
<path d="M66.9368 51.7399L67.0074 51.5411C66.976 51.6043 66.9523 51.671 66.9368 51.7399Z" fill="#171717"/>
<path d="M68.6418 27.5215L68.7252 28.0763C68.767 28.1083 68.6899 27.7909 68.6418 27.5215Z" fill="#171717"/>
<path d="M52.9792 3.70402C52.8867 3.65718 52.7913 3.61647 52.6935 3.58215L52.9535 3.70722L52.9792 3.70402Z" fill="#171717"/>
<path d="M65.7327 18.7443L65.6589 18.5936C65.6282 18.554 65.595 18.5165 65.5594 18.4813L65.7327 18.7443Z" fill="#171717"/>
<path d="M62.1911 12.6159C62.2843 12.7474 62.3902 12.7378 62.4609 12.7666C62.361 12.6994 62.2731 12.6159 62.2008 12.5197C62.1847 12.5293 62.1815 12.5582 62.1911 12.6159Z" fill="#171717"/>
<path d="M54.1897 4.81038L54.0163 4.71417L54.1897 4.81038Z" fill="#171717"/>
<path d="M67.5051 23.5065C67.5009 23.5299 67.5009 23.5538 67.5051 23.5771C67.5051 23.5771 67.5083 23.545 67.5051 23.5065Z" fill="#171717"/>
<path d="M39.2046 0.198853C39.2046 0.198853 39.2046 0.198853 39.2046 0.214887C39.2046 0.230921 39.2592 0.205266 39.2046 0.198853Z" fill="#171717"/>
<path d="M46.9845 3.13642L46.8785 3.08832C46.8693 3.09037 46.8605 3.09427 46.8528 3.09978C46.8451 3.10529 46.8385 3.1123 46.8336 3.12039L46.9845 3.13642Z" fill="#171717"/>
<path d="M64.2172 57.6758V57.6502C64.3039 57.4962 64.2589 57.5828 64.2172 57.6758Z" fill="#171717"/>
<path d="M13.3861 78.6714C13.6815 78.8413 13.4182 78.7579 13.1902 78.6906C13.1153 78.6635 13.0379 78.6441 12.959 78.6329C12.9398 78.6329 13.0008 78.7002 13.2287 78.8157C13.1645 78.7483 14.1278 79.0498 13.3861 78.6714Z" fill="#171717"/>
<path d="M53.1205 3.80023L53.3837 3.94134C53.2649 3.87399 53.1847 3.84834 53.1205 3.80023Z" fill="#171717"/>
<path d="M13.2287 78.8156L13.3218 78.8669L13.2287 78.8156Z" fill="#171717"/>
<path d="M55.0405 69.5125C55.0898 69.4936 55.1371 69.4699 55.1818 69.4419C55.1818 69.4419 55.1369 69.4515 55.0405 69.5125Z" fill="#171717"/>
<path d="M62.4287 61.0816L62.2746 61.3125C62.3388 61.2227 62.387 61.1489 62.4287 61.0816Z" fill="#171717"/>
<path d="M50.5486 73.2389C50.4285 73.306 50.3136 73.3821 50.205 73.4666L50.2628 73.4377C50.3499 73.3605 50.4458 73.2937 50.5486 73.2389Z" fill="#171717"/>
<path d="M45.3405 76.3815L45.4465 76.3463L45.6167 76.2501L45.3405 76.3815Z" fill="#171717"/>
<path d="M21.2591 4.82645C21.3505 4.78767 21.4466 4.76073 21.5449 4.74627C21.4293 4.73986 22.1902 4.24279 21.2591 4.82645Z" fill="#171717"/>
<path d="M52.9406 3.7489C53.0039 3.751 53.0656 3.76862 53.1205 3.80021L52.9374 3.70721C52.915 3.71042 52.9053 3.72004 52.9406 3.7489Z" fill="#171717"/>
<path d="M50.7476 73.9636L49.9321 74.5088C50.1633 74.3613 50.4587 74.1625 50.7476 73.9636Z" fill="#171717"/>
<path d="M1.52191 42.8921L1.5476 42.6708C1.53238 42.7436 1.52378 42.8177 1.52191 42.8921Z" fill="#171717"/>
<path d="M47.4597 76.0513C47.2959 76.1187 47.1161 76.1796 46.9427 76.263C46.911 76.2853 46.881 76.31 46.8528 76.3367C47.0551 76.2405 47.2638 76.1572 47.4597 76.0513Z" fill="#171717"/>
<path d="M27.2723 1.70543C26.3925 2.04536 26.8999 1.97481 26.7393 2.1095C25.7118 2.54884 26.2288 2.22494 25.8499 2.31153C25.2077 2.61298 24.7775 2.95291 24.3087 3.16456C24.2637 3.16456 24.1674 3.19984 24.2637 3.12928C23.9427 3.33132 23.4707 3.58787 22.9794 3.85725C22.5169 4.10513 22.0756 4.39043 21.6597 4.71028C21.6248 4.726 21.5881 4.73783 21.5506 4.74555C21.6983 4.72311 21.7496 4.74555 21.7464 4.8129C21.5031 5.00745 21.2381 5.17318 20.9566 5.30676C21.0712 5.23665 21.1742 5.149 21.2616 5.047C21.1428 5.13038 21.0304 5.22659 20.9148 5.31317C20.5231 5.43824 21.39 4.95079 21.3515 4.88986C20.9951 5.12397 20.6355 5.42221 20.2823 5.67876C19.9291 5.93531 19.6144 6.20469 19.3383 6.38106C19.1617 6.38106 20.5584 5.45748 19.791 5.89041C20.0736 5.698 20.3626 5.52483 20.6515 5.34845C19.9098 5.63707 21.1749 5.02776 20.4781 5.25866C19.3479 5.98982 19.2773 6.15979 18.2016 6.9551C18.0058 7.19561 18.3333 6.9551 18.1406 7.20203C17.7529 7.58523 17.3219 7.92208 16.8563 8.20578C16.4775 8.40506 16.1483 8.6867 15.893 9.02995C15.6569 9.47545 15.3363 9.87082 14.949 10.194L15.0903 9.87336C14.8383 10.1092 14.622 10.3803 14.4481 10.6783C14.252 10.9772 14.0261 11.2554 13.7739 11.5089C13.8687 11.3438 13.976 11.1862 14.0949 11.0375C14.2234 10.8835 14.3197 10.7745 14.2491 10.8418C13.6069 11.4447 13.9055 11.3678 13.4785 11.8873L13.3051 11.929L12.6629 12.766C12.451 13.0578 12.2551 13.3689 12.0464 13.6735L11.4235 14.6099C11.2116 14.9306 11.0286 15.2513 10.8263 15.572C10.8263 15.4822 10.9547 15.2513 10.7364 15.5271C9.71533 17.1562 8.65575 19.0547 7.77918 20.6966L7.57369 21.3797C7.50305 21.5304 7.40993 21.6394 7.46452 21.4694C7.14343 22.1108 7.50305 21.5304 7.39709 21.8607C7.23334 22.2359 7.12417 22.3321 7.20444 22.0852C6.96683 22.6752 6.68107 23.5379 6.35677 24.3909C6.03247 25.2439 5.74349 26.1194 5.46094 26.7287L5.52195 26.4754C5.13022 27.4375 5.3325 27.6523 4.9472 28.5406L4.98573 28.3578C4.89583 28.6272 4.80592 28.8966 4.71281 29.1692C4.61969 29.4418 4.55226 29.724 4.46878 30.003C4.31145 30.5578 4.1477 31.1125 4 31.6545C3.71744 32.7384 3.42846 33.7518 3.17159 34.5792C3.1371 34.9986 3.05524 35.4128 2.92757 35.8138C2.80556 36.3334 2.6996 36.8368 2.77666 36.9266C2.48597 37.7936 2.24266 38.6757 2.04779 39.5691C1.94826 40.0437 2.02211 40.3003 1.93862 40.8935H1.85514L1.8134 41.7113L1.62075 42.1186L1.5469 42.6766C1.59185 42.4553 1.67533 42.2148 1.69781 42.2533C1.6135 42.9713 1.45423 43.6785 1.2226 44.3634C1.1327 45.0497 1.06527 45.7391 0.984997 46.4286C0.970798 46.2039 0.978325 45.9784 1.00747 45.7552C0.943256 46.868 0.872617 45.938 0.818032 46.9578C0.856563 46.8263 0.866195 47.0411 0.88225 47.0668C0.707589 47.8872 0.58958 48.7187 0.529055 49.5553L0.480892 49.3854C0.272186 50.9118 0.185493 52.6243 0.10201 54.3592C0.159806 53.7371 0.265764 53.8878 0.262553 54.3945L0.150173 54.5933C0.204758 54.914 0.207969 54.0642 0.265764 54.7409C0.233655 55.3822 0.134119 55.1738 0.111643 54.8018V55.5907C0.0763232 55.6356 0.0666906 55.4496 0.0281603 55.4015C0.0699015 55.7222 -0.0874307 56.7644 0.0281603 57.2326L-0.00394832 57.2775C-0.00394832 57.7136 0.0153168 58.0888 0.0377929 58.432C0.0602689 58.7751 0.0795341 59.0734 0.0987993 59.3748C0.143751 59.9649 0.227234 60.5165 0.294662 61.222C0.378144 61.2412 0.439151 61.7928 0.577218 62.2001C0.644646 62.7164 0.69602 63.2648 0.811611 63.8324C0.903607 64.4308 1.03664 65.0223 1.20976 65.6026C1.49874 66.4396 1.35425 65.8303 1.53084 66.1958C1.53172 66.4003 1.56756 66.6031 1.6368 66.7955C1.70744 67.0264 1.74597 67.1739 1.60469 66.8757C2.02099 68.0929 2.56562 69.2625 3.22939 70.3648C3.15554 70.1692 3.05279 69.9607 3.13627 70.0441C3.3225 70.3391 3.4991 70.7464 3.45736 70.724L3.40278 70.647C3.55048 70.8747 3.69496 71.112 3.83945 71.3589C3.98394 71.6059 4.16054 71.8368 4.32429 72.0869L4.81556 72.8469C4.9761 73.1003 5.17517 73.328 5.35177 73.5685C5.52837 73.809 5.7146 74.0367 5.88798 74.2676C6.06137 74.4985 6.2765 74.6845 6.46273 74.8801C6.79074 75.2429 7.1604 75.5658 7.56405 75.8421L7.48378 75.7876C7.96541 76.1404 8.41493 76.5284 8.92867 76.8331C9.5869 77.3173 8.49199 76.5958 8.95436 76.9902C10.5855 78.01 11.523 78.6353 12.9679 79.235C13.3076 79.468 13.6651 79.6739 14.0372 79.8508C14.2732 79.9602 14.5155 80.0555 14.7628 80.1362L15.5559 80.4055C16.6412 80.7519 17.8035 81.0469 18.5869 81.2746L18.5067 81.1976C18.7821 81.2362 19.051 81.3117 19.3062 81.4221C19.2741 81.3676 18.8663 81.2714 19.1296 81.2971C20.9434 81.6233 22.7744 81.8449 24.6137 81.9609C26.4784 82.0659 28.3485 82.0262 30.2071 81.8422C31.5492 81.6723 30.9295 81.4638 32.6248 81.342C32.4739 81.4093 32.323 81.4734 32.1689 81.5247C34.8275 80.9539 37.6274 80.3574 40.0901 79.3761C39.9723 79.4553 39.8436 79.5169 39.708 79.5589C40.1157 79.4642 40.5119 79.3255 40.8896 79.1452C41.1541 79.05 41.4054 78.9218 41.6377 78.7636C42.0262 78.6193 41.7469 78.7829 41.9973 78.7187C42.5496 78.5712 43.256 78.0773 43.561 78.0164C43.6124 78.0164 43.4262 78.103 43.3363 78.1543C43.6574 77.9651 44.8967 77.4456 44.5371 77.5129C44.9797 77.3293 45.4089 77.115 45.8215 76.8716C46.2164 76.6535 46.5889 76.445 46.9517 76.2815C47.0823 76.1842 47.2196 76.0963 47.3627 76.0185C47.5232 75.9191 47.6838 75.8165 47.8636 75.7203C48.1062 75.6076 48.3244 75.4485 48.5058 75.2521C48.5058 75.3323 48.9007 75.1302 49.3502 74.8608C49.7619 74.6038 50.1546 74.3176 50.5254 74.0046C50.3777 74.1617 51.0038 73.732 50.8465 73.9212C51.4405 73.5107 51.9703 73.1163 51.8097 73.1227C52.956 72.4397 53.8422 71.4038 54.5261 71.0607L55.6788 69.9864C56.0609 69.6368 56.3948 69.252 56.748 68.8993L57.7787 67.8346L58.742 66.7378C58.7741 66.8116 58.4209 67.2092 58.0773 67.5908C57.7338 67.9725 57.3806 68.3156 57.4705 68.3445C57.7916 68.0238 58.0484 67.7031 58.2925 67.4048C58.5365 67.1066 58.7612 66.8276 58.9892 66.5518C59.2172 66.276 59.458 66.0098 59.686 65.7052C59.9139 65.4005 60.1708 65.0863 60.4598 64.7431C60.7488 64.4 60.3442 64.9901 60.2639 65.128C60.5369 64.7656 60.813 64.4128 61.0859 64.0665C61.3588 63.7201 61.5997 63.3578 61.8501 63.0114C62.3531 62.3481 62.8091 61.6505 63.2147 60.9237C63.1769 61.0355 63.1274 61.143 63.067 61.2444C63.2308 60.9718 63.478 60.6255 63.3881 60.6191L63.2404 60.8949C62.8904 61.2733 63.7381 59.7147 63.722 59.641C63.6578 59.9168 63.889 59.5897 64.0816 59.2882C64.2743 58.9868 64.4381 58.7078 64.3385 59.1471C64.4284 58.9547 64.5247 58.7078 64.4637 58.7302C64.6243 58.4608 64.6917 58.3871 64.5857 58.6885C65.0963 57.6623 64.8426 57.9894 65.3339 57.0851C65.3596 57.0851 65.2729 57.2935 65.2536 57.4058C65.3564 57.1653 65.4366 56.9119 65.5458 56.6233C65.6767 56.2837 65.8246 55.9508 65.9889 55.626C65.9889 55.6805 66.0499 55.5971 65.9407 55.8344C66.0949 55.4945 66.2297 55.1738 66.3549 54.8723C66.4802 54.5709 66.5701 54.231 66.676 53.9359C66.8751 53.2946 67.1223 52.6788 67.4145 51.9124C67.3953 52.4191 67.6264 51.3961 67.7677 51.348L68.0053 50.4949L67.8416 50.8156C67.9604 50.4468 68.0535 50.0941 68.1434 49.7542C68.2333 49.4142 68.2911 49.0807 68.3938 48.7632L68.2975 49.3341L68.6379 47.923L68.3874 48.7055C68.5255 47.9326 68.2204 48.7504 68.5094 47.7627C68.4645 47.9647 68.7181 47.0187 68.8466 46.6339C68.8798 46.1851 68.9507 45.7399 69.0585 45.303C69.1259 45.1619 69.1644 45.4441 69.2094 45.3511C69.2351 44.9824 69.2801 44.6152 69.3443 44.2511C69.4056 43.8607 69.4367 43.4662 69.4374 43.071C69.4374 43.2314 69.5016 43.2474 69.5209 43.1993L69.4823 42.8786C69.5594 42.5291 69.5786 42.4777 69.6204 42.5419C69.7745 41.474 69.4406 42.8626 69.6461 41.6023C69.6461 41.7017 69.6461 41.6568 69.6461 41.8652C69.7135 41.2239 69.752 40.6049 69.7874 39.9988C69.7874 39.6974 69.8323 39.3991 69.8355 39.1009C69.8387 38.8027 69.8355 38.5044 69.8676 38.2094C69.9961 37.8662 69.8676 39.242 69.9832 38.8508C69.9832 38.4242 69.9832 37.9913 69.9832 37.568C69.9832 37.1447 69.9832 36.6893 69.9479 36.2532C69.8805 35.3777 69.8516 34.5118 69.8034 33.6877V34.0084C69.614 33.7935 69.7777 32.7833 69.6204 31.9592C69.6525 32.1612 69.7392 32.2157 69.7135 32.1612C69.6942 31.879 69.675 31.5936 69.6364 31.3018C69.5979 31.0099 69.5337 30.7053 69.4759 30.3846C69.4181 30.0639 69.3539 29.7432 69.2865 29.3648C69.2511 29.1852 69.2158 28.9992 69.1805 28.8036C69.1452 28.608 69.0842 28.4091 69.036 28.2039L69.1227 28.4027C69.02 27.7614 68.8016 26.6806 68.6411 25.9783C68.5447 25.7827 68.442 25.3851 68.4452 25.6416C68.2823 24.5872 67.9945 23.5559 67.5879 22.5694C67.4049 22.0916 67.2251 21.6073 67.0613 21.1488C66.8686 20.6919 66.7003 20.2252 66.5572 19.7506C66.6471 19.9686 66.8045 20.2572 66.7338 20.0712C66.5058 19.5581 66.2907 19.045 66.0531 18.5384C66.0747 18.7317 66.1177 18.9221 66.1815 19.106C66.0971 18.9712 66.0199 18.8321 65.9504 18.6891C65.854 18.5191 65.7513 18.3235 65.6614 18.1375C66.0306 18.7789 65.7673 18.0798 65.6614 17.7687C65.6614 17.8264 65.594 17.7366 65.5843 17.7687C65.4559 17.3454 65.4077 17.3294 65.3339 17.2813C65.26 17.2332 65.1733 17.1466 64.9293 16.6014L64.9935 16.6399C64.7591 16.2583 64.5312 15.9151 64.3 15.495C64.3 15.3892 64.3546 15.495 64.4381 15.6073C64.5215 15.7195 64.605 15.8863 64.6435 15.8799C64.3225 15.2866 63.8248 14.8152 63.5872 14.2443C63.7573 14.4784 63.9693 14.8312 64.1362 15.0653C63.9871 14.6768 63.7977 14.3049 63.5711 13.9557L63.5968 14.0006L62.9964 13.0193L63.1344 13.2759C62.8235 12.9402 62.546 12.575 62.306 12.1855C62.0167 11.7658 61.6888 11.374 61.3267 11.015C61.7377 11.3934 61.7634 11.4319 61.7313 11.3357C61.6992 11.2395 61.5708 11.092 61.635 11.0952C61.4712 10.8515 61.2111 10.4923 61.3139 10.5725C60.9029 10.2101 60.7969 9.82205 60.1804 9.34422C60.1804 9.29933 59.7887 8.91771 59.93 8.95298C59.4323 8.45271 60.0038 9.11333 59.93 9.09729C59.7213 8.91771 59.5254 8.69964 59.3039 8.47516C59.0823 8.25068 58.8512 8.01337 58.6071 7.76323L58.2347 7.37841C58.103 7.25334 57.9617 7.13468 57.8205 7.01282C57.5347 6.7723 57.2297 6.53179 56.9086 6.31051C56.1227 5.78003 55.3057 5.29706 54.4619 4.86421C54.1408 4.59483 54.8119 4.95079 54.8119 4.95079C54.539 4.74876 54.2917 4.582 54.0445 4.42487C53.7973 4.26773 53.5275 4.1619 53.2386 4.02721C53.3638 4.06249 53.2578 3.97911 53.1037 3.85725C52.6413 3.62635 52.7569 3.77708 52.1565 3.46601C52.3343 3.47857 52.5099 3.51194 52.6799 3.56542C52.1116 3.33773 51.54 3.14853 50.9492 2.92404C50.8818 2.87273 50.9813 2.87594 51.1194 2.92404C51.2575 2.97215 51.4405 3.02666 51.5497 3.05553C51.3827 2.9946 51.1965 2.90801 50.9974 2.84387L50.4098 2.68673C50.1422 2.59545 49.8655 2.5331 49.5846 2.50074L50.002 2.67711C49.758 2.59694 49.8993 2.56167 50.0855 2.60977C50.3916 2.6439 50.6814 2.76524 50.9203 2.95932L50.4933 2.83425C50.6249 2.93237 50.7712 3.00921 50.9267 3.06194C51.1162 3.1357 51.3313 3.2287 51.5689 3.31528C52.0485 3.46818 52.5154 3.65795 52.9656 3.8829L52.5771 3.82838L53.4344 4.14907C53.5918 4.27414 53.672 4.39921 53.2739 4.21C53.4349 4.32514 53.6083 4.42195 53.7908 4.49862C53.9544 4.56328 54.1038 4.65913 54.2307 4.78083C54.2757 4.82252 54.25 4.8129 54.1986 4.78083L54.7477 5.08228C54.6289 5.04059 54.783 5.21697 54.4715 4.99569C55.3834 5.63707 56.0127 5.9321 56.2985 6.2592L56.2182 6.20789C56.8604 6.64724 56.8861 6.6761 56.9022 6.63441C56.9182 6.59272 56.9022 6.53179 57.3774 6.8653L57.8205 7.55478L58.0003 7.58044C58.1159 7.69268 58.3214 7.92037 58.27 7.90113C58.7452 8.2635 58.225 7.79851 58.5172 7.99413C58.6424 8.14164 58.803 8.31481 58.9732 8.47516L59.2332 8.7253L59.4773 8.98185C59.7984 9.30254 60.0456 9.60077 60.0456 9.71622C60.2896 9.87015 59.5864 9.13578 60.1869 9.71622C60.2286 9.98881 60.829 10.4185 61.224 10.999C61.0153 10.8867 60.6268 10.3576 61.0153 10.9348C61.4166 11.1593 61.834 12.0348 62.2097 12.4902C62.3317 12.4357 62.99 13.5196 63.5583 14.3373C63.698 14.652 63.8601 14.9564 64.0431 15.2481L64.2679 15.649L64.4798 16.0723L64.849 16.8227H64.8201C65.0224 16.9189 65.4142 17.7847 65.732 18.4261C65.6582 18.4261 65.5779 18.3299 65.3885 18.0028L65.6678 18.5929C65.8237 18.8041 65.9491 19.0362 66.0403 19.2824L65.8958 19.1637C66.066 19.5646 66.2554 19.959 66.4513 20.3887C66.5476 20.6004 66.6471 20.8217 66.7434 21.0558C66.8398 21.2899 66.9104 21.5464 66.9907 21.8158C67.087 21.8511 66.9168 20.8922 67.3535 22.0018C67.3246 22.0563 67.2668 22.1237 67.1512 21.835C67.2289 22.008 67.2954 22.1859 67.3503 22.3674L67.1255 21.9441C67.2604 22.4379 67.27 22.175 67.3953 22.5662C67.3343 22.5662 67.4498 22.8644 67.3953 22.826C67.3488 22.6619 67.2942 22.5003 67.2315 22.3417C67.359 22.7216 67.4567 23.1108 67.5237 23.5058C67.543 23.4577 67.6168 23.477 67.7131 23.7976C67.9475 24.6378 67.7131 24.1183 67.8223 24.6058C67.9186 24.795 68.0214 25.3434 68.1177 25.3337C68.1574 25.4634 68.1705 25.5998 68.1562 25.7346C68.1948 25.8436 68.2526 26.02 68.3071 26.222C68.3617 26.4241 68.4067 26.655 68.4548 26.8634C68.548 27.2579 68.625 27.5337 68.6218 27.2739L68.6025 27.1617L68.6218 27.2322C69.0521 28.6561 69.1291 30.2595 69.3539 31.7219H69.3218C69.4309 32.5877 69.5401 33.646 69.6268 34.2874C69.6268 34.5471 69.5915 34.8999 69.5497 34.7908C69.6111 35.3584 69.6325 35.9296 69.614 36.5001C69.5369 35.8299 69.5754 36.731 69.553 35.8138C69.553 36.6797 69.492 36.8753 69.553 37.8085C69.4791 37.4878 69.4342 38.4499 69.4502 38.87L69.5241 38.2671C69.5305 38.6953 69.5134 39.1235 69.4727 39.5499L69.3828 39.3222C69.2738 40.1256 69.2212 40.9358 69.2254 41.7466C69.1982 42.4534 69.0904 43.1549 68.9044 43.8375C68.9044 44.3153 69.0874 42.8754 69.1163 43.3211C69.0525 43.7068 68.9689 44.0889 68.8658 44.466C68.7599 44.7867 68.67 45.0657 68.6443 45.1908C68.5461 45.5408 68.4922 45.9017 68.4837 46.2651C68.4837 46.3998 68.4837 46.5377 68.4516 46.7108C68.4287 46.9379 68.3802 47.1616 68.3071 47.3779C68.3842 47.2432 68.5191 47.1277 68.3328 47.9872C68.1145 48.7761 67.9283 48.9204 68.0117 48.4137C68.0567 48.2213 68.092 48.1347 68.1016 48.1443C68.153 47.8845 68.2237 47.5478 68.1016 47.8493V47.9615C67.9636 48.3431 67.6874 49.4335 67.6939 49.1609C67.5751 49.767 67.6939 49.4335 67.8191 48.9941C67.6746 49.4976 67.5397 49.8856 67.4145 50.2769C67.2893 50.6681 67.1673 51.069 66.9843 51.5757C67.0581 51.4185 67.148 51.2838 67.0966 51.4442C66.9683 51.7781 66.8611 52.1198 66.7756 52.4672C66.7498 52.6991 66.687 52.9254 66.5893 53.1374C66.3132 53.6858 66.538 52.8841 66.1944 53.9071C65.9183 54.5068 66.0499 54.0001 66.1141 53.7435C66.0435 53.9808 65.9632 54.2021 65.8797 54.4138C65.7962 54.6254 65.6871 54.8114 65.594 54.991C65.4013 55.3502 65.2247 55.658 65.1027 55.9082L65.2889 55.4271C65.1766 55.7158 65.0706 55.9434 64.9678 56.1775L65.1573 55.9402C65.0912 56.1138 65.0004 56.2769 64.8876 56.4245C64.8009 56.7452 65.0995 56.2641 64.9036 56.8574C64.6789 57.1973 64.3546 57.9638 64.2004 58.0407C64.8426 56.9344 64.0431 58.1177 64.5215 57.1621C64.4134 57.3921 64.2922 57.6159 64.1587 57.8323C64.1298 57.8676 64.1587 57.7874 64.194 57.7104C63.5358 58.7334 64.0463 58.2652 63.4202 59.3588C63.4523 59.1952 63.173 59.5512 63.0734 59.734C63.3432 59.301 63.2821 59.5736 63.0734 59.9937C62.833 60.3564 62.6112 60.731 62.4088 61.1161L62.6849 60.7185C62.6397 60.8511 62.5793 60.9781 62.5051 61.0969C62.4088 61.2669 62.2868 61.4753 62.123 61.7094C62.062 61.7094 62.3959 61.2701 62.2643 61.4272C61.9817 61.9948 61.3556 62.524 60.9061 63.2744C60.6396 63.5951 60.8034 63.2455 60.569 63.5149C60.0135 64.3198 59.8433 64.291 59.2461 65.1183C59.4901 64.9388 59.5094 64.8842 59.1112 65.4967L60.1323 64.1434L59.5351 65.0606C59.8562 64.663 60.1772 64.1883 60.3795 63.9606C60.1034 64.4 60.1194 64.3487 60.3249 64.198C60.0685 64.4422 59.8402 64.7144 59.6442 65.0093C59.4385 65.3312 59.1949 65.6272 58.9186 65.8912L58.7934 65.7501C57.9072 66.5839 57.4416 67.4369 56.2568 68.4888L56.6421 68.1681C56.5458 68.3701 55.955 68.8576 55.6082 69.236C55.6082 69.159 55.3577 69.3642 55.1619 69.4765C55.2132 69.4925 54.2885 70.2301 54.2628 70.4193L53.6785 70.8202C52.6735 71.6027 52.6478 71.8592 51.6685 72.6032C51.9189 72.321 51.4533 72.6289 52.0698 72.0837C51.8496 72.2274 51.648 72.3976 51.4694 72.5904C51.2575 72.7026 50.5864 73.3055 50.2428 73.4723C50.0982 73.6554 49.9234 73.8127 49.7259 73.9373C49.6777 73.9565 49.7098 73.9116 49.7098 73.9116C49.7098 73.9116 49.1383 74.3542 49.5108 74.1842C48.7975 74.5356 48.105 74.9275 47.4365 75.3579C47.0737 75.592 46.6948 75.7876 46.3513 75.964C46.0523 76.1226 45.7434 76.2618 45.4265 76.3809C44.6591 76.8427 43.6734 77.2756 42.9413 77.6284C42.9799 77.5899 42.9413 77.5995 43.073 77.5418C42.0327 77.9587 42.5207 78.0004 41.307 78.4109C40.6648 78.5552 41.9171 78.1126 41.5253 78.2249C41.4033 78.1607 41.0501 78.3082 40.6167 78.4942C40.4015 78.5905 40.1704 78.6931 39.936 78.7861C39.7129 78.8699 39.483 78.9343 39.2488 78.9785L39.4447 78.9015C39.0631 78.9975 38.6895 79.123 38.3273 79.2767C37.8704 79.4744 37.3992 79.6374 36.9178 79.7642C36.9178 79.7642 36.9627 79.7321 36.9178 79.7321C36.5967 79.8764 36.0765 80.0528 35.5339 80.2131C35.2609 80.2933 34.9816 80.3927 34.7023 80.4537L33.8963 80.6396C34.1949 80.4953 34.3491 80.505 34.1404 80.4633C33.6876 80.5627 34.3009 80.5659 33.3986 80.7679C33.0936 80.784 32.4354 80.8737 32.3326 80.8032L33.1835 80.63C32.9196 80.6301 32.657 80.6667 32.4033 80.7391C32.1468 80.8048 31.8861 80.8531 31.623 80.8834L31.6712 80.8256C31.029 80.9219 30.6855 81.002 30.3419 81.0822C29.8778 81.1973 29.4036 81.2671 28.9259 81.2906L29.0768 81.3163C28.3062 81.4959 28.4347 81.3163 27.6448 81.4382L27.404 81.3195C27.1439 81.3388 26.6944 81.3901 26.1903 81.4285C25.6862 81.467 25.1307 81.4734 24.6683 81.4799C25.1949 81.3869 26.2737 81.3804 26.9448 81.281C26.4343 81.3163 25.211 81.2971 24.9445 81.358C25.1664 81.3367 25.3896 81.3313 25.6123 81.342C25.2503 81.3928 24.8859 81.4249 24.5206 81.4382C24.1064 81.4382 23.6441 81.4189 23.1335 81.3836C23.3326 81.1944 20.4942 81.0437 19.8039 80.6974C18.0218 80.4472 16.3329 79.8828 14.3936 79.1388C15.0036 79.6038 13.8317 78.9047 13.8734 79.1388C13.6532 79.0594 13.4386 78.9651 13.2312 78.8566C12.7945 78.6225 12.3803 78.3467 11.9469 78.0934C11.6643 77.8881 12.3771 78.2666 12.3579 78.2056C12.1399 78.1139 11.9365 77.9907 11.7542 77.84C11.6629 77.7268 11.5546 77.6283 11.4331 77.5482C11.5198 77.6829 11.0671 77.4456 10.5662 77.1121L11.2373 77.6059C9.90156 76.9357 10.2387 76.7946 8.9672 76.0249L9.38461 76.2462C8.89387 75.9105 8.42321 75.5465 7.97504 75.1559C7.6957 74.9474 7.44846 74.6973 7.21728 74.4953C7.0263 74.3225 6.82469 74.1619 6.61364 74.0142C6.53337 73.902 6.44667 73.7416 6.69391 73.9661C6.03594 73.2633 5.41744 72.5245 4.84124 71.7534C4.69675 71.5578 4.55548 71.3653 4.4142 71.1793C4.27292 70.9933 4.17659 70.7849 4.06421 70.5989C3.85596 70.256 3.66729 69.9016 3.4991 69.5374C3.53442 69.5727 3.56332 69.608 3.60185 69.64C3.41472 69.3556 3.25762 69.0525 3.13306 68.7357C3.15875 68.7357 3.2326 68.8383 3.17159 68.694C3.12343 68.617 3.01105 68.4214 2.88583 68.1905C2.76788 67.9577 2.67013 67.7153 2.59364 67.4658L2.77987 67.8089C2.63859 67.3824 2.50052 67.0136 2.36567 66.6769C2.23081 66.3402 2.13449 66.0195 2.01247 65.7148C1.89046 65.4102 1.79735 65.0991 1.68175 64.7784C1.56616 64.4577 1.50195 64.137 1.41204 63.7618C1.48589 63.7618 1.44736 63.3962 1.39599 62.9601C1.34461 62.524 1.29645 61.998 1.25471 61.6485L1.27719 61.6677C1.23544 61.4112 1.20655 61.1642 1.18407 60.9205C1.16159 60.6768 1.12949 60.4459 1.10059 60.2182C1.07169 59.9905 1.04279 59.766 1.01389 59.548C0.984997 59.3299 0.975365 59.1086 0.952889 58.9066C0.917569 58.4737 0.862984 58.0439 0.834087 57.6014C0.805189 57.1588 0.792345 56.7035 0.769869 56.2192C0.798767 55.9178 0.84693 55.5105 0.872617 55.0423C0.898304 54.5741 0.917569 54.0418 0.962521 53.487C1.02995 52.3742 1.14233 51.1748 1.28361 50.2127C1.2226 50.5046 1.17765 50.1518 1.20334 49.8087C1.28361 49.3597 1.2515 48.542 1.3703 48.6317L1.35104 48.7921C1.518 48.4714 1.61433 47.535 1.71386 46.8102L1.56616 46.6659C2.07669 44.8059 2.2854 41.6888 2.68996 40.6979C2.73171 40.2329 2.84409 39.6717 2.88904 39.2131L2.97252 39.2548C3.2326 38.0009 3.38993 37.382 3.70139 35.8299V36.1506C3.90688 35.2847 3.70139 34.9961 3.88441 34.1912L4.07385 33.9827C4.26008 33.2259 4.49447 32.4755 4.69996 31.7379C4.90546 31.0003 5.14627 30.2435 5.3004 29.4931C5.3004 29.5251 5.33572 29.5797 5.2715 29.8138C5.47699 29.1082 6.23476 27.1456 5.95862 27.338C6.071 27.3573 6.50768 25.834 6.74528 25.0227L6.78381 25.1766C6.88427 24.6069 7.04353 24.0492 7.25902 23.5122C7.35856 23.2974 7.40351 23.3487 7.25902 23.6309C7.58011 22.9222 7.40351 23.028 7.83698 22.1814L7.74386 22.5277C7.92757 22.1752 8.06362 21.8 8.14843 21.4117C8.3417 20.8931 8.61587 20.4082 8.96078 19.975C9.03415 19.636 9.1621 19.3111 9.33966 19.013C9.39746 18.9681 9.33966 19.1316 9.30434 19.215C9.62543 18.6281 9.87908 18.192 10.0717 17.7879C10.2527 17.3956 10.4732 17.0228 10.73 16.6752C10.7653 16.6752 10.8102 16.6335 10.8584 16.5725C10.563 17.0151 10.3414 17.4448 10.1681 17.7366C9.99468 18.0285 9.90156 18.1984 9.91761 18.1599C9.99146 18.2016 10.4249 17.4576 10.1873 18.1118C10.3318 17.7912 10.5084 17.3614 10.73 16.9253C10.948 16.5071 11.1892 16.1013 11.4524 15.7099C11.4785 15.6825 11.5064 15.6567 11.5359 15.6329L11.4974 15.7099C11.5991 15.5648 11.6903 15.4126 11.7703 15.2545C11.9244 15.0364 12.04 14.9082 12.1877 14.6997C12.5023 14.3469 12.7879 13.9694 13.0418 13.5709C12.9487 13.5452 13.2858 13.0963 12.9198 13.4811C12.9647 13.4298 12.8812 13.5549 12.7207 13.8018C12.6854 13.8563 12.6404 13.9172 12.6212 13.9557V13.9269C12.4606 14.1578 12.2487 14.4592 12.0047 14.8023C12.178 14.4563 12.3937 14.1332 12.6468 13.8403C12.7303 13.6286 12.8234 13.3945 12.8812 13.2662C13.3597 12.8269 14.1271 11.9963 14.2876 11.9226C15.0614 10.8611 16.3233 9.61681 16.8113 8.93054C16.9426 8.78963 17.1039 8.68003 17.2833 8.60985C17.1356 8.76698 16.943 8.93054 16.8723 9.02995C17.1388 8.76698 17.537 8.38857 17.8966 8.06788C18.1579 7.86808 18.3921 7.63524 18.5934 7.3752C19.3704 6.83965 18.2434 7.78568 19.2516 6.97754L19.136 7.11223C20.1988 6.41313 21.0015 5.77176 21.8781 5.14641C22.84 4.43065 23.8982 3.85413 25.0215 3.43394C24.9191 3.48187 24.8113 3.5174 24.7004 3.53977C26.1928 2.8589 27.725 2.26883 29.2887 1.77277C30.8414 1.27498 32.4491 0.968062 34.0761 0.858811C34.5925 0.825159 35.1056 0.752258 35.6109 0.640743L35.81 0.727329C36.1311 0.676019 36.4329 0.631123 36.7476 0.602261C37.3719 0.577818 37.9968 0.626249 38.6099 0.74657C38.931 0.804294 39.2328 0.862018 39.5731 0.903708C39.9494 0.969678 40.3288 1.01677 40.7098 1.04481L40.5139 0.961432C40.8125 1.00953 41.2813 1.11536 41.6666 1.18912C42.0519 1.26288 42.3377 1.37191 42.2799 1.39115C42.4274 1.3871 42.574 1.41443 42.7102 1.47133V1.52584C42.9542 1.57715 43.1918 1.65091 43.4326 1.71184C43.6734 1.77277 43.9142 1.83691 44.1486 1.91708C44.6816 2.14798 44.6206 2.17684 44.6206 2.23777C44.6206 2.2987 44.6945 2.3468 45.449 2.70598L46.4604 3.11646C46.7815 3.24153 46.9999 3.31528 46.9035 3.24473C46.682 3.12287 46.3481 2.92404 46.3545 2.85991L46.8746 3.10684C47.0384 3.02346 47.5168 3.10684 46.2935 2.33718C45.9724 2.20891 45.6513 2.10629 45.3463 1.99084L45.0798 1.79201L45.8536 2.13836C45.5347 1.93511 45.1809 1.79267 44.8101 1.71826C44.7033 1.62106 44.5805 1.54296 44.4472 1.48736C44.1261 1.40719 43.805 1.34946 43.484 1.29495C43.3876 1.20195 43.9399 1.3206 43.3202 1.08329C42.8611 1.00312 43.7023 1.34626 42.9638 1.15064C42.7054 0.99039 42.415 0.888593 42.1129 0.852398C42.0455 0.794674 42.1675 0.801088 42.3859 0.852398C41.8713 0.72506 41.3473 0.639267 40.819 0.595847C40.4897 0.495836 40.1539 0.418687 39.814 0.364951C39.464 0.313641 39.1718 0.284779 39.2103 0.214228C39.13 0.214228 38.9085 0.214228 38.6484 0.214228C38.3883 0.214228 38.0929 0.214228 37.8617 0.214228C38.2856 0.153297 37.8617 0.121228 37.348 0.0987801C36.8343 0.0763319 36.2563 0.0795388 36.3655 -0.0102539C35.8723 0.0802563 35.3734 0.137043 34.8724 0.159711C34.5513 0.19178 34.2303 0.214228 33.9092 0.259124C33.5881 0.304021 33.2927 0.355331 33.023 0.409848C33.1111 0.377697 33.2027 0.356165 33.2959 0.34571C32.6762 0.406641 32.4964 0.416262 32.0983 0.44833C32.0372 0.573399 31.1029 0.801087 30.618 0.9935C29.8539 1.06405 31.029 0.740157 30.7722 0.672812C30.8235 0.775432 29.5392 1.12178 29.7961 1.13781C29.5322 1.20083 29.2614 1.22993 28.9901 1.2244C28.9388 1.40719 28.4764 1.39436 28.0558 1.65091C27.2402 1.85615 27.7989 1.56753 26.9512 1.94274C26.5242 2.05498 27.2723 1.70543 27.2723 1.70543ZM10.8648 15.5848L11.0992 15.2032L10.8648 15.5848ZM9.90156 17.1434C10.0172 16.951 10.1456 16.7072 10.3093 16.4635C10.3703 16.425 10.3607 16.4988 10.258 16.6527C10.2965 16.5565 10.0621 16.9189 9.90798 17.1434H9.90156ZM12.512 14.2572C12.4445 14.3792 12.3553 14.4879 12.2487 14.5779C12.3226 14.4656 12.4125 14.3373 12.528 14.1674V14.1321C12.5339 14.1749 12.5318 14.2184 12.5216 14.2604L12.512 14.2572Z" fill="#171717"/>
<path d="M12.7214 13.7897L12.7824 13.6902L12.6668 13.8153L12.6315 13.9147L12.7214 13.7897Z" fill="#171717"/>
<path d="M68.6032 27.2586V27.2971C68.6032 27.265 68.6032 27.2362 68.6032 27.2169C68.6049 27.2308 68.6049 27.2448 68.6032 27.2586Z" fill="#171717"/>
<path d="M1.83337 40.8846L1.85585 40.8878L1.86227 40.7275L1.83337 40.8846Z" fill="#171717"/>
<path d="M65.691 17.7021C65.6853 17.6579 65.6734 17.6147 65.6557 17.5738C65.6626 17.6177 65.6745 17.6608 65.691 17.7021Z" fill="#171717"/>
<path d="M63.6007 13.8923L63.2797 13.3632C63.4177 13.5973 63.5173 13.7608 63.6007 13.8923Z" fill="#171717"/>
<path d="M61.7031 11.1376C61.6813 11.1226 61.6558 11.1137 61.6293 11.1119L61.7031 11.1376Z" fill="#171717"/>
<path d="M63.0581 61.2163L62.9939 61.3285C62.8462 61.5947 62.9521 61.4183 63.0581 61.2163Z" fill="#171717"/>
<path d="M68.8537 46.5896C68.8376 46.7564 68.8216 46.9103 68.7959 47.0963C68.8601 46.8205 68.9019 46.6056 68.8537 46.5896Z" fill="#171717"/>
<path d="M50.8376 73.9059L50.7477 73.9669L50.8376 73.9059Z" fill="#171717"/>
<path d="M68.6096 47.805C68.6876 47.5732 68.7498 47.3365 68.7959 47.0963C68.7317 47.3176 68.6546 47.5773 68.6096 47.805Z" fill="#171717"/>
<path d="M50.1954 2.53352L50.0413 2.479C50.0413 2.479 50.0413 2.479 50.0188 2.479L50.1954 2.53352Z" fill="#171717"/>
<path d="M50.0188 2.48542L49.8454 2.43732C49.9015 2.45892 49.9596 2.47503 50.0188 2.48542Z" fill="#171717"/>
<path d="M49.4794 2.33783L49.8454 2.43724C49.728 2.38918 49.605 2.35579 49.4794 2.33783Z" fill="#171717"/>
<path d="M54.2218 4.42873H54.2828C54.2733 4.42394 54.2629 4.42145 54.2523 4.42145C54.2417 4.42145 54.2312 4.42394 54.2218 4.42873Z" fill="#171717"/>
<path d="M55.368 5.14705C55.1015 4.96747 54.7259 4.65319 54.3309 4.42871H54.2828C54.4883 4.48964 55.0823 5.0284 55.368 5.14705Z" fill="#171717"/>
<path d="M59.3688 9.06594C59.1312 8.78053 58.8551 8.53039 58.595 8.26422C58.7138 8.42457 58.8647 8.63301 58.4922 8.28988C59.4266 9.33853 58.351 8.01729 59.3688 9.06594Z" fill="#171717"/>
<path d="M61.5811 11.7212C61.2118 11.2498 61.5458 11.7565 61.5104 11.7436C61.7641 12.029 61.8251 12.0964 61.5811 11.7212Z" fill="#171717"/>
<path d="M69.5087 35.0128L69.4252 34.9551C69.4509 35.4169 69.4573 34.9551 69.5087 35.0128Z" fill="#171717"/>
<path d="M69.8779 39.8167L69.9646 39.3678C69.9454 39.294 69.9293 39.2202 69.9036 39.1465C69.9004 39.371 69.8844 39.5922 69.8779 39.8167Z" fill="#171717"/>
<path d="M69.0238 42.5779L69.0399 42.379L68.9628 43.1423L69.0238 42.5779Z" fill="#171717"/>
<path d="M46.2589 75.8044L46.429 75.8268C46.6955 75.6633 46.6987 75.535 46.2589 75.8044Z" fill="#171717"/>
<path d="M29.1 81.1854C28.7603 81.1492 28.417 81.1654 28.0822 81.2336C28.4868 81.2079 28.8977 81.2143 29.1 81.1854Z" fill="#171717"/>
<path d="M1.83339 45.7815L1.81091 46.1471L1.88797 45.4641L1.83339 45.7815Z" fill="#171717"/>
<path d="M57.301 46.0477C57.301 45.9354 57.2721 45.6885 57.2079 45.727V46.1567L57.301 46.0477Z" fill="#171717"/>
<path d="M56.7327 45.3165C56.6428 45.6297 56.6329 45.9605 56.7038 46.2785C56.7455 45.8648 56.784 46.0316 56.8258 45.5377C56.89 45.48 56.9639 45.6596 56.9703 45.8167C56.9703 45.7077 57.0891 45.9001 57.1019 45.6307C56.9735 45.3101 56.8547 45.3101 56.7584 45.5955C56.7334 45.5047 56.7247 45.4103 56.7327 45.3165Z" fill="#171717"/>
<path d="M49.6463 45.2876L49.6977 45.3357C49.6928 45.3246 49.6857 45.3147 49.6769 45.3064C49.6681 45.2982 49.6577 45.2918 49.6463 45.2876Z" fill="#171717"/>
<path d="M45.2731 45.3454C45.3052 45.3454 45.3148 45.2909 45.3148 45.2524C45.2924 45.2813 45.2731 45.3102 45.2731 45.3454Z" fill="#171717"/>
<path d="M44.5089 44.9221C44.5089 44.9221 44.541 44.9221 44.5539 44.9477C44.5346 44.8964 44.5185 44.8964 44.5089 44.9221Z" fill="#171717"/>
<path d="M49.6463 45.2877L49.5211 45.1626C49.5243 45.3037 49.5885 45.262 49.6463 45.2877Z" fill="#171717"/>
<path d="M55.869 46.4357C55.8946 46.4 55.9131 46.3598 55.9235 46.3171C55.9059 46.3359 55.8866 46.3531 55.8658 46.3684L55.869 46.4357Z" fill="#171717"/>
<path d="M51.5375 44.7907H51.5728C51.5728 44.7426 51.5728 44.6848 51.5728 44.6175L51.5375 44.7907Z" fill="#171717"/>
<path d="M53.0017 44.6014C52.9663 44.6014 53.0017 44.9477 53.0017 45.1049C52.9939 45.0172 53.0118 44.9292 53.053 44.8515C53.0338 44.7842 53.0209 44.704 53.0017 44.6014Z" fill="#171717"/>
<path d="M55.3906 45.0119L55.4291 44.9573C55.4195 44.9766 55.4002 44.9926 55.3906 45.0119Z" fill="#171717"/>
<path d="M50.4779 44.8001C50.4727 44.757 50.4652 44.7142 50.4554 44.6719C50.4595 44.7152 50.4671 44.758 50.4779 44.8001Z" fill="#171717"/>
<path d="M33.5406 22.7048H33.6016C33.5695 22.7016 33.5438 22.692 33.5406 22.7048Z" fill="#171717"/>
<path d="M35.6405 21.3547V21.3804L35.8364 21.4253L35.6405 21.3547Z" fill="#171717"/>
<path d="M43.1283 44.5309C43.1668 44.4956 43.1475 44.5052 43.1283 44.5309V44.5309Z" fill="#171717"/>
<path d="M34.4461 44.3801C34.125 44.5116 34.0383 44.1396 33.6755 44.3449C33.8168 44.3288 34.2342 44.5501 34.4461 44.3801Z" fill="#171717"/>
<path d="M55.824 46.3909C55.804 46.3958 55.783 46.3958 55.763 46.3909C55.7919 46.4101 55.8112 46.4069 55.824 46.3909Z" fill="#171717"/>
<path d="M33.6755 44.3448L33.6402 44.364L33.6755 44.3448Z" fill="#171717"/>
<path d="M40.0105 44.8964C40.0181 44.9499 40.031 45.0025 40.0491 45.0535C40.0427 44.9997 40.0297 44.947 40.0105 44.8964Z" fill="#171717"/>
<path d="M42.3641 45.3005L42.3063 45.2524C42.3198 45.2743 42.3401 45.2912 42.3641 45.3005Z" fill="#171717"/>
<path d="M38.8161 45.4352C38.7839 45.4095 38.7711 45.3582 38.7294 45.4095C38.7284 45.4245 38.7284 45.4395 38.7294 45.4544C38.7583 45.4031 38.7775 45.3807 38.8161 45.4352Z" fill="#171717"/>
<path d="M37.567 45.4768C37.5736 45.501 37.5822 45.5246 37.5927 45.5474L37.6312 45.5281L37.567 45.4768Z" fill="#171717"/>
<path d="M33.0429 26.5723C33.1499 26.5662 33.2571 26.5662 33.364 26.5723C33.1168 26.5435 33.0718 26.3446 33.0429 26.5723Z" fill="#171717"/>
<path d="M55.8465 46.2337C55.8523 46.2871 55.8446 46.3412 55.824 46.3908L55.8626 46.3684C55.8652 46.3229 55.8598 46.2773 55.8465 46.2337Z" fill="#171717"/>
<path d="M38.8514 48.2797L38.6459 48.2316C38.7083 48.2672 38.7797 48.2839 38.8514 48.2797Z" fill="#171717"/>
<path d="M31.9673 35.6991L31.9288 35.6478C31.9191 35.667 31.9288 35.683 31.9673 35.6991Z" fill="#171717"/>
<path d="M38.0519 48.3054C38.0296 48.2152 37.988 48.131 37.9299 48.0585C37.9207 48.0888 37.9142 48.1199 37.9106 48.1515L38.0519 48.3054Z" fill="#171717"/>
<path d="M32.7508 25.1035C32.7058 25.2927 33.1907 25.2703 33.4539 25.3569C33.5471 25.607 33.0911 25.405 32.8375 25.4403C32.937 25.6038 33.348 25.7866 33.3127 25.8892C33.2439 25.8944 33.1749 25.8845 33.1104 25.8604C33.4604 26.072 33.059 26.3125 33.4989 26.5627C33.4584 26.5674 33.4174 26.5674 33.3769 26.5627C33.5924 26.5724 33.807 26.597 34.0191 26.6364C34.0191 26.723 34.2888 26.8417 33.9773 26.8256C33.9966 26.7743 33.8714 26.7519 33.7815 26.7134L33.9003 26.8224C33.4475 26.8224 33.7654 26.6749 33.4411 26.6236C33.5567 26.8224 33.8874 27.0822 33.7429 27.1976C33.3062 27.1591 33.6466 26.8769 33.2356 26.9796L33.4347 26.8C32.7283 26.8513 33.5021 26.6813 32.7508 26.7102C32.5838 26.9667 32.9209 27.0533 32.7508 27.3067C32.9787 27.4061 33.1072 27.3419 33.3384 27.4381C33.714 27.8999 32.2178 27.5792 32.7508 27.9577C33.0269 28.0731 33.5695 28.1821 33.2517 28.3425L32.7732 28.2014C32.6833 28.4611 33.4507 28.4547 33.0943 28.6856C32.9113 28.6087 32.9659 28.4547 32.9017 28.4836C32.4875 28.6087 33.1585 28.6535 33.1393 28.8043L32.7026 28.769C32.7283 29.064 33.0012 29.4104 33.0237 29.7311C32.9018 29.6693 32.7624 29.6512 32.6288 29.6798C32.7925 30.1031 32.4586 30.5167 32.1568 30.8663L32.5132 31.0619C32.5132 31.094 32.3366 31.1036 32.2691 31.0619C32.1086 31.1934 32.5035 31.1004 32.6448 31.1902C32.6448 31.2768 32.4136 31.2768 32.3237 31.2094C32.6095 31.5109 32.9177 32.0368 32.4843 32.2677L32.3783 32.2004C32.2017 32.3992 33.12 32.5211 32.7476 32.691L32.6865 32.6461C32.4746 33.0951 32.7572 33.6467 32.1568 33.9289C32.6898 34.0507 31.871 34.3714 32.6223 34.474C32.221 34.7049 32.0925 34.6151 31.8068 34.9679C31.7618 35.0673 32.2627 35.1635 32.3301 35.2886L31.9352 35.2565L32.3334 35.4618L31.8549 35.5099L31.9448 35.6349C31.9877 35.6046 32.0362 35.5834 32.0876 35.5723C32.1389 35.5613 32.1919 35.5608 32.2434 35.5708C32.4072 35.7664 31.9224 35.9909 31.7265 35.9781L32.0251 36.4399C31.9101 36.4157 31.8049 36.3576 31.7233 36.2731C32.1054 36.5393 31.3027 36.2731 31.6527 36.5232C31.7614 36.5208 31.8698 36.536 31.9737 36.5681C31.9239 36.5848 31.8786 36.6126 31.8411 36.6493C31.8036 36.6861 31.775 36.7308 31.7574 36.7803C31.7397 36.8297 31.7336 36.8824 31.7394 36.9346C31.7451 36.9867 31.7627 37.0369 31.7907 37.0812L31.521 37.0267C31.4279 37.3474 31.6013 37.713 31.5692 38.0754C31.7072 37.9535 32.176 38.0176 32.2113 38.1267L31.7875 38.162C32.0412 38.2453 31.9513 38.0625 32.2595 38.2229C32.2017 38.3544 31.7779 38.2806 31.6462 38.194L31.7811 38.3672C31.6644 38.3535 31.5486 38.3332 31.4343 38.3063C31.688 38.3896 30.9944 38.5596 31.4343 38.6879H31.3123C31.33 38.9669 31.3665 39.2444 31.4215 39.5185C31.7811 39.5441 31.6944 39.6564 31.9802 39.759C31.8517 39.9674 31.5531 40.1919 31.5724 40.4549C31.7426 40.6473 31.8774 40.5222 32.0861 40.6152C31.765 40.6152 31.765 40.875 31.5467 40.7275C31.5632 41.0195 31.6647 41.3004 31.8389 41.5356C31.9769 41.5003 32.038 41.4522 32.16 41.4843C32.2113 41.558 32.0155 41.6414 31.8581 41.6222L31.7875 41.5933C32.2627 42.0551 30.7921 42.5778 31.4664 42.9562L31.4343 42.937L31.7875 43.3154C31.7233 43.479 31.5435 43.2064 31.3348 43.3154C31.8742 43.7259 31.2385 43.9376 31.5981 44.2775C31.4997 44.2971 31.4054 44.3329 31.3187 44.3833C31.2509 44.4489 31.2031 44.5323 31.1807 44.6238C31.1388 44.8248 31.1388 45.0322 31.1807 45.2331C31.2352 45.6564 31.3348 46.022 31.0201 46.4934L31.2513 46.3427C31.4728 46.3812 31.1164 46.5961 31.0619 46.7532C31.2417 46.6313 31.2706 46.4678 31.3829 46.4934C31.4453 46.7971 31.4616 47.1085 31.4311 47.417C31.4311 47.587 31.3958 47.7666 31.3669 47.9558L31.3444 48.1001C31.3444 48.1225 31.3444 48.1578 31.3444 48.1674H31.3958L31.6013 48.2155C32.2139 48.4001 32.8382 48.5437 33.47 48.6453C33.7397 48.6741 33.9099 48.3759 34.0544 48.1386C34.1989 47.9013 34.3177 47.7281 34.5649 47.9975C34.4878 48.1386 34.4076 48.2829 34.3209 48.424C34.5699 48.3076 34.8351 48.2298 35.1075 48.1931C35.2483 48.167 35.3917 48.1584 35.5346 48.1674C35.8299 48.216 36.1324 48.1457 36.3758 47.9718C36.3469 48.0712 36.3469 48.1963 36.2923 48.1963C36.4176 48.5009 36.7226 48.1963 36.7194 47.9494C36.8061 47.9782 36.7451 48.1771 36.7997 48.3021C36.9217 48.4817 37.0822 47.9045 37.1529 48.2091C37.1529 48.2572 37.1207 48.3085 37.1015 48.3342C37.1721 48.1835 37.4547 48.3631 37.3744 48.0135C37.5863 48.1771 37.7629 47.8435 37.9331 48.0488C38.0294 47.6479 38.2927 48.2284 38.3088 47.6672C38.3088 48.2476 38.6844 48.1257 38.8065 47.8467C38.7679 48.0231 38.9253 48.0263 38.8835 48.2701C39.0312 48.2701 39.1661 48.145 39.1275 47.8467C39.4261 48.533 39.6605 47.2695 39.8468 48.1674C40.2186 47.8758 40.6292 47.6372 41.0669 47.4587C41.0669 48.0392 40.6302 47.5357 40.672 48.1418C41.0412 47.8884 41.2371 47.3817 41.616 47.5004C41.7155 47.5742 41.571 47.7537 41.5421 47.8532C41.9081 47.5998 42.271 47.8756 42.5921 47.5325C42.5882 47.5914 42.5657 47.6475 42.5278 47.6928C42.5953 47.6704 42.6852 47.7698 42.6659 47.51L42.6049 47.5838C42.4829 47.2086 42.8297 46.7756 42.8297 46.5736C42.7558 47.3304 43.17 46.7468 43.0384 47.7056C43.1043 47.6006 43.1295 47.4751 43.109 47.3529C43.1764 47.401 43.2021 47.5004 43.1475 47.7056C43.3755 47.5485 43.276 47.2759 43.4911 47.2695C43.4825 47.3774 43.4664 47.4845 43.4429 47.5902C43.5393 47.3368 43.6324 47.0835 43.8186 47.1797C43.8186 47.2567 43.8379 47.3561 43.7865 47.3593C44.1076 47.3016 44.2778 46.6698 44.631 46.8911C44.5603 47.4491 44.7562 47.0643 44.8011 47.5325L44.9777 47.3817L44.891 47.1509C45.0516 47.1509 45.1736 46.7949 45.3181 46.9424L45.2121 47.1476L45.5075 47.0386L45.3245 46.8686C45.4722 46.6121 45.2731 46.2658 45.4947 46.3844C45.4529 46.4357 45.6552 46.3844 45.7548 46.657C45.8222 46.4999 45.896 46.3363 46.0213 46.4453C46.0598 46.5961 46.0213 46.9745 46.0534 47.0867C46.1079 46.6826 46.4226 46.952 46.4933 46.5191C46.4719 46.6529 46.4719 46.7893 46.4933 46.9232L46.5382 46.6025C46.6185 46.7019 46.6313 46.75 46.6345 46.952C46.8593 46.9969 46.5254 46.3491 46.8047 46.5929C46.7854 46.6217 46.8047 46.6698 46.7598 46.7211C47.0327 46.8398 47.2574 46.4806 47.5143 46.6249C47.6171 47.0995 47.3088 46.7564 47.418 47.1573C47.7648 47.045 48.1083 46.5159 48.4551 46.6217L48.3877 46.5736C48.3877 45.8905 48.6638 46.8943 48.8147 46.5736C48.7876 46.6728 48.7799 46.7762 48.7922 46.8783C49.033 46.9681 49.2578 46.6762 49.5949 46.4357L49.5628 46.6153C49.7137 46.7596 49.9321 46.6762 50.0862 46.7436C50.1183 46.5672 50.205 46.5896 50.1344 46.3395C50.6706 47.3016 50.9628 45.7398 51.4348 46.5319C51.3866 46.5319 51.332 46.6955 51.3706 46.6923L51.6916 46.5031C51.6371 46.208 51.6306 46.3267 51.5375 46.1022C51.5664 45.9226 51.6531 45.7815 51.7398 45.7815C51.6017 45.99 51.7815 46.2561 51.8618 46.4229C51.8426 46.3331 51.8618 46.2305 51.8426 46.1407C52.0673 46.6506 51.8233 45.5442 52.0994 45.8745V46.0316C52.1861 45.9451 52.2535 45.7334 52.3563 45.7687C52.4269 46.0894 52.2696 45.9354 52.2889 46.2176C52.4269 46.1856 52.5072 45.5474 52.6645 45.8777C52.6132 45.9771 52.5265 45.9868 52.4783 46.0862C52.6485 46.4742 52.6549 46.3716 52.7641 46.4261L53.0145 46.5864L52.9471 46.4806C53.0402 45.5763 53.2874 46.2882 53.4705 45.6821C53.2906 46.2561 53.4705 46.0028 53.4705 46.394C53.5411 46.4966 53.6438 46.6089 53.6278 46.7147C53.7113 46.394 53.8365 46.9456 53.9489 46.4742C53.9681 46.5993 54.0677 46.4742 54.0741 46.7949C54.209 46.6826 54.0195 46.58 54.0163 46.4229C54.1993 45.9771 54.591 46.8879 54.8543 46.2754C55.108 46.0092 55.1176 45.5827 55.352 45.3486C55.3795 45.4232 55.3913 45.5027 55.3869 45.5821C55.3825 45.6615 55.3619 45.7392 55.3263 45.8104C55.4837 45.9803 55.5864 45.9354 55.7052 45.7815C55.7006 45.8931 55.7261 46.0039 55.7791 46.1022C55.8818 46.0605 55.8048 45.6436 55.9621 45.8136C55.9564 45.9847 55.9382 46.1551 55.9075 46.3235C56.0199 46.1952 56.1194 45.9515 56.2286 45.8264C56.2864 46.0381 56.1836 46.1631 56.1547 46.3074C56.2594 46.2491 56.3475 46.1653 56.4109 46.0639C56.4744 45.9624 56.5111 45.8465 56.5176 45.727L56.4116 45.6115C56.463 45.5923 56.4694 45.9034 56.4373 45.9707C56.341 46.2529 56.2479 45.8713 56.2286 45.7462L56.3121 45.6564C56.1419 44.9381 55.9557 45.8136 55.7662 45.7879L55.7887 45.2492L55.6442 45.711C55.5896 45.5763 55.535 45.2812 55.6153 45.1947C55.458 44.9445 55.519 45.3935 55.3777 45.1113C55.3708 45.0967 55.3673 45.0809 55.3673 45.0648C55.3673 45.0487 55.3708 45.0328 55.3777 45.0183L55.2653 45.1882C55.2653 45.076 55.2075 44.8162 55.2942 44.8868C55.0309 44.6014 54.9731 45.3197 54.8319 44.9253L54.8479 44.8932C54.5461 45.1017 54.8479 45.2844 54.6585 45.7655L54.4048 44.8194V45.2107C54.3695 45.2107 54.3021 45.1786 54.2989 45.0215C54.2025 45.3005 54.3374 45.1882 54.2989 45.448C54.1062 45.1081 53.875 45.6532 53.7787 45.0375C53.7498 45.339 53.9553 45.2524 53.8012 45.4737C53.692 44.8098 53.6149 45.6051 53.4416 45.3133C53.4416 44.9638 53.6085 45.1337 53.4416 44.8387C53.4095 45.4288 53.1494 44.7361 53.037 44.8579C53.0723 45.3229 52.7865 45.076 52.5939 45.2492C52.5939 45.092 52.1829 45.0279 51.9774 44.8772V44.797C51.9774 45.2716 51.7751 45.1979 51.6371 45.3069C51.6064 45.1288 51.6299 44.9456 51.7045 44.781H51.5696C51.5703 44.8378 51.5583 44.8941 51.5344 44.9457C51.5105 44.9973 51.4754 45.0429 51.4316 45.0792V44.7264C51.255 44.7585 51.1105 45.169 50.8536 44.9541C50.8536 45.2748 51.1137 45.8489 50.8857 46.0894C50.8432 45.9058 50.8432 45.7149 50.8857 45.5314C50.8664 45.557 50.8215 45.6853 50.7733 45.6115L50.8472 45.3069C50.7316 45.185 50.8119 45.5602 50.7252 45.5378C50.7091 45.2877 50.6481 45.3646 50.6449 45.1626C50.6642 45.1369 50.7284 45.262 50.7509 45.1626C50.6816 45.1242 50.621 45.0719 50.5729 45.009C50.5249 44.946 50.4903 44.8739 50.4715 44.797C50.4908 44.9381 50.5004 45.1369 50.433 45.1754C50.2532 45.2075 50.3463 44.874 50.2307 44.7553C50.2018 44.9317 50.0734 44.7553 50.0991 45.1369C50.0477 45.1369 50.022 44.9638 49.9963 44.8643C49.916 45.0375 49.5628 44.9445 49.6977 45.339L49.7234 45.3646V45.3806C49.4472 45.7815 49.0812 45.2139 48.7794 45.3806V45.2556C48.6092 45.4127 48.3812 45.371 48.2721 45.65C48.2175 45.65 48.1276 45.4288 48.1404 45.278C48.0088 45.3839 48.0024 45.525 47.7904 45.3293C47.9125 45.0984 47.7262 45.1369 47.9221 45.1594C47.7326 45.0632 47.6781 44.8611 47.5079 45.2203C47.5528 44.8996 47.3473 44.8227 47.2671 44.9253L47.4083 45.1465C47.3665 45.1656 47.3211 45.1755 47.2751 45.1755C47.2291 45.1755 47.1837 45.1656 47.1418 45.1465L47.1611 44.7168C46.7598 44.223 46.5543 45.6436 46.2203 44.7906C46.1401 45.1113 46.4322 44.9894 46.368 45.3422C46.1946 45.2973 45.9795 44.7008 45.9281 44.7008C45.6809 44.4795 45.7483 45.3422 45.4979 45.1882C45.5364 45.339 45.591 45.743 45.4176 45.897C45.2442 45.8521 45.1704 45.2716 45.2699 45.1433C45.3117 45.1433 45.3341 45.1754 45.3341 45.2267C45.3749 45.1918 45.4017 45.1433 45.4093 45.0903C45.417 45.0372 45.4051 44.9831 45.3759 44.9381V45.092C45.2828 44.9413 45.0548 44.9734 45.0933 44.72C45.0707 44.7427 45.054 44.7705 45.0445 44.801C45.0349 44.8316 45.0329 44.8639 45.0386 44.8954C45.0443 44.9269 45.0575 44.9565 45.077 44.9818C45.0966 45.0071 45.122 45.0273 45.1511 45.0407C44.9231 44.8355 44.8108 45.0407 44.5796 44.9189C44.6213 45.0022 44.6631 45.1786 44.6277 45.1786C44.3067 45.0087 44.4993 45.4737 44.281 45.5538C44.1397 45.3293 44.281 44.9958 44.0819 45.2043C43.9374 45.0536 44.0305 44.8002 44.0819 44.6751C43.8957 44.9798 43.6934 44.502 43.5746 44.4539L43.6741 44.3256C43.6557 44.3523 43.6306 44.3738 43.6013 44.3879C43.572 44.4019 43.5396 44.4081 43.5072 44.4058L43.5842 44.7072C43.52 44.6559 43.4654 44.6591 43.4622 44.5308C43.4044 44.7329 43.536 45.0343 43.4205 45.3133C43.3306 45.1626 43.1732 45.4929 43.1251 45.0888C43.3948 45.2139 43.0737 44.6848 43.2952 44.611C43.2535 44.6591 43.2021 44.6623 43.1347 44.611C43.1276 44.5731 43.1357 44.534 43.1572 44.502C42.8875 44.1556 43.0641 44.9638 42.8008 44.967C42.8232 44.7393 42.7205 44.5404 42.6787 44.5885C42.7847 44.5885 42.7494 44.967 42.6595 45.1465C42.4829 44.9766 42.4829 45.2877 42.393 45.2716L42.4989 45.3486C42.4765 45.5763 42.3898 45.5506 42.2742 45.6276C42.2742 45.4512 42.3769 45.5025 42.332 45.4255C42.2196 45.8328 42.0109 45.0279 41.8471 45.3037C41.7572 45.153 41.8214 44.8772 41.7444 44.7745C41.5517 45.0792 41.51 44.4731 41.3077 44.7264C41.3816 45.0279 41.388 44.9541 41.2499 45.2588L41.5935 45.0279L41.388 45.4833C41.4939 45.4833 41.6031 45.2812 41.6673 45.3293C41.571 45.5827 41.5806 45.5057 41.6416 45.7591C41.4747 45.3069 41.3655 46.0381 41.1825 45.7366L41.1568 44.9766C40.8903 44.6559 40.7233 45.3871 40.3894 45.2075L40.4986 45.3358C40.4665 45.6372 40.2995 45.3839 40.1968 45.5121C40.1932 45.3388 40.1527 45.1683 40.078 45.0119C40.078 45.2011 39.8371 45.0119 39.8243 45.5089L39.667 45.1882C39.3972 45.06 39.3908 45.9194 39.134 45.8296C39.2014 45.5538 39.0794 45.3774 39.2431 45.1882C39.1564 45.1882 39.0794 45.1433 39.0858 45.3197C39.028 45.1626 38.861 45.6693 38.7647 45.432C38.7326 45.5442 38.7294 45.8072 38.6331 45.7911C38.6267 45.7497 38.6267 45.7075 38.6331 45.6661C38.6331 45.7911 38.4886 45.8392 38.5817 46.1182C38.2959 45.3358 37.8496 46.1984 37.6184 45.525C37.4386 45.6185 37.246 45.6855 37.0469 45.7238C37.0469 45.65 37.0469 45.5987 37.0758 45.6244C36.8382 45.3935 36.9506 46.3555 36.6809 46.099C36.5332 45.6917 36.8157 45.8745 36.7258 45.7206C36.6712 44.8868 36.4047 45.8424 36.2217 45.3582L36.2634 45.3101C36.1222 45.0311 35.9424 45.6308 35.7144 45.5763C35.7197 45.5347 35.7197 45.4927 35.7144 45.4512C35.6599 45.6045 35.5749 45.7451 35.4645 45.8647C35.3542 45.9843 35.2207 46.0804 35.0722 46.1471C35.1236 45.8264 35.1621 45.9707 35.114 45.6404C35.0273 45.6917 35.1493 46.1728 34.9791 46.2818C34.8904 46.0646 34.8605 45.8279 34.8924 45.5955L34.9919 45.5731C34.9919 45.3454 34.963 45.3486 34.9309 45.4031C34.8988 45.4576 34.8475 45.5538 34.8314 45.5121L34.8796 45.3133C34.764 45.3807 34.5585 45.8873 34.3851 45.8521L34.3305 46.006C34.1475 46.2561 34.1475 46.1856 34.17 46.099C34.1924 46.0124 34.231 45.9098 34.0544 46.099C34.1475 45.929 34.247 45.7591 34.3466 45.5891C34.2303 45.6974 34.1081 45.7991 33.9805 45.8938C33.8335 46.0075 33.6741 46.1043 33.5053 46.1824C33.942 45.8008 34.2246 45.6051 34.4397 45.3806C34.3947 45.3806 34.2631 45.4191 34.003 45.6725C34.0704 45.6244 34.2021 45.4993 34.1603 45.5763C33.9983 45.7457 33.8185 45.8973 33.6241 46.0284C33.5576 46.0732 33.4866 46.1108 33.4122 46.1407C33.3737 46.1599 33.3737 46.1407 33.3673 46.1407C33.3637 46.1227 33.3637 46.1042 33.3673 46.0862C33.8681 45.6244 33.9292 45.4865 33.9677 45.3774C34.0062 45.2684 34.0094 45.153 34.3979 44.8964C34.2149 44.9445 34.2534 44.8291 34.3337 44.7361C34.414 44.6431 34.5296 44.5693 34.5007 44.5116C33.7333 44.611 34.4782 44.4699 33.6948 44.4827C33.6466 44.4058 33.6594 44.348 33.7108 44.348L34.186 44.053C34.4172 43.9857 34.3594 44.1524 34.536 44.1492C34.6002 43.9279 34.8571 44.0658 35.0819 43.9247C34.7993 43.9472 34.6805 43.8381 34.7929 43.7163L34.4268 43.8798C34.0158 43.5591 35.0883 43.6329 34.6869 43.3122L34.9309 43.418C34.7897 43.2545 34.9566 42.8344 34.3305 42.6548C34.4236 42.6291 34.6516 42.6003 34.6933 42.6708C34.8025 42.2956 34.0512 41.7986 34.4589 41.5164L34.6484 41.5548C34.597 41.4811 34.292 41.4137 34.4911 41.3368C34.5713 41.3368 34.6805 41.372 34.6933 41.3368C34.6291 41.2983 34.3723 41.1315 34.4846 41.0449L34.6965 41.1347C34.9663 40.7788 34.1957 40.5383 34.0833 40.2176C34.2494 40.2431 34.4193 40.2201 34.5726 40.1512C34.7259 40.0823 34.8559 39.9706 34.947 39.8295H35.0273C35.1236 39.403 34.6034 39.0695 34.4076 38.6526C35.0497 38.4474 34.7287 37.8316 35.0979 37.4564C35.0128 37.4716 34.9254 37.4689 34.8414 37.4484C34.7573 37.428 34.6785 37.3903 34.6099 37.3378C34.7287 37.2544 34.2374 37.0492 34.7543 37.1037V37.1358C35.2649 37.1069 35.1461 36.9049 35.175 36.7573L34.5007 36.6772C35.5185 36.3565 34.2246 35.6125 35.1268 35.4778C34.9663 35.3688 34.9823 35.2501 34.8218 35.1571L35.1814 35.1956C35.3123 34.984 35.356 34.73 35.3034 34.4869L35.5571 34.5767C35.5988 34.4003 34.536 34.256 34.5296 34.07H35.0754C35.1011 33.7493 35.6116 33.4799 35.1557 33.1079C35.236 33.1079 35.3901 33.1496 35.4061 33.2041C35.435 33.0534 35.8332 32.6654 35.0851 32.6365C35.5667 32.6878 35.1685 32.3158 34.9791 32.117L35.3323 32.1843C34.8956 31.9855 34.7704 31.9663 34.6709 31.7482C34.7222 31.7065 34.9598 31.7482 34.8603 31.7931C35.0658 31.6552 34.5392 31.6263 34.7511 31.4564L34.9695 31.5558C35.0176 31.3954 34.8956 31.3922 34.6484 31.2672C34.5167 31.1453 34.7768 30.9657 35.0979 30.9817C34.9053 30.9368 34.6548 30.8118 34.7768 30.7252C34.8581 30.7259 34.9374 30.7504 35.0048 30.7957C35.2841 30.552 34.6484 30.3307 35.0048 30.1896C35.077 30.203 35.151 30.203 35.2231 30.1896C35.1846 30.4077 35.1396 30.5809 35.1172 30.5616C35.4383 30.6033 35.5249 30.4366 35.9584 30.6354C35.7304 30.4622 35.2263 30.148 35.4029 29.994H35.5217L35.5538 30.0165C35.5924 29.9812 35.5538 29.9395 35.5153 29.901C35.5763 29.8529 35.6213 29.8241 35.6341 29.7727C35.907 29.7888 35.8075 29.59 35.8332 29.5034C35.4736 29.4617 35.5442 29.3526 35.236 29.42C35.2649 29.42 35.2777 29.4424 35.2841 29.5034C35.2906 29.5643 35.2841 29.5354 35.3162 29.5483H35.2841C35.2841 29.6092 35.2841 29.6862 35.2841 29.7727C35.1107 29.6765 34.963 29.5835 35.1782 29.513C34.9566 29.436 34.7254 29.3526 34.6195 29.311C35.1332 29.2564 35.4383 29.064 35.7497 29.0769C35.5892 28.7786 35.7112 28.4355 35.0626 28.1565C34.9887 28.0667 35.2681 28.0988 35.3837 28.0859C35.4447 28.1404 35.4286 28.1918 35.5217 28.2302C35.3708 28.0507 35.5217 27.7652 35.0562 27.6594C35.3002 27.4991 35.4704 27.8326 35.4383 27.5568L35.5731 27.6145C36.4047 27.2137 34.5135 26.5787 35.5731 26.1554C35.5205 26.1885 35.4584 26.2032 35.3965 26.1971C35.9327 25.6134 35.2263 24.7732 36.0162 24.2473C36.1864 24.0869 35.891 24.0132 35.6951 23.8593L36.0836 23.8913L35.6791 23.6187C35.4094 23.2981 36.6969 23.3205 36.1575 22.8651H35.891C35.9648 22.7529 35.8171 22.445 36.1093 22.522C36.0644 22.4995 35.8492 22.429 35.9937 22.4097L36.1928 22.4418L35.9103 22.073C36.1029 21.8678 36.6937 22.2654 36.7997 21.9319C36.6444 21.7102 36.4177 21.5484 36.1575 21.4733C36.135 21.5246 36.0066 21.5824 35.8075 21.5439L35.7272 21.406C35.1429 21.2681 34.5617 21.0532 34.0961 21.2617L34.4172 21.5375H34.1186V21.3611C33.8328 21.406 34.0576 21.515 34.2053 21.6144C34.0979 21.598 33.9882 21.6057 33.8842 21.6369L34.4044 21.9576C34.17 21.9351 33.9645 21.778 33.8136 21.887C34.0544 22.0313 34.3466 21.887 34.4846 22.0859C34.1989 22.1307 33.9869 22.0602 34.1957 22.2173C34.0782 22.2224 33.9633 22.1822 33.8746 22.1051C34.0351 22.2398 33.897 22.3873 34.1957 22.4995C33.8425 22.538 34.2149 22.8555 33.6594 22.7401C33.7879 22.7978 34.064 23.003 34.0704 23.0992C33.4283 22.8042 33.9677 23.4392 33.2613 23.2628C33.836 23.5001 33.4443 23.7695 33.7333 24.0517C33.6883 24.0324 33.5984 23.9907 33.6305 23.9747C33.5599 24.0934 33.3705 24.0966 33.242 24.1575C33.7365 24.2601 33.8168 24.4782 34.1025 24.6353C33.5984 24.7059 33.5374 24.4397 33.0686 24.4076C33.4732 24.4718 33.425 24.7476 33.7686 24.754C33.5809 24.8179 33.3814 24.8398 33.1842 24.8181C33.8007 24.9464 33.2709 24.9464 33.637 25.1099C33.3159 25.2286 33.0462 25.0554 33.2035 25.2767C33.1194 25.2937 33.0321 25.2864 32.952 25.2557C32.8718 25.2251 32.802 25.1723 32.7508 25.1035ZM33.1425 29.7439V29.6477V29.7439ZM33.0975 30.1223C33.1197 30.0704 33.1327 30.0151 33.1361 29.9587C33.2613 29.9587 33.3865 29.994 33.3737 30.0325C33.2934 30.0004 33.2099 30.0774 33.0975 30.1223ZM35.6855 29.6669C35.7272 29.7343 35.6534 29.7439 35.5795 29.7407C35.5752 29.7031 35.5654 29.6664 35.5506 29.6316H35.5089L35.6855 29.6669Z" fill="#171717"/>
<path d="M35.2295 29.5034C35.2295 29.5034 35.2071 29.5034 35.2071 29.4778L35.1204 29.5002L35.2295 29.5355V29.5034Z" fill="#171717"/>
<path d="M49.7041 45.3422C49.7122 45.3575 49.7186 45.3737 49.7234 45.3903C49.7105 45.3679 49.7105 45.3551 49.7041 45.3422Z" fill="#171717"/>
<path d="M31.826 35.2598L31.9192 35.2694L31.8421 35.2277L31.826 35.2598Z" fill="#171717"/>
<path d="M51.8747 46.41C51.8797 46.4422 51.8917 46.4729 51.91 46.4998C51.9022 46.4685 51.8904 46.4383 51.8747 46.41Z" fill="#171717"/>
<path d="M52.7769 46.4133L52.915 46.5319C52.877 46.4839 52.8301 46.4436 52.7769 46.4133Z" fill="#171717"/>
<path d="M53.4833 46.5287C53.4867 46.4774 53.4867 46.426 53.4833 46.3748V46.5287Z" fill="#171717"/>
<path d="M42.5246 47.7056C42.5146 47.7099 42.5058 47.7165 42.4989 47.7249C42.4411 47.7986 42.4829 47.7826 42.5246 47.7056Z" fill="#171717"/>
<path d="M45.7515 46.6923C45.7255 46.7542 45.6932 46.8133 45.6552 46.8687C45.7162 46.8911 45.7612 46.8944 45.7515 46.6923Z" fill="#171717"/>
<path d="M45.5043 46.8686C45.5653 46.9392 45.6135 46.92 45.6552 46.8686C45.5942 46.8462 45.5493 46.8205 45.5043 46.8686Z" fill="#171717"/>
<path d="M56.4854 46.4036H56.5176V46.3459L56.4854 46.4036Z" fill="#171717"/>
<path d="M56.5111 46.3588L56.5432 46.3107C56.5336 46.3139 56.5111 46.3171 56.5111 46.3588Z" fill="#171717"/>
<path d="M56.6171 46.2145L56.5497 46.3107C56.5753 46.3107 56.6107 46.3171 56.6171 46.2145Z" fill="#171717"/>
<path d="M55.5479 46.3298V46.4613C55.5524 46.4176 55.5524 46.3735 55.5479 46.3298Z" fill="#171717"/>
<path d="M55.2814 46.394C55.352 46.4197 55.474 46.657 55.5607 46.5672V46.4613C55.5479 46.6602 55.3231 46.1791 55.2814 46.394Z" fill="#171717"/>
<path d="M53.9745 44.8964L54.2154 44.9798C54.164 44.8451 54.0933 44.6591 54.1929 44.6206C53.8654 44.2326 54.2828 44.9253 53.9745 44.8964Z" fill="#171717"/>
<path d="M53.2425 44.7617C53.3581 44.6847 53.22 44.5597 53.22 44.4795C53.1526 44.6142 53.1365 44.6462 53.2425 44.7617Z" fill="#171717"/>
<path d="M48.0666 45.1722V44.8516C47.9638 44.8965 48.0634 44.9734 48.0666 45.1722Z" fill="#171717"/>
<path d="M47.19 46.9296L47.296 47.1284L47.3216 46.8238L47.19 46.9296Z" fill="#171717"/>
<path d="M46.4515 44.6366L46.4901 44.5885L46.3391 44.7168L46.4515 44.6366Z" fill="#171717"/>
<path d="M37.7693 45.1498L37.8111 45.5539C37.8882 45.4801 37.8882 45.0247 37.7693 45.1498Z" fill="#171717"/>
<path d="M34.4814 45.634C34.552 45.4287 34.5874 45.3133 34.4429 45.4993C34.4653 45.5378 34.4332 45.6853 34.4814 45.634Z" fill="#171717"/>
<path d="M34.9727 36.5425L35.1011 36.6259L35.0016 36.4784L34.9727 36.5425Z" fill="#171717"/>
</g>
<defs>
<clipPath id="clip0">
<rect width="70" height="82" fill="white"/>
</clipPath>
</defs>
</svg>
