<svg width="83" height="13" viewBox="0 0 83 13" fill="none" xmlns="http://www.w3.org/2000/svg">
<path d="M8.53956 5.08873L9.01956 6.28873L9.30756 7.32073L10.7236 10.0327L10.7716 10.3927L11.0116 10.6087H11.8996H13.3396L13.5556 10.4887L13.8436 9.43273L14.0596 9.07273L14.9716 6.79273L15.7636 5.32873L16.0276 3.96073L16.4596 2.85673V2.25673L16.1236 2.20873H14.0596L13.0036 4.72873L12.2596 5.25673L11.8996 5.92873L11.5396 7.20073L10.4596 5.37673L9.13956 2.90473V2.25673L8.85156 2.20873H7.00356L5.89956 4.75273L5.75556 5.66473L5.13156 7.17673L4.41156 6.84073L3.30756 5.30473L2.10756 2.20873L1.91556 2.08873L0.979563 2.23273L0.931563 2.49673L2.20356 7.32073L3.64356 10.0327L3.69156 10.3927L3.90756 10.6087H4.81956H6.25956L6.47556 10.4887L6.76356 9.43273L6.95556 9.09673L7.89156 6.79273L8.53956 5.08873ZM27.9717 10.9447L27.8997 10.8487C27.8997 10.7687 27.8757 10.6967 27.8277 10.6327C27.7797 10.5527 27.7397 10.4647 27.7077 10.3687C27.6117 10.3687 27.5237 10.3927 27.4437 10.4407C27.3637 10.4727 27.2757 10.5127 27.1797 10.5607C27.0997 10.5927 26.9957 10.6327 26.8677 10.6807C26.7557 10.7127 26.6117 10.7287 26.4357 10.7287H26.3157C26.1237 10.7447 25.9557 10.7527 25.8117 10.7527C25.6677 10.7527 25.5317 10.7607 25.4037 10.7767C25.2757 10.7767 25.1477 10.7847 25.0197 10.8007C24.8917 10.8007 24.7397 10.8007 24.5637 10.8007C24.2597 10.7527 24.0597 10.7207 23.9637 10.7047C23.8837 10.6727 23.8437 10.6567 23.8437 10.6567C23.8437 10.6567 23.8517 10.6567 23.8677 10.6567C23.8837 10.6567 23.8597 10.6407 23.7957 10.6087C23.7797 10.6247 23.7637 10.6327 23.7477 10.6327C23.7317 10.6327 23.7157 10.6407 23.6997 10.6567C23.6997 10.6567 23.6837 10.6567 23.6517 10.6567C23.4757 10.5927 23.3317 10.5447 23.2197 10.5127C23.1237 10.4807 23.0757 10.4247 23.0757 10.3447C23.0757 10.2807 22.9957 10.1687 22.8357 10.0087C22.6917 9.84873 22.6197 9.66473 22.6197 9.45673C22.6197 9.21673 22.6437 8.91273 22.6917 8.54473C22.7397 8.16073 22.8357 7.85673 22.9797 7.63273C23.1077 7.55273 23.3317 7.46473 23.6517 7.36873C23.9717 7.25673 24.2917 7.20073 24.6117 7.20073C24.8037 7.20073 24.9477 7.23273 25.0437 7.29673C25.1557 7.34473 25.2437 7.40873 25.3077 7.48873C25.3717 7.56873 25.4037 7.65673 25.4037 7.75273C25.4197 7.83273 25.4277 7.91273 25.4277 7.99273C25.4277 8.10473 25.3877 8.18473 25.3077 8.23273C25.2277 8.28073 25.1317 8.31273 25.0197 8.32873C24.9077 8.34473 24.7957 8.35273 24.6837 8.35273C24.5717 8.35273 24.4757 8.36073 24.3957 8.37673C24.0757 8.47273 23.8117 8.53673 23.6037 8.56873C23.4117 8.60073 23.2997 8.61673 23.2677 8.61673C23.3477 8.64873 23.4037 8.71273 23.4357 8.80873C23.4677 8.90473 23.4917 9.00873 23.5077 9.12073C23.5237 9.21673 23.5317 9.31273 23.5317 9.40873C23.5317 9.48873 23.5397 9.52873 23.5557 9.52873C24.1157 9.52873 24.5797 9.50473 24.9477 9.45673C25.3157 9.40873 25.6197 9.35273 25.8597 9.28873C26.0997 9.20873 26.2917 9.14473 26.4357 9.09673C26.5797 9.03273 26.7237 8.99273 26.8677 8.97673C26.9317 8.81673 27.0037 8.72073 27.0837 8.68873C27.1637 8.64073 27.2517 8.56073 27.3477 8.44873C27.3157 8.22473 27.2597 8.00073 27.1797 7.77673C27.1157 7.53673 27.0437 7.32073 26.9637 7.12873C26.8837 6.92073 26.8037 6.74473 26.7237 6.60073C26.6597 6.45673 26.6277 6.36873 26.6277 6.33673C26.5157 6.33673 26.4197 6.31273 26.3397 6.26473C26.2757 6.21673 26.2197 6.16873 26.1717 6.12073C26.1397 6.07273 26.1157 6.02473 26.0997 5.97673C26.0837 5.92873 26.0677 5.90473 26.0517 5.90473C25.8757 5.90473 25.7397 5.86473 25.6437 5.78473C25.5797 5.75273 25.5317 5.71273 25.4997 5.66473C25.2437 5.66473 25.0437 5.63273 24.8997 5.56873C24.7557 5.50473 24.5957 5.47273 24.4197 5.47273C24.0197 5.61673 23.5877 5.72073 23.1237 5.78473C22.6757 5.84873 22.2757 5.98473 21.9237 6.19273C21.7317 6.35273 21.5557 6.50473 21.3957 6.64873C21.2357 6.79273 21.0917 6.95273 20.9637 7.12873C20.8357 7.30473 20.6997 7.49673 20.5557 7.70473C20.4117 7.91273 20.2677 8.16073 20.1237 8.44873C20.0437 8.57673 19.9877 8.70473 19.9557 8.83273C19.9397 8.96073 19.9237 9.08873 19.9077 9.21673C19.9077 9.45673 19.9157 9.69673 19.9317 9.93673C19.9637 10.1607 20.0757 10.4167 20.2677 10.7047C20.3477 10.7687 20.4117 10.8407 20.4597 10.9207C20.5237 11.0007 20.5557 11.0407 20.5557 11.0407L20.6997 11.1607C20.7317 11.1607 20.7557 11.2087 20.7717 11.3047C20.8037 11.3847 20.8277 11.4247 20.8437 11.4247H21.2757C21.4677 11.5367 21.6197 11.6327 21.7317 11.7127C21.8437 11.7767 21.9477 11.8247 22.0437 11.8567C22.1397 11.8727 22.2437 11.8887 22.3557 11.9047C22.4677 11.9207 22.6117 11.9287 22.7877 11.9287C22.8837 11.9287 22.9797 11.9287 23.0757 11.9287C23.1877 11.9127 23.2997 11.9047 23.4117 11.9047C23.5077 11.9047 23.6117 11.9047 23.7237 11.9047C23.8357 11.9047 23.9717 11.9207 24.1317 11.9527C24.4837 11.9527 24.7717 11.9367 24.9957 11.9047C25.2357 11.8567 25.4677 11.8007 25.6917 11.7367C25.9317 11.6727 26.1797 11.6167 26.4357 11.5687C26.7077 11.5207 27.0357 11.4887 27.4197 11.4727C27.5157 11.4407 27.6277 11.3687 27.7557 11.2567C27.8997 11.1287 27.9717 11.0487 27.9717 11.0167C27.9717 10.9687 27.9317 10.9447 27.8517 10.9447H27.9717ZM30.6689 3.40873C30.7809 3.40873 30.8769 3.45673 30.9569 3.55273C31.0529 3.64873 31.1329 3.76073 31.1969 3.88873C31.2769 4.01673 31.3489 4.12873 31.4129 4.22473C31.4769 4.32073 31.5329 4.36873 31.5809 4.36873C31.7409 4.33673 31.9809 4.27273 32.3009 4.17673C32.6369 4.06473 32.9969 3.95273 33.3809 3.84073C33.7809 3.72873 34.1649 3.63273 34.5329 3.55273C34.9169 3.47273 35.2289 3.43273 35.4689 3.43273C35.5969 3.43273 35.6849 3.45673 35.7329 3.50473C35.7969 3.55273 35.8369 3.60873 35.8529 3.67273C35.8689 3.73673 35.8849 3.80073 35.9009 3.86473C35.9329 3.91273 35.9889 3.95273 36.0689 3.98473C36.1009 4.03273 36.1489 4.08073 36.2129 4.12873C36.2769 4.16073 36.3089 4.22473 36.3089 4.32073C36.2289 4.51273 36.1809 4.69673 36.1649 4.87273C36.1489 5.03273 36.1409 5.18473 36.1409 5.32873V5.47273L35.4449 5.52073C35.3329 5.53673 35.2209 5.55273 35.1089 5.56873C34.9969 5.56873 34.8689 5.56873 34.7249 5.56873L34.0049 5.97673C33.7969 5.97673 33.6209 6.00073 33.4769 6.04873C33.3329 6.08073 33.1809 6.13673 33.0209 6.21673C32.8769 6.28073 32.7089 6.35273 32.5169 6.43273C32.3249 6.51273 32.0689 6.59273 31.7489 6.67273C30.9809 7.05673 30.4049 7.52073 30.0209 8.06473C29.6529 8.60873 29.4689 9.28073 29.4689 10.0807C29.4689 10.3367 29.5569 10.5927 29.7329 10.8487C29.9089 11.0887 30.1249 11.3127 30.3809 11.5207C30.6369 11.7127 30.9009 11.8727 31.1729 12.0007C31.4449 12.1127 31.6849 12.1687 31.8929 12.1687C32.1329 12.1687 32.3569 12.1687 32.5649 12.1687C32.7729 12.1847 32.9809 12.1927 33.1889 12.1927H34.5089H34.5329C34.5649 12.1927 34.5889 12.1687 34.6049 12.1207C34.6369 12.0887 34.6689 12.0487 34.7009 12.0007C34.7489 11.9367 34.8209 11.8887 34.9169 11.8567C35.0289 11.8087 35.1809 11.7847 35.3729 11.7847C35.5809 11.7847 35.7969 11.8487 36.0209 11.9767C36.2449 12.0887 36.4369 12.1447 36.5969 12.1447C36.7249 12.1447 36.8449 12.1367 36.9569 12.1207C37.0689 12.1047 37.1809 12.0807 37.2929 12.0487C37.4209 12.0167 37.5649 11.9927 37.7249 11.9767C37.8849 11.9447 38.0689 11.9287 38.2769 11.9287C38.3249 12.0087 38.4129 12.0807 38.5409 12.1447H38.8769C38.8929 12.0647 38.9249 11.9927 38.9729 11.9287C39.0209 11.8487 39.0769 11.7447 39.1409 11.6167C39.1249 11.2487 39.1009 10.9207 39.0689 10.6327C39.0529 10.3447 39.0369 10.0727 39.0209 9.81673C39.0209 9.54473 39.0129 9.26473 38.9969 8.97673C38.9969 8.68873 38.9889 8.36073 38.9729 7.99273H39.0449C39.0609 7.97673 39.0769 7.96873 39.0929 7.96873C39.0449 7.96873 39.0049 7.90473 38.9729 7.77673C38.9409 7.64873 38.9169 7.52073 38.9009 7.39273C38.8849 7.24873 38.8689 7.12073 38.8529 7.00873C38.8529 6.88073 38.8529 6.81673 38.8529 6.81673C38.8369 6.68873 38.8049 6.59273 38.7569 6.52873C38.7249 6.44873 38.6849 6.36073 38.6369 6.26473C38.6049 6.15273 38.5649 6.00073 38.5169 5.80873C38.4849 5.61673 38.4609 5.30473 38.4449 4.87273C38.3969 4.84073 38.3569 4.74473 38.3249 4.58473C38.2929 4.42473 38.2609 4.25673 38.2289 4.08073C38.2129 3.88873 38.1969 3.71273 38.1809 3.55273C38.1809 3.37673 38.1729 3.27273 38.1569 3.24073H38.1089C37.9809 3.24073 37.8769 3.16873 37.7969 3.02473C37.7169 2.88073 37.6449 2.72073 37.5809 2.54473C37.5169 2.36873 37.4609 2.21673 37.4129 2.08873C37.3649 1.94473 37.3089 1.87273 37.2449 1.87273C37.2129 1.84073 37.1809 1.80873 37.1489 1.77673C37.1169 1.72873 37.0849 1.68873 37.0529 1.65673H36.6689C36.5089 1.65673 36.3729 1.65673 36.2609 1.65673C36.1649 1.65673 36.0689 1.65673 35.9729 1.65673C35.8929 1.65673 35.8049 1.64873 35.7089 1.63273C35.6129 1.61673 35.4929 1.59273 35.3489 1.56073C35.3329 1.64073 35.2369 1.69673 35.0609 1.72873C34.9009 1.74473 34.7169 1.75273 34.5089 1.75273C34.3169 1.75273 34.1329 1.75273 33.9569 1.75273C33.7969 1.75273 33.7089 1.77673 33.6929 1.82473C33.2609 1.96873 32.8689 2.08873 32.5169 2.18473C32.1649 2.28073 31.8689 2.38473 31.6289 2.49673C31.3889 2.59273 31.1889 2.71273 31.0289 2.85673C30.8689 2.98473 30.7489 3.16873 30.6689 3.40873ZM35.8769 7.44073V8.66473C35.7969 8.92073 35.7489 9.18473 35.7329 9.45673C35.7169 9.72873 35.7089 9.92873 35.7089 10.0567V10.2487H35.3729C35.0529 10.2807 34.7569 10.3047 34.4849 10.3207C34.2129 10.3367 33.9489 10.3527 33.6929 10.3687L32.0129 10.4647C31.9009 10.2727 31.8049 10.1207 31.7249 10.0087C31.6609 9.89673 31.6289 9.72873 31.6289 9.50473C31.6289 9.05673 31.6849 8.70473 31.7969 8.44873C31.9249 8.19273 32.0929 8.00073 32.3009 7.87273C32.5249 7.72873 32.7809 7.62473 33.0689 7.56073C33.3569 7.49673 33.6609 7.42473 33.9809 7.34473C34.1409 7.29673 34.2849 7.25673 34.4129 7.22473C34.5569 7.19273 34.6929 7.17673 34.8209 7.17673H34.9169C35.0769 7.22473 35.2369 7.27273 35.3969 7.32073C35.5729 7.36873 35.7329 7.40873 35.8769 7.44073ZM47.2116 6.38473L47.8356 6.36073C47.9156 6.39273 47.9876 6.41673 48.0516 6.43273C48.1156 6.44873 48.2036 6.45673 48.3156 6.45673C48.3796 6.45673 48.4436 6.44873 48.5076 6.43273C48.5876 6.41673 48.6596 6.40073 48.7236 6.38473C48.8036 6.36873 48.8996 6.36073 49.0116 6.36073C49.1396 6.34473 49.2996 6.33673 49.4916 6.33673C49.5556 6.33673 49.6116 6.34473 49.6596 6.36073C49.7236 6.36073 49.7716 6.36073 49.8036 6.36073C49.8196 6.36073 49.8356 6.36073 49.8516 6.36073C49.8836 6.36073 49.9476 6.32873 50.0436 6.26473C49.9636 6.26473 49.9236 6.20873 49.9236 6.09673C49.9236 6.08073 49.9316 6.03273 49.9476 5.95273C49.9636 5.87273 49.9716 5.81673 49.9716 5.78473C49.9556 5.78473 49.9476 5.74473 49.9476 5.66473C49.9476 5.60073 49.9636 5.55273 49.9956 5.52073C49.8836 5.44073 49.8276 5.36073 49.8276 5.28073C49.8276 5.18473 49.7956 5.08873 49.7316 4.99273C49.6356 5.02473 49.5636 5.04073 49.5156 5.04073C49.4036 5.04073 49.3236 5.04073 49.2756 5.04073C49.2436 5.02473 49.2036 5.00873 49.1556 4.99273C49.1076 4.97673 49.0196 4.96873 48.8916 4.96873C48.7796 4.95273 48.5876 4.93673 48.3156 4.92073C48.1236 4.90473 47.8916 4.88873 47.6196 4.87273C47.3476 4.85673 47.0516 4.83273 46.7316 4.80073L46.4916 2.13673L46.2756 1.82473L44.6916 1.96873L44.3076 2.52073L44.2356 4.68073C44.0116 4.68073 43.7956 4.68073 43.5876 4.68073C43.3796 4.66473 43.1796 4.65673 42.9876 4.65673C42.8276 4.70473 42.7396 4.72873 42.7236 4.72873C42.5796 4.72873 42.4516 4.72873 42.3396 4.72873C42.2276 4.72873 42.1156 4.71273 42.0036 4.68073H41.6196L41.2596 4.99273C41.2596 5.12073 41.2596 5.26473 41.2596 5.42473C41.2596 5.58473 41.2676 5.74473 41.2836 5.90473C41.3156 6.06473 41.3556 6.20873 41.4036 6.33673C41.4516 6.44873 41.5156 6.52073 41.5956 6.55273L41.7876 6.72073C41.9476 6.72073 42.0676 6.72073 42.1476 6.72073C42.2276 6.70473 42.3716 6.68073 42.5796 6.64873C42.5956 6.61673 42.6676 6.60073 42.7956 6.60073C42.8916 6.60073 42.9876 6.60873 43.0836 6.62473C43.1956 6.64073 43.2676 6.65673 43.2996 6.67273C43.3476 6.67273 43.3956 6.67273 43.4436 6.67273C43.5076 6.65673 43.5716 6.64873 43.6356 6.64873L43.9716 6.62473L43.8756 7.10473V10.2247L43.9716 11.5927L44.2356 12.1447L44.8356 12.0487L46.8036 12.1927L48.1476 12.0007C48.2436 11.7287 48.2916 11.4567 48.2916 11.1847C48.2916 10.9127 48.2436 10.6247 48.1476 10.3207L47.2116 9.81673V6.38473ZM60.139 5.47273C60.043 5.44073 59.955 5.40873 59.875 5.37673C59.795 5.34473 59.715 5.32073 59.635 5.30473L59.131 5.13673H56.155L56.059 4.92073V0.816732L54.715 0.672732L54.259 0.864732L53.899 4.68073L53.587 5.88073L53.179 10.5367L53.395 11.7367H55.651L56.251 11.5927V6.50473L56.731 6.43273L57.955 6.36073C58.147 6.40873 58.307 6.48073 58.435 6.57673C58.579 6.67273 58.691 6.77673 58.771 6.88873C58.851 7.00073 58.907 7.10473 58.939 7.20073C58.987 7.29673 59.019 7.37673 59.035 7.44073C59.067 7.53673 59.107 7.62473 59.155 7.70473C59.203 7.76873 59.227 7.86473 59.227 7.99273C59.227 8.05673 59.227 8.13673 59.227 8.23273C59.227 8.31273 59.219 8.42473 59.203 8.56873L59.323 8.59273L59.203 9.00073V10.6807L59.059 11.1847L59.275 11.8087H60.259L60.883 11.9287L62.035 11.3287V10.5607L62.059 10.2487L61.579 6.88873C61.371 6.76073 61.211 6.63273 61.099 6.50473C61.003 6.36073 60.907 6.22473 60.811 6.09673C60.731 5.95273 60.643 5.82473 60.547 5.71273C60.451 5.60073 60.315 5.52073 60.139 5.47273ZM72.5967 10.9447L72.5247 10.8487C72.5247 10.7687 72.5007 10.6967 72.4527 10.6327C72.4047 10.5527 72.3647 10.4647 72.3327 10.3687C72.2367 10.3687 72.1487 10.3927 72.0687 10.4407C71.9887 10.4727 71.9007 10.5127 71.8047 10.5607C71.7247 10.5927 71.6207 10.6327 71.4927 10.6807C71.3807 10.7127 71.2367 10.7287 71.0607 10.7287H70.9407C70.7487 10.7447 70.5807 10.7527 70.4367 10.7527C70.2927 10.7527 70.1567 10.7607 70.0287 10.7767C69.9007 10.7767 69.7727 10.7847 69.6447 10.8007C69.5167 10.8007 69.3647 10.8007 69.1887 10.8007C68.8847 10.7527 68.6847 10.7207 68.5887 10.7047C68.5087 10.6727 68.4687 10.6567 68.4687 10.6567C68.4687 10.6567 68.4767 10.6567 68.4927 10.6567C68.5087 10.6567 68.4847 10.6407 68.4207 10.6087C68.4047 10.6247 68.3887 10.6327 68.3727 10.6327C68.3567 10.6327 68.3407 10.6407 68.3247 10.6567C68.3247 10.6567 68.3087 10.6567 68.2767 10.6567C68.1007 10.5927 67.9567 10.5447 67.8447 10.5127C67.7487 10.4807 67.7007 10.4247 67.7007 10.3447C67.7007 10.2807 67.6207 10.1687 67.4607 10.0087C67.3167 9.84873 67.2447 9.66473 67.2447 9.45673C67.2447 9.21673 67.2687 8.91273 67.3167 8.54473C67.3647 8.16073 67.4607 7.85673 67.6047 7.63273C67.7327 7.55273 67.9567 7.46473 68.2767 7.36873C68.5967 7.25673 68.9167 7.20073 69.2367 7.20073C69.4287 7.20073 69.5727 7.23273 69.6687 7.29673C69.7807 7.34473 69.8687 7.40873 69.9327 7.48873C69.9967 7.56873 70.0287 7.65673 70.0287 7.75273C70.0447 7.83273 70.0527 7.91273 70.0527 7.99273C70.0527 8.10473 70.0127 8.18473 69.9327 8.23273C69.8527 8.28073 69.7567 8.31273 69.6447 8.32873C69.5327 8.34473 69.4207 8.35273 69.3087 8.35273C69.1967 8.35273 69.1007 8.36073 69.0207 8.37673C68.7007 8.47273 68.4367 8.53673 68.2287 8.56873C68.0367 8.60073 67.9247 8.61673 67.8927 8.61673C67.9727 8.64873 68.0287 8.71273 68.0607 8.80873C68.0927 8.90473 68.1167 9.00873 68.1327 9.12073C68.1487 9.21673 68.1567 9.31273 68.1567 9.40873C68.1567 9.48873 68.1647 9.52873 68.1807 9.52873C68.7407 9.52873 69.2047 9.50473 69.5727 9.45673C69.9407 9.40873 70.2447 9.35273 70.4847 9.28873C70.7247 9.20873 70.9167 9.14473 71.0607 9.09673C71.2047 9.03273 71.3487 8.99273 71.4927 8.97673C71.5567 8.81673 71.6287 8.72073 71.7087 8.68873C71.7887 8.64073 71.8767 8.56073 71.9727 8.44873C71.9407 8.22473 71.8847 8.00073 71.8047 7.77673C71.7407 7.53673 71.6687 7.32073 71.5887 7.12873C71.5087 6.92073 71.4287 6.74473 71.3487 6.60073C71.2847 6.45673 71.2527 6.36873 71.2527 6.33673C71.1407 6.33673 71.0447 6.31273 70.9647 6.26473C70.9007 6.21673 70.8447 6.16873 70.7967 6.12073C70.7647 6.07273 70.7407 6.02473 70.7247 5.97673C70.7087 5.92873 70.6927 5.90473 70.6767 5.90473C70.5007 5.90473 70.3647 5.86473 70.2687 5.78473C70.2047 5.75273 70.1567 5.71273 70.1247 5.66473C69.8687 5.66473 69.6687 5.63273 69.5247 5.56873C69.3807 5.50473 69.2207 5.47273 69.0447 5.47273C68.6447 5.61673 68.2127 5.72073 67.7487 5.78473C67.3007 5.84873 66.9007 5.98473 66.5487 6.19273C66.3567 6.35273 66.1807 6.50473 66.0207 6.64873C65.8607 6.79273 65.7167 6.95273 65.5887 7.12873C65.4607 7.30473 65.3247 7.49673 65.1807 7.70473C65.0367 7.91273 64.8927 8.16073 64.7487 8.44873C64.6687 8.57673 64.6127 8.70473 64.5807 8.83273C64.5647 8.96073 64.5487 9.08873 64.5327 9.21673C64.5327 9.45673 64.5407 9.69673 64.5567 9.93673C64.5887 10.1607 64.7007 10.4167 64.8927 10.7047C64.9727 10.7687 65.0367 10.8407 65.0847 10.9207C65.1487 11.0007 65.1807 11.0407 65.1807 11.0407L65.3247 11.1607C65.3567 11.1607 65.3807 11.2087 65.3967 11.3047C65.4287 11.3847 65.4527 11.4247 65.4687 11.4247H65.9007C66.0927 11.5367 66.2447 11.6327 66.3567 11.7127C66.4687 11.7767 66.5727 11.8247 66.6687 11.8567C66.7647 11.8727 66.8687 11.8887 66.9807 11.9047C67.0927 11.9207 67.2367 11.9287 67.4127 11.9287C67.5087 11.9287 67.6047 11.9287 67.7007 11.9287C67.8127 11.9127 67.9247 11.9047 68.0367 11.9047C68.1327 11.9047 68.2367 11.9047 68.3487 11.9047C68.4607 11.9047 68.5967 11.9207 68.7567 11.9527C69.1087 11.9527 69.3967 11.9367 69.6207 11.9047C69.8607 11.8567 70.0927 11.8007 70.3167 11.7367C70.5567 11.6727 70.8047 11.6167 71.0607 11.5687C71.3327 11.5207 71.6607 11.4887 72.0447 11.4727C72.1407 11.4407 72.2527 11.3687 72.3807 11.2567C72.5247 11.1287 72.5967 11.0487 72.5967 11.0167C72.5967 10.9687 72.5567 10.9447 72.4767 10.9447H72.5967ZM82.3979 4.17673L81.4859 2.73673L81.1739 2.83273L79.5659 4.12873L78.8459 5.37673L78.3419 5.85673V4.20073L77.6939 2.80873H76.3019L75.9179 3.24073V9.38473L75.7979 9.64873L75.8459 10.2727L78.4859 10.0567L78.8939 9.81673V9.33673L79.0139 8.56873L78.8939 7.29673C79.0059 7.21673 79.0939 7.12073 79.1579 7.00873C79.2379 6.89673 79.3179 6.78473 79.3979 6.67273C79.4939 6.56073 79.5979 6.44073 79.7099 6.31273C79.8379 6.16873 79.9899 6.03273 80.1659 5.90473L81.2699 5.06473C81.4459 4.93673 81.6219 4.80073 81.7979 4.65673C81.9899 4.51273 82.1899 4.35273 82.3979 4.17673Z" fill="#171717"/>
</svg>
